<?xml version="1.0" encoding="utf-8"?>
<!-- Generator: Adobe Illustrator 16.0.3, SVG Export Plug-In . SVG Version: 6.00 Build 0)  -->
<!DOCTYPE svg PUBLIC "-//W3C//DTD SVG 1.1//EN" "http://www.w3.org/Graphics/SVG/1.1/DTD/svg11.dtd">
<svg version="1.1" id="Layer_1" xmlns="http://www.w3.org/2000/svg" xmlns:xlink="http://www.w3.org/1999/xlink" x="0px" y="0px"
	 width="488.863px" height="314.127px" viewBox="0 0 488.863 314.127" enable-background="new 0 0 488.863 314.127"
	 xml:space="preserve">
<g id="Mascot">
	<path id="Outline" fill="#414042" d="M227.021,224.998c-4.832,0-9.683-1.496-14.424-4.448c-3.141-1.154-20.91-8.856-28.913-37.708
		c-2.079-7.493-5.484-7.493-6.767-7.493c-8.152,0-21.509,12.676-31.261,21.931c-5.141,4.879-9.59,9.103-12.867,11.184
		c-1.712,1.301-17.577,13.075-30.448,13.075c-3.761,0-6.998-0.983-9.621-2.921c-6.147-4.544-9.676-11.321-9.682-18.595
		c-0.007-8.848,4.881-17.348,13.764-23.937c2.467-1.831,5.496-3.835,8.702-5.957c18.291-12.104,43.341-28.682,36.545-55.464
		c-2.419-9.534-10.099-29.706-10.176-29.91l-0.043-0.12c-1.881-5.573-3.197-10.63-4.021-15.461
		c-1.023-6.692-3.287-29.746,10.162-47.812c8.641-11.607,21.982-18.75,39.655-21.226l0.323-0.03C179.693,0.036,181.423,0,183.09,0
		c44.326,0,50.114,24.616,52.585,35.127c0.248,1.056,0.463,1.967,0.666,2.624c3.382,10.963-1.314,42.744-1.86,46.332l-0.424,2.778
		h-0.211c-0.722,6.187-1.621,12.515-2.678,18.854c-4.931,29.596,4.802,36.55,13.387,42.684c1.537,1.1,2.99,2.138,4.373,3.29
		c2.437,2.03,8.114,5.196,14.688,8.864c17.465,9.746,41.386,23.09,44.615,36.812c1.33,5.65-0.12,11.682-3.977,16.55
		c-4.136,5.223-10.412,8.218-17.219,8.22c-0.001,0-0.002,0-0.003,0c-7.224-0.003-21.479-3.561-35.788-27.376
		c-14.554-24.22-22.278-25.446-23.68-25.446c-0.508,0-0.833,0.125-0.965,0.373c-0.119,0.222-0.079,0.459-0.044,0.512
		c4.613,1.294,18.403,13.535,22.545,26.131c2.419,7.354,1.447,14.14-2.812,19.622C245.919,216.401,238.644,224.998,227.021,224.998z
		 M176.917,168.806c4.408,0,10.253,2.132,13.07,12.286c7.668,27.645,24.845,33.316,25.017,33.371l0.415,0.13l0.365,0.232
		c3.779,2.409,7.56,3.63,11.236,3.63c8.177,0,13.702-6.071,14.15-6.579c2.78-3.619,3.41-7.823,1.921-12.851
		c-3.269-11.045-15.706-21.636-18.301-22.538c-3.21-0.903-5.218-4.049-4.744-7.469c0.508-3.68,3.601-6.249,7.519-6.249
		c7.909,0,18.036,9.896,29.287,28.618c12.651,21.057,24.34,24.201,30.181,24.204c0.001,0,0.002,0,0.003,0
		c4.796,0,9.203-2.092,12.092-5.739c2.569-3.243,3.592-7.352,2.735-10.989c-2.568-10.913-25.958-23.963-41.435-32.598
		c-7.144-3.984-12.783-7.132-15.689-9.553c-1.196-0.996-2.552-1.965-3.988-2.992c-9.131-6.522-21.638-15.46-16.034-49.082
		c1.202-7.218,2.197-14.419,2.954-21.402l0.318-2.917h0.427c1.521-10.93,3.948-33.267,1.674-40.64
		c-0.27-0.87-0.507-1.883-0.783-3.055c-2.295-9.764-7.072-30.083-46.217-30.083c-1.528,0-3.113,0.031-4.717,0.094
		c-15.796,2.247-27.623,8.514-35.155,18.632c-11.935,16.033-9.869,36.86-8.952,42.862c0.754,4.417,1.981,9.132,3.742,14.354
		c0.557,1.463,7.913,20.84,10.382,30.572c7.938,31.282-20.474,50.086-39.275,62.528c-3.131,2.07-6.088,4.027-8.415,5.754
		c-7.176,5.324-11.125,11.957-11.12,18.678c0.004,5.255,2.5,9.992,7.029,13.339c1.494,1.104,3.369,1.642,5.732,1.642
		c9.235,0,22.32-8.527,26.583-11.814l0.267-0.185c2.727-1.699,7.212-5.956,11.961-10.465
		C152.292,181.963,166.156,168.806,176.917,168.806z"/>
	<path id="Body" fill="#A7A9AC" d="M305.047,198.115c-4.086-17.363-49.021-36.254-58.214-43.913
		c-9.189-7.662-25.017-12.257-18.891-49.025c1.265-7.585,2.241-14.775,2.981-21.586h0.322c0,0,5.228-34.312,1.968-44.875
		c-2.453-7.955-3.877-37.404-55.135-35.341c-51.032,7.155-49.006,52.425-47.046,65.251c0.891,5.222,2.138,10.447,3.896,14.965
		c0,0,7.799,20.454,10.291,30.27c8.682,34.213-30.639,53.104-46.468,64.853c-15.832,11.743-15.832,28.592-4.086,37.273
		s36.256-10.212,36.256-10.212c12.233-7.625,47.682-53.489,55.914-23.808c8.233,29.68,27.191,35.618,27.191,35.618
		c17.426,11.106,29.68-3.641,29.68-3.641c12.641-16.275-13.346-39.283-17.999-40.596c-7.469-2.104,2.107-23.935,28.342,19.726
		C280.282,236.731,309.134,215.477,305.047,198.115z"/>
	<radialGradient id="Light_on_body_1_" cx="225.3296" cy="23.0068" r="109.292" gradientUnits="userSpaceOnUse">
		<stop  offset="0" style="stop-color:#EDEDEE"/>
		<stop  offset="1" style="stop-color:#FFFFFF;stop-opacity:0"/>
	</radialGradient>
	<path id="Light_on_body" opacity="0.3" fill="url(#Light_on_body_1_)" d="M305.047,198.115
		c-4.086-17.363-49.021-36.254-58.214-43.913c-9.189-7.662-25.017-12.257-18.891-49.025c1.265-7.585,2.241-14.775,2.981-21.586
		h0.322c0,0,5.228-34.312,1.968-44.875c-2.453-7.955-3.877-37.404-55.135-35.341c-51.032,7.155-49.006,52.425-47.046,65.251
		c0.891,5.222,2.138,10.447,3.896,14.965c0,0,7.799,20.454,10.291,30.27c8.682,34.213-30.639,53.104-46.468,64.853
		c-15.832,11.743-15.832,28.592-4.086,37.273s36.256-10.212,36.256-10.212c12.233-7.625,47.682-53.489,55.914-23.808
		c8.233,29.68,27.191,35.618,27.191,35.618c17.426,11.106,29.68-3.641,29.68-3.641c12.641-16.275-13.346-39.283-17.999-40.596
		c-7.469-2.104,2.107-23.935,28.342,19.726C280.282,236.731,309.134,215.477,305.047,198.115z"/>
	<path id="smile_3_" fill="#414042" d="M177.998,90.503c3.226,3.415,6.994,6.679,10.92,9.48c3.952,2.797,8.202,5.225,12.77,6.684
		c4.531,1.457,9.519,1.812,14.014-0.002c4.511-1.766,8.124-5.534,10.729-9.78c-2.176,4.47-5.42,8.716-10.109,11.132
		c-2.315,1.206-4.915,1.905-7.543,2.107c-2.63,0.211-5.277-0.042-7.838-0.579c-5.134-1.096-9.928-3.25-14.417-5.798
		c-4.501-2.598-8.671-5.516-12.694-9.004c-1.243-1.076-1.378-2.958-0.3-4.2c1.078-1.245,2.958-1.378,4.202-0.3
		c0.074,0.062,0.146,0.13,0.212,0.202L177.998,90.503z"/>
	<g id="Shadows">
		<path id="Right_Leg_shadow" opacity="0.45" d="M303.708,207.149c-1.018,0.36-1.907,0.622-2.623,0.762
			c-0.023,0.007-2.587,0.681-6.698,0.681c-8.59,0-25.23-2.98-40.13-22.9c-0.52-0.837-12.878-20.522-25.246-20.522
			c-0.452,0-0.903,0.023-1.342,0.077c0,0-2.628,0.812-2.804,1.552c-0.015,0.056,0.001,0.106,0.016,0.155
			c3.708-2.481,13.429,0.246,29.085,26.305c21.916,36.47,45.655,27.64,50.495,13.622L303.708,207.149z"/>
		<path id="Middle_Leg_shadow" opacity="0.45" d="M214.027,217.584c6.296,4.01,11.911,4.639,16.52,3.818
			c-6.01-0.882-13.223-5.312-22.717-24.854c-10.631-21.886-22.019-25.486-29.982-24.42c3.973,0.376,7.155,3.231,8.988,9.838
			C195.069,211.646,214.027,217.584,214.027,217.584z"/>
		<path id="Left_Leg_shadow_and_body_shadow" opacity="0.45" d="M111.939,209.673c-11.498-4.487-11.81-15.266-9.936-21.986
			c4.385-15.725,56.719-40.782,51.764-85.078c-2.529-22.607-28.855-70.864-0.254-90.993l0.001,0
			c-25.658,15.641-24.052,46.734-22.481,57.01c0.891,5.222,2.138,10.447,3.896,14.965c0,0,7.799,20.454,10.291,30.27
			c8.682,34.213-30.639,53.104-46.468,64.853c-15.832,11.743-15.832,28.592-4.086,37.273s36.256-10.212,36.256-10.212
			c7.806-4.866,25.064-25.298,38.673-31.739C155.101,177.635,123.437,214.161,111.939,209.673z"/>
		<path id="tie_shadow_3_" opacity="0.45" d="M204.071,150.831l6.054-15.019c0.268-0.941-0.679-1.772-2.07-1.877l-17.276-0.463
			c-1.392-0.109-2.025,1.095-1.375,2.637l9.604,13.89c0.578,8.187,2.809,27.087,11.371,43.472l22.903,10.601l-0.199-11.696
			C233.082,192.375,206.368,175.176,204.071,150.831z"/>
	</g>
	<path id="tie" fill="#414042" d="M235.127,191.775l-1.847,12.296l-19.997-11.199c-8.238-16.384-10.385-35.285-10.942-43.472
		l-9.236-13.893c-0.625-1.54-0.019-2.743,1.321-2.637l16.622,0.465c1.336,0.103,2.246,0.934,1.99,1.877l-5.821,15.012
		C209.425,174.574,235.127,191.775,235.127,191.775z"/>
	<g id="eye_8_">
		<path fill="#DCDDDE" d="M226.391,60.968c0,8.693-4.331,15.737-9.673,15.737c-5.341,0-8.398-6.909-8.398-15.602
			c0-8.69,3.058-15.871,8.398-15.871C222.06,45.231,226.391,52.277,226.391,60.968z"/>
		<path fill="#58595B" d="M220.956,61.802c0,8.691,1.226,15.397-4.237,14.903c-5.318-0.479-10.508-6.909-10.508-15.602
			c0-8.69,5.167-15.871,10.508-15.871C219.109,45.231,220.956,53.111,220.956,61.802z"/>
		<ellipse cx="216.371" cy="61.103" rx="8.051" ry="15.602"/>
		<path fill="#DCDDDE" d="M221.248,50.598c1.086,2.012,1.045,4.133-0.084,4.741c-1.13,0.609-2.922-0.527-4.005-2.537
			s-1.045-4.13,0.085-4.741C218.373,47.455,220.167,48.588,221.248,50.598z"/>
		<path fill="#C7C8CA" d="M211.048,69.162c0,0,2.938,8.853,7.619,5.508C223.347,71.324,216.478,78.086,211.048,69.162z"/>
	</g>
	<g id="eye_7_">
		<path fill="#DCDDDE" d="M204.988,59.135c0,9.248-4.606,16.74-10.29,16.74c-5.68,0-8.934-7.35-8.934-16.596
			c0-9.246,3.254-16.884,8.934-16.884C200.381,42.395,204.988,49.889,204.988,59.135z"/>
		<path fill="#58595B" d="M199.208,60.022c0,9.246,1.303,16.38-4.51,15.853c-5.657-0.509-11.179-7.348-11.179-16.596
			c0-9.246,5.499-16.884,11.179-16.884C197.243,42.395,199.208,50.776,199.208,60.022z"/>
		<ellipse cx="194.329" cy="59.279" rx="8.565" ry="16.596"/>
		
			<ellipse transform="matrix(0.8806 -0.4739 0.4739 0.8806 0.2144 99.4023)" fill="#DCDDDE" cx="197.342" cy="49.276" rx="2.471" ry="4.396"/>
		<path fill="#C7C8CA" d="M188.115,66.532c0,0,3.311,9.973,8.583,6.203C201.971,68.966,194.232,76.583,188.115,66.532z"/>
	</g>
</g>
<path id="Logotype" d="M42.729,218.275c2.508,0,3.761,1.113,4.458,3.483L73.1,309.53c0.697,2.229-0.138,3.482-2.506,3.482H58.055
	c-2.366,0-3.344-1.254-4.039-3.482l-4.876-17H23.227l-4.878,17c-0.697,2.229-1.671,3.482-4.179,3.482H2.884
	c-2.508,0-3.345-1.254-2.647-3.482l26.054-87.771c0.695-2.37,1.811-3.483,4.318-3.483H42.729z M40.361,262.161
	c-1.811-5.713-3.902-23.544-4.04-25.356c-0.279,1.812-2.647,19.365-4.32,25.217l-4.736,15.604H44.96L40.361,262.161z M95.53,243.632
	c2.508,0,3.204,0.974,3.345,3.342l0.139,3.345c3.763-3.205,10.31-7.802,21.595-7.802c8.637,0,14.906,3.621,17.831,9.333
	c3.345-3.064,10.173-9.333,23.268-9.333c12.819,0,20.199,7.802,20.199,18.668v48.204c0,2.508-0.974,3.623-3.342,3.623H167.14
	c-2.507,0-3.482-1.115-3.482-3.623v-43.607c0-5.016-1.672-7.384-7.523-7.384c-7.383,0-13.374,4.459-15.326,6.131v44.86
	c0,2.508-0.974,3.623-3.481,3.623H126.04c-2.508,0-3.622-1.115-3.622-3.623v-43.607c0-5.016-1.531-7.384-7.522-7.384
	c-6.966,0-12.677,3.902-15.324,6.27v44.722c0,2.508-0.837,3.623-3.205,3.623H84.804c-2.51,0-3.484-1.115-3.484-3.623v-62.415
	c0-2.368,0.975-3.342,3.484-3.342H95.53z M194.165,262.996c0-12.399,9.613-20.479,30.094-20.479
	c20.479,0,30.094,8.079,30.094,20.479v30.511c0,12.539-9.614,20.621-30.094,20.621c-20.48,0-30.094-8.082-30.094-20.621V262.996z
	 M236.102,264.529c0-5.154-4.04-7.523-11.843-7.523c-7.802,0-11.842,2.369-11.842,7.523v27.444c0,5.297,4.04,7.664,11.842,7.664
	c7.803,0,11.843-2.367,11.843-7.664V264.529z M322.478,279.157c0,2.23-0.835,3.203-3.064,3.203h-35.664v10.311
	c0,4.879,2.646,7.664,10.865,7.664c8.221,0,10.866-2.785,10.866-7.664v-0.697c0-2.367,0.977-3.482,3.483-3.482h9.753
	c2.368,0,3.483,1.115,3.483,3.482v1.533c0,12.539-7.246,20.621-27.725,20.621c-20.48,0-28.561-8.082-28.561-20.621v-30.511
	c0-12.399,8.219-20.479,28.699-20.479c20.34,0,27.863,8.079,27.863,20.479V279.157z M283.749,270.102h21.731v-6.131
	c0-4.876-3.063-7.663-10.866-7.663c-7.939,0-10.865,2.787-10.865,7.663V270.102z M338.221,313.012c-2.51,0-3.483-1.115-3.483-3.623
	v-90.14c0-2.507,0.974-3.621,3.483-3.621h11.563c2.367,0,3.203,1.114,3.203,3.621v30.79c4.039-3.065,11.007-7.522,21.874-7.522
	c13.793,0,20.2,7.941,20.2,20.34v30.929c0,12.4-6.407,20.342-20.2,20.342c-11.425,0-18.392-4.738-22.293-7.803l-0.277,3.064
	c-0.28,2.508-0.837,3.623-3.344,3.623H338.221z M376.672,265.644c0-3.623-1.115-7.246-7.522-7.246
	c-7.107,0-13.236,4.181-16.162,6.41v27.026c2.926,2.23,9.055,6.41,16.162,6.41c6.407,0,7.522-3.623,7.522-7.385V265.644z
	 M408.017,262.579c0-12.399,8.221-20.062,28.144-20.062c20.341,0,28.004,7.662,28.004,20.062v46.811
	c0,2.508-0.976,3.623-3.343,3.623H450.37c-2.506,0-3.063-1.115-3.343-3.623l-0.278-2.926c-4.042,3.344-10.868,7.664-20.62,7.664
	c-13.653,0-20.062-8.221-20.062-17.416v-6.268c0-9.336,7.104-17.555,20.898-17.555h19.227v-8.918c0-5.016-2.369-7.802-10.448-7.802
	c-7.941,0-10.729,2.229-10.729,7.244v0.977c0,2.507-0.976,3.482-3.344,3.482h-10.31c-2.508,0-3.345-0.976-3.345-3.482V262.579z
	 M446.191,293.647v-7.941h-15.604c-5.433,0-6.687,2.646-6.687,6.268v2.23c0,4.18,2.786,5.434,6.965,5.434
	C437.275,299.637,442.986,296.016,446.191,293.647z"/>
<g>
	<path d="M467.719,250.187c0.702,0.433,1.728,0.792,2.807,0.792c1.602,0,2.537-0.846,2.537-2.069c0-1.133-0.648-1.78-2.285-2.41
		c-1.979-0.702-3.201-1.728-3.201-3.436c0-1.89,1.564-3.292,3.921-3.292c1.241,0,2.142,0.287,2.681,0.593l-0.432,1.277
		c-0.396-0.216-1.206-0.575-2.303-0.575c-1.656,0-2.285,0.989-2.285,1.816c0,1.133,0.738,1.691,2.41,2.339
		c2.051,0.792,3.096,1.781,3.096,3.562c0,1.87-1.386,3.49-4.246,3.49c-1.17,0-2.447-0.343-3.094-0.774L467.719,250.187z"/>
	<path d="M487.027,246.769c-0.09-1.69-0.197-3.724-0.18-5.234h-0.055c-0.413,1.421-0.917,2.932-1.527,4.605l-2.143,5.883h-1.186
		l-1.962-5.775c-0.575-1.709-1.062-3.274-1.403-4.713h-0.037c-0.035,1.511-0.125,3.544-0.232,5.36l-0.324,5.199h-1.494l0.848-12.125
		h1.996l2.068,5.864c0.504,1.493,0.917,2.825,1.223,4.084h0.055c0.307-1.223,0.738-2.555,1.277-4.084l2.159-5.864h1.997
		l0.756,12.125h-1.529L487.027,246.769z"/>
</g>
</svg>
