<?xml version="1.0" encoding="utf-8"?>
<!-- Generator: Adobe Illustrator 16.0.4, SVG Export Plug-In . SVG Version: 6.00 Build 0)  -->
<!DOCTYPE svg PUBLIC "-//W3C//DTD SVG 1.1//EN" "http://www.w3.org/Graphics/SVG/1.1/DTD/svg11.dtd">
<svg version="1.1" id="Layer_1" xmlns="http://www.w3.org/2000/svg" xmlns:xlink="http://www.w3.org/1999/xlink" x="0px" y="0px"
	 width="656.127px" height="224.998px" viewBox="-1.999 0 656.127 224.998" enable-background="new -1.999 0 656.127 224.998"
	 xml:space="preserve">
<g id="Mascot">
	<path id="Outline" fill="#414042" d="M141.984,224.998c-4.832,0-9.683-1.496-14.424-4.447c-3.141-1.153-20.91-8.854-28.913-37.709
		c-2.079-7.491-5.484-7.491-6.767-7.491c-8.152,0-21.509,12.676-31.261,21.932c-5.141,4.879-9.59,9.104-12.867,11.184
		c-1.712,1.303-17.577,13.076-30.448,13.076c-3.761,0-6.998-0.982-9.621-2.922c-6.146-4.543-9.676-11.32-9.682-18.596
		c-0.007-8.849,4.881-17.349,13.764-23.938c2.467-1.83,5.496-3.834,8.702-5.957c18.291-12.104,43.341-28.681,36.545-55.463
		c-2.419-9.534-10.099-29.706-10.176-29.91l-0.043-0.12c-1.881-5.573-3.197-10.63-4.021-15.461
		c-1.023-6.692-3.287-29.746,10.162-47.812C61.576,9.756,74.916,2.613,92.589,0.136l0.323-0.03C94.656,0.036,96.386,0,98.053,0
		c44.326,0,50.114,24.616,52.584,35.127c0.248,1.056,0.464,1.967,0.666,2.624c3.383,10.963-1.313,42.744-1.859,46.332l-0.424,2.778
		h-0.211c-0.723,6.187-1.621,12.515-2.678,18.854c-4.931,29.597,4.802,36.55,13.387,42.685c1.537,1.1,2.99,2.138,4.373,3.289
		c2.438,2.03,8.113,5.196,14.688,8.863c17.465,9.746,41.387,23.092,44.614,36.812c1.33,5.648-0.119,11.682-3.978,16.551
		c-4.135,5.223-10.412,8.217-17.219,8.219h-0.002c-7.225-0.002-21.48-3.561-35.789-27.375
		c-14.554-24.221-22.278-25.445-23.68-25.445c-0.508,0-0.833,0.125-0.965,0.373c-0.119,0.224-0.079,0.459-0.044,0.513
		c4.613,1.295,18.403,13.534,22.544,26.131c2.42,7.354,1.447,14.141-2.812,19.623C160.881,216.401,153.607,224.998,141.984,224.998z
		 M91.88,168.806c4.408,0,10.253,2.133,13.07,12.285c7.668,27.646,24.845,33.316,25.017,33.371l0.415,0.131l0.365,0.232
		c3.779,2.406,7.56,3.629,11.236,3.629c8.177,0,13.702-6.07,14.15-6.578c2.779-3.619,3.41-7.823,1.92-12.854
		c-3.269-11.045-15.706-21.636-18.3-22.537c-3.21-0.902-5.218-4.049-4.744-7.469c0.508-3.681,3.601-6.25,7.519-6.25
		c7.909,0,18.037,9.896,29.287,28.618c12.65,21.058,24.34,24.201,30.182,24.203c0.002,0,0.002,0,0.004,0
		c4.795,0,9.203-2.092,12.092-5.737c2.568-3.242,3.592-7.353,2.734-10.988c-2.568-10.912-25.957-23.965-41.437-32.6
		c-7.145-3.982-12.783-7.132-15.688-9.553c-1.197-0.996-2.553-1.965-3.988-2.992c-9.131-6.521-21.639-15.46-16.035-49.082
		c1.202-7.218,2.197-14.419,2.954-21.401l0.318-2.917h0.427c1.521-10.931,3.948-33.268,1.674-40.641
		c-0.27-0.87-0.507-1.883-0.783-3.055c-2.295-9.764-7.072-30.083-46.217-30.083c-1.528,0-3.113,0.031-4.717,0.094
		C77.54,8.88,65.713,15.147,58.181,25.265c-11.935,16.033-9.869,36.86-8.952,42.862c0.754,4.417,1.981,9.132,3.742,14.354
		c0.557,1.463,7.913,20.84,10.382,30.572c7.938,31.282-20.474,50.087-39.275,62.527c-3.131,2.069-6.088,4.026-8.415,5.754
		c-7.176,5.324-11.125,11.957-11.12,18.679c0.004,5.256,2.5,9.991,7.029,13.34c1.494,1.104,3.369,1.643,5.732,1.643
		c9.235,0,22.32-8.527,26.583-11.812l0.267-0.186c2.727-1.699,7.212-5.957,11.961-10.465
		C67.255,181.962,81.119,168.806,91.88,168.806z"/>
	<path id="Body" fill="#A7A9AC" d="M220.01,198.115c-4.086-17.363-49.021-36.255-58.215-43.913
		c-9.188-7.662-25.017-12.258-18.891-49.025c1.265-7.585,2.241-14.774,2.981-21.586h0.322c0,0,5.228-34.312,1.968-44.875
		c-2.454-7.955-3.877-37.404-55.135-35.341C42.008,10.53,44.034,55.8,45.994,68.626c0.891,5.222,2.138,10.447,3.896,14.965
		c0,0,7.799,20.454,10.291,30.271c8.682,34.213-30.639,53.104-46.468,64.853c-15.832,11.744-15.832,28.593-4.086,37.272
		c11.746,8.683,36.256-10.213,36.256-10.213c12.233-7.625,47.682-53.487,55.914-23.809c8.233,29.682,27.191,35.619,27.191,35.619
		c17.426,11.104,29.68-3.643,29.68-3.643c12.642-16.273-13.346-39.281-17.999-40.596c-7.469-2.104,2.107-23.936,28.342,19.727
		C195.245,236.731,224.096,215.478,220.01,198.115z"/>
	
		<radialGradient id="Light_on_body_1_" cx="-1769.7075" cy="2966.1182" r="109.2921" gradientTransform="matrix(1 0 0 -1 1910 2989.125)" gradientUnits="userSpaceOnUse">
		<stop  offset="0" style="stop-color:#EDEDEE"/>
		<stop  offset="1" style="stop-color:#FFFFFF;stop-opacity:0"/>
	</radialGradient>
	<path id="Light_on_body" opacity="0.3" fill="url(#Light_on_body_1_)" enable-background="new    " d="M220.01,198.115
		c-4.086-17.363-49.021-36.255-58.215-43.913c-9.188-7.662-25.017-12.258-18.891-49.025c1.265-7.585,2.241-14.774,2.981-21.586
		h0.322c0,0,5.228-34.312,1.968-44.875c-2.454-7.955-3.877-37.404-55.135-35.341C42.008,10.53,44.034,55.8,45.994,68.626
		c0.891,5.222,2.138,10.447,3.896,14.965c0,0,7.799,20.454,10.291,30.271c8.682,34.213-30.639,53.104-46.468,64.853
		c-15.832,11.744-15.832,28.593-4.086,37.272c11.746,8.683,36.256-10.213,36.256-10.213c12.233-7.625,47.682-53.487,55.914-23.809
		c8.233,29.682,27.191,35.619,27.191,35.619c17.426,11.104,29.68-3.643,29.68-3.643c12.642-16.273-13.346-39.281-17.999-40.596
		c-7.469-2.104,2.107-23.936,28.342,19.727C195.245,236.731,224.096,215.478,220.01,198.115z"/>
	<path id="smile_3_" fill="#414042" d="M92.961,90.503c3.226,3.415,6.994,6.679,10.92,9.48c3.952,2.797,8.202,5.225,12.77,6.684
		c4.531,1.457,9.519,1.812,14.014-0.002c4.511-1.766,8.124-5.534,10.729-9.78c-2.176,4.47-5.42,8.716-10.109,11.132
		c-2.315,1.206-4.915,1.905-7.543,2.107c-2.63,0.211-5.277-0.042-7.838-0.579c-5.134-1.096-9.928-3.25-14.417-5.798
		c-4.501-2.598-8.671-5.516-12.694-9.004c-1.243-1.076-1.378-2.958-0.3-4.2c1.078-1.245,2.958-1.378,4.202-0.3
		c0.074,0.062,0.146,0.13,0.212,0.202L92.961,90.503z"/>
	<g id="Shadows">
		<path id="Right_Leg_shadow" opacity="0.45" enable-background="new    " d="M218.671,207.149
			c-1.019,0.357-1.906,0.621-2.623,0.763c-0.021,0.006-2.586,0.68-6.697,0.68c-8.59,0-25.229-2.979-40.131-22.897
			c-0.52-0.838-12.877-20.521-25.245-20.521c-0.452,0-0.903,0.021-1.342,0.076c0,0-2.628,0.812-2.804,1.553
			c-0.015,0.057,0.001,0.105,0.016,0.154c3.708-2.48,13.429,0.246,29.084,26.305c21.916,36.473,45.656,27.643,50.496,13.623
			L218.671,207.149z"/>
		<path id="Middle_Leg_shadow" opacity="0.45" enable-background="new    " d="M128.99,217.583c6.296,4.01,11.911,4.641,16.52,3.818
			c-6.01-0.883-13.223-5.312-22.717-24.854c-10.631-21.887-22.019-25.485-29.982-24.42c3.973,0.375,7.155,3.229,8.988,9.838
			C110.032,211.646,128.99,217.583,128.99,217.583z"/>
		<path id="Left_Leg_shadow_and_body_shadow" opacity="0.45" enable-background="new    " d="M26.902,209.673
			c-11.498-4.486-11.81-15.266-9.936-21.986c4.385-15.725,56.719-40.78,51.764-85.078c-2.529-22.607-28.855-70.864-0.254-90.993
			h0.001C42.819,27.257,44.425,58.35,45.996,68.626c0.891,5.222,2.138,10.447,3.896,14.965c0,0,7.799,20.454,10.291,30.271
			c8.682,34.213-30.639,53.104-46.468,64.853c-15.832,11.744-15.832,28.593-4.086,37.272c11.746,8.683,36.256-10.213,36.256-10.213
			c7.806-4.864,25.064-25.297,38.673-31.737C70.064,177.634,38.4,214.162,26.902,209.673z"/>
		<path id="tie_shadow_3_" opacity="0.45" enable-background="new    " d="M119.034,150.831l6.054-15.02
			c0.268-0.94-0.679-1.771-2.07-1.877l-17.275-0.463c-1.393-0.107-2.025,1.096-1.375,2.637l9.604,13.891
			c0.578,8.188,2.809,27.086,11.371,43.473l22.904,10.603l-0.199-11.697C148.046,192.375,121.331,175.175,119.034,150.831z"/>
	</g>
	<path id="tie" fill="#414042" d="M150.09,191.774l-1.848,12.297l-19.997-11.198c-8.238-16.385-10.385-35.285-10.942-43.474
		l-9.236-13.893c-0.625-1.54-0.019-2.742,1.321-2.637l16.622,0.465c1.336,0.104,2.246,0.934,1.99,1.877l-5.821,15.012
		C124.388,174.574,150.09,191.774,150.09,191.774z"/>
	<g id="eye_8_">
		<path fill="#DCDDDE" d="M141.354,60.968c0,8.693-4.331,15.737-9.673,15.737c-5.341,0-8.397-6.909-8.397-15.602
			c0-8.69,3.058-15.871,8.397-15.871C137.023,45.231,141.354,52.277,141.354,60.968z"/>
		<path fill="#58595B" d="M135.919,61.802c0,8.691,1.226,15.397-4.237,14.903c-5.318-0.479-10.508-6.909-10.508-15.602
			c0-8.69,5.167-15.871,10.508-15.871C134.072,45.231,135.919,53.111,135.919,61.802z"/>
		<ellipse cx="131.334" cy="61.103" rx="8.051" ry="15.602"/>
		<path fill="#DCDDDE" d="M136.211,50.598c1.086,2.013,1.045,4.133-0.084,4.741c-1.13,0.609-2.922-0.527-4.005-2.537
			c-1.083-2.01-1.045-4.13,0.085-4.741C133.336,47.455,135.13,48.588,136.211,50.598z"/>
		<path fill="#C7C8CA" d="M126.011,69.162c0,0,2.938,8.853,7.619,5.508C138.31,71.324,131.441,78.086,126.011,69.162z"/>
	</g>
	<g id="eye_7_">
		<path fill="#DCDDDE" d="M119.951,59.135c0,9.248-4.606,16.74-10.29,16.74c-5.68,0-8.934-7.35-8.934-16.596
			c0-9.246,3.254-16.884,8.934-16.884C115.344,42.395,119.951,49.889,119.951,59.135z"/>
		<path fill="#58595B" d="M114.171,60.022c0,9.246,1.303,16.38-4.51,15.853c-5.657-0.509-11.179-7.348-11.179-16.596
			c0-9.246,5.499-16.884,11.179-16.884C112.206,42.395,114.171,50.776,114.171,60.022z"/>
		<ellipse cx="109.292" cy="59.279" rx="8.565" ry="16.596"/>
		
			<ellipse transform="matrix(0.4738 0.8806 -0.8806 0.4738 102.4801 -72.9833)" fill="#DCDDDE" cx="112.312" cy="49.263" rx="4.396" ry="2.471"/>
		<path fill="#C7C8CA" d="M103.078,66.532c0,0,3.311,9.973,8.583,6.203C116.933,68.965,109.195,76.583,103.078,66.532z"/>
	</g>
</g>
<path id="Logotype" fill="#FFFFFF" d="M232.692,47.872c2.508,0,3.762,1.113,4.458,3.483l25.913,87.773
	c0.696,2.229-0.14,3.48-2.507,3.48h-12.538c-2.366,0-3.345-1.254-4.039-3.48l-4.876-17.001H213.19l-4.878,17.001
	c-0.697,2.229-1.671,3.48-4.179,3.48h-11.287c-2.508,0-3.344-1.254-2.646-3.48l26.054-87.771c0.695-2.37,1.812-3.482,4.318-3.482
	h12.12V47.872L232.692,47.872z M230.324,91.759c-1.812-5.713-3.901-23.545-4.04-25.356c-0.279,1.812-2.646,19.364-4.32,25.218
	l-4.735,15.604h17.694L230.324,91.759z M285.494,73.23c2.508,0,3.203,0.975,3.346,3.342l0.139,3.346
	c3.763-3.205,10.311-7.803,21.595-7.803c8.638,0,14.905,3.621,17.831,9.334c3.346-3.064,10.174-9.334,23.268-9.334
	c12.82,0,20.199,7.803,20.199,18.668v48.202c0,2.511-0.975,3.623-3.342,3.623h-11.426c-2.508,0-3.48-1.112-3.48-3.623V95.38
	c0-5.016-1.674-7.385-7.523-7.385c-7.383,0-13.375,4.459-15.326,6.132v44.86c0,2.508-0.975,3.621-3.48,3.621h-11.289
	c-2.508,0-3.621-1.113-3.621-3.621V95.38c0-5.016-1.531-7.385-7.522-7.385c-6.966,0-12.677,3.902-15.323,6.271v44.721
	c0,2.51-0.838,3.623-3.205,3.623h-11.562c-2.512,0-3.484-1.113-3.484-3.623V76.575c0-2.369,0.977-3.343,3.484-3.343L285.494,73.23
	L285.494,73.23z M384.128,92.593c0-12.398,9.613-20.479,30.094-20.479c20.479,0,30.096,8.079,30.096,20.479v30.512
	c0,12.539-9.613,20.621-30.096,20.621c-20.479,0-30.094-8.082-30.094-20.621V92.593L384.128,92.593z M426.064,94.126
	c0-5.154-4.039-7.523-11.844-7.523c-7.801,0-11.842,2.369-11.842,7.523v27.443c0,5.298,4.041,7.664,11.842,7.664
	c7.805,0,11.844-2.366,11.844-7.664V94.126z M512.441,108.755c0,2.229-0.836,3.202-3.062,3.202h-35.666v10.312
	c0,4.879,2.646,7.664,10.865,7.664c8.221,0,10.863-2.785,10.863-7.664v-0.696c0-2.367,0.979-3.48,3.484-3.48h9.752
	c2.369,0,3.484,1.113,3.484,3.48v1.532c0,12.539-7.246,20.621-27.729,20.621c-20.48,0-28.561-8.082-28.561-20.621V92.593
	c0-12.398,8.219-20.479,28.699-20.479c20.34,0,27.861,8.079,27.861,20.479v16.162H512.441L512.441,108.755z M473.712,99.701h21.73
	v-6.132c0-4.876-3.062-7.663-10.865-7.663c-7.939,0-10.865,2.787-10.865,7.663V99.701z M528.183,142.608
	c-2.51,0-3.48-1.112-3.48-3.623V48.847c0-2.508,0.975-3.621,3.48-3.621h11.562c2.367,0,3.203,1.113,3.203,3.621v30.789
	c4.039-3.063,11.008-7.521,21.875-7.521c13.793,0,20.197,7.941,20.197,20.34v30.93c0,12.4-6.404,20.343-20.197,20.343
	c-11.428,0-18.395-4.738-22.293-7.804l-0.277,3.062c-0.281,2.511-0.838,3.623-3.344,3.623H528.183L528.183,142.608z M566.634,95.242
	c0-3.623-1.115-7.246-7.52-7.246c-7.107,0-13.236,4.182-16.162,6.41v27.024c2.926,2.229,9.055,6.41,16.162,6.41
	c6.404,0,7.52-3.623,7.52-7.386V95.242z M597.978,92.177c0-12.399,8.225-20.062,28.146-20.062c20.34,0,28.004,7.662,28.004,20.062
	v46.812c0,2.508-0.977,3.622-3.344,3.622h-10.451c-2.506,0-3.062-1.114-3.342-3.622l-0.279-2.927
	c-4.041,3.345-10.867,7.664-20.619,7.664c-13.652,0-20.062-8.221-20.062-17.416v-6.269c0-9.336,7.104-17.555,20.896-17.555h19.229
	v-8.919c0-5.016-2.369-7.803-10.447-7.803c-7.941,0-10.73,2.229-10.73,7.244v0.978c0,2.508-0.975,3.481-3.344,3.481h-10.309
	c-2.508,0-3.348-0.977-3.348-3.481V92.177L597.978,92.177z M636.156,123.245v-7.939H620.55c-5.432,0-6.686,2.646-6.686,6.268v2.229
	c0,4.181,2.781,5.435,6.965,5.435C627.24,129.235,632.951,125.615,636.156,123.245z"/>
</svg>
