<?xml version="1.0" encoding="utf-8"?>
<!-- Generator: Adobe Illustrator 21.0.1, SVG Export Plug-In . SVG Version: 6.00 Build 0)  -->
<svg version="1.1" id="Layer_1" xmlns="http://www.w3.org/2000/svg" xmlns:xlink="http://www.w3.org/1999/xlink" x="0px" y="0px"
	 viewBox="0 0 474.8 57.7" style="enable-background:new 0 0 474.8 57.7;" xml:space="preserve">
<style type="text/css">
	.st0{fill-rule:evenodd;clip-rule:evenodd;fill:#4D4D4D;}
</style>
<g>
	<path class="st0" d="M1.1,1.7L1,4.3h2.4c1.8,0,4,0.2,4,2.4L6.6,50.6c0,1.6-0.8,3.4-4,3.4H0.2L0,56.6h16.4V54h-2.8
		c-2.1,0-3.6-0.6-3.6-3.4l0.8-42.1l17.5,45.4h1.8L47.8,8l0.8,42.6c0,1.5-1.5,3.4-3.7,3.4h-3.4v2.6H62V54h-2.4c-1.8,0-3.9-1-3.9-3.2
		L54.9,7.4c0-1.5,1.6-3.1,3.2-3.1h3.1V1.7H46.5L31.3,41.6L16,1.7H1.1L1.1,1.7z"/>
	<path class="st0" d="M80.2,54.2c-9.2,0.2-9.9-11.7-9.7-17.3h24.4c0-11.5-5.1-20.8-16.3-20.8c-10.4,0-16.3,9.3-16.3,20.8
		c0,11.5,4.9,20.9,16.3,20.9c11,0,14.2-5.5,15.9-14.2l-3.8,0C90.4,46.7,88.3,54,80.2,54.2z M78.9,19.5c6.8,0,7.8,8.7,7.8,14.1h-16
		C70.6,30.1,70.3,19.5,78.9,19.5z"/>
	<path class="st0" d="M114.7,56.6v-2.1h-1.6c-1.5,0-4-0.5-4-3.4V29.9c0-6.6,3.4-9.1,6.8-9.1c1.3,0,2.1,0.6,1.8,3.1
		c-0.3,2.4,1.8,4.1,3.6,3.9c1.8-0.2,4-0.5,3.7-5c-0.3-4.5-2.9-6.6-7.5-6.6c-3.6,0-6.5,2.3-7.3,3.4c-0.9,1.3-2.1,0.8-2.3-0.6
		c-0.2-1.5-0.8-2.9-2.4-2.4c-3.6,1.1-6.8,1.6-9.6,1.8v1.6c6.8-0.3,6.2,3.1,6.2,4.7v26.6c0,2.9-2.6,3.4-4,3.4h-2.3v2.1H114.7
		L114.7,56.6z"/>
	<path class="st0" d="M150.6,18.6c-2.4-1.7-5.4-2.7-9-2.7c-10.4,0-16.3,9.3-16.3,20.8c0,11.5,4.9,20.8,16.3,20.8
		c10,0.1,12.5-5.6,14.2-14.3l-3.8,0c-0.3,3.2-1.5,10.7-8.7,10.9c-9.2,0.2-9.9-11.7-9.7-17.3c0-3.6,0.5-17.8,8.3-17.8
		c6.6,0,10.7,4.7,10.7,10h2.1V15.3h-1.8L150.6,18.6L150.6,18.6z"/>
	<path class="st0" d="M227.1,48.2V3c0-1.9-1-3.4-2.6-2.9c-3.6,1.1-6.8,1.6-9.6,1.8v1.6c4.7-0.3,5.2,1.1,5.2,2.7v13.9
		c-2.1-1.9-4.5-3.9-8.9-3.9c-5.5,0-15.7,4.4-15.7,19.8c0,20.2,11.8,21.6,15.4,21.6c3.6,0,8.3-2.9,9.2-4.5c0.1-0.3,0.6-0.7,0.7,0
		c0.2,1.5,1.2,3.7,2.8,3.2c3.6-1.1,6.8-1.6,9.6-1.8v-1.6C226.5,53.2,227.1,49.8,227.1,48.2z M220.2,43.3c-0.2,8.9-4.9,11.7-8.8,11.7
		c-8.8-0.2-8.1-13.5-8.1-19.1s0.3-16.8,8.3-15.9c7.9,1,8.6,9.4,8.6,14.4V43.3z"/>
	<polygon class="st0" points="321.7,33.5 321.7,29.7 300.4,29.7 300.4,33.5 321.7,33.5 	"/>
	<path class="st0" d="M271,42.9v13.8h1.8l1.6-3.6c1.6,1.5,5,3.9,9.4,3.9c4.4,0,10.5-2.4,13-7c2.4-4.5,1.3-12-4.2-14.3
		c-4.8-2-9.1-4.4-12.3-6c-2.6-1.3-3.2-3.9-2.9-5.5c0.5-2.6,2.8-5.3,7.9-5.5c5.2-0.2,7.8,4.2,8.4,9.2h1.8V15h-1.6l-1.8,3.1
		c-3.4-2.3-4.9-2.6-7.9-2.6c-3.1,0-8.3,1.6-11.2,6.2c-2.9,4.5-2.1,11.7,4.9,14.6c7,2.9,10.2,4.7,12.1,5.7c1.9,1,3.1,4.9,1.8,7.1
		c-1.3,2.3-3.7,4.9-7.6,4.9c-3.9,0-10-2.8-11.5-11H271L271,42.9z"/>
	<path class="st0" d="M352,27c3.9-1,7.8-7.9,7.8-12.6c0-4.7-1.8-12.6-13.1-12.6h-24.3v2.1c2.4,0,6.6,0.5,6.6,4.5v40
		c0,2.3-0.2,6-6.6,6v2.3h19.9c6,0,19.8-0.5,20.1-16.4C362.4,34.9,359.8,28.6,352,27z M336,4.3h8.1c6,0,8.4,4.4,8.4,10
		c0,7-2.1,12.3-8.4,12.3H336V4.3z M344.3,54H336V29.3h9.2c5.3,0,10,3.7,10,11.8S350.4,54,344.3,54z"/>
	<path class="st0" d="M428.2,27.1v24c0,2.9-2.6,3.4-4,3.4h-1v2.1h17.7v-2.1h-1.6c-1.5,0-4-0.5-4-3.4V27.3
		c-0.2-10.9-9.9-11.2-13.3-11.2c-3.6,0-7.5,2.3-8.3,3.4c-0.9,1.3-2.1,0.8-2.3-0.6c-0.2-1.5-0.8-2.9-2.4-2.4
		c-3.6,1.1-6.8,1.6-9.6,1.8v1.6c6.8-0.3,6.2,3.1,6.2,4.7v26.6c0,2.9-2.6,3.4-4,3.4h-2.3v2.1h19v-2.1h-1.6c-1.5,0-4-0.5-4-3.4V29.9
		c0-3.6,1.3-9.2,7.9-9.7C427,19.7,428.2,24.1,428.2,27.1L428.2,27.1z"/>
	<path class="st0" d="M444.4,28l2.9-11h27.5l-23.7,37.4h12.6c2.9,0,5.2-1.1,8.3-8.6h1.3l-2.6,10.9h-28.2l23.5-37.4h-10.5
		c-2.6,0-5.5,0-9.6,8.7H444.4L444.4,28z"/>
	<path class="st0" d="M177.4,54.2c-9.2,0.2-9.9-11.7-9.7-17.3H192C192,25.4,187,16,175.8,16c-10.4,0-16.3,9.3-16.3,20.8
		c0,11.5,4.9,20.9,16.3,20.9c11,0,14.2-5.5,15.9-14.2l-3.8,0C187.6,46.7,185.5,54,177.4,54.2z M176.1,19.5c6.8,0,7.8,8.7,7.8,14.1
		h-16C167.8,30.1,167.5,19.5,176.1,19.5z"/>
	<path class="st0" d="M251.3,54.2c-9.2,0.2-9.9-11.7-9.7-17.3h24.4c0-11.5-5.1-20.8-16.3-20.8c-10.4,0-16.3,9.3-16.3,20.8
		c0,11.5,4.9,20.9,16.3,20.9c11,0,14.2-5.5,16-14.2l-3.8,0C261.5,46.7,259.4,54,251.3,54.2z M250,19.5c6.8,0,7.8,8.7,7.8,14.1h-16
		C241.7,30.1,241.4,19.5,250,19.5z"/>
	<path class="st0" d="M383.8,54.2c-9.2,0.2-9.9-11.7-9.7-17.3h24.4c0-11.5-5.1-20.8-16.3-20.8c-10.4,0-16.3,9.3-16.3,20.8
		c0,11.5,4.9,20.9,16.3,20.9c11,0,14.2-5.5,15.9-14.2l-3.8,0C394,46.7,391.9,54,383.8,54.2z M382.5,19.5c6.8,0,7.8,8.7,7.8,14.1h-16
		C374.2,30.1,373.9,19.5,382.5,19.5z"/>
</g>
</svg>
