<?xml version="1.0" encoding="utf-8"?>
<!-- Generator: Adobe Illustrator 19.1.0, SVG Export Plug-In . SVG Version: 6.00 Build 0)  -->
<svg version="1.1" id="Ebene_1" xmlns="http://www.w3.org/2000/svg" xmlns:xlink="http://www.w3.org/1999/xlink" x="0px" y="0px"
	 viewBox="201 290 1170 445" style="enable-background:new 201 290 1170 445;" xml:space="preserve">
<style type="text/css">
	.st0{fill:#4D4D4D;}
</style>
<path class="st0" d="M256.2,599.7c-23.1-23.2-36.4-54.3-36.4-87.2c0-61.8,50.4-112.2,112.2-112.2c54.1,0,100.2,39.1,113.7,90.5
	l0.3,0.1l0.1-0.3c-10.8-54.3-58.4-94.2-114.2-94.2c-63.8,0-116.1,52.3-116.1,116.1c0,33.6,14.9,65.4,40.1,87.6h0.3L256.2,599.7
	 M330.2,405.3c-58.3,1.1-105.4,48.6-105.4,107.2c0,18.2,5,35.8,13.3,51.9l74.4-61l6.1,3.5l-81.2,59.6l-0.3,0.8h0.9l92.3-52
	l-0.2,18.6l-90,33.8c19.1,32,54.7,51.9,91.9,51.9c37.4,0,72.6-19.8,91.9-51.9l-90-33.8l-0.2-18.6l92.6,52h0.8l-0.4-0.7l-81.3-59.8
	l6-3.5l74.4,61c8.5-15.9,13.4-33.6,13.4-51.9c0-59.1-46.9-105.5-105.3-107.3l15.6,95l-15.9,9.4l-1.2-106.1l-0.5-0.5l-0.4,0.5
	l-11.2,100.1l-6-3.4L330.2,405.3z M403.2,428.7l0.1,0.4c5.6,5.2,10.9,10.9,15.7,16.9c15,18.8,22.8,42.5,22.8,66.5
	c0,18.9-5,37.1-14.1,53.6l1.2,2.3l-2.6,0.1c-19.7,33-56,53.7-94.5,53.7c-38.5,0-74.6-20.6-94.4-53.7l-2.4-0.1l1-2.3
	c-5.8-10.6-9.7-21.8-12-33.6l-0.2-0.3l-0.1,0.4c1.5,12.5,5.5,24.7,11.4,35.8c19.4,36.5,55.6,57.9,96.8,57.9
	c62.6,0,113.6-51.3,113.6-113.8c0-32-16.5-64.3-42-83.8L403.2,428.7L403.2,428.7L403.2,428.7L403.2,428.7z M331.3,429.4l-0.2-0.3
	l-0.2,0.3l-4.8,77.6l4.3,2.5L331.3,429.4z M409.5,556.3h0.4l-0.2-0.4l-69-46.4l-5.2,2.9L409.5,556.3z M305.7,525.8l-0.1,0.3l0.4-0.1
	l22.7-13.4l-4-2.3L305.7,525.8z M450.7,512.5c0,65.3-53.5,118.7-118.7,118.7c-65.2,0-118.7-53.5-118.7-118.7
	c0-65.3,53.5-118.7,118.7-118.7C397.3,393.8,450.7,447.2,450.7,512.5"/>
<g>
	<path class="st0" d="M693.4,501.5v54c0,5-7.1,5.3-10.7,5.5v2.3c5.2-0.2,10.3-0.7,15.5-0.7c5.2,0,10.4,0.5,15.5,0.7V561
		c-5.9-0.5-10.9-1.1-10.9-8v-30.4c0-8.7,1.4-26.1,13.1-27c2.1-0.2,5.2,0.9,5.3,3.4c0,1.4-0.7,2.5-0.7,3.9c0,3,2.7,5,5.5,5.3
		c4.1,0,6-3.7,6-7.3c0-6.4-5.9-11.2-12.2-11.2c-8.6,0-15.3,5.9-17.8,14c0-5-0.5-10.1-1-14.9c-6,1.6-12.2,3.2-18.4,3.4v2.3
		C688.9,494.6,693.4,494.4,693.4,501.5"/>
	<path class="st0" d="M779.6,488.2l-4,7.6c-4-3.7-8.4-6.2-14.3-6.2c-19.8,0-29.1,19.7-29.1,37.3c0,17.4,8.1,37.8,28.4,37.8
		c14.5,0,21.7-12.1,23.1-25h-5.9c-1.7,9.6-5.2,20.2-16.9,20.2c-16.4,0-18.1-20.8-18.1-33c0-11.5,2.8-33.7,18.3-33.7
		c10.9,0,16,9.4,17.9,18.5h2.9v-23.6L779.6,488.2"/>
	<path class="st0" d="M839.9,519.4v-2.1c-1-10.8-4.5-23.8-17.7-23.8c-12.6,0-17.7,15.3-18.3,25.9H839.9 M843.5,539.5h6
		c-2.2,15.3-11.2,25.2-27.1,25.2c-20.3,0-28.4-19-28.4-36.6c0-17.6,7.8-38.5,28.4-38.5c19.8,0,26.9,17.9,26.7,35h-45.9
		c0.4,14.2,2.2,35.3,20.9,35.3C836.1,559.9,842,550,843.5,539.5"/>
	<path class="st0" d="M903.5,527.4c0-12.1-2.1-33.2-18.3-33.2c-15.5,0-17.1,21.1-17.1,32.3c0,11.4,1.4,33.7,17.6,33.7
		C902.1,560.1,903.5,539.3,903.5,527.4 M923.8,558.7v2.1c-6.2,0.9-12.1,1.6-18.1,3.4c-0.9-4.3-1.6-8.7-1.7-13.3
		c-3.6,8-10.5,13.3-19.5,13.3c-19.3,0-26.5-21.3-26.5-37.3c0-16,7.4-36.9,26.5-36.9c9.3,0,14.7,5.7,19,13.5V474c0-7.1-4.1-8-10.7-8
		v-2.1l1.9-0.5c6.2-0.7,12.2-1.4,18.3-3.2v87.9C913,556.2,915.7,558.7,923.8,558.7"/>
	<path class="st0" d="M977.8,519.4c-1-11.2-3.8-25.9-17.8-25.9c-12.6,0-16.9,14.2-18.2,24.5l-0.2,1.4L977.8,519.4 M981.2,539.5h6
		c-1.4,15.3-11.7,25.2-27.1,25.2c-20.2,0-28.6-19-28.6-36.6c0-17.6,7.9-38.5,28.6-38.5c20,0,26.9,17.9,26.9,35h-45.8
		c-0.2,14.2,2.4,35.3,20.7,35.3C973.6,559.9,980,550,981.2,539.5"/>
	<path class="st0" d="M999.7,564.7l3.4-6.4c5,4.1,11.6,6,17.9,6c12.2,0,24-8,24-21.3c0-10.1-6.9-15.1-15.7-18.5l-6.9-2.7
		c-6.2-2.3-16.2-5.7-16.2-14c0-8.2,6.5-14,14.8-14c10.7,0,15,8.7,16.1,18.1h2.9v-23.1h-2.4l-2.1,5.7c-4.5-2.7-9.5-4.3-14.8-4.3
		c-11.5,0-22.2,7.6-22.2,19.7c0,24.3,38.6,17.2,38.6,35.5c0,8.9-7.9,14.9-16.4,14.9c-12.6,0-18.1-9.4-20.7-20.4l-3.1,0.2l0.2,24.7
		L999.7,564.7"/>
	<rect x="1051.6" y="519.1" class="st0" width="27.6" height="4.8"/>
	<path class="st0" d="M1208,519.4c-0.2-11.2-4.1-25.9-17.7-25.9c-12.4,0-16.9,14.4-18.3,24.5l-0.2,1.4L1208,519.4 M1211.7,539.5h6
		c-1.4,14.9-11.9,25.9-27.2,25.2c-20-1.1-28.5-18.3-28.5-36.6c0-17.6,7.9-38.5,28.5-38.5c20,0,27,17.9,27,35.3h-46
		c-0.2,14,2.6,35,20.7,35C1204.3,559.9,1209.9,550,1211.7,539.5"/>
	<path class="st0" d="M1235.3,501.7v51.5c0,6.9-5,7.3-11,7.8v2.5c5.3-0.5,10.5-0.9,15.7-0.9c5.2,0,10.3,0.5,15.7,0.9V561
		c-5.9-0.5-11-1.1-11-7.8v-36.4c0-10.8,5.5-20.4,17.8-20.4c11.7,0,13.9,10.3,13.9,19.9v39.2c0,5.3-7.2,5.3-11,5.5v2.5
		c5.1-0.5,10.3-0.9,15.7-0.9c5.3,0,10.5,0.5,15.8,0.9V561c-6-0.5-11-0.9-11-7.8v-37.3c0-13.5-6.7-25.9-22.1-25.9
		c-8.6,0-15.2,4.6-19.8,11.7v-1.8c-0.2-4.1-0.5-7.8-1-11.7c-5.9,2.3-12.1,3.7-18.3,4.6v2.3C1230.6,495.1,1235.3,494.9,1235.3,501.7"
		/>
	<path class="st0" d="M1354.7,563.1l3.6-20.6h-2.4c-3.4,9.6-7.6,17.2-18.6,17.2h-20.5l42.9-68.5h-49l-3.3,18.8h2.6
		c3.3-8.7,6.7-15.1,16.9-15.1h19.6l-42.7,68.2L1354.7,563.1"/>
	<path class="st0" d="M665.6,519.4c-0.7-11.2-4-25.9-17.9-25.9c-13.1,0-16.9,15.3-18.3,25.9H665.6 M669.1,539.5h6
		c-1.4,15.3-11.7,25.2-27.1,25.2c-20.4,0-28.4-18.8-28.4-36.6c0-17.6,7.7-38.5,28.4-38.5c20,0,26.9,17.9,26.9,35h-45.8
		c-0.2,14.2,2.4,35.3,20.7,35.3C661.3,559.9,668.2,550,669.1,539.5"/>
	<path class="st0" d="M1102.4,550.3c0,7.1,1.6,8.5,10.3,8.5h5.6c14.1,0,22.6-9.2,22.6-24c0-15.3-7.3-22.7-22.7-22.7h-15.9V550.3
		 M1113.7,507.9c15.5,0,22.4-6.6,22.4-21.3c0-14.4-6-20.8-19.4-20.8h-14.2v42.1L1113.7,507.9L1113.7,507.9z M1152,534
		c0,18.3-12.8,29.1-34.9,29.1h-37.2v-3c10.2-0.7,12.5-2.3,12.5-10.1v-75.6c0-7.6-2.2-9.4-12.5-9.8v-3h38.3
		c18.5,0,28.9,8.9,28.9,24.5c0,10.8-5.1,18.1-16.1,22.9C1143.9,511.3,1152,521,1152,534"/>
	<path class="st0" d="M520.7,469.7l-3.6,81c-0.3,7.8,5.4,9.4,12.4,9.8v2.8c-5-0.2-10-0.7-15-0.7c-5,0-9.8,0.5-14.8,0.7v-2.8
		c7.1-0.5,12.1-2.1,12.4-9.8l3.8-76.7c0.5-8.2-5.4-9.4-12.4-9.6v-3c4.3,0,8.4,0.2,12.8,0.2c3.8,0,7.4-0.2,11-0.7l28.6,80.8L585,461
		l3.3,0.5c2.6,0,5.4,0.2,8.1,0.2c4.1,0,8.3-0.2,12.4-0.2v3c-7.1,0.2-12.6,1.6-12.4,9.6l1.7,76.7c0.3,7.8,5.2,9.4,12.6,9.8v2.8
		l-6.4-0.5c-3.8-0.2-7.4-0.5-11.2-0.5c-3.8,0-7.6,0.2-11.4,0.5l-6.2,0.5v-2.8c7.3-0.5,12.6-2.1,12.4-9.8l-1.2-81l-32.4,90.4h-1.9
		L520.7,469.7"/>
</g>
</svg>
