<?xml version="1.0" encoding="utf-8"?>
<!-- Generator: Adobe Illustrator 16.0.3, SVG Export Plug-In . SVG Version: 6.00 Build 0)  -->
<!DOCTYPE svg PUBLIC "-//W3C//DTD SVG 1.1//EN" "http://www.w3.org/Graphics/SVG/1.1/DTD/svg11.dtd">
<svg version="1.1" id="Layer_1" xmlns="http://www.w3.org/2000/svg" xmlns:xlink="http://www.w3.org/1999/xlink" x="0px" y="0px"
	 width="194.158px" height="194.25px" viewBox="0 0 194.158 194.25" enable-background="new 0 0 194.158 194.25"
	 xml:space="preserve">
<g>
	<path d="M194.158,97.123c0,53.686-43.441,97.126-97.126,97.126C43.441,194.25,0,150.809,0,97.123C0,43.533,43.441,0,97.031,0
		C150.717,0,194.158,43.533,194.158,97.123z M121.408,176.039c33.388-11.003,57.574-42.114,57.574-78.916
		c0-45.244-36.708-81.947-81.951-81.947c-45.148,0-81.855,36.704-81.855,81.947c0,36.802,24.282,68.008,57.764,78.916v-15.46
		c-23.903,5.407-28.929-11.192-28.929-11.192c-3.794-9.77-9.296-12.331-9.296-12.331c-7.683-5.217,0.57-5.122,0.57-5.122
		c8.441,0.569,12.899,8.632,12.899,8.632c7.967,13.658,21.151,8.726,25.23,6.733c1.233-5.975,5.88-7.208,7.398-7.683
		c-21.531-2.276-44.58-10.054-44.58-47.33c0-10.434,3.699-18.97,9.77-25.609c-0.948-2.466-4.268-12.141,0.949-25.325
		c0,0,8.062-2.559,26.273,9.769c7.588-2.086,15.745-3.13,23.902-3.224c8.062,0.094,16.219,1.138,23.902,3.224
		c18.211-12.327,26.179-9.769,26.179-9.769c5.216,13.184,1.992,22.858,0.948,25.325c6.165,6.639,9.864,15.176,9.864,25.609
		c0,37.275-23.049,44.958-44.58,47.235c3.889,2.656,7.967,7.683,7.967,17.263V176.039z"/>
</g>
</svg>
