<?xml version="1.0" encoding="utf-8"?>
<!-- Generator: Adobe Illustrator 19.1.0, SVG Export Plug-In . SVG Version: 6.00 Build 0)  -->
<svg version="1.1" id="Layer_1" xmlns="http://www.w3.org/2000/svg" xmlns:xlink="http://www.w3.org/1999/xlink" x="0px" y="0px"
	 viewBox="0 0 1322.9 304.5" style="enable-background:new 0 0 1322.9 304.5;" xml:space="preserve">
<style type="text/css">
	.st0{fill:#4D4D4D;}
</style>
<g>
	<path class="st0" d="M389,207.4c-6.9,0.3-13.2,0.7-19.5,0.9c-25.6,0.8-51.2,1.3-76.9,2.3c-20.8,0.8-41.5,1.9-62.3,3
		c-2.7,0.1-5.3,0.5-7.9,0.8c-3.4,0.5-6.2,0-7.5-3.9c-1-3-2.5-1.4-4-0.1c-13.3,12.3-28.8,20.3-46.4,24c-27.4,5.7-52.9,0.6-76.2-14.9
		c-2.7-1.8-3.7-1.9-4.6,1.4c-3.1,10.7-7,21.2-5.5,32.6c1.6,12,9.3,17.2,21.2,14.5c14.4-3.3,26-11.6,37.4-20.3
		c0.9-0.7,1.8-1.4,3.5-2.6c-1,4.7-4,7.2-6.3,9.9c-11.3,13.1-24.2,24.3-40.3,31.3c-5,2.2-10.3,3.8-15.8,4.3
		c-17.6,1.6-24.5-11.2-25.5-23.6c-1.4-18.4,3.5-35.8,10.8-52.2c3.8-8.7,3.8-14.5-2.1-22.9C36.7,157,39,109.3,65.6,75.8
		c17.9-22.5,41.3-35,70-37.6c17.7-1.6,34.4,1.6,50.4,9c2.8,1.3,4.7,1.2,7.1-0.8c14.5-11.9,29.6-23.1,45.7-33.1
		c1.2-0.8,2.3-1.7,5.3-1.8c-7.4,6.7-14.1,12.6-20.5,18.7c-7.6,7.2-15,14.7-22.6,21.9c-2.9,2.8-0.1,3.6,1.4,4.7
		c15.9,11.6,27.4,26.6,34.3,45c9.1,24.1,9,48.1-0.6,72c-1.5,3.8-1.5,5.4,2.9,7c22.3,8,45.3,13,68.6,16.6c25.3,4,50.9,4.8,76.3,7.8
		C385.5,205.5,387.3,205.4,389,207.4z M183.4,149.4c12.2,9.8,25.4,18.2,39.6,24.9c3.2,1.5,4.5,1,5.9-2.3
		c16.4-38.8,2.3-86.9-32.5-110.3c-2.5-1.7-3.7-0.9-5.4,0.9c-21.2,22.8-41.2,46.6-59.2,72c-15.6,22-29.7,44.9-41.3,69.4
		c-2.3,4.9-1.3,7.2,3,9.9c17.1,10.9,35.7,15.8,56,14.7c22.4-1.2,41.5-9.8,57.8-25c2-1.9,2.5-3.4,1.1-6c-5.1-9.3-10.2-18.7-15-28.2
		C189.8,162.8,185.3,156.7,183.4,149.4L183.4,149.4z M183.2,54.7c-31.9-16.9-79.7-12-109.6,23c-29.8,35-27.3,85.7-1.5,116.2
		C100,140.4,137.9,94.8,183.2,54.7z"/>
	<path class="st0" d="M337.8,169.3c10.2-13.6,19.8-26.3,29.4-39c15-19.9,30.1-39.8,45.1-59.8c2.1-2.8,4.2-4.1,7.8-4
		c35.5,0.1,70.9,0.1,106.4,0.1c4.8,0,9.4,0.7,12.8,4.5c3.9,4.3,5.7,9.8,2.5,14.7c-8.3,12.8-16.4,26.1-31.6,32.2
		c-2.3,0.9-4.7,1.7-7.6,2.7c2.8,2.7,4.3,5.7,4.1,9.3c-0.2,3.8-2.4,6.5-4.5,9.2c-3.8,4.9-7.3,9.9-11.4,14.5
		c-8.4,9.6-19.3,15.3-31.9,15.4C418.9,169.6,378.9,169.3,337.8,169.3z M410.5,147.5c9.2,0,17.3,0.1,25.4-0.1c2.6,0,4.8-1.6,6.4-3.5
		c2.6-3.1,4.9-6.3,7.3-9.5c1.3-1.8,1.6-3.7-0.1-5.4c-1.4-1.4-23.6-1.6-24.9,0C420,134.9,415.6,140.8,410.5,147.5z M441.5,106.5
		c6.4,0,11.6-0.6,16.6,0.1c10.4,1.5,16.6-3.7,21.5-11.8c2.4-4,1.3-6.4-3.4-6.5c-6.1-0.2-12.3,0-18.4-0.1c-1.6,0-2.8,0.5-3.8,1.8
		C450.1,95.2,446.2,100.3,441.5,106.5z"/>
	<path class="st0" d="M584.1,169.4c-15,0-30-0.1-45,0c-6.2,0.1-11.1-2-14.1-7.6c-3-5.7-1.6-10.9,2.1-15.8
		c15.1-19.9,30.1-39.9,45.2-59.8c9.9-13.2,23.2-19.6,39.6-19.6c29-0.1,58,0,87,0c6.3,0,11.6,1.9,14.4,7.9c2.8,5.9,1.2,11.2-2.7,16.3
		c-14.8,19.5-29.6,39-44.3,58.6c-10.2,13.6-23.8,20.3-40.8,20.2C611.7,169.3,597.9,169.4,584.1,169.4z M598,147.7
		c6.1-0.1,12.5,1.2,17-4.8c12-16,24-31.9,36.1-47.8c1.2-1.6,1.9-3.2,1-5.1c-0.9-1.8-2.7-1.8-4.3-1.8c-23.2,0.2-18.6-2.6-31.9,14.8
		c-0.6,0.8-1.2,1.6-1.8,2.4c-8.8,11.7-17.7,23.4-26.5,35.1c-1.2,1.6-2.6,3.1-1.3,5.4c1.1,2,3.1,1.7,4.8,1.7
		C593.4,147.7,595.7,147.7,598,147.7z"/>
	<path class="st0" d="M1281.7,113.9c-5.5,7.3-10.4,13.8-15.3,20.3c-1.9,2.5-4.7,1.6-7,1.3c-5.3-0.6-8.8,1.2-11.5,5.7
		c-2.1,3.6-4.9,6.7-7.5,10c-9.6,11.9-22,18.1-37.3,18.2c-29.7,0.1-59.3,0-89,0.1c-6,0-10.8-2.2-13.6-7.6c-2.7-5.4-1.8-10.6,1.8-15.4
		c15.7-20.7,31.1-41.6,47-62.1c9-11.6,21.4-17.5,36-17.6c29.8-0.3,59.7-0.1,89.5-0.1c6.1,0,11.2,2.2,14,7.8
		c2.8,5.7,0.8,10.6-2.3,15.9c-5.4,9.2-12.3,12.7-23.1,11.7c-11.9-1.1-24-0.2-36-0.3c-1.6,0-3.3,0.4-5.3-0.7c1.7-2.3,3.4-4.5,4.9-6.8
		c2-3.1,0.8-5.7-2.9-5.9c-5.8-0.2-11.7-0.1-17.5,0.1c-3.6,0.1-6.1,2.4-8.2,5.1c-11.9,15.7-23.7,31.4-35.5,47
		c-1.2,1.6-2.5,3.3-1.3,5.4c1.1,2,3.1,1.7,4.9,1.7c0.3,0,0.7,0,1,0c21.6-0.2,17.3,2.4,30.7-15.2c4-5.3,8.1-10.6,12-16
		c1.3-1.8,2.7-2.6,4.9-2.6C1237,113.9,1258.7,113.9,1281.7,113.9z"/>
	<path class="st0" d="M1053.6,118.6c12.6-16.6,24.6-32.4,36.3-48.3c2.1-2.9,4.3-3.9,7.9-3.8c10.3,0.2,20.6,0.1,31,0.1
		c0.6,2.2-1.1,3.2-2,4.4c-23.8,31.7-47.7,63.3-71.5,95c-1.9,2.5-3.7,3.6-7,3.6c-12-0.2-24-0.2-36,0c-3.3,0.1-4.5-1-5.2-4.3
		c-3-14-6.4-27.9-9.7-41.8c-0.4-1.5-0.8-3.1-1.4-5.4c-9.1,12-17.7,23.4-26.3,34.8c-4.1,5.4-7.3,12.9-12.8,15.6
		c-5.7,2.8-13.6,0.9-20.6,0.9c-5.1,0.1-10.2,0-16.3,0c4.8-6.4,9-11.9,13.1-17.4c20.7-27.4,41.4-54.7,61.9-82.2
		c1.8-2.4,3.6-3.4,6.6-3.3c11.7,0.2,23.3,0.2,35,0c3.6-0.1,5.1,0.8,5.9,4.6C1046,86.7,1049.8,102.2,1053.6,118.6z"/>
	<path class="st0" d="M812.3,147.8c-5.7,7.5-10.6,14.1-15.6,20.7c-0.8,1.1-2.1,0.9-3.2,0.9c-36,0-72,0-107.9,0
		c-0.3,0-0.6-0.2-0.9-0.3c-0.4-1.8,1.1-2.7,1.9-3.8c23.8-31.7,47.7-63.3,71.6-94.9c1.5-2,2.7-3.9,5.8-3.9
		c36.1,0.1,72.3,0.1,109.7,0.1c-3.5,4.7-7.1,8.4-9.4,12.7c-4.1,7.6-10,9.6-18.3,9.1c-13.5-0.7-27-0.1-40.5-0.3c-3.4,0-5.5,1-7.4,3.8
		c-3.2,4.7-6.9,9.2-10.8,14.4c18.9,0,37,0,56.4,0c-5.8,7.6-10.9,14.4-16.1,21.1c-1.1,1.4-3.2,0.7-4.8,0.7c-15.8,0-31.6,0.1-47.5-0.1
		c-3.4,0-5.5,1-7.4,3.8c-3.5,5.1-7.5,10-11.9,15.9C775.1,147.8,793.1,147.8,812.3,147.8z"/>
	<path class="st0" d="M961.8,66.5c-11.2,14.9-21.7,28.8-32.2,42.7c-14.2,18.9-28.5,37.7-42.6,56.6c-1.9,2.5-3.8,3.6-7,3.6
		c-16.9-0.2-33.9-0.1-50.9-0.1c-0.3-2,1.1-2.9,2-4C855,133.6,879,101.8,902.8,70c1.9-2.5,3.7-3.6,7-3.6
		C926.7,66.6,943.7,66.5,961.8,66.5z"/>
	<path class="st0" d="M183.4,149.4c-0.2-0.1-0.3-0.2-0.5-0.4c0.1,0,0.2,0,0.3,0C183.3,149.2,183.3,149.3,183.4,149.4
		C183.4,149.4,183.4,149.4,183.4,149.4z"/>
</g>
</svg>
