<?xml version="1.0" encoding="utf-8"?>
<!-- Generator: Adobe Illustrator 16.0.4, SVG Export Plug-In . SVG Version: 6.00 Build 0)  -->
<!DOCTYPE svg PUBLIC "-//W3C//DTD SVG 1.1//EN" "http://www.w3.org/Graphics/SVG/1.1/DTD/svg11.dtd">
<svg version="1.1" id="Layer_1" xmlns="http://www.w3.org/2000/svg" xmlns:xlink="http://www.w3.org/1999/xlink" x="0px" y="0px"
	 width="231.492px" height="60.662px" viewBox="0 0 231.492 60.662" enable-background="new 0 0 231.492 60.662"
	 xml:space="preserve">
<g>
	<g>
		<path fill="#FFFFFF" d="M18.672,54.049c-6.127,0-11.372-2.396-14.572-6.414c-4.017-5.282-5.185-12.51-3.049-18.869
			c1.925-5.738,6.318-9.949,12.05-11.55c1.607-0.48,3.366-0.723,5.227-0.723c1.833,0,3.666,0.237,5.444,0.702l0.119,0.014
			c8.171,2.243,13.143,8.936,13.323,17.911c0.099,1.097-0.184,2.05-0.819,2.747c-0.714,0.78-1.81,1.176-3.26,1.176H6.657
			c1.233,5.388,5.861,9.276,11.816,9.276c5.957,0,7.948-1.521,10.55-4.209c0.559-0.691,1.339-1.146,2.188-1.271
			c1.227-0.184,2.458,0.369,3.063,1.364c0.646,1.064,0.495,2.398-0.415,3.656C31.151,51.61,27.067,54.049,18.672,54.049z
			 M6.373,33.442h24.542c-0.693-5.191-4.08-9.166-8.877-10.396l-0.727-0.186c-0.815-0.163-1.699-0.246-2.618-0.246
			c-1.313,0-2.59,0.172-3.689,0.497C10.222,24.365,7.009,28.221,6.373,33.442z"/>
	</g>
</g>
<g>
	<g>
		<path fill="#FFFFFF" d="M44.32,54.049c-1.218,0-2.368-0.757-2.864-1.889c-0.509-1.16-0.24-2.476,0.723-3.521l11.637-13.646
			l-11.45-13.658c-1.123-1.466-0.802-2.666-0.511-3.251c0.516-1.042,1.715-1.746,2.984-1.746c0.968,0,1.842,0.402,2.458,1.134
			l10.835,13.342L69.83,17.463c0.553-0.746,1.419-1.183,2.366-1.183c1.261,0,2.528,0.767,3.082,1.869
			c0.474,0.943,0.368,1.989-0.291,2.877L62.429,34.998l12.652,13.921c0.846,0.953,1.051,2.115,0.567,3.189
			c-0.52,1.152-1.716,1.931-2.977,1.931c-0.64,0-1.581-0.202-2.423-1.149L58.194,39.043L46.886,52.797
			C45.956,53.836,44.978,54.049,44.32,54.049z"/>
	</g>
</g>
<g>
	<g>
		<path fill="#FFFFFF" d="M182.337,54.049c-1.963,0-3.183-1.19-3.183-3.11V32.61c-0.127-5.437-4.438-9.542-10.026-9.542
			c-7.133,0-12.312,5.324-12.312,12.657v15.213c0,1.863-1.309,3.11-3.25,3.11c-1.946,0-3.252-1.247-3.252-3.11V33.789
			c0-3.983-1.664-7.409-4.448-9.168c-1.595-0.983-3.476-1.482-5.576-1.482c-6.021,0-12.24,4.581-12.24,12.243v15.557
			c0,2.004-1.61,3.054-3.198,3.054c-0.824,0-1.603-0.267-2.187-0.753c-0.688-0.565-1.049-1.36-1.049-2.301V20.026
			c0-1.715,1.426-3.114,3.182-3.114c1.802,0,3.113,1.311,3.113,3.114v2.475c2.815-3.609,7.166-5.589,12.312-5.589
			c5.006,0,11.286,2.133,14.086,8.092c2.733-5.076,8.168-8.092,14.614-8.092c8.078,0,16.668,5.431,16.668,15.491v18.535
			C185.589,52.802,184.281,54.049,182.337,54.049z"/>
	</g>
</g>
<g>
	<g>
		<path fill="#FFFFFF" d="M197.044,54.049c-1.604,0-3.233-1.015-3.233-2.948V19.979c0-1.913,1.643-2.914,3.26-2.914
			c0.83,0,1.602,0.251,2.172,0.702c0.652,0.519,0.998,1.26,0.998,2.143v31.19C200.24,53.035,198.634,54.049,197.044,54.049z"/>
	</g>
</g>
<g>
	<g>
		<path fill="#FFFFFF" d="M223.984,54.049c-7.295,0-10.994-4.489-10.994-13.346V22.724h-3.873c-1.178,0-1.889-0.472-2.271-0.867
			c-0.502-0.516-0.781-1.204-0.781-1.952c0-1.417,1.07-2.921,3.056-2.921h3.871V9.652c0-2.138,1.645-3.108,3.168-3.108
			c1.588,0,3.192,1.066,3.192,3.108v7.332h6.853c1.981,0,3.021,1.443,3.021,2.87c0,1.425-1.039,2.87-3.021,2.87h-6.853v17.979
			c0,5.254,1.344,7.399,4.635,7.399c0.937,0,2.316-0.313,2.896-0.664c0.525-0.299,1.098-0.451,1.656-0.451
			c1.371,0,2.521,0.879,2.855,2.188c0.291,1.117-0.019,2.653-1.752,3.616C227.658,53.901,225.669,54.049,223.984,54.049z"/>
	</g>
</g>
<g>
	<g>
		<path fill="#FFFFFF" d="M98.45,60.662h-1.022c-6.661-0.047-14.161-3.94-15.906-12.536c-0.237-1.157-0.357-2.384-0.357-3.643
			V24.774c0-0.267,0.03-0.53,0.094-0.825l0.049-0.188c0.071-0.258,0.165-0.49,0.281-0.688c0.15-0.26,0.336-0.479,0.56-0.674
			c0.23-0.195,0.467-0.339,0.747-0.46l0.25-0.093c0.333-0.135,0.692-0.2,1.071-0.2l5.278-0.019c0.658,0,1.183,0.535,1.183,1.188
			v4.202c0,0.655-0.528,1.192-1.183,1.192l-1.896,0.007l-0.002,16.271c0,0.357,0.019,0.724,0.056,1.089
			c0.506,5.036,4.713,8.905,9.784,8.999h1.008c5.066-0.094,9.268-3.963,9.775-8.999c0.037-0.354,0.054-0.716,0.054-1.089v-16.27
			l-1.899-0.004c-0.655,0-1.185-0.542-1.185-1.197v-4.202c0-0.653,0.53-1.188,1.185-1.188l5.28,0.019c0.372,0,0.723,0.065,1.081,0.2
			l0.235,0.093c0.286,0.121,0.53,0.27,0.729,0.446c0.237,0.2,0.423,0.416,0.567,0.658c0.13,0.234,0.223,0.458,0.297,0.725
			l0.042,0.158c0.07,0.323,0.098,0.583,0.098,0.851v19.71c0,3.089-0.707,5.883-2.094,8.313
			C109.856,57.606,104.432,60.618,98.45,60.662z"/>
	</g>
</g>
<path fill="#FFFFFF" d="M102.447,0h-8.992c-1.936,0-2.949,1.629-2.949,3.237c0,1.588,1.014,3.193,2.949,3.193h1.262v25.333
	c0,1.938,1.631,2.952,3.24,2.952c1.585,0,3.193-1.016,3.193-2.952V6.432h1.367c0.883,0,1.625-0.345,2.143-0.997
	c0.453-0.573,0.702-1.342,0.702-2.17C105.362,1.643,104.36,0,102.447,0z"/>
</svg>
