<?xml version="1.0" encoding="utf-8"?>
<!-- Generator: Adobe Illustrator 16.0.4, SVG Export Plug-In . SVG Version: 6.00 Build 0)  -->
<!DOCTYPE svg PUBLIC "-//W3C//DTD SVG 1.1//EN" "http://www.w3.org/Graphics/SVG/1.1/DTD/svg11.dtd">
<svg version="1.1" id="Layer_1" xmlns="http://www.w3.org/2000/svg" xmlns:xlink="http://www.w3.org/1999/xlink" x="0px" y="0px"
	 width="361.042px" height="115.791px" viewBox="0 0 361.042 115.791" enable-background="new 0 0 361.042 115.791"
	 xml:space="preserve">
<path fill="#FFFFFF" d="M128.748,49.392h-11.589V34.796h11.589v-5.444c0-12.416,7.771-21.411,23.587-21.411
	c3.407,0,6.955-0.136,10.222,0v14.615l-7.086-0.017c-5.18,0-7.359,2.174-7.359,8.038v4.219h13.356v14.596h-13.356v55.905h-19.364
	V49.392z M233.303,83.334l33.946-33.942h-33.946V34.796h59.447v14.596l-41.291,41.309h41.108v14.596h-59.265V83.334z
	 M326.708,32.901c-21.403,0-35.996,16.087-35.996,37.224c0,21.799,13.77,37.077,35.996,37.077c11.684,0,20.995-3.812,27.307-12.377
	l-11.337-11.353h-0.016c-1.229,4.377-7.498,9.143-15.276,9.143c-10.763,0-16.765-5.588-17.312-17.86h50.861
	C362.292,53.079,350.701,32.901,326.708,32.901z M310.074,62.488c0.271-5.461,3.809-15.003,16.09-15.003
	c9.404,0,13.631,5.173,15.402,15.003H310.074z M211.142,34.796l-0.01,42.09h0.01c0,7.566-6.168,13.706-13.765,13.706
	c-7.601,0-13.774-6.14-13.774-13.706v-42.09h-19.29v41.456c0,17.45,5.177,29.045,25.766,29.045c7.645,0,17.762,0,19.324,0
	l21.034-20.74v-49.76H211.142z"/>
<g>
	<polygon fill="#FFFFFF" points="55.842,114.584 8.003,66.744 55.842,66.744 	"/>
	<polygon fill="#FFFFFF" points="8.003,29.514 37.018,0.5 84.86,0.5 84.86,29.514 37.018,29.514 	"/>
	<path fill="#FFFFFF" d="M55.845,62.635H84.86L55.845,33.62l-40.838,0.004C6.995,33.624,0.5,40.119,0.5,48.132
		S6.995,62.64,15.006,62.64L55.845,62.635z"/>
</g>
</svg>
