<?xml version="1.0" encoding="utf-8"?>
<!-- Generator: Adobe Illustrator 21.0.1, SVG Export Plug-In . SVG Version: 6.00 Build 0)  -->
<svg version="1.1" id="Layer_1" xmlns="http://www.w3.org/2000/svg" xmlns:xlink="http://www.w3.org/1999/xlink" x="0px" y="0px"
	 viewBox="0 0 1940.1 1464.2" style="enable-background:new 0 0 1940.1 1464.2;" xml:space="preserve">
<style type="text/css">
	.st0{fill:#4D4D4D;}
</style>
<path class="st0" d="M1940.1,463.4h-411.9c2.6-44.4,39.4-79,83.8-79V200.3C1231.4,186.9,1053.4,62.8,971.4,0
	c-82,62.8-260.5,187-641,200.3v184.2c44.4,0,81.2,34.6,83.8,79H0v509.2h384.9c0,16.3-8.6,64.5-112,76
	c70.9,65.1,484,415.6,698.5,415.6s628.7-350.5,699.6-415.6c-96.7-10.5-112-53-112-76H1940L1940.1,463.4L1940.1,463.4L1940.1,463.4z
	 M372.4,353l0.1-114.9c344.3-17.9,514.3-121.2,598.9-184.7c90.8,64.4,254.1,166.8,598.4,184.7l-0.2,114.9
	c-46.9,16.9-80.7,58.1-82.3,110.4h-41.3c1.4-59.2,33.7-107.8,81.5-136.1l0.1-52c-278-19.6-459.6-105.8-556.3-172.3
	C887,165,717.2,248,414.6,275.3l0.1,52c47.8,28.3,80.1,76.9,81.5,136.1h-41.3C453.3,411.1,419.3,369.9,372.4,353L372.4,353z
	 M1408.6,416.6v46.8h-45v-36.8c0-11.5-13.9-16.8-20.1-16.8h-43.1v53.5h-45V265.8l108.2,22.5c15.3,3.3,45,13.4,45,43.1v32.1
	c0,11.5-1.4,21.5-15.8,28.7C1399.5,396,1408.6,408.9,1408.6,416.6L1408.6,416.6z M1217.1,298.8v120.7c0.5,14.8-8.1,43.9-47.4,43.9
	h-58.9c-19.6,0-45-10.4-45-45.9V241.3c0-21.1,21.5-34.5,45.5-25.9l78.5,30.2C1208.9,253.3,1217.6,270.1,1217.1,298.8z M889.6,243.7
	v-49.8l81.8-44.5l85.7,46.9v49.8l-59.4-32.1v249.3H949V211.2L889.6,243.7z M883.8,241.3v176.2c0,35.4-25.4,45.9-45,45.9H780
	c-39.3,0-47.9-29.1-47.4-43.9V298.8c-0.5-28.7,8.1-45.5,27.3-53.1l78.5-30.2C862.3,206.9,883.8,220.3,883.8,241.3z M625.8,463.4
	l-36.9-78.9v78.9h-45v-166l45-8.1l35.4,75.7l39.3-91.5l42.1-11v201h-45v-81.8L625.8,463.4L625.8,463.4z M1575.2,1065.8
	c-113,114.9-454.4,354.3-603.8,354.3s-489.7-239.4-602.7-354.3c58.4-25.9,68-63.5,71.8-93.2h46.9c-2.9,27.8-8.6,72.1-46.9,98.9
	c44.1,42.1,373.9,306.4,530.9,306.4c157,0,487.9-264.3,532-306.4c-38.3-26.8-44.1-71.2-46.9-98.9h46.9
	C1507.2,1002.3,1516.8,1040,1575.2,1065.8z M584.8,1092.5c2.6,1.7,103.7,80.5,103.7,80.5v48c0,0-142.2-106.2-146.5-108.8
	c-5.1-3.4-12-15.4-13.7-24c-1.7-8.6,0-77.1,0-84.8s8.6-30.8,20.6-30.8h110.5v45.4h-66c-10.3-0.9-16.3,2.6-16.3,12v50.5
	C577.1,1084,581.4,1090.8,584.8,1092.5L584.8,1092.5z M685.8,972.6h46.3l24.8,77.1l40.3-77.1h43.7L778.4,1108v161.9
	c0,7.7-43.7-16.3-44.5-22.3c-1.7-6,0-141.4,0-141.4L685.8,972.6z M901.8,1266.3c2.6,5.1,59.1,31.7,59.1,31.7v53.1
	c0,0-90.8-38.6-99.4-47.1c-9.4-9.4-10.3-19.7-10.3-24v-269c0-16.3,32.6-38.4,40.3-38.4h66.8v48.7c0,1.7-38.5,1.7-48,0
	c-5.1-0.9-12,6-12,30V1250C898.4,1254.3,898.4,1262,901.8,1266.3L901.8,1266.3z M1094.5,1253.4v46.2c0,0-75.4,33.4-87.4,39.4
	c-6.9,3.4-14.6-2.6-14.6-12.8V972.6h51.4V1274L1094.5,1253.4z M1205,1090.8v39.4h-48v95.1l58.2-27.4v42l-77.1,38.6
	c-9.4,4.3-21.4,0-21.4-8.6V989.7c0-11.1,9.4-17.1,17.1-17.1h89.9v48.8H1157v69.4H1205z M1353.1,1094.1c0,0-75.4,1.7-89.1,0
	c-12.8-1.7-18-4.3-18-13.7c0-8.6-0.9-65.1,0-81.4c1.7-16.3,27.4-24.7,39.4-26.4c11.1-0.9,113.1,0,113.1,0v44.4h-108.8
	c-4.3,0-3.4,36.8,0,36.8h97.7c13.7,0,12,3.4,12,9.4v54.8c0,6-8.6,12.8-12,16.3c-2.6,2.6-145.6,89.1-145.6,89.1v-38.6
	c0,0,113.9-72,114.8-77.1C1358.2,1100.1,1353.1,1094.1,1353.1,1094.1L1353.1,1094.1z M1898.9,929.8H43.1V512.3h1855.8L1898.9,929.8
	L1898.9,929.8z M788.1,283.9l36.4-14.4c6.7-2.9,14.4,0,14.4,10.5v122.6c0,8.1-3.8,14.8-13.9,14.8h-33c-10.5,0-14.4-5.3-14.4-13.9
	V306C777.6,295.4,778.5,288.7,788.1,283.9z M1172.1,306v97.7c0,8.6-3.8,13.9-14.4,13.9h-33c-10.1,0-13.9-6.7-13.9-14.8V280.1
	c0-10.5,7.7-13.4,14.4-10.5l36.4,14.4C1171.1,288.7,1172.1,295.4,1172.1,306L1172.1,306z M1354,329.9c9.6,1.9,9.6,11,9.6,19.2
	c0,8.1-1.4,15.8-10.1,15.8h-53.1v-46L1354,329.9z M86.2,550.6v336.1h1770.6V550.6H86.2z M251.3,847.5h-39V735.1h-30.8v112.4h-39
	V585.7h39v104.7h30.8V585.7h39V847.5z M342.1,847.5l-6.9-68.1h-28.5l-8,68.1h-35.3l29.8-261.8h58.5l29.8,261.8H342.1L342.1,847.5z
	 M505.3,667.7c0,19.5-3.5,34.7-17.5,45.8c2,2.3,17.1,12.3,17.5,30.1l0,103.9h-39l0-87.6c0-15.8-6.7-20.9-31.6-20.9v108.4h-39V585.7
	h64.4c31.3,0,45.1,11,45.1,44.9L505.3,667.7L505.3,667.7L505.3,667.7z M606.4,847.5h-78.6V585.7h39v220.4h39.6V847.5L606.4,847.5z
	 M700.8,847.5h-81.3V585.7h80.6v40.9h-41.6v63.9h39.7v41.4h-39.7v74.2h42.3V847.5L700.8,847.5z M791.2,847.5h-39v-97.8l-40.1-164
	h40.1l21,91.5l21.6-91.5h36.4l-40.1,162.2V847.5z M890.6,732.1h-71.3v-33h71.3V732.1z M1013.4,800c0,25-16.2,47.4-46.3,47.4h-55.5
	V585.7h47.1c38.6,0,54.8,13.2,54.8,59.2L1013.4,800L1013.4,800L1013.4,800z M1102.4,847.5l-6.9-68.1H1067l-8,68.1h-35.3l29.8-261.8
	h58.5l29.8,261.8H1102.4L1102.4,847.5z M1209.7,847.5h-43.6l-36.6-261.8h39.7l18.9,157.4l18.9-157.4h39.3L1209.7,847.5z
	 M1296.3,847.5h-39V585.7h39V847.5z M1421.3,800c0,25-16.2,47.4-46.3,47.4h-55.5V585.7h47.1c38.6,0,54.8,13.2,54.8,59.2L1421.3,800
	L1421.3,800L1421.3,800z M1548.2,674.5h-39V638c0-13.2-7.9-16.2-15.6-16.2c-8.1,0-15.5,2.9-15.5,16.2v29c0,18.8,69.6,51.9,69.6,78.4
	v63.1c0,34.2-30.2,44.1-54.5,44.1c-23.9,0-53.6-9.9-53.6-44.1v-57h39V798c0,13.2,6.9,16.2,15,16.2c7.7,0,15.1-2.9,15.1-16.2v-27.6
	c0-36.8-69.6-47-69.6-89.6v-56.2c0-34.2,30.2-44.1,54.1-44.1c24.3,0,54.9,9.9,54.9,44.1V674.5z M1674.7,808.5
	c0,34.2-31.4,44.1-55.3,44.1c-23.9,0-54.6-9.9-54.6-44.1V624.7c0-34.2,30.7-44.1,54.6-44.1c23.9,0,55.3,9.9,55.3,44.1L1674.7,808.5
	L1674.7,808.5z M1808.5,847.5h-47.7l-31-149v149h-39.2V585.7h52.7l25.5,133.1V585.7h39.7L1808.5,847.5L1808.5,847.5L1808.5,847.5z
	 M311.3,735.1l9.1-101.7h2.6l7.6,101.7H311.3z M434.8,621.7h15.4c8.8,0,14.7,6.3,14.7,16.2v39.3c0,9.6-2.9,21.2-16.6,21.2h-13.6
	V621.7z M950.5,627h9.2c9.9,0,14.7,2.6,14.7,19.5v140.2c0,16.9-4.8,19.5-14.7,19.5h-9.2V627z M1071.6,735.1l9.1-101.7h2.6l7.6,101.7
	H1071.6z M1358.4,627h9.2c9.9,0,14.7,2.6,14.7,19.5v140.2c0,16.9-4.8,19.5-14.7,19.5h-9.2V627z M1603.8,792.7V639
	c0-13.2,7.9-16.2,16-16.2c8.1,0,16,2.9,16,16.2v153.8c0,13.2-7.9,16.2-16,16.2C1611.7,808.9,1603.8,806,1603.8,792.7z"/>
</svg>
