<?xml version="1.0" encoding="utf-8"?>
<!-- Generator: Adobe Illustrator 16.0.4, SVG Export Plug-In . SVG Version: 6.00 Build 0)  -->
<!DOCTYPE svg PUBLIC "-//W3C//DTD SVG 1.1//EN" "http://www.w3.org/Graphics/SVG/1.1/DTD/svg11.dtd">
<svg version="1.1" id="Layer_1" xmlns="http://www.w3.org/2000/svg" xmlns:xlink="http://www.w3.org/1999/xlink" x="0px" y="0px"
	 width="1235.594px" height="619.95px" viewBox="0 0 1235.594 619.95" enable-background="new 0 0 1235.594 619.95"
	 xml:space="preserve">
<g>
	<g>
		<path fill="#4D4D4D" d="M476.149,249.081h33.006v-43.403c0-3.837,1.455-5.47,5.302-5.47h19.682c3.828,0,5.103,1.633,5.103,5.47
			v113.063c0.005,3.826-1.272,5.467-5.103,5.467h-19.687c-3.842,0-5.295-1.637-5.295-5.475v-45.032H476.15v45.04
			c0,3.826-1.282,5.467-5.1,5.467h-19.705c-3.833,0-5.277-1.643-5.289-5.467V205.677c0.012-3.837,1.456-5.47,5.289-5.47h19.705
			c3.815,0,5.1,1.633,5.1,5.47L476.149,249.081L476.149,249.081z"/>
		<path fill="#4D4D4D" d="M622.959,205.679l33.01,113.062c1.084,3.467-0.192,5.469-4.014,5.469h-20.234
			c-3.834,0-5.475-2.002-6.397-5.469l-4.738-17.506h-30.271l-4.737,17.51c-0.915,3.463-2.558,5.465-6.387,5.465h-18.407
			c-3.84,0-5.104-2.002-4.021-5.465l33.01-113.062c1.093-3.647,2.916-5.47,6.752-5.47h19.689
			C620.04,200.208,621.866,202.026,622.959,205.679z M611.47,267.679c-2.917-11.13-5.472-36.466-5.659-38.116
			c-0.357,2.548-3.278,27.538-6.196,38.116l-2.732,9.85h17.139L611.47,267.679z"/>
		<path fill="#4D4D4D" d="M759.545,294.482c0.012,15.684-10.572,31.183-44.846,31.183c-34.287,0-44.855-15.496-44.867-31.183
			v-64.548c0.01-15.682,10.58-31.183,44.867-31.188c34.272,0,44.856,15.507,44.846,31.188v8.377
			c0.012,3.836-1.271,5.477-5.104,5.479h-18.771c-3.84,0-5.295-1.643-5.295-5.479v-3.087c0-8.39-6.387-11.853-15.324-11.853
			c-8.928,0-15.121,3.462-15.121,11.85v53.973c0,8.391,6.193,11.857,15.121,11.857c8.938,0,15.324-3.464,15.324-11.857v-5.827
			c0-3.831,1.455-5.475,5.295-5.475h18.779c3.83,0,5.104,1.644,5.094,5.475L759.545,294.482L759.545,294.482z"/>
		<path fill="#4D4D4D" d="M877.917,318.741c1.826,2.729,1.094,5.467-2.736,5.467h-25.157c-3.828,0-5.841-2.74-7.656-5.467
			l-28.816-44.671h-2.004l-0.008,44.671c0,3.83-1.271,5.467-5.092,5.467h-19.703c-3.832,0-5.295-1.643-5.295-5.467V205.677
			c0-3.837,1.461-5.47,5.295-5.47h19.688c3.832,0,5.104,1.646,5.104,5.47v46.5h1.834l27.891-46.5c1.828-2.911,4.742-5.47,8.574-5.47
			h20.973c3.826,0,4.373,2.549,2.56,5.47l-34.652,55.436L877.917,318.741z"/>
	</g>
	<g>
		<path fill="#4D4D4D" d="M543.37,352.879v18.176c0,4.906-2.102,6.773-6.996,6.773h-53.396v30.295h49.661
			c4.894,0,6.999,1.629,6.999,6.531v18.188c0,4.895-2.105,6.756-6.994,6.77l-49.666-0.014v58.283c0,4.883-1.63,6.984-6.528,6.984
			h-25.168c-4.896,0-6.756-2.105-6.756-6.984V353.342c0-4.898,1.861-6.994,6.756-6.994h85.09
			C541.271,346.348,543.37,347.989,543.37,352.879z"/>
		<path fill="#4D4D4D" d="M607.493,460.127c0,10.717,9.564,15.139,20.983,15.139c11.429,0,21.214-4.418,21.214-15.139V353.342
			c0-4.887,1.854-6.986,6.772-6.994h25.17c4.883,0,6.521,2.098,6.527,6.994v113.531c-0.01,20.053-15.857,39.861-59.693,39.865
			c-43.817,0-59.439-19.812-59.439-39.865V353.342c0-4.887,1.872-6.994,6.765-6.994h25.178c4.896,0,6.523,2.098,6.523,6.994V460.127
			z"/>
		<path fill="#4D4D4D" d="M813.827,346.348c4.889,0.008,6.99,1.641,6.99,6.531v18.178c0,4.908-2.103,6.773-6.986,6.773h-29.842
			l0.008,120.053c0,4.881-1.635,6.984-6.539,6.984h-25.174c-4.898,0.002-6.767-2.105-6.756-6.984l-0.011-120.053H715.69
			c-4.898,0-6.998-1.865-6.998-6.773v-18.178c0-4.891,2.1-6.531,6.998-6.523L813.827,346.348z"/>
		<path fill="#4D4D4D" d="M879.812,460.127c0,10.721,9.556,15.139,20.976,15.139c11.438,0,21.229-4.418,21.219-15.139V353.342
			c0-4.896,1.863-6.994,6.76-6.986l25.179-0.008c4.893,0,6.522,2.107,6.522,6.994v113.531c0,20.053-15.854,39.865-59.672,39.861
			c-43.83,0.004-59.451-19.811-59.451-39.861V353.342c0-4.896,1.863-6.986,6.756-6.994h25.188c4.891,0,6.525,2.098,6.525,6.994
			v106.785H879.812z"/>
		<path fill="#4D4D4D" d="M1085.217,440.54l22.834,57.344c1.642,4.193-1.391,6.984-6.514,6.984h-25.184
			c-4.437,0-5.355-3.732-6.767-6.984l-20.508-51.52l-17.486-0.018v51.533c0,4.887-1.646,6.984-6.528,6.984H999.89
			c-4.891,0-6.772-2.084-6.772-6.984V353.342c0.01-4.9,1.883-6.99,6.772-6.99l50.354-0.004c43.828,0,59.211,19.818,59.211,39.871
			v20.275C1109.456,419.788,1102.688,433.075,1085.217,440.54z M1031.592,377.829v37.07h18.652
			c11.42-0.014,21.209-4.438,21.209-15.168v-6.76c0-10.721-9.793-15.145-21.209-15.145h-18.652V377.829z"/>
		<path fill="#4D4D4D" d="M1146.521,504.872c-4.887-0.008-6.743-2.105-6.743-6.992V353.342c0-4.9,1.858-6.99,6.743-6.994
			l79.734,0.004c4.898-0.004,6.998,1.637,6.998,6.527v18.176c0,4.906-2.109,6.773-6.998,6.77l-48.027,0.002v30.299h44.306
			c4.899,0,6.988,1.641,7,6.529l-0.012,17.021c0.012,4.896-2.089,6.756-6.988,6.756h-44.306v34.977h50.369
			c4.894,0,6.996,1.623,6.996,6.523v18.186c0,4.896-2.104,6.754-6.996,6.75L1146.521,504.872z"/>
	</g>
	<g>
		<path fill="#4D4D4D" d="M1014.979,199.846c3.859,0,5.509,1.285,5.509,5.144v14.302c0,3.853-1.646,5.319-5.509,5.315l-23.463,0.004
			v94.456c0,3.854-1.293,5.5-5.137,5.5h-19.811c-3.851,0-5.32-1.646-5.32-5.514v-94.442l-23.479-0.005
			c-3.845,0.003-5.507-1.461-5.507-5.319v-14.299c0-3.859,1.658-5.144,5.507-5.141L1014.979,199.846z"/>
		<path fill="#4D4D4D" d="M1067.827,248.998h33.197v-43.653c0-3.852,1.463-5.5,5.311-5.497l19.81-0.003
			c3.852,0,5.131,1.648,5.131,5.5l0.004,113.72c0,3.855-1.283,5.502-5.135,5.502h-19.796c-3.858,0-5.323-1.646-5.323-5.502v-45.303
			h-33.197v45.303c0,3.844-1.287,5.502-5.135,5.502h-19.82c-3.846,0-5.305-1.658-5.312-5.502V205.344c0-3.852,1.47-5.5,5.32-5.5
			h19.812c3.848,0,5.135,1.648,5.135,5.5L1067.827,248.998L1067.827,248.998z"/>
		<path fill="#4D4D4D" d="M1163.208,324.565c-3.859,0-5.324-1.658-5.324-5.502V205.344c0-3.852,1.465-5.5,5.324-5.5h62.725
			c3.853,0,5.492,1.284,5.492,5.135v14.311c0,3.853-1.643,5.319-5.492,5.319h-37.78l-0.002,23.841h34.846
			c3.848-0.008,5.502,1.279,5.502,5.129v13.392c0,3.853-1.654,5.32-5.502,5.32h-34.844v27.505l39.619,0.003
			c3.854,0,5.493,1.286,5.493,5.136l0.015,14.306c0,3.85-1.654,5.322-5.508,5.322h-64.562L1163.208,324.565L1163.208,324.565z"/>
	</g>
</g>
<g>
	<g>
		<path fill="#4D4D4D" d="M418.68,103.48l-16.31-18.12l-7.23,1.54l8.049,37.9c1.791,8.41-3.567,16.68-11.987,18.46l-2.762,0.59
			c-8.398,1.79-16.68-3.58-18.459-11.98l-8.051-37.91l-7.24,1.54l-7.55,23.18l-7.52,23.19l16.319,18.12l16.311,18.12l4.189-0.891
			c0.399,2.28,0.449,4.91,0.051,8.062c-2.07,16.89-20.971,35.16-53.721,39.03c-2.801-4.36-7.699-7.24-13.25-7.24H248.28v-6.51h31.87
			c9.06,0,16.43-7.35,16.43-16.41v-27.84h9.63c4.88,0,8.84-3.97,8.84-8.85v-35.75c0-4.88-3.96-8.84-8.84-8.84h-9.63V77.82
			c0-9.061-7.36-16.42-16.43-16.42h-60.72v-9.84c12.36-1.98,21.812-12.69,21.812-25.62C241.24,11.61,229.63,0,215.3,0
			c-14.34,0-25.95,11.61-25.95,25.94c0,12.56,8.91,23.02,20.771,25.43V61.4h-60.55c-9.04,0-16.4,7.35-16.4,16.42v35.05h-9.75
			c-4.89,0-8.84,3.97-8.84,8.84v35.75c0,4.88,3.96,8.85,8.84,8.85h9.76v27.84c0,9.06,7.351,16.41,16.41,16.41h31.33v6.51h-61.26
			c-5.11,0-9.671,2.45-12.56,6.229c-42.841,5.5-82.541,31.11-87.711,73.26c-0.82,6.59-0.85,13.7,0.6,21.061l-4.93,1.051l-7.53,23.18
			L0,365.04l16.31,18.121l16.311,18.109l7.25-1.539l-8.051-37.91c-1.799-8.4,3.57-16.66,11.98-18.451l2.76-0.59
			c8.41-1.789,16.68,3.58,18.461,12l8.049,37.9l7.25-1.541l7.541-23.18l7.529-23.199l-16.32-18.109L62.76,308.53l-4.2,0.891
			c-0.39-2.28-0.439-4.9-0.05-8.061c1.9-15.4,17.771-31.95,45.38-37.68v141.26c0,8.699,7.061,15.76,15.771,15.76h2.53v144.451H112.4
			v40.779h-9.029v14.02h102.54v-14.02h-8.61v-40.779h-7.58V420.7h49.22v144.451h-9.789v40.779h-9.03v14.02h102.54v-14.02h-8.602
			v-40.779h-7.59V420.7h3.051c8.699,0,15.761-7.059,15.761-15.76v-141.3c43.818-4.78,85.05-30.57,90.33-73.57
			c0.81-6.601,0.856-13.7-0.604-21.05l4.91-1.05l7.55-23.188l7.53-23.19L418.68,103.48z M234.46,96.39c2.05-2,4.84-3.24,7.92-3.24
			c4.021,0,7.54,2.1,9.56,5.26c1.131,1.77,1.811,3.85,1.811,6.1c0,6.29-5.1,11.37-11.37,11.37c-6.26,0-11.36-5.08-11.36-11.37
			C231.02,101.33,232.35,98.46,234.46,96.39z M210.11,40.9v0.85c-6.65-2.17-11.46-8.43-11.46-15.82c0-9.189,7.449-16.63,16.63-16.63
			c9.199,0,16.648,7.45,16.648,16.64c0,7.76-5.319,14.29-12.51,16.13V40.9c0-3.09-2.41-4.65-4.66-4.65
			C212.53,36.25,210.11,37.81,210.11,40.9z M187.25,93.15c6.27,0,11.37,5.09,11.37,11.36c0,6.29-5.101,11.37-11.37,11.37
			c-6.271,0-11.36-5.08-11.36-11.37C175.89,98.24,180.979,93.15,187.25,93.15z M157.32,139.67h115c0,29.96-25.74,57.51-57.5,57.51
			C183.06,197.18,157.32,169.63,157.32,139.67z M283.45,384.94h-137.2V247.69h137.2V384.94z"/>
	</g>
	
		<polyline fill="none" stroke="#4D4D4D" stroke-width="6" stroke-linecap="round" stroke-linejoin="round" stroke-miterlimit="10" points="
		240.215,385.926 240.215,290.731 144.264,290.731 	"/>
	
		<polyline fill="none" stroke="#4D4D4D" stroke-width="6" stroke-linecap="round" stroke-linejoin="round" stroke-miterlimit="10" points="
		192.67,385.926 192.67,338.829 144.264,338.829 	"/>
</g>
</svg>
