<?xml version="1.0" encoding="utf-8"?>
<!-- Generator: Adobe Illustrator 16.0.3, SVG Export Plug-In . SVG Version: 6.00 Build 0)  -->
<!DOCTYPE svg PUBLIC "-//W3C//DTD SVG 1.1//EN" "http://www.w3.org/Graphics/SVG/1.1/DTD/svg11.dtd">
<svg version="1.1" id="Layer_1" xmlns="http://www.w3.org/2000/svg" xmlns:xlink="http://www.w3.org/1999/xlink" x="0px" y="0px"
	 width="859.428px" height="619.95px" viewBox="0 0 859.428 619.95" enable-background="new 0 0 859.428 619.95"
	 xml:space="preserve">
<g>
	<g>
		<path d="M392.457,310.309h20.295v-26.688c0-2.359,0.894-3.363,3.26-3.363h12.102c2.354,0,3.136,1.004,3.136,3.363v69.52
			c0.003,2.353-0.782,3.362-3.136,3.362h-12.105c-2.362,0-3.256-1.007-3.256-3.366v-27.689h-20.295v27.693
			c0,2.353-0.788,3.362-3.135,3.362h-12.116c-2.357,0-3.246-1.01-3.252-3.362v-69.52c0.006-2.359,0.895-3.363,3.252-3.363h12.116
			c2.347,0,3.135,1.004,3.135,3.363V310.309z"/>
		<path d="M482.729,283.622l20.296,69.52c0.666,2.131-0.119,3.362-2.467,3.362h-12.443c-2.356,0-3.365-1.231-3.934-3.362
			l-2.914-10.764h-18.613l-2.913,10.766c-0.562,2.129-1.572,3.36-3.927,3.36h-11.318c-2.361,0-3.139-1.231-2.473-3.36l20.296-69.521
			c0.673-2.243,1.794-3.363,4.153-3.363h12.107C480.933,280.258,482.056,281.376,482.729,283.622z M475.663,321.744
			c-1.793-6.843-3.364-22.422-3.479-23.436c-0.221,1.567-2.017,16.933-3.812,23.436l-1.68,6.058h10.539L475.663,321.744z"/>
		<path d="M566.713,338.226c0.007,9.644-6.501,19.174-27.575,19.174c-21.082,0-27.58-9.528-27.588-19.174v-39.69
			c0.006-9.642,6.506-19.174,27.588-19.177c21.074,0,27.582,9.535,27.575,19.177v5.151c0.007,2.359-0.782,3.368-3.138,3.369h-11.541
			c-2.361,0-3.256-1.01-3.256-3.369v-1.898c0-5.159-3.926-7.288-9.422-7.288c-5.49,0-9.298,2.129-9.298,7.286v33.187
			c0,5.159,3.808,7.291,9.298,7.291c5.496,0,9.422-2.129,9.422-7.291v-3.583c0-2.356,0.895-3.366,3.256-3.366h11.547
			c2.355,0,3.139,1.01,3.132,3.366V338.226z"/>
		<path d="M639.497,353.141c1.123,1.678,0.673,3.362-1.682,3.362h-15.47c-2.355,0-3.59-1.685-4.708-3.362l-17.719-27.467h-1.232
			l-0.005,27.467c0,2.355-0.782,3.362-3.131,3.362h-12.114c-2.357,0-3.256-1.01-3.256-3.362v-69.52c0-2.359,0.898-3.363,3.256-3.363
			h12.106c2.356,0,3.139,1.012,3.139,3.363v28.593h1.128l17.149-28.593c1.124-1.79,2.916-3.363,5.272-3.363h12.896
			c2.353,0,2.688,1.567,1.572,3.363l-21.307,34.086L639.497,353.141z"/>
	</g>
	<g>
		<path d="M433.79,374.133v11.176c0,3.018-1.291,4.165-4.302,4.165h-32.831v18.628h30.536c3.008,0,4.304,1.001,4.304,4.015v11.185
			c0,3.008-1.296,4.153-4.302,4.162l-30.538-0.009v35.838c0,3.003-1.002,4.295-4.014,4.295h-15.476c-3.01,0-4.154-1.292-4.154-4.295
			v-88.874c0-3.013,1.145-4.301,4.154-4.301h52.32C432.499,370.118,433.79,371.125,433.79,374.133z"/>
		<path d="M473.218,440.078c0,6.59,5.883,9.31,12.903,9.31c7.027,0,13.044-2.718,13.044-9.31v-65.659
			c0-3.006,1.141-4.298,4.164-4.301h15.478c3.002,0,4.007,1.288,4.013,4.301v69.808c-0.006,12.33-9.75,24.509-36.705,24.512
			c-26.943,0-36.549-12.182-36.549-24.512v-69.808c0-3.006,1.151-4.301,4.16-4.301h15.481c3.011,0,4.011,1.288,4.011,4.301V440.078z
			"/>
		<path d="M600.09,370.118c3.006,0.003,4.298,1.008,4.298,4.016v11.176c0,3.018-1.292,4.165-4.296,4.165h-18.35l0.005,73.818
			c0,3.003-1.005,4.295-4.021,4.295h-15.478c-3.013,0.003-4.16-1.292-4.154-4.295l-0.006-73.818h-18.341
			c-3.012,0-4.303-1.147-4.303-4.165v-11.176c0-3.008,1.291-4.016,4.303-4.013L600.09,370.118z"/>
		<path d="M640.663,440.078c0,6.592,5.875,9.31,12.898,9.31c7.032,0,13.052-2.718,13.046-9.31v-65.659
			c0-3.013,1.146-4.301,4.157-4.298l15.481-0.003c3.008,0,4.011,1.295,4.011,4.301v69.808c0,12.33-9.748,24.512-36.691,24.509
			c-26.951,0.003-36.555-12.179-36.555-24.509v-69.808c0-3.013,1.145-4.298,4.153-4.301h15.487c3.007,0,4.012,1.288,4.012,4.301
			V440.078z"/>
		<path d="M766.963,428.033l14.04,35.26c1.009,2.578-0.855,4.295-4.005,4.295h-15.484c-2.728,0-3.294-2.294-4.161-4.295
			l-12.61-31.679l-10.752-0.01v31.688c0,3.003-1.012,4.295-4.015,4.295h-15.479c-3.007,0-4.164-1.282-4.164-4.295v-88.874
			c0.006-3.013,1.157-4.298,4.164-4.298l30.962-0.003c26.949,0,36.408,12.187,36.408,24.516v12.466
			C781.867,415.273,777.706,423.443,766.963,428.033z M733.99,389.474v22.793h11.469c7.021-0.007,13.041-2.728,13.041-9.325v-4.157
			c0-6.592-6.021-9.311-13.041-9.311H733.99z"/>
		<path d="M804.658,467.59c-3.004-0.003-4.146-1.295-4.146-4.298v-88.874c0-3.013,1.143-4.298,4.146-4.301l49.027,0.003
			c3.012-0.003,4.304,1.005,4.304,4.013v11.176c0,3.018-1.298,4.165-4.304,4.162l-29.531,0.003v18.628h27.243
			c3.013,0,4.296,1.009,4.304,4.015l-0.008,10.467c0.008,3.011-1.283,4.154-4.296,4.154h-27.243v21.506h30.972
			c3.008,0,4.302,0.998,4.302,4.012v11.181c0,3.011-1.294,4.154-4.302,4.151L804.658,467.59z"/>
	</g>
	<g>
		<path d="M723.776,280.035c2.372,0,3.385,0.79,3.385,3.163v8.794c0,2.369-1.013,3.271-3.385,3.269l-14.428,0.002v58.079
			c0,2.37-0.794,3.382-3.159,3.382h-12.18c-2.366,0-3.272-1.012-3.272-3.39v-58.071L676.3,295.26
			c-2.363,0.002-3.385-0.899-3.385-3.271v-8.792c0-2.373,1.021-3.163,3.385-3.161L723.776,280.035z"/>
		<path d="M756.27,310.258h20.411v-26.842c0-2.368,0.901-3.382,3.267-3.38l12.179-0.002c2.369,0,3.155,1.014,3.155,3.382
			l0.003,69.925c0,2.37-0.789,3.382-3.158,3.382h-12.171c-2.373,0-3.274-1.012-3.274-3.382v-27.856H756.27v27.856
			c0,2.363-0.792,3.382-3.157,3.382h-12.188c-2.364,0-3.261-1.019-3.268-3.382v-69.925c0-2.368,0.903-3.382,3.273-3.382h12.183
			c2.365,0,3.157,1.014,3.156,3.382L756.27,310.258z"/>
		<path d="M814.918,356.723c-2.373,0-3.274-1.019-3.274-3.382v-69.925c0-2.368,0.901-3.382,3.274-3.382h38.568
			c2.368,0,3.377,0.79,3.377,3.158v8.799c0,2.369-1.009,3.271-3.377,3.271h-23.232l-0.001,14.659h21.427
			c2.365-0.005,3.383,0.786,3.383,3.154v8.234c0,2.369-1.018,3.272-3.383,3.272h-21.426v16.912l24.362,0.002
			c2.368,0,3.378,0.79,3.378,3.157l0.008,8.798c0,2.366-1.018,3.271-3.386,3.271H814.918z"/>
	</g>
</g>
<g>
	<g>
		<path d="M418.68,103.48l-16.31-18.12l-7.23,1.54l8.05,37.9c1.79,8.41-3.569,16.68-11.989,18.46l-2.761,0.59
			c-8.399,1.79-16.68-3.58-18.46-11.98l-8.05-37.91l-7.24,1.54l-7.55,23.18l-7.52,23.19l16.319,18.12l16.311,18.12l4.189-0.89
			c0.4,2.28,0.45,4.91,0.051,8.06c-2.07,16.89-20.971,35.16-53.721,39.03c-2.8-4.36-7.699-7.24-13.25-7.24H248.28v-6.51h31.87
			c9.06,0,16.43-7.35,16.43-16.41v-27.84h9.63c4.88,0,8.84-3.97,8.84-8.85v-35.75c0-4.88-3.96-8.84-8.84-8.84h-9.63V77.82
			c0-9.06-7.36-16.42-16.43-16.42H219.43v-9.84c12.36-1.98,21.811-12.69,21.811-25.62C241.24,11.61,229.63,0,215.3,0
			c-14.34,0-25.95,11.61-25.95,25.94c0,12.56,8.91,23.02,20.771,25.43V61.4h-60.55c-9.04,0-16.4,7.35-16.4,16.42v35.05h-9.75
			c-4.89,0-8.84,3.97-8.84,8.84v35.75c0,4.88,3.96,8.85,8.84,8.85h9.76v27.84c0,9.06,7.351,16.41,16.41,16.41h31.33v6.51h-61.26
			c-5.11,0-9.671,2.45-12.56,6.23c-42.841,5.5-82.541,31.11-87.711,73.26c-0.82,6.59-0.85,13.7,0.6,21.06l-4.93,1.051L7.53,341.85
			L0,365.04l16.31,18.12l16.311,18.11l7.25-1.54l-8.051-37.91c-1.799-8.399,3.57-16.66,11.98-18.45l2.76-0.59
			c8.41-1.79,16.68,3.58,18.461,12l8.049,37.9l7.25-1.54l7.541-23.181l7.529-23.199l-16.32-18.11l-16.31-18.12l-4.2,0.891
			c-0.39-2.28-0.439-4.9-0.05-8.061c1.9-15.4,17.771-31.95,45.38-37.68v141.26c0,8.7,7.061,15.76,15.771,15.76h2.53v144.45h-9.791
			v40.78h-9.029v14.02h102.54v-14.02h-8.61v-40.78h-7.58V420.7h49.22v144.45h-9.789v40.78h-9.03v14.02h102.54v-14.02h-8.601v-40.78
			h-7.59V420.7h3.05c8.7,0,15.761-7.06,15.761-15.76v-141.3c43.819-4.78,85.05-30.57,90.33-73.57c0.81-6.6,0.859-13.7-0.601-21.05
			l4.91-1.05l7.55-23.19l7.53-23.19L418.68,103.48z M234.46,96.39c2.05-2,4.84-3.24,7.92-3.24c4.021,0,7.54,2.1,9.56,5.26
			c1.131,1.77,1.811,3.85,1.811,6.1c0,6.29-5.1,11.37-11.37,11.37c-6.26,0-11.36-5.08-11.36-11.37
			C231.02,101.33,232.35,98.46,234.46,96.39z M210.11,40.9v0.85c-6.65-2.17-11.46-8.43-11.46-15.82c0-9.19,7.449-16.63,16.63-16.63
			c9.199,0,16.649,7.45,16.649,16.64c0,7.76-5.319,14.29-12.51,16.13V40.9c0-3.09-2.41-4.65-4.66-4.65
			C212.53,36.25,210.11,37.81,210.11,40.9z M187.25,93.15c6.27,0,11.37,5.09,11.37,11.36c0,6.29-5.101,11.37-11.37,11.37
			c-6.271,0-11.36-5.08-11.36-11.37C175.89,98.24,180.979,93.15,187.25,93.15z M157.32,139.67h115c0,29.96-25.74,57.51-57.5,57.51
			C183.06,197.18,157.32,169.63,157.32,139.67z M283.45,384.94h-137.2V247.69h137.2V384.94z"/>
	</g>
	
		<polyline fill="none" stroke="#020202" stroke-width="6" stroke-linecap="round" stroke-linejoin="round" stroke-miterlimit="10" points="
		240.215,385.927 240.215,290.731 144.264,290.731 	"/>
	
		<polyline fill="none" stroke="#020202" stroke-width="6" stroke-linecap="round" stroke-linejoin="round" stroke-miterlimit="10" points="
		192.67,385.927 192.67,338.829 144.264,338.829 	"/>
</g>
</svg>
