<?xml version="1.0" encoding="utf-8"?>
<!-- Generator: Adobe Illustrator 16.0.3, SVG Export Plug-In . SVG Version: 6.00 Build 0)  -->
<!DOCTYPE svg PUBLIC "-//W3C//DTD SVG 1.1//EN" "http://www.w3.org/Graphics/SVG/1.1/DTD/svg11.dtd">
<svg version="1.1" id="Layer_1" xmlns="http://www.w3.org/2000/svg" xmlns:xlink="http://www.w3.org/1999/xlink" x="0px" y="0px"
	 width="1235.595px" height="619.95px" viewBox="0 0 1235.595 619.95" enable-background="new 0 0 1235.595 619.95"
	 xml:space="preserve">
<g>
	<g>
		<path fill="#FFFFFF" d="M476.149,249.081h33.006v-43.403c0-3.837,1.455-5.47,5.302-5.47h19.682c3.828,0,5.101,1.633,5.101,5.47
			V318.74c0.005,3.827-1.272,5.467-5.101,5.467h-19.687c-3.842,0-5.295-1.637-5.295-5.474v-45.032H476.15v45.039
			c0,3.827-1.282,5.467-5.098,5.467h-19.705c-3.833,0-5.279-1.643-5.289-5.467V205.677c0.01-3.837,1.456-5.47,5.289-5.47h19.705
			c3.815,0,5.098,1.633,5.098,5.47L476.149,249.081L476.149,249.081z"/>
		<path fill="#FFFFFF" d="M622.96,205.679l33.009,113.062c1.084,3.466-0.193,5.469-4.013,5.469h-20.235
			c-3.833,0-5.474-2.003-6.399-5.469l-4.738-17.506h-30.271l-4.737,17.51c-0.915,3.462-2.557,5.465-6.387,5.465h-18.407
			c-3.84,0-5.104-2.003-4.021-5.465l33.008-113.064c1.093-3.647,2.917-5.47,6.752-5.47h19.691
			C620.039,200.208,621.865,202.026,622.96,205.679z M611.47,267.679c-2.917-11.13-5.472-36.466-5.659-38.116
			c-0.359,2.548-3.28,27.538-6.198,38.116l-2.732,9.85h17.139L611.47,267.679z"/>
		<path fill="#FFFFFF" d="M759.546,294.482c0.012,15.684-10.572,31.183-44.847,31.183c-34.286,0-44.854-15.496-44.867-31.183
			v-64.548c0.011-15.682,10.581-31.183,44.867-31.188c34.274,0,44.858,15.507,44.847,31.188v8.377
			c0.012,3.836-1.272,5.477-5.104,5.479h-18.77c-3.84,0-5.295-1.643-5.295-5.479v-3.087c0-8.39-6.386-11.853-15.324-11.853
			c-8.928,0-15.12,3.462-15.12,11.85v53.973c0,8.391,6.192,11.857,15.12,11.857c8.938,0,15.324-3.464,15.324-11.857v-5.827
			c0-3.831,1.455-5.475,5.295-5.475h18.779c3.83,0,5.105,1.644,5.094,5.475V294.482z"/>
		<path fill="#FFFFFF" d="M877.917,318.74c1.826,2.729,1.094,5.467-2.737,5.467h-25.158c-3.829,0-5.839-2.74-7.657-5.467
			l-28.816-44.67h-2.004l-0.008,44.67c0,3.83-1.271,5.467-5.092,5.467h-19.702c-3.832,0-5.296-1.643-5.296-5.467V205.677
			c0-3.837,1.462-5.47,5.296-5.47h19.689c3.832,0,5.104,1.646,5.104,5.47v46.5h1.834l27.891-46.5c1.828-2.911,4.742-5.47,8.574-5.47
			h20.973c3.826,0,4.372,2.549,2.557,5.47l-34.652,55.436L877.917,318.74z"/>
	</g>
	<g>
		<path fill="#FFFFFF" d="M543.37,352.879v18.176c0,4.907-2.1,6.773-6.996,6.773h-53.395v30.296h49.662
			c4.892,0,6.999,1.628,6.999,6.53v18.188c0,4.894-2.107,6.756-6.996,6.769l-49.665-0.013v58.284c0,4.882-1.629,6.984-6.529,6.984
			h-25.168c-4.895,0-6.756-2.103-6.756-6.984v-144.54c0-4.898,1.863-6.994,6.756-6.994h85.09
			C541.271,346.349,543.37,347.989,543.37,352.879z"/>
		<path fill="#FFFFFF" d="M607.493,460.127c0,10.718,9.566,15.139,20.984,15.139c11.428,0,21.213-4.418,21.213-15.139V353.343
			c0-4.888,1.855-6.988,6.773-6.994h25.17c4.883,0,6.519,2.096,6.527,6.994v113.531c-0.009,20.053-15.856,39.86-59.693,39.864
			c-43.818,0-59.44-19.812-59.44-39.864V353.343c0-4.888,1.872-6.994,6.765-6.994h25.178c4.896,0,6.523,2.096,6.523,6.994V460.127z"
			/>
		<path fill="#FFFFFF" d="M813.827,346.349c4.889,0.006,6.99,1.64,6.99,6.53v18.178c0,4.908-2.102,6.773-6.986,6.773h-29.843
			l0.008,120.053c0,4.882-1.634,6.984-6.538,6.984h-25.174c-4.899,0.003-6.766-2.103-6.756-6.984l-0.01-120.053H715.69
			c-4.898,0-6.998-1.865-6.998-6.773v-18.178c0-4.891,2.1-6.53,6.998-6.524L813.827,346.349z"/>
		<path fill="#FFFFFF" d="M879.812,460.127c0,10.721,9.555,15.139,20.976,15.139c11.437,0,21.228-4.418,21.219-15.139V353.343
			c0-4.898,1.863-6.994,6.759-6.988l25.178-0.006c4.892,0,6.523,2.106,6.523,6.994v113.531c0,20.053-15.854,39.864-59.672,39.86
			c-43.83,0.004-59.45-19.808-59.45-39.86V353.343c0-4.898,1.863-6.988,6.755-6.994h25.188c4.89,0,6.524,2.096,6.524,6.994
			L879.812,460.127L879.812,460.127z"/>
		<path fill="#FFFFFF" d="M1085.218,440.539l22.833,57.345c1.64,4.192-1.39,6.984-6.513,6.984h-25.184
			c-4.436,0-5.355-3.732-6.766-6.984l-20.508-51.521l-17.486-0.017v51.534c0,4.886-1.646,6.984-6.529,6.984h-25.175
			c-4.89,0-6.772-2.084-6.772-6.984V353.343c0.01-4.901,1.883-6.991,6.772-6.991l50.354-0.003c43.828,0,59.211,19.817,59.211,39.87
			v20.275C1109.456,419.788,1102.688,433.075,1085.218,440.539z M1031.593,377.829v37.07h18.652
			c11.419-0.013,21.209-4.438,21.209-15.168v-6.759c0-10.722-9.793-15.146-21.209-15.146h-18.652V377.829z"/>
		<path fill="#FFFFFF" d="M1146.521,504.871c-4.885-0.007-6.743-2.105-6.743-6.991V353.343c0-4.901,1.86-6.991,6.743-6.994
			l79.735,0.003c4.898-0.003,6.998,1.637,6.998,6.527v18.176c0,4.907-2.109,6.773-6.998,6.769l-48.027,0.003v30.298h44.305
			c4.9,0,6.988,1.642,7,6.53l-0.012,17.021c0.012,4.896-2.088,6.757-6.988,6.757h-44.305v34.976h50.369
			c4.892,0,6.996,1.623,6.996,6.523v18.186c0,4.896-2.104,6.753-6.996,6.75L1146.521,504.871z"/>
	</g>
	<g>
		<path fill="#FFFFFF" d="M1014.979,199.846c3.86,0,5.507,1.285,5.507,5.144v14.302c0,3.853-1.646,5.319-5.507,5.315l-23.463,0.004
			v94.456c0,3.853-1.292,5.5-5.137,5.5h-19.81c-3.849,0-5.321-1.647-5.321-5.513v-94.443l-23.479-0.005
			c-3.843,0.003-5.505-1.461-5.505-5.319v-14.299c0-3.859,1.659-5.144,5.505-5.141L1014.979,199.846z"/>
		<path fill="#FFFFFF" d="M1067.826,248.998h33.197v-43.653c0-3.852,1.464-5.5,5.312-5.497l19.807-0.003
			c3.853,0,5.132,1.648,5.132,5.5l0.004,113.719c0,3.856-1.283,5.502-5.136,5.502h-19.794c-3.859,0-5.325-1.646-5.325-5.502v-45.302
			h-33.197v45.302c0,3.844-1.286,5.502-5.134,5.502h-19.821c-3.845,0-5.304-1.658-5.313-5.502V205.344c0-3.852,1.469-5.5,5.321-5.5
			h19.813c3.848,0,5.134,1.648,5.134,5.5V248.998z"/>
		<path fill="#FFFFFF" d="M1163.208,324.565c-3.859,0-5.324-1.658-5.324-5.502V205.344c0-3.852,1.465-5.5,5.324-5.5h62.725
			c3.85,0,5.492,1.284,5.492,5.135v14.311c0,3.853-1.643,5.319-5.492,5.319h-37.783l-0.002,23.841h34.846
			c3.848-0.008,5.503,1.279,5.503,5.129v13.392c0,3.853-1.655,5.32-5.503,5.32h-34.844v27.505l39.62,0.003
			c3.853,0,5.494,1.286,5.494,5.136l0.013,14.306c0,3.849-1.654,5.321-5.507,5.321h-64.562V324.565z"/>
	</g>
</g>
<g>
	<g>
		<path fill="#FFFFFF" d="M418.68,103.48l-16.31-18.12l-7.23,1.54l8.05,37.9c1.791,8.41-3.568,16.68-11.988,18.46l-2.762,0.59
			c-8.398,1.79-16.68-3.58-18.459-11.98l-8.051-37.91l-7.24,1.54l-7.55,23.18l-7.52,23.19l16.319,18.12l16.311,18.12l4.189-0.891
			c0.399,2.28,0.449,4.91,0.051,8.061c-2.07,16.89-20.971,35.16-53.721,39.03c-2.801-4.36-7.699-7.24-13.25-7.24H248.28v-6.51h31.87
			c9.06,0,16.43-7.35,16.43-16.41v-27.84h9.63c4.88,0,8.84-3.97,8.84-8.85v-35.75c0-4.88-3.96-8.84-8.84-8.84h-9.63V77.82
			c0-9.061-7.36-16.42-16.43-16.42h-60.72v-9.84c12.36-1.98,21.812-12.69,21.812-25.62C241.24,11.61,229.63,0,215.3,0
			c-14.34,0-25.95,11.61-25.95,25.94c0,12.56,8.91,23.02,20.771,25.43V61.4h-60.55c-9.04,0-16.4,7.35-16.4,16.42v35.05h-9.75
			c-4.89,0-8.84,3.97-8.84,8.84v35.75c0,4.88,3.96,8.85,8.84,8.85h9.76v27.84c0,9.06,7.351,16.41,16.41,16.41h31.33v6.51h-61.26
			c-5.11,0-9.671,2.45-12.56,6.229c-42.841,5.5-82.541,31.11-87.711,73.26c-0.82,6.59-0.85,13.7,0.6,21.06l-4.93,1.051l-7.53,23.18
			L0,365.04l16.31,18.121l16.311,18.109l7.25-1.539l-8.051-37.91c-1.799-8.4,3.57-16.66,11.98-18.451l2.76-0.59
			c8.41-1.789,16.68,3.58,18.461,12l8.049,37.9l7.25-1.541l7.541-23.18l7.529-23.199l-16.32-18.11L62.76,308.53l-4.2,0.891
			c-0.39-2.28-0.439-4.9-0.05-8.061c1.9-15.4,17.771-31.95,45.38-37.68v141.26c0,8.699,7.061,15.76,15.771,15.76h2.53v144.451H112.4
			v40.779h-9.029v14.02h102.54v-14.02h-8.61v-40.779h-7.58V420.7h49.22v144.451h-9.789v40.779h-9.03v14.02h102.54v-14.02h-8.602
			v-40.779h-7.59V420.7h3.051c8.699,0,15.761-7.059,15.761-15.76v-141.3c43.818-4.78,85.05-30.57,90.33-73.57
			c0.81-6.601,0.858-13.7-0.602-21.05l4.91-1.05l7.55-23.189l7.53-23.19L418.68,103.48z M234.46,96.39c2.05-2,4.84-3.24,7.92-3.24
			c4.021,0,7.54,2.1,9.56,5.26c1.131,1.77,1.811,3.85,1.811,6.1c0,6.29-5.1,11.37-11.37,11.37c-6.26,0-11.36-5.08-11.36-11.37
			C231.02,101.33,232.35,98.46,234.46,96.39z M210.11,40.9v0.85c-6.65-2.17-11.46-8.43-11.46-15.82c0-9.189,7.449-16.63,16.63-16.63
			c9.199,0,16.648,7.45,16.648,16.64c0,7.76-5.319,14.29-12.51,16.13V40.9c0-3.09-2.41-4.65-4.66-4.65
			C212.53,36.25,210.11,37.81,210.11,40.9z M187.25,93.15c6.27,0,11.37,5.09,11.37,11.36c0,6.29-5.101,11.37-11.37,11.37
			c-6.271,0-11.36-5.08-11.36-11.37C175.89,98.24,180.979,93.15,187.25,93.15z M157.32,139.67h115c0,29.96-25.74,57.51-57.5,57.51
			C183.06,197.18,157.32,169.63,157.32,139.67z M283.45,384.94h-137.2V247.69h137.2V384.94z"/>
	</g>
	
		<polyline fill="none" stroke="#FFFFFF" stroke-width="6" stroke-linecap="round" stroke-linejoin="round" stroke-miterlimit="10" points="
		240.215,385.926 240.215,290.731 144.264,290.731 	"/>
	
		<polyline fill="none" stroke="#FFFFFF" stroke-width="6" stroke-linecap="round" stroke-linejoin="round" stroke-miterlimit="10" points="
		192.67,385.926 192.67,338.829 144.264,338.829 	"/>
</g>
</svg>
