<?xml version="1.0" encoding="utf-8"?>
<!-- Generator: Adobe Illustrator 16.0.3, SVG Export Plug-In . SVG Version: 6.00 Build 0)  -->
<!DOCTYPE svg PUBLIC "-//W3C//DTD SVG 1.1//EN" "http://www.w3.org/Graphics/SVG/1.1/DTD/svg11.dtd">
<svg version="1.1" id="Layer_1" xmlns="http://www.w3.org/2000/svg" xmlns:xlink="http://www.w3.org/1999/xlink" x="0px" y="0px"
	 width="698.605px" height="238.898px" viewBox="0 0 698.605 238.898" enable-background="new 0 0 698.605 238.898"
	 xml:space="preserve">
<path fill="#FFFFFF" d="M327.35,157.47v28.989c-1.699-1.25-2.25-1.619-2.76-2.05c-9.91-8.24-20.94-9.37-32.11-3.641
	c-11.97,6.13-17.43,16.59-16.25,30.07c1.08,12.439,7.89,20.89,19.25,25.72c2.4,1.021,5.01,1.57,7.52,2.34h5
	c6.36-2.52,12.71-5.05,19.11-7.59c0.159,1.25,0.399,3.16,0.659,5.181h8.301v-79.021L327.35,157.47L327.35,157.47z M306.67,230.09
	c-11.63,0.09-21.87-10.37-21.75-22.221c0.12-11.8,9.99-21.771,21.6-21.819c11.931-0.051,21.58,9.899,21.561,22.229
	C328.061,220.32,318.57,229.979,306.67,230.09z"/>
<path fill="#FFFFFF" d="M213.84,205.869c-0.53-14.54-11.55-26.17-26.77-28.25c-15-2.061-29.94,8.729-32.81,23.71
	c-3.14,16.38,6.09,32.16,21.04,36.029c1.91,0.49,3.8,1.03,5.7,1.54h6c0.73-0.35,1.43-0.85,2.21-1.02
	C205.25,234.479,214.44,222.55,213.84,205.869z M183.62,229.85c-11.75-0.181-20.85-9.649-20.85-21.689
	c0-12.141,9.53-21.96,21.23-21.87c11.29,0.08,20.9,10.03,21.02,21.771C205.15,219.99,195.29,230.03,183.62,229.85z"/>
<path fill="#FFFFFF" d="M104,238.899c-1.229-0.401-2.432-0.949-3.692-1.186c-14.31-2.669-24.647-14.684-24.911-29.016
	c-0.261-14.219,10.193-27.355,24.183-30.391c14.616-3.171,28.587,2.049,35.143,13.455c-2.164,1.367-4.345,2.746-6.426,4.062
	c-14.822-12.405-28.838-13.055-38.485-2.022c-7.561,8.646-6.754,22.288,1.788,30.218c10.007,9.291,24.413,7.856,36.406-4.021
	c2.149,1.407,4.414,2.891,6.883,4.508c-4.93,7.655-11.764,11.555-20.11,13.188c-1.61,0.314-3.188,0.801-4.778,1.207
	C108,238.899,106,238.899,104,238.899z"/>
<path fill="#FFFFFF" d="M242,238.899c-0.598-0.282-1.167-0.689-1.797-0.83c-14.524-3.256-20.605-10.392-21.003-25.313
	c-0.275-10.322-0.127-20.656-0.146-30.984c-0.001-0.646,0.203-1.29,0.381-2.347c2.577,0,5.123,0,8.403,0
	c0,6.472-0.111,12.913,0.032,19.349c0.141,6.312,0.025,12.692,0.956,18.902c1.165,7.774,8.066,12.312,16.591,11.867
	c8.421-0.44,14.304-5.295,14.805-13.297c0.624-9.958,0.542-19.962,0.663-29.948c0.095-7.956,0.026-7.957,8.999-6.786
	c0,3.472,0.06,7.067-0.012,10.66c-0.182,9.148,0.331,18.393-0.821,27.421c-1.599,12.539-7.417,17.835-19.768,20.372
	c-0.792,0.163-1.524,0.617-2.285,0.937C245.333,238.899,243.667,238.899,242,238.899z"/>
<path fill="#FFFFFF" d="M0,161.899c0.57-0.982,1.097-1.993,1.717-2.944c2.024-3.105,5.307-4.115,8.149-2.491
	c1.988,1.137,4.014,4.301,3.894,6.439c-0.119,2.12-2.649,5.41-4.587,5.785c-2.28,0.442-5.15-1.531-7.576-2.813
	c-0.826-0.438-1.082-1.952-1.598-2.976C0,162.566,0,162.232,0,161.899z"/>
<path fill="#808080" d="M501.26,102.009c-4.74-36.11-37.43-56.57-68.358-50.5c-4.53,0.89-6.021-0.65-7.79-4.28
	c-12.972-26.689-44.04-39.5-71.71-29.27c-4.94,1.83-7.57,1.01-11.16-2.44c-21.15-20.279-56.19-20.739-77.86-1.05
	c-15.66,14.23-22.21,31.95-19,53.05c0.98,6.45,1,6.42-5.36,6.71c-1.99,0.091-4.02,0.13-5.96,0.551c-29.39,6.34-43.78,38.93-28.84,65
	c1.62,2.819,3.57,3.92,6.78,3.899c22.5-0.09,45-0.109,67.5,0.021c3.88,0.021,5.28-1.221,5.22-5.181
	c-0.2-12.16,0.11-24.33-0.16-36.489c-0.1-4.891,1.28-6.96,6.48-6.671c6.81,0.381,13.68-0.21,20.49,0.19c5,0.3,6.33-1.61,6.069-6.3
	c-0.35-6.32,0.24-12.69-0.189-18.99c-0.34-5.13,1.56-6.64,6.51-6.6c21.66,0.189,43.33,0.06,64.99,0.09
	c6.27,0.01,6.54,0.32,6.54,6.46c0.01,22.66,0.09,45.33-0.07,67.99c-0.03,4.08,1.18,5.569,5.38,5.51
	c13.99-0.199,27.99-0.079,41.99-0.079c14.17,0,28.33,0.14,42.5-0.131c2.271-0.05,5.46-1.26,6.62-3
	C499.62,128.88,503.08,115.85,501.26,102.009z M314.33,90.39c-0.01,0.84-1.22,2.38-1.9,2.4c-8.68,0.16-17.359,0.1-26.04,0.1
	c-0.22-0.6-0.44-1.2-0.66-1.81c9.1-8.67,18.21-17.351,27.32-26.021c0.46,0.23,0.91,0.45,1.37,0.681
	C314.42,73.959,314.48,82.169,314.33,90.39z M489.4,134.09c-1.682,3.3-4,4.319-7.58,4.3c-24.99-0.12-49.99-0.16-74.98,0.029
	c-4.688,0.04-6.1-1.67-6.08-6.1c0.12-22.5-0.068-44.99,0.16-67.48c0.05-4.96-1.24-6.73-6.43-6.58c-12.32,0.36-24.65,0.12-36.98,0.12
	c-12.5,0.01-25-0.15-37.49,0.14c-2.529,0.061-5.579,1.25-7.43,2.96c-10.16,9.38-20.13,18.971-29.88,28.771
	c-1.76,1.77-3.05,4.82-3.12,7.31c-0.32,11.82-0.24,23.66-0.09,35.49c0.05,3.81-1.2,5.359-5.16,5.33
	c-19.83-0.131-39.66,0.039-59.49-0.211c-1.97-0.029-4.85-1.75-5.74-3.489c-6.52-12.721-5.95-25.5,1.74-37.47
	c7.89-12.29,19.56-18.25,34.24-17.601c1.68,0.08,3.67,1.851,4.82,3.37c1.9,2.49,3.01,5.58,4.9,8.08c0.77,1.011,2.71,1.13,4.11,1.65
	c0.15-1.58,1-3.61,0.32-4.69c-4.93-7.899-7.89-16.31-8.99-25.649c-2.96-25.15,17.37-51.96,42.54-55.91
	c20.29-3.18,37.14,2.79,50.45,18.36c2.24,2.63,3.88,1.96,6.358,0.779c26.062-12.399,55.96-2.779,69.66,22.32
	c3.11,5.689,2.88,5.81-2.58,9.11c-2.26,1.359-5.72,5.149-5.37,5.68c2.722,4.11,5.48,0.36,7.922-0.9
	c32.55-16.739,71.698,4.08,76.35,40.511C497.03,113.709,494.49,124.05,489.4,134.09z"/>
<path fill="#808080" d="M640.68,208.669c12.82-0.05,25.65,0,38.48-0.029c5.32-0.021,6.229-0.971,5.26-6.229
	c-1.479-8-5.189-14.83-12.08-19.399c-9.7-6.439-20.29-6.939-30.41-1.86c-11.13,5.58-15.93,15.5-15.619,27.971
	c0.311,12.221,7.869,23.859,18.601,27.029c12.45,3.681,26.67,1.521,34.64-9.76c4.03-5.689,4.021-6.04-3.1-9.181
	c-1.57,2.08-2.852,4.03-4.391,5.761c-5.711,6.42-13.101,8.62-21.261,7.04c-7.78-1.511-12.87-6.649-15.31-14.24
	C633.561,209.789,634.34,208.689,640.68,208.669z M652.91,185.659c8.42-1.29,18.68,4.391,21.63,11.88
	c0.85,2.16,1.19,4.28-1.81,4.311c-11.771,0.09-23.541-0.069-35.312-0.189c-0.399,0-0.8-0.5-1.17-0.75
	C637.37,192.979,643.9,187.03,652.91,185.659z"/>
<path fill="#808080" d="M435.57,178.189c-16.932-0.021-29.62,12.561-29.83,29.561c-0.21,16.79,12.608,29.37,29.43,29.971
	c15.96,0.569,29.84-11.38,30.07-29.32C465.48,190.06,451.4,177.35,435.57,178.189z M435.35,230.3
	c-11.92-0.091-21.818-10.33-21.6-22.341c0.22-12.01,10.45-22.47,21.87-22.351c11.53,0.12,21.7,10.79,21.56,22.61
	C457.05,220.479,447.24,230.399,435.35,230.3z"/>
<path fill="#FFFFFF" d="M19.319,236.27c0-17.394,0-34.503,0-51.611c0-1.636,0-3.271,0-5.276c3.009,0,5.548,0,8.31,0
	c0.32,2.08,0.614,3.993,1.031,6.704c1.504-1.125,2.599-1.918,3.667-2.747c7.691-5.971,16.212-7.87,25.261-3.994
	c8.838,3.786,12.004,11.524,12.262,20.604c0.278,9.81,0.35,19.625,0.424,29.438c0.06,8.006,0.002,8.006-8.946,6.939
	c0-2.305,0.007-4.721-0.001-7.137c-0.029-8.651,0.001-17.305-0.112-25.956c-0.14-10.739-4.005-16.259-11.99-17.377
	c-8.26-1.156-17.277,4.827-19.461,13.763c-1.246,5.099-1.291,10.522-1.566,15.816c-0.242,4.646-0.049,9.315-0.054,13.976
	C28.137,237.472,28.135,237.472,19.319,236.27z"/>
<path fill="#808080" d="M540.529,186.566c1.749-1.264,2.934-2.064,4.059-2.94c7.6-5.913,16.137-7.428,24.87-3.715
	c8.874,3.773,11.646,12.011,11.975,20.887c0.391,10.47,0.063,20.965,0.167,31.447c0.029,2.874-0.83,4.222-3.968,4.271
	c-3.442,0.056-4.224-1.521-4.188-4.568c0.106-9.483,0.061-18.971,0.022-28.455c-0.045-11.194-4.252-17.254-12.432-18.014
	c-9.731-0.902-19.212,5.927-20.291,15.895c-1.086,10.041-0.698,20.233-1.271,30.344c-0.092,1.614-1.53,4.11-2.857,4.512
	c-3.651,1.104-5.266-0.656-5.216-4.729c0.189-15.808,0.084-31.617,0.07-47.426c-0.002-2.436-0.113-4.643,3.426-4.78
	c3.381-0.133,5.056,0.934,4.819,4.466C539.678,184.363,540.057,184.994,540.529,186.566z"/>
<path fill="#808080" d="M400.75,191.943c-1.74,1.031-3.552,2.104-5.267,3.121c-15.721-12.146-29.497-12.631-39.051-1.556
	c-7.67,8.893-6.838,22.372,1.708,30.712c7.523,7.341,24.336,10.438,36.94-3.534c1.893,1.242,3.863,2.534,5.809,3.812
	c-6.352,11.19-22.301,16.142-37.022,11.847c-13.371-3.9-21.353-16.013-20.473-31.069c0.754-12.892,11.127-24.495,24.471-26.655
	C383.595,176.073,397.443,182.443,400.75,191.943z"/>
<path fill="#808080" d="M472.405,198.925c-0.007-4.5-0.11-9.002,0.034-13.497c0.082-2.553-1.254-6.055,3.55-6.091
	c5.007-0.038,3.837,3.598,3.918,6.367c0.273,9.319,0.364,18.646,0.64,27.966c0.282,9.549,6.594,16.062,15.843,16.527
	c9.082,0.455,16.411-5.049,17.202-14.397c0.896-10.593,0.641-21.293,0.652-31.946c0.004-3.533,1.424-5.214,4.714-4.349
	c1.394,0.367,3.401,2.287,3.392,3.488c-0.086,11.81-0.007,23.663-1.039,35.41c-1.003,11.422-9.846,18.763-21.337,19.153
	c-18.431,0.628-27.363-7.997-27.558-26.635C472.375,206.924,472.41,202.924,472.405,198.925z"/>
<path fill="#808080" d="M593.007,224.804c2.884,1.615,5.613,3.566,8.645,4.741c4.723,1.833,10.188-0.487,12.346-4.744
	c2.08-4.104,0.632-8.246-4.229-11.349c-3.503-2.233-7.273-4.048-10.742-6.328c-7.74-5.089-10.41-14.614-6.271-21.716
	c4.248-7.29,14.072-9.596,22.441-5.081c2.553,1.377,4.822,3.277,7.672,5.251c-1.964,2.111-3.391,3.646-4.935,5.308
	c-2.592-1.559-4.86-3.228-7.37-4.369c-4.734-2.153-9.711-0.706-11.689,3.318c-2.246,4.564,0.205,7.72,3.725,10.132
	c3.282,2.25,6.879,4.037,10.25,6.166c9.52,6.009,12.229,14.053,7.765,22.775c-4.076,7.965-13.988,11.151-23.439,7.461
	c-1.535-0.602-3.012-1.436-4.381-2.359C587.296,230.299,587.357,228.88,593.007,224.804z"/>
<path fill="#FFFFFF" d="M148.464,236.474c-2.641,0-5.066,0-7.953,0c0-26.188,0-52.36,0-78.922c2.521,0,5.063,0,7.953,0
	C148.464,183.796,148.464,209.973,148.464,236.474z"/>
<path fill="#808080" d="M698.189,157.87c0.171,1.462,0.346,2.267,0.346,3.069c0.018,23.627-0.031,47.256,0.07,70.883
	c0.016,3.396-1.082,5.361-4.527,4.473c-1.398-0.361-3.426-2.242-3.436-3.446c-0.203-23.626-0.162-47.254-0.146-70.881
	C690.502,156.198,694.729,158.392,698.189,157.87z"/>
<path fill="#808080" d="M340.709,114.622c-11.996-0.001-23.994,0.125-35.984-0.137c-1.794-0.039-4.857-1.686-5.067-2.96
	c-0.547-3.33,2.521-3.159,4.86-3.16c24.325-0.014,48.649-0.013,72.973-0.001c2.353,0.001,5.407-0.129,4.813,3.197
	c-0.229,1.283-3.305,2.888-5.112,2.927C365.037,114.746,352.872,114.622,340.709,114.622z"/>
<path fill="#808080" d="M341.005,143.634c-11.659-0.001-23.317,0.005-34.976-0.007c-1.33-0.002-2.846,0.283-3.938-0.253
	c-1.115-0.547-2.533-1.97-2.495-2.959c0.038-1.022,1.512-2.28,2.65-2.881c0.924-0.486,2.281-0.177,3.445-0.177
	c23.484-0.005,46.968-0.005,70.451,0.001c1.165,0,2.581-0.337,3.435,0.196c1.205,0.753,2.458,2.062,2.76,3.354
	c0.146,0.619-1.727,2.269-2.885,2.516c-2.076,0.443-4.305,0.204-6.468,0.206C362.324,143.64,351.664,143.635,341.005,143.634z"/>
<path fill="#808080" d="M340.474,129.427c-11.483,0-22.969,0.006-34.452-0.008c-1.329-0.002-2.851,0.271-3.929-0.278
	c-1.118-0.568-2.501-1.998-2.479-3.023c0.02-0.967,1.599-2.495,2.705-2.72c2.244-0.453,4.633-0.224,6.962-0.225
	c21.97-0.007,43.94-0.006,65.911,0.001c1.496,0,3.129-0.29,4.449,0.209c1.154,0.438,2.697,1.782,2.717,2.751
	c0.019,1.022-1.381,2.442-2.502,3.009c-1.082,0.546-2.602,0.275-3.93,0.276C364.108,129.433,352.291,129.427,340.474,129.427z"/>
<path fill="#FFFFFF" d="M3.359,236.459c0-19.081,0-37.836,0-57.028c2.662,0,5.207,0,8.133,0c0,18.92,0,37.805,0,57.028
	C8.88,236.459,6.453,236.459,3.359,236.459z"/>
<path fill="#808080" d="M356.395,85.524c-7.159,0.001-14.328,0.19-21.473-0.141c-1.67-0.077-3.259-1.917-4.885-2.945
	c1.607-1.042,3.2-2.96,4.824-2.985c14.314-0.237,28.637-0.235,42.953-0.005c1.603,0.025,3.176,1.909,4.763,2.933
	c-1.568,1.048-3.099,2.927-4.71,3.001C370.723,85.712,363.554,85.524,356.395,85.524z"/>
<path fill="#808080" d="M356.439,94.073c7.156,0.003,14.319-0.154,21.467,0.126c1.565,0.062,3.07,1.684,4.604,2.588
	c-1.476,1.202-2.934,3.422-4.431,3.449c-14.478,0.263-28.963,0.265-43.439,0.003c-1.587-0.028-3.136-2.173-4.702-3.334
	c1.676-0.945,3.319-2.633,5.033-2.706C342.116,93.892,349.281,94.071,356.439,94.073z"/>
</svg>
