<?xml version="1.0" encoding="utf-8"?>
<!-- Generator: Adobe Illustrator 16.0.3, SVG Export Plug-In . SVG Version: 6.00 Build 0)  -->
<!DOCTYPE svg PUBLIC "-//W3C//DTD SVG 1.1//EN" "http://www.w3.org/Graphics/SVG/1.1/DTD/svg11.dtd">
<svg version="1.1" id="Layer_1" xmlns="http://www.w3.org/2000/svg" xmlns:xlink="http://www.w3.org/1999/xlink" x="0px" y="0px"
	 width="713.743px" height="163.383px" viewBox="0 0 713.743 163.383" enable-background="new 0 0 713.743 163.383"
	 xml:space="preserve">
<path fill="#FFFFFF" d="M235.021,86.528c-0.962,0-1.724,0-2.485,0c-20.94,0-41.881,0.004-62.822-0.002
	c-4.506-0.001-7.477-2.119-8.762-5.837c-0.967-2.794,0.305-5.349,0.397-8.016c0.078-2.257,1.329-2.473,3.237-2.467
	c23.694,0.059,47.389,0.038,71.083,0.038c0.75,0,1.5,0,2.22,0c1.611-9.14,3.182-18.053,4.786-27.152c-25.351,0-50.625,0-75.983,0
	c0.512-2.843,1.256-5.483,1.407-8.156c0.262-4.646,4.654-7.797,8.294-7.781c22.349,0.097,44.699,0.035,67.048,0.075
	c1.54,0.003,2.156-0.33,2.415-2.026c0.834-5.474,1.969-10.902,2.935-16.356c0.511-2.881,0.912-5.778,1.38-8.786
	c-0.991,0-1.69,0-2.39,0c-27.217,0-54.433-0.022-81.649,0.033c-2.836,0.006-5.741,0.165-8.496,0.782
	c-10.913,2.447-18.114,9.207-21.123,19.894c-1.613,5.729-2.164,11.756-3.215,17.645c-1.261,7.062-2.54,14.121-3.817,21.18
	c-1.132,6.255-2.312,12.502-3.397,18.766c-0.705,4.063-1.209,8.167-0.377,12.27c1.254,6.189,4.041,11.514,8.883,15.72
	c5.084,4.416,11.008,6.853,17.654,6.886c25.23,0.129,50.461,0.051,75.692,0.051c0.758,0,1.515,0,2.345,0
	C231.862,104.359,233.418,95.579,235.021,86.528z"/>
<path fill="#FFFFFF" d="M553.418,0.061c-0.977,0-1.67,0-2.361,0c-27.41,0-54.824-0.021-82.236,0.033
	c-2.645,0.006-5.35,0.196-7.92,0.773c-10.977,2.466-18.125,9.239-21.213,20.004c-1.211,4.215-1.631,8.655-2.408,12.994
	c-1.4,7.807-2.793,15.616-4.201,23.422c-1.129,6.255-2.398,12.489-3.367,18.769c-0.664,4.283-1.572,8.509-0.949,12.99
	c1.021,7.344,4.145,13.379,9.834,18.017c4.957,4.038,10.758,6.179,17.154,6.194c25.172,0.07,50.342,0.029,75.512,0.029
	c0.752,0,1.504,0,2.236,0c1.584-9.011,3.129-17.799,4.703-26.758c-1.375,0-2.646,0-3.92,0c-20.494,0-40.99,0.027-61.486-0.023
	c-4.572-0.012-8.186-1.961-8.686-6.908c-0.244-2.419,0.572-4.927,0.627-7.398c0.039-1.872,0.965-1.979,2.432-1.976
	c19.152,0.032,38.301,0.021,57.451,0.021c4.996,0,9.992-0.014,14.986,0.011c1.023,0.005,1.545-0.17,1.752-1.409
	c1.424-8.544,2.973-17.067,4.52-25.813c-25.393,0-50.654,0-75.965,0c0.508-2.86,1.086-5.506,1.43-8.183
	c0.615-4.759,3.74-7.646,8.498-7.646c22.289-0.002,44.576-0.015,66.865,0.029c1.604,0.003,2.117-0.468,2.354-2.095
	c0.682-4.735,1.641-9.431,2.473-14.146C552.163,7.414,552.77,3.83,553.418,0.061z"/>
<path fill="#FFFFFF" d="M675.032,21.991c-3.459-13.54-13.15-21.9-27.459-21.92c-24.531-0.04-49.062-0.01-73.59-0.01
	c-0.512,0-1.111-0.16-1.512,0.04c-0.551,0.28-1.26,0.79-1.369,1.31c-0.521,2.46-0.801,4.97-1.25,7.45
	c-1.631,9.109-3.33,18.21-4.939,27.319c-1.471,8.311-2.83,16.65-4.281,24.96c-1.369,7.82-2.789,15.62-4.199,23.43
	c-1.381,7.68-2.791,15.35-4.158,23.03c-0.33,1.829-0.553,3.67-0.83,5.53c0.408,0.07,0.59,0.14,0.77,0.14
	c10.699,0.011,21.391,0,32.09,0.03c1.16,0.01,1.449-0.461,1.629-1.561c0.893-5.529,1.9-11.039,2.871-16.55
	c0.949-5.399,1.9-10.8,2.859-16.19c0.51-2.9,1.051-5.79,1.59-8.76c4.121,0,8.021,0.06,11.92-0.01c3.74-0.08,6.371,1.68,7.83,4.95
	c2.91,6.5,5.621,13.101,8.42,19.66c2.461,5.74,4.92,11.49,7.461,17.211c0.24,0.539,1.049,1.18,1.602,1.18
	c11.777,0.07,23.568,0.051,35.658,0.051c-6.711-15.65-13.35-31.131-20.068-46.801c5.529-0.09,10.24-1.78,14.709-4.29
	c5.15-2.9,9.17-6.93,11.201-12.5c1.34-3.69,2.1-7.62,2.93-11.48C676.083,32.831,676.413,27.391,675.032,21.991z M633.692,43.031
	c-11.57,0.2-23.15,0.06-34.73,0.06c-0.18,0-0.369-0.08-0.91-0.2c0.631-3.63,1.24-7.16,1.852-10.69c0.189-1.11,0.551-2.23,0.551-3.34
	c0.01-1.45,0.719-1.67,1.93-1.67c10.359,0.02,20.73-0.11,31.09,0.08c3.859,0.06,7.42,2.91,7.529,7.26
	C641.143,39.781,637.653,42.961,633.692,43.031z"/>
<path fill="#FFFFFF" d="M300.705,113.286c0.97,0,1.665,0,2.361,0c27.089,0,54.179,0.008,81.269-0.016
	c1.707-0.001,3.42-0.17,5.119-0.372c12.191-1.44,20.666-11.353,23.1-22.2c0.881-3.928,1.568-7.9,2.256-11.87
	c0.77-4.448,1.328-8.937,0.393-13.42c-1.787-8.552-6.799-14.715-14.422-18.784c-4.543-2.424-9.504-3.453-14.609-3.495
	c-10.631-0.086-21.262-0.022-31.893-0.035c-0.688-0.001-1.403-0.045-2.057-0.235c-3.153-0.921-6.144-5.152-5.726-8.136
	c0.662-4.736,4.229-7.6,8.013-7.578c21.518,0.123,43.036,0.06,64.555,0.059c0.512,0,1.09,0.147,1.518-0.045
	c0.475-0.211,1.086-0.683,1.166-1.125c1.541-8.604,3.012-17.22,4.52-25.972c-0.785,0-1.547,0-2.309,0
	c-26.963,0-53.924-0.009-80.886,0.017c-1.962,0.003-3.952,0.085-5.884,0.412c-11.119,1.884-19.744,10.54-22.414,20.814
	c-1.246,4.8-1.779,9.781-2.781,14.65c-0.805,3.903-1.102,7.818-0.252,11.698c1.412,6.461,4.646,11.873,9.946,15.948
	c5.591,4.296,11.839,6.677,18.962,6.652c10.632-0.038,21.262-0.02,31.893-0.005c4.719,0.007,8.672,5.134,7.512,9.697
	c-1.039,4.097-4.246,6.566-8.619,6.576c-7.619,0.018-15.241,0.006-22.862,0.006c-13.77,0-27.539,0.008-41.308-0.014
	c-1.265-0.004-2.018,0.041-2.238,1.734c-0.537,4.117-1.477,8.178-2.196,12.271C302.101,104.676,301.44,108.848,300.705,113.286z"/>
<path fill="#FFFFFF" d="M57.607,0.23c-0.568-0.098-0.752-0.157-0.937-0.157c-10.632-0.007-21.263,0.01-31.894-0.036
	c-1.286-0.004-1.669,0.582-1.745,1.687c-0.035,0.498-0.154,0.992-0.241,1.488c-0.942,5.396-1.884,10.794-2.83,16.191
	c-0.957,5.459-1.917,10.917-2.879,16.375c-0.96,5.457-1.921,10.914-2.888,16.37c-0.966,5.459-1.94,10.915-2.909,16.373
	c-1.08,6.08-2.161,12.16-3.232,18.241c-0.984,5.58-1.959,11.162-2.936,16.744c-0.559,3.195-1.115,6.394-1.683,9.656
	c11.548,0,22.916,0,34.251,0c2.538-14.363,5.055-28.604,7.585-42.918c3.918,0,7.634,0.155,11.333-0.041
	c4.366-0.229,7.35,2.15,8.977,5.963c5.054,11.838,10.161,23.655,15.172,35.512c0.534,1.261,1.165,1.646,2.495,1.638
	c11.08-0.054,22.159-0.028,33.239-0.032c0.534-0.002,1.068-0.07,1.706-0.111c-1.586-3.658-3.098-7.125-4.593-10.598
	c-4.188-9.74-8.378-19.479-12.552-29.227c-3.403-7.944-6.792-15.896-10.143-23.866c-0.166-0.395-0.065-1.103,0.199-1.438
	c0.986-1.246,2.091-2.399,3.153-3.585c4.591-5.128,9.2-10.239,13.771-15.384c6.81-7.666,13.601-15.349,20.386-23.035
	c1.659-1.882,3.264-3.81,5.119-5.979c-1.003,0-1.626,0-2.248,0c-13.514,0-27.027,0.034-40.54-0.043
	c-1.702-0.009-2.901,0.466-3.931,1.755c-0.992,1.243-2.091,2.401-3.144,3.598c-5.47,6.213-10.937,12.428-16.409,18.637
	c-3.328,3.774-6.654,7.55-10.001,11.308c-2.213,2.485-4.46,4.942-6.692,7.413c-0.135-0.081-0.27-0.161-0.403-0.241
	C52.64,28.436,55.115,14.385,57.607,0.23z"/>
<path fill="#FFFFFF" d="M248.174,113.135c0.47,0.07,0.716,0.14,0.961,0.14c10.627,0.009,21.255-0.008,31.882,0.033
	c1.188,0.003,1.521-0.548,1.671-1.562c0.285-1.93,0.63-3.854,0.972-5.775c0.948-5.326,1.915-10.652,2.858-15.98
	c0.988-5.578,1.958-11.16,2.936-16.74c0.945-5.396,1.891-10.791,2.833-16.187c0.954-5.46,1.9-10.922,2.862-16.381
	c0.961-5.457,1.937-10.912,2.903-16.367c0.968-5.455,1.937-10.909,2.897-16.365c0.452-2.567,0.893-5.138,1.333-7.677
	c-0.325-0.107-0.445-0.181-0.564-0.181c-10.819-0.014-21.639-0.039-32.457,0.023c-0.478,0.003-1.284,0.75-1.376,1.253
	c-1.363,7.496-2.611,15.014-3.931,22.519c-1.373,7.812-2.812,15.612-4.189,23.423c-1.203,6.826-2.33,13.662-3.541,20.485
	c-1.089,6.131-2.263,12.245-3.368,18.373c-1.139,6.314-2.249,12.635-3.354,18.955C249.041,107.769,248.622,110.422,248.174,113.135z
	"/>
<path fill="#FFFFFF" d="M323.835,147.842c0.452,0.641,0.66,0.818,0.721,1.039c1.189,4.24,2.341,8.492,3.565,12.72
	c0.144,0.497,0.64,1.228,1.027,1.261c1.455,0.131,3.098,0.398,4.341-0.141c0.733-0.319,0.912-2.043,1.234-3.162
	c1.053-3.648,2.058-7.309,3.08-10.963c0.141,0.014,0.278,0.029,0.418,0.045c0,4.734,0,9.473,0,14.188c2.466,0,4.686,0,6.971,0
	c0-7.806,0-15.506,0-23.336c-3.264,0-6.396-0.051-9.521,0.053c-0.472,0.017-1.176,0.672-1.332,1.168
	c-0.524,1.679-0.829,3.426-1.257,5.135c-0.586,2.346-1.209,4.68-1.817,7.02c-0.108-0.016-0.217-0.033-0.327-0.049
	c-1.112-4.414-2.226-8.826-3.325-13.188c-3.603,0-7.086,0-10.565,0c0,7.801,0,15.457,0,23.183c2.293,0,4.49,0,6.788,0
	C323.835,157.907,323.835,153.118,323.835,147.842z"/>
<path fill="#FFFFFF" d="M571.756,162.782c2.439,0,4.641,0,6.799,0c0-7.812,0-15.471,0-23.287c-3.229,0-6.352-0.045-9.473,0.053
	c-0.404,0.012-0.992,0.676-1.141,1.148c-0.488,1.561-0.797,3.172-1.203,4.758c-0.619,2.426-1.258,4.848-1.891,7.27
	c-0.129-0.02-0.256-0.039-0.383-0.059c-1.104-4.369-2.211-8.74-3.299-13.051c-3.582,0-7.008,0-10.414,0c0,7.828,0,15.534,0,23.215
	c2.301,0,4.453,0,6.793,0c0-4.89,0-9.681,0-14.474c0.117-0.015,0.234-0.028,0.354-0.044c1.369,4.857,2.736,9.713,4.104,14.568
	c1.842,0,3.562,0,5.379,0c1.371-4.885,2.736-9.746,4.105-14.607c0.09,0.016,0.18,0.033,0.27,0.049
	C571.756,153.106,571.756,157.889,571.756,162.782z"/>
<path fill="#FFFFFF" d="M129.322,139.569c2.119,7.547,4.159,14.869,6.264,22.176c0.134,0.467,0.745,1.107,1.164,1.131
	c2.089,0.117,4.188,0.053,6.251,0.053c0.869-4.766,1.7-9.326,2.532-13.887c0.126,0.014,0.252,0.027,0.378,0.041
	c0.833,4.565,1.668,9.135,2.529,13.849c1.912,0,3.761-0.075,5.6,0.028c1.194,0.064,1.624-0.416,1.93-1.508
	c1.201-4.293,2.525-8.554,3.768-12.834c0.865-2.984,1.67-5.984,2.542-9.127c-2.114,0-3.969,0.071-5.815-0.027
	c-1.083-0.059-1.482,0.472-1.658,1.357c-0.537,2.715-1.029,5.438-1.583,8.148c-0.332,1.619-0.744,3.225-1.12,4.836
	c-1.127-4.484-1.927-8.885-2.833-13.264c-0.087-0.42-0.814-0.973-1.275-1.004c-1.776-0.117-3.565-0.047-5.424-0.047
	c-0.969,4.719-1.914,9.32-2.859,13.922c-0.133,0-0.267,0-0.401,0c-0.929-4.596-1.858-9.188-2.8-13.844
	C134.157,139.569,131.871,139.569,129.322,139.569z"/>
<path fill="#FFFFFF" d="M620.969,151.5c-0.168,0.057-0.338,0.111-0.508,0.168c-2.076-3.66-4.137-7.328-6.252-10.965
	c-0.281-0.486-0.822-1.129-1.27-1.152c-2.277-0.116-4.562-0.055-6.865-0.055c0,7.918,0,15.619,0,23.283c2.33,0,4.525,0,6.887,0
	c0-4.195,0-8.242,0-12.625c0.391,0.463,0.568,0.627,0.686,0.824c2.111,3.59,4.201,7.193,6.346,10.768
	c0.285,0.479,0.83,1.102,1.285,1.127c2.145,0.119,4.299,0.053,6.434,0.053c0-7.941,0-15.643,0-23.34c-2.295,0-4.445,0-6.74,0
	C620.969,143.622,620.969,147.559,620.969,151.5z"/>
<path fill="#FFFFFF" d="M246.975,151.864c-0.408-0.436-0.604-0.576-0.71-0.768c-1.853-3.305-3.674-6.627-5.556-9.914
	c-0.358-0.625-0.92-1.559-1.442-1.598c-2.386-0.172-4.793-0.076-7.137-0.076c0,7.951,0,15.605,0,23.293c2.304,0,4.501,0,6.929,0
	c0-4.209,0-8.293,0-12.945c0.598,0.938,0.88,1.348,1.131,1.775c1.912,3.271,3.801,6.558,5.74,9.812
	c0.332,0.556,0.844,1.374,1.317,1.408c2.198,0.149,4.412,0.065,6.579,0.065c0-7.947,0-15.604,0-23.303c-2.3,0-4.496,0-6.852,0
	C246.975,143.661,246.975,147.584,246.975,151.864z"/>
<path fill="#FFFFFF" d="M372.43,139.491c0,7.939,0,15.643,0,23.348c2.291,0,4.441,0,6.812,0c0-4.188,0-8.287,0-12.387
	c0.623,0.307,0.914,0.684,1.154,1.092c1.924,3.266,3.809,6.553,5.775,9.791c0.381,0.627,1.033,1.471,1.623,1.521
	c2.072,0.188,4.172,0.073,6.27,0.073c0-7.93,0-15.629,0-23.283c-2.332,0-4.531,0-6.895,0c0,4.066,0,7.979,0,11.889
	c-2.287-3.426-4.209-6.957-6.264-10.408c-0.416-0.699-1.299-1.486-2.033-1.56C376.788,139.353,374.668,139.491,372.43,139.491z"/>
<path fill="#FFFFFF" d="M205.602,151.84c2.65-1.489,3.55-3.91,3.21-6.729c-0.39-3.291-2.74-5.021-5.7-5.511
	c-2.5-0.41-5.11-0.11-7.67-0.11h-8.6v23.33h7.44v-8.34c1.46,0,2.61-0.051,3.75,0.01c2.2,0.11,3.44,1.371,3.63,3.57
	c0.11,1.199,0.13,2.43,0.45,3.58c0.14,0.52,0.899,1.189,1.42,1.229c1.97,0.15,3.96,0.061,5.95,0.061
	C208.162,152.042,207.542,153.862,205.602,151.84z M201.632,147.411c-0.18,1.271-1,2.03-2.32,2.08c-1.58,0.041-3.16,0.01-4.88,0.01
	v-4.74c1.91,0.132,3.68,0.143,5.41,0.4C200.982,145.331,201.812,146.122,201.632,147.411z"/>
<path fill="#FFFFFF" d="M471.083,152.071c0.439-0.48,0.699-0.85,1.039-1.141c2.08-1.789,2.41-4.199,1.871-6.6
	c-0.561-2.431-2.18-4.34-4.83-4.42c-5.57-0.17-11.16-0.061-16.83-0.061v22.949h7.289v-8.318c1.301,0,2.391-0.021,3.471,0
	c2.48,0.029,3.32,0.779,3.75,3.301c0.289,1.709,0.57,3.42,0.84,5.059h7.15C473.942,159.01,475.083,154.601,471.083,152.071z
	 M466.833,147.481c-0.17,1.35-0.961,2-2.281,2.02c-1.58,0.031-3.16,0.01-4.949,0.01v-4.688c1.811,0.09,3.619,0.09,5.41,0.289
	C466.323,145.25,467.012,146.061,466.833,147.481z"/>
<path fill="#FFFFFF" d="M544.733,152.021c0.447-0.409,0.77-0.722,1.1-1.021c2.23-2.029,2.57-4.529,1.709-7.271
	c-0.9-2.892-3.25-4.069-5.93-4.181c-5.109-0.199-10.23-0.061-15.459-0.061v23.34h7.188v-8.209c0.393-0.07,0.57-0.131,0.75-0.131
	c0.961-0.01,1.92-0.029,2.881-0.01c2.342,0.04,3.262,0.85,3.65,3.199c0.289,1.73,0.539,3.449,0.809,5.119h7.182
	C547.743,158.959,548.833,154.59,544.733,152.021z M540.622,147.542c-0.1,1.199-0.75,1.879-1.91,1.92
	c-1.709,0.07-3.42,0.021-5.398,0.021v-4.739c2.051,0.17,3.979,0.26,5.891,0.51C540.493,145.42,540.702,146.42,540.622,147.542z"/>
<path fill="#FFFFFF" d="M30.626,153.778c2.459,0,4.659,0,7.072,0c0,3.1,0,6.073,0,8.996c2.61,0,5,0,7.376,0
	c0-7.812,0-15.463,0-23.152c-2.51,0-4.9,0-7.525,0c0,2.705,0,5.285,0,7.781c-2.442,0-4.644,0-6.979,0c0-2.691,0-5.229,0-7.777
	c-2.47,0-4.794,0-7.066,0c0,7.838,0,15.541,0,23.197c2.435,0,4.715,0,7.122,0C30.626,159.792,30.626,156.868,30.626,153.778z"/>
<path fill="#FFFFFF" d="M281.196,147.42c-2.542,0-4.868,0-7.334,0c0-2.678,0-5.217,0-7.809c-2.471,0-4.797,0-7.105,0
	c0,7.827,0,15.533,0,23.215c2.429,0,4.71,0,7.189,0c0-3.07,0-6.045,0-9.027c2.525,0,4.848,0,7.369,0c0,3.125,0,6.1,0,9.023
	c2.485,0,4.765,0,7.066,0c0-7.816,0-15.521,0-23.176c-2.463,0-4.789,0-7.185,0C281.196,142.299,281.196,144.79,281.196,147.42z"/>
<path fill="#FFFFFF" d="M68.172,145.297c0-2.09,0-3.902,0-5.715c-6.645,0-13.151,0-19.729,0c0,7.797,0,15.5,0,23.213
	c6.794,0,13.474,0,20.124,0c0-2.022,0-3.908,0-6.026c-4.377,0-8.628,0-12.857,0c-0.168-3.06-0.168-3.06,2.676-3.062
	c2.863,0,5.728,0,8.655,0c0-1.873,0-3.559,0-5.445c-3.855,0-7.597,0-11.32,0c0-1.078,0-1.951,0-2.965
	C59.884,145.297,63.959,145.297,68.172,145.297z"/>
<path fill="#FFFFFF" d="M656.434,139.575c0,7.865,0,15.568,0,23.26c6.777,0,13.412,0,20.062,0c0-2.031,0-3.961,0-6.057
	c-4.361,0-8.561,0-12.736,0c-0.357-3.068-0.357-3.068,2.48-3.07c2.92,0,5.84,0,8.732,0c0-1.935,0-3.617,0-5.438
	c-3.84,0-7.531,0-11.26,0c0-1.061,0-1.975,0-3.096c4.242,0,8.363,0,12.455,0c0-1.98,0-3.75,0-5.6
	C669.565,139.575,663.061,139.575,656.434,139.575z"/>
<path fill="#FFFFFF" d="M163.706,162.793c6.828,0,13.506,0,20.149,0c0-2.025,0-3.912,0-6.025c-4.373,0-8.62,0-12.853,0
	c0-1.109,0-1.986,0-3.068c3.817,0,7.554,0,11.315,0c0-1.895,0-3.576,0-5.461c-3.866,0-7.604,0-11.295,0c0-1.08,0-1.951,0-3.027
	c4.221,0,8.342,0,12.431,0c0-2.023,0-3.838,0-5.621c-6.653,0-13.157,0-19.747,0C163.706,147.344,163.706,155,163.706,162.793z"/>
<path fill="#FFFFFF" d="M429.69,139.579c0,7.85,0,15.551,0,23.199c6.812,0,13.492,0,20.08,0c0-2.044,0-3.929,0-5.979
	c-4.344,0-8.541,0-12.812,0c0-1.09,0-2.008,0-3.135c3.834,0,7.572,0,11.277,0c0-1.896,0-3.578,0-5.397c-3.84,0-7.529,0-11.26,0
	c0-1.058,0-1.972,0-3.091c4.238,0,8.361,0,12.461,0c0-1.979,0-3.746,0-5.6C442.834,139.579,436.333,139.579,429.69,139.579z"/>
<path fill="#FFFFFF" d="M116.572,138.821c-6.55-0.13-12.24,4.16-12.13,12.109c-0.49,7.301,5.37,12.32,11.62,12.449
	c7.55,0.16,12.86-4.789,12.8-12.1C128.802,144.032,124.992,139,116.572,138.821z M120.302,155.651c-1.08,1.898-3.03,2.32-5.01,1.85
	c-2.05-0.49-3.2-2.17-3.44-4.108c-0.22-1.78-0.09-3.71,0.35-5.45c0.6-2.42,2.78-3.721,4.98-3.449c2.11,0.25,3.88,2.17,4.15,4.549
	c0.08,0.75,0.01,1.531,0.01,2.301c0.13,0.039,0.271,0.07,0.41,0.109C121.282,152.862,121.012,154.379,120.302,155.651z"/>
<path fill="#FFFFFF" d="M523.323,151.241c0.139-8.47-5.691-12.58-12.211-12.41c-8.102,0.211-12,4.701-12.199,12.32
	c-0.191,6.95,4.49,11.939,11.879,12.221C517.971,163.641,523.721,158.112,523.323,151.241z M515.592,154.481
	c-0.701,2.311-2.711,3.381-5.25,3.08c-1.84-0.221-3.738-2.301-3.92-4.33c-0.061-0.699-0.01-1.41-0.01-2.109
	c-0.1-0.021-0.191-0.041-0.291-0.061c0.32-1.33,0.48-2.73,0.99-3.99c0.711-1.74,2.221-2.539,4.068-2.57
	c1.791-0.029,3.143,0.861,3.961,2.41C516.422,149.351,516.354,151.952,515.592,154.481z"/>
<path fill="#FFFFFF" d="M291.975,139.6c0,5.52-0.142,10.93,0.053,16.33c0.118,3.252,1.934,5.77,5.157,6.531
	c2.674,0.633,5.551,1.01,8.264,0.746c4.178-0.408,7.893-2.525,8.113-7.455c0.191-4.27,0.224-8.545,0.312-12.818
	c0.024-1.121,0.004-2.244,0.004-3.344c-2.57,0-4.851,0-7.302,0c0,2.002,0.041,3.908-0.009,5.812
	c-0.082,3.115-0.203,6.23-0.345,9.346c-0.089,1.938-1.592,3.106-3.875,2.859c-1.981-0.214-3.007-1.208-3.076-3.359
	c-0.066-2.047-0.054-4.098-0.06-6.146c-0.008-2.801-0.002-5.602-0.002-8.503C296.626,139.6,294.235,139.6,291.975,139.6z"/>
<path fill="#FFFFFF" d="M421.872,139.891c-1.33-0.32-2.75-0.37-4.139-0.381c-3.811-0.051-7.621-0.02-11.451-0.02v23.309h7.451v-7.17
	c2.18,0,4.029,0.031,5.889-0.01c4.211-0.07,7.48-2.859,7.98-6.89C428.051,145.112,426.192,140.941,421.872,139.891z
	 M418.022,150.209c-1.311,0.17-2.65,0.041-4.131,0.041v-4.99c1.432,0,2.762-0.069,4.07,0.011c1.5,0.101,2.73,0.601,2.75,2.431
	C420.743,149.542,419.413,150.032,418.022,150.209z"/>
<path fill="#FFFFFF" d="M98.422,140.311c-1.98-0.521-4.08-0.721-6.14-0.79c-3.48-0.12-6.97-0.03-10.43-0.03v23.33h7.2v-7.189
	c1.8,0,3.34,0.101,4.86-0.029c1.55-0.141,3.14-0.33,4.61-0.801c2.71-0.869,4.76-3.961,4.65-7.199
	C103.062,144.5,101.502,141.129,98.422,140.311z M94.282,149.959c-1.63,0.19-3.271,0.271-5.13,0.42v-5.119
	c1.59,0,3.21-0.229,4.71,0.091c0.82,0.181,1.79,1.159,2.08,1.979C96.372,148.571,95.852,149.782,94.282,149.959z"/>
<path fill="#FFFFFF" d="M653.887,147.86c-0.605-1.643-0.982-3.175-1.705-4.521c-1.629-3.035-4.592-3.973-7.73-4.477
	c-3.713-0.6-9.365,1.116-11.617,4.557c-3.027,4.627-3.17,9.461-0.666,14.205c2.303,4.369,6.357,5.774,11.176,5.738
	c4.738-0.037,10.391-3.654,10.35-9.654c-1.781,0-3.57,0.047-5.354-0.016c-1.131-0.039-1.803,0.133-2.219,1.441
	c-0.562,1.771-1.938,2.664-3.984,2.494c-1.674-0.141-2.863-1.006-3.445-2.348c-1.082-2.496-1.227-5.134-0.254-7.759
	c0.684-1.847,1.969-2.935,3.939-3.021c2.32-0.103,3.562,1.285,4.166,3.358C648.913,147.86,651.2,147.86,653.887,147.86z"/>
<path fill="#FFFFFF" d="M362.432,139.491c-2.1,0-4.141-0.08-6.18,0.051c-0.55,0.039-1.34,0.619-1.55,1.141
	c-1.71,4.26-3.33,8.561-4.94,12.85c-1.149,3.08-2.26,6.17-3.399,9.32h7.29c0.39-1.141,0.74-2.21,1.109-3.279h7.79
	c0.391,1.159,0.74,2.229,1.102,3.299h7.539C368.252,155.021,365.352,147.292,362.432,139.491z M356.402,154.401
	c0.76-2.369,1.479-4.609,2.209-6.852c0.131,0,0.27,0.012,0.41,0.012c0.67,2.25,1.33,4.5,2.02,6.84H356.402z"/>
<path fill="#FFFFFF" d="M604.354,161.67c-2.15-5.711-4.291-11.42-6.48-17.121c-0.641-1.68-0.971-3.988-2.23-4.789
	c-1.328-0.85-3.6-0.159-5.439-0.301c-1.199-0.09-1.68,0.432-2.039,1.44c-0.99,2.72-2.051,5.421-3.07,8.12
	c-1.729,4.59-3.461,9.18-5.238,13.91c1.809,0,3.42-0.131,5,0.039c1.75,0.181,2.729-0.35,3.068-2.148
	c0.102-0.511,0.789-1.261,1.23-1.291c2.357-0.119,4.719-0.061,7.039-0.061c0.76,3.461,0.76,3.461,4,3.461h4.381
	C604.483,162.411,604.483,162.021,604.354,161.67z M589.913,154.441c0.789-2.42,1.539-4.739,2.299-7.069
	c0.131,0.039,0.25,0.069,0.371,0.109c0.689,2.301,1.369,4.59,2.08,6.96H589.913z"/>
<path fill="#FFFFFF" d="M486.043,162.891c0-2.594,0.061-5.014-0.021-7.43c-0.047-1.328,0.385-1.822,1.75-1.777
	c2.668,0.086,5.338,0.025,8.062,0.025c0-1.896,0-3.578,0-5.432c-3.311,0-6.484,0-9.654,0c0-1.092,0-2.008,0-3.129
	c3.869,0,7.605,0,11.279,0c0-1.98,0-3.749,0-5.525c-6.279,0-12.445,0-18.562,0c0,7.836,0,15.537,0,23.268
	C481.284,162.891,483.516,162.891,486.043,162.891z"/>
<path fill="#FFFFFF" d="M0,145.319c2.333,0,4.532,0,6.921,0c0,5.984,0,11.762,0,17.514c2.479,0,4.756,0,7.23,0
	c0-5.875,0-11.654,0-17.635c2.393,0,4.591,0,6.739,0c0-2.023,0-3.834,0-5.697c-6.862,0-13.571-0.002-20.281,0.004
	c-0.177,0-0.353,0.086-0.61,0.15C0,141.444,0,143.208,0,145.319z"/>
<path fill="#FFFFFF" d="M701.563,14.371c0.379-0.13,0.789-0.23,1.158-0.42c1.461-0.76,2.051-2.08,1.881-3.62
	c-0.182-1.6-1.189-2.78-2.779-2.91c-2.4-0.18-4.82-0.05-7.34-0.05c-0.031,0.68-0.07,1.17-0.07,1.67
	c-0.01,3.57-0.031,7.15,0.039,10.72c0,0.351,0.551,0.7,0.99,1.23c0.229-0.58,0.318-0.7,0.318-0.82c0.021-1.08,0.031-2.17,0.041-3.25
	c0.01-2.37,0.301-2.67,2.65-2.37c0.51,0.07,1.129,0.351,1.438,0.74c1.102,1.37,2.041,2.87,3.16,4.23c0.5,0.6,1.271,0.97,1.92,1.45
	c0.182-0.189,0.361-0.38,0.541-0.569C704.211,18.421,702.922,16.451,701.563,14.371z M697.711,13.121
	c-0.568,0-1.129-0.05-1.818-0.08c-0.039-0.48-0.119-0.74-0.08-0.98c0.189-1.2,0.398-3.41,0.619-3.42c1.961,0,3.949,0.27,5.869,0.73
	c0.33,0.08,0.723,1.64,0.432,2.15c-0.4,0.71-1.34,1.3-2.17,1.54C699.682,13.321,698.663,13.131,697.711,13.121z"/>
<path fill="#FFFFFF" d="M699.682,0.171c-8.51,0.05-13.908,6.02-13.961,13.91c-0.059,8.32,6.41,14.12,13.932,13.89
	c8.211,0.24,14.189-6.18,14.09-13.939C713.643,6.131,708.063,0.121,699.682,0.171z M699.782,25.811
	c-6.029,0.57-11.75-5.48-11.709-11.62c0.029-6.48,5.279-11.85,11.58-11.91c6.1-0.07,11.889,5.28,11.709,12.16
	C711.211,20.131,706.153,26.221,699.782,25.811z"/>
<path fill="#FFFFFF" d="M228.739,162.842c0-7.86,0-15.555,0-23.189c-2.541,0-4.932,0-7.297,0c0,7.811,0,15.459,0,23.189
	C223.902,162.842,226.249,162.842,228.739,162.842z"/>
<path fill="#FFFFFF" d="M235.021,86.528c-1.603,9.051-3.159,17.831-4.74,26.758c-0.831,0-1.587,0-2.345,0
	c-25.231,0-50.462,0.078-75.692-0.052c-6.646-0.032-12.57-2.47-17.654-6.886c-4.842-4.205-7.629-9.53-8.883-15.719
	c-0.832-4.104-0.328-8.207,0.377-12.271c1.085-6.263,2.266-12.51,3.397-18.765c1.278-7.059,2.557-14.117,3.817-21.18
	c1.051-5.889,1.602-11.915,3.215-17.645c3.009-10.687,10.209-17.446,21.123-19.894c2.754-0.617,5.659-0.776,8.496-0.782
	c27.217-0.056,54.433-0.033,81.649-0.033c0.7,0,1.398,0,2.39,0c-0.468,3.007-0.87,5.905-1.38,8.786
	c-0.966,5.454-2.101,10.883-2.935,16.356c-0.259,1.696-0.875,2.029-2.415,2.026c-22.35-0.04-44.7,0.021-67.048-0.075
	c-3.64-0.017-8.033,3.136-8.294,7.781c-0.151,2.673-0.896,5.313-1.407,8.156c25.358,0,50.633,0,75.983,0
	c-1.604,9.1-3.175,18.013-4.786,27.152c-0.72,0-1.47,0-2.22,0c-23.694,0-47.388,0.021-71.083-0.038
	c-1.908-0.006-3.159,0.21-3.237,2.467c-0.092,2.667-1.364,5.222-0.397,8.016c1.285,3.718,4.255,5.836,8.762,5.837
	c20.94,0.006,41.881,0.002,62.822,0.002C233.298,86.528,234.06,86.528,235.021,86.528z"/>
<path fill="#FFFFFF" d="M553.418,0.061c-0.648,3.769-1.256,7.353-1.889,10.932c-0.832,4.715-1.791,9.409-2.475,14.146
	c-0.232,1.627-0.748,2.099-2.352,2.095c-22.289-0.044-44.576-0.031-66.865-0.029c-4.758,0-7.883,2.887-8.498,7.646
	c-0.344,2.677-0.922,5.322-1.43,8.183c25.311,0,50.572,0,75.965,0c-1.547,8.746-3.096,17.271-4.52,25.813
	c-0.207,1.239-0.729,1.414-1.752,1.409c-4.994-0.024-9.99-0.011-14.986-0.011c-19.15,0-38.299,0.011-57.451-0.021
	c-1.467-0.004-2.393,0.103-2.432,1.975c-0.055,2.473-0.871,4.979-0.627,7.398c0.5,4.947,4.113,6.896,8.686,6.908
	c20.496,0.053,40.992,0.023,61.486,0.023c1.271,0,2.545,0,3.92,0c-1.574,8.959-3.119,17.748-4.703,26.758c-0.732,0-1.484,0-2.236,0
	c-25.17,0-50.34,0.041-75.512-0.029c-6.396-0.016-12.197-2.156-17.154-6.194c-5.689-4.638-8.814-10.672-9.834-18.017
	c-0.623-4.48,0.285-8.707,0.949-12.989c0.969-6.279,2.238-12.514,3.367-18.769c1.408-7.806,2.801-15.615,4.201-23.422
	c0.777-4.339,1.195-8.779,2.406-12.994c3.09-10.765,10.238-17.538,21.215-20.004c2.57-0.577,5.275-0.768,7.92-0.773
	c27.412-0.054,54.826-0.033,82.236-0.033C551.749,0.061,552.442,0.061,553.418,0.061z"/>
<path fill="#FFFFFF" d="M675.032,21.991c-3.459-13.54-13.15-21.9-27.459-21.92c-24.531-0.04-49.062-0.01-73.59-0.01
	c-0.512,0-1.111-0.16-1.512,0.04c-0.551,0.28-1.26,0.79-1.369,1.31c-0.521,2.46-0.801,4.97-1.25,7.45
	c-1.631,9.109-3.33,18.21-4.939,27.319c-1.471,8.311-2.83,16.65-4.281,24.96c-1.369,7.82-2.789,15.62-4.199,23.43
	c-1.381,7.68-2.791,15.35-4.158,23.03c-0.33,1.829-0.553,3.67-0.83,5.53c0.408,0.07,0.59,0.14,0.77,0.14
	c10.699,0.011,21.391,0,32.09,0.03c1.16,0.01,1.449-0.461,1.629-1.561c0.893-5.529,1.9-11.039,2.871-16.55
	c0.949-5.399,1.9-10.8,2.859-16.19c0.51-2.9,1.051-5.79,1.59-8.76c4.121,0,8.021,0.06,11.92-0.01c3.74-0.08,6.371,1.68,7.83,4.95
	c2.91,6.5,5.621,13.101,8.42,19.66c2.461,5.74,4.92,11.49,7.461,17.211c0.24,0.539,1.049,1.18,1.602,1.18
	c11.777,0.07,23.568,0.051,35.658,0.051c-6.711-15.65-13.35-31.131-20.068-46.801c5.529-0.09,10.24-1.78,14.709-4.29
	c5.15-2.9,9.17-6.93,11.201-12.5c1.34-3.69,2.1-7.62,2.93-11.48C676.083,32.831,676.413,27.391,675.032,21.991z M633.692,43.031
	c-11.57,0.2-23.15,0.06-34.73,0.06c-0.18,0-0.369-0.08-0.91-0.2c0.631-3.63,1.24-7.16,1.852-10.69c0.189-1.11,0.551-2.23,0.551-3.34
	c0.01-1.45,0.719-1.67,1.93-1.67c10.359,0.02,20.73-0.11,31.09,0.08c3.859,0.06,7.42,2.91,7.529,7.26
	C641.143,39.781,637.653,42.961,633.692,43.031z"/>
<path fill="#FFFFFF" d="M300.705,113.286c0.735-4.438,1.396-8.607,2.125-12.765c0.719-4.095,1.659-8.153,2.196-12.271
	c0.221-1.693,0.974-1.738,2.238-1.736c13.77,0.021,27.538,0.014,41.308,0.014c7.621,0,15.242,0.014,22.863-0.005
	c4.371-0.011,7.58-2.479,8.619-6.576c1.158-4.563-2.793-9.69-7.512-9.697c-10.633-0.015-21.262-0.033-31.893,0.005
	c-7.123,0.024-13.372-2.356-18.963-6.652c-5.302-4.075-8.534-9.487-9.946-15.948c-0.85-3.88-0.552-7.795,0.252-11.698
	c1.002-4.869,1.535-9.851,2.782-14.65c2.669-10.275,11.294-18.932,22.414-20.815c1.931-0.327,3.92-0.409,5.883-0.412
	c26.961-0.025,53.924-0.017,80.885-0.017c0.762,0,1.523,0,2.311,0c-1.508,8.752-2.979,17.367-4.52,25.972
	c-0.08,0.442-0.691,0.914-1.168,1.125c-0.426,0.192-1.004,0.045-1.518,0.045c-21.52,0.001-43.037,0.064-64.554-0.059
	c-3.784-0.021-7.351,2.841-8.013,7.578c-0.418,2.983,2.571,7.215,5.726,8.136c0.653,0.189,1.369,0.233,2.057,0.234
	c10.63,0.013,21.263-0.051,31.892,0.035c5.107,0.042,10.068,1.071,14.609,3.495c7.623,4.069,12.635,10.232,14.422,18.784
	c0.936,4.483,0.377,8.972-0.391,13.42c-0.688,3.968-1.375,7.942-2.256,11.869c-2.436,10.85-10.91,20.762-23.102,22.201
	c-1.697,0.202-3.412,0.371-5.119,0.372c-27.087,0.022-54.178,0.017-81.268,0.017C302.37,113.286,301.675,113.286,300.705,113.286z"
	/>
<path fill="#FFFFFF" d="M57.607,0.23c-2.493,14.155-4.968,28.206-7.442,42.257c0.134,0.08,0.268,0.16,0.403,0.241
	c2.231-2.471,4.479-4.928,6.692-7.413c3.347-3.758,6.673-7.533,10.001-11.308C72.734,17.798,78.2,11.583,83.67,5.37
	c1.053-1.196,2.152-2.354,3.144-3.598c1.03-1.289,2.229-1.764,3.931-1.755c13.513,0.077,27.026,0.043,40.54,0.043
	c0.622,0,1.245,0,2.248,0c-1.855,2.17-3.46,4.098-5.119,5.979c-6.785,7.687-13.576,15.369-20.386,23.035
	c-4.572,5.145-9.181,10.256-13.771,15.384c-1.062,1.186-2.167,2.339-3.153,3.585c-0.264,0.335-0.364,1.043-0.199,1.438
	c3.351,7.969,6.74,15.921,10.143,23.866c4.173,9.748,8.363,19.486,12.552,29.228c1.495,3.473,3.007,6.938,4.593,10.596
	c-0.638,0.043-1.172,0.109-1.706,0.111c-11.08,0.006-22.159-0.021-33.239,0.033c-1.33,0.008-1.961-0.377-2.495-1.639
	c-5.011-11.855-10.118-23.672-15.172-35.511c-1.627-3.812-4.611-6.192-8.977-5.963c-3.698,0.196-7.414,0.041-11.333,0.041
	c-2.531,14.315-5.047,28.554-7.585,42.919c-11.335,0-22.704,0-34.251,0c0.568-3.265,1.125-6.461,1.683-9.658
	c0.977-5.582,1.951-11.162,2.936-16.744c1.071-6.081,2.153-12.16,3.232-18.24c0.969-5.458,1.943-10.914,2.909-16.373
	c0.967-5.456,1.928-10.913,2.888-16.37c0.962-5.458,1.922-10.916,2.879-16.375c0.946-5.397,1.888-10.795,2.83-16.191
	c0.087-0.496,0.207-0.99,0.241-1.488c0.076-1.104,0.459-1.689,1.745-1.687C35.409,0.082,46.04,0.065,56.672,0.072
	C56.855,0.073,57.04,0.132,57.607,0.23z"/>
<path fill="#FFFFFF" d="M248.174,113.135c0.448-2.713,0.867-5.366,1.329-8.012c1.105-6.32,2.215-12.641,3.354-18.955
	c1.105-6.127,2.279-12.242,3.368-18.373c1.211-6.823,2.338-13.659,3.541-20.485c1.377-7.811,2.816-15.61,4.189-23.423
	c1.32-7.505,2.568-15.021,3.931-22.519c0.092-0.503,0.898-1.25,1.376-1.253c10.818-0.062,21.638-0.037,32.457-0.023
	c0.119,0,0.239,0.073,0.564,0.181c-0.44,2.539-0.88,5.109-1.333,7.677c-0.962,5.456-1.93,10.91-2.897,16.365
	c-0.967,5.455-1.942,10.91-2.903,16.367c-0.962,5.459-1.908,10.921-2.862,16.381c-0.943,5.396-1.888,10.791-2.833,16.187
	c-0.978,5.58-1.948,11.162-2.936,16.74c-0.944,5.328-1.911,10.654-2.858,15.98c-0.341,1.923-0.688,3.848-0.972,5.775
	c-0.15,1.014-0.483,1.563-1.671,1.562c-10.627-0.041-21.255-0.024-31.882-0.033C248.89,113.275,248.644,113.206,248.174,113.135z"/>
<path fill="#FFFFFF" d="M323.835,147.842c0,5.273,0,10.064,0,14.971c-2.297,0-4.494,0-6.788,0c0-7.725,0-15.383,0-23.182
	c3.479,0,6.964,0,10.565,0c1.1,4.359,2.213,8.771,3.325,13.187c0.109,0.017,0.218,0.033,0.327,0.05
	c0.607-2.341,1.231-4.675,1.817-7.02c0.429-1.711,0.732-3.457,1.257-5.135c0.156-0.498,0.86-1.152,1.332-1.168
	c3.126-0.104,6.257-0.055,9.521-0.055c0,7.83,0,15.531,0,23.338c-2.284,0-4.502,0-6.97,0c0-4.717,0-9.453,0-14.189
	c-0.14-0.016-0.277-0.03-0.418-0.045c-1.021,3.654-2.026,7.314-3.08,10.964c-0.323,1.12-0.501,2.843-1.234,3.161
	c-1.244,0.539-2.886,0.271-4.341,0.143c-0.388-0.035-0.884-0.766-1.027-1.262c-1.225-4.229-2.376-8.479-3.565-12.719
	C324.495,148.663,324.287,148.483,323.835,147.842z"/>
<path fill="#FFFFFF" d="M571.756,162.782c0-4.893,0-9.676,0-14.461c-0.092-0.016-0.182-0.033-0.271-0.049
	c-1.367,4.861-2.732,9.725-4.104,14.607c-1.816,0-3.537,0-5.379,0c-1.367-4.855-2.736-9.711-4.104-14.568
	c-0.119,0.016-0.236,0.029-0.355,0.044c0,4.793,0,9.584,0,14.474c-2.338,0-4.492,0-6.793,0c0-7.681,0-15.387,0-23.215
	c3.406,0,6.832,0,10.416,0c1.088,4.311,2.193,8.682,3.297,13.051c0.129,0.02,0.256,0.039,0.383,0.059
	c0.633-2.422,1.271-4.844,1.893-7.27c0.404-1.586,0.715-3.197,1.201-4.758c0.148-0.475,0.736-1.138,1.141-1.148
	c3.121-0.098,6.246-0.053,9.473-0.053c0,7.816,0,15.475,0,23.287C576.397,162.782,574.196,162.782,571.756,162.782z"/>
<path fill="#FFFFFF" d="M129.322,139.569c2.549,0,4.835,0,7.188,0c0.942,4.656,1.871,9.249,2.8,13.844c0.134,0,0.268,0,0.401,0.002
	c0.945-4.603,1.89-9.205,2.859-13.922c1.858,0,3.647-0.07,5.424,0.047c0.461,0.031,1.188,0.584,1.275,1.004
	c0.906,4.379,1.706,8.777,2.833,13.264c0.376-1.611,0.789-3.217,1.12-4.838c0.554-2.711,1.046-5.434,1.583-8.148
	c0.175-0.886,0.575-1.414,1.658-1.357c1.847,0.101,3.702,0.029,5.815,0.029c-0.873,3.141-1.677,6.141-2.542,9.125
	c-1.241,4.281-2.565,8.541-3.767,12.836c-0.306,1.09-0.735,1.571-1.93,1.506c-1.839-0.104-3.688-0.027-5.6-0.027
	c-0.861-4.715-1.696-9.282-2.529-13.848c-0.126-0.016-0.252-0.029-0.378-0.043c-0.832,4.562-1.663,9.123-2.532,13.887
	c-2.063,0-4.163,0.064-6.251-0.051c-0.419-0.023-1.029-0.664-1.164-1.133C133.481,154.438,131.441,147.116,129.322,139.569z"/>
<path fill="#FFFFFF" d="M620.969,151.5c0-3.94,0-7.879,0-11.914c2.295,0,4.447,0,6.74,0c0,7.697,0,15.397,0,23.34
	c-2.135,0-4.289,0.066-6.434-0.053c-0.455-0.025-0.998-0.648-1.285-1.127c-2.145-3.572-4.232-7.178-6.346-10.768
	c-0.115-0.197-0.295-0.361-0.686-0.824c0,4.383,0,8.43,0,12.625c-2.359,0-4.557,0-6.887,0c0-7.664,0-15.365,0-23.283
	c2.305,0,4.588-0.062,6.865,0.055c0.447,0.023,0.988,0.666,1.271,1.152c2.113,3.637,4.176,7.305,6.252,10.965
	C620.631,151.612,620.801,151.555,620.969,151.5z"/>
<path fill="#FFFFFF" d="M246.975,151.864c0-4.279,0-8.203,0-12.248c2.355,0,4.552,0,6.852,0c0,7.699,0,15.355,0,23.303
	c-2.167,0-4.381,0.084-6.579-0.065c-0.474-0.034-0.986-0.854-1.317-1.407c-1.939-3.256-3.829-6.541-5.74-9.812
	c-0.251-0.43-0.533-0.838-1.131-1.775c0,4.652,0,8.736,0,12.945c-2.428,0-4.625,0-6.929,0c0-7.688,0-15.342,0-23.293
	c2.344,0,4.751-0.096,7.137,0.076c0.522,0.039,1.084,0.973,1.442,1.598c1.882,3.287,3.703,6.609,5.556,9.914
	C246.371,151.288,246.566,151.428,246.975,151.864z"/>
<path fill="#FFFFFF" d="M372.43,139.491c2.238,0,4.357-0.138,6.441,0.075c0.734,0.073,1.619,0.858,2.035,1.56
	c2.055,3.451,3.977,6.982,6.264,10.408c0-3.91,0-7.82,0-11.889c2.363,0,4.561,0,6.895,0c0,7.654,0,15.354,0,23.283
	c-2.098,0-4.197,0.115-6.27-0.073c-0.59-0.052-1.242-0.894-1.623-1.521c-1.969-3.238-3.854-6.525-5.775-9.791
	c-0.242-0.408-0.533-0.785-1.154-1.092c0,4.1,0,8.199,0,12.387c-2.371,0-4.523,0-6.812,0
	C372.43,155.131,372.43,147.43,372.43,139.491z"/>
<path fill="#FFFFFF" d="M205.602,151.84c2.65-1.489,3.55-3.91,3.21-6.729c-0.39-3.291-2.74-5.021-5.7-5.511
	c-2.5-0.41-5.11-0.11-7.67-0.11h-8.6v23.33h7.44v-8.34c1.46,0,2.61-0.051,3.75,0.01c2.2,0.11,3.44,1.371,3.63,3.57
	c0.11,1.199,0.13,2.43,0.45,3.58c0.14,0.52,0.899,1.189,1.42,1.229c1.97,0.15,3.96,0.061,5.95,0.061
	C208.162,152.042,207.542,153.862,205.602,151.84z M201.632,147.411c-0.18,1.271-1,2.03-2.32,2.08c-1.58,0.041-3.16,0.01-4.88,0.01
	v-4.74c1.91,0.132,3.68,0.143,5.41,0.4C200.982,145.331,201.812,146.122,201.632,147.411z"/>
<path fill="#FFFFFF" d="M471.083,152.071c0.439-0.48,0.699-0.85,1.039-1.141c2.08-1.789,2.41-4.199,1.871-6.6
	c-0.561-2.431-2.18-4.34-4.83-4.42c-5.57-0.17-11.16-0.061-16.83-0.061v22.949h7.289v-8.318c1.301,0,2.391-0.021,3.471,0
	c2.48,0.029,3.32,0.779,3.75,3.301c0.289,1.709,0.57,3.42,0.84,5.059h7.15C473.942,159.01,475.083,154.601,471.083,152.071z
	 M466.833,147.481c-0.17,1.35-0.961,2-2.281,2.02c-1.58,0.031-3.16,0.01-4.949,0.01v-4.688c1.811,0.09,3.619,0.09,5.41,0.289
	C466.323,145.25,467.012,146.061,466.833,147.481z"/>
<path fill="#FFFFFF" d="M544.733,152.021c0.447-0.409,0.77-0.722,1.1-1.021c2.23-2.029,2.57-4.529,1.709-7.271
	c-0.9-2.892-3.25-4.069-5.93-4.181c-5.109-0.199-10.23-0.061-15.459-0.061v23.34h7.188v-8.209c0.393-0.07,0.57-0.131,0.75-0.131
	c0.961-0.01,1.92-0.029,2.881-0.01c2.342,0.04,3.262,0.85,3.65,3.199c0.289,1.73,0.539,3.449,0.809,5.119h7.182
	C547.743,158.959,548.833,154.59,544.733,152.021z M540.622,147.542c-0.1,1.199-0.75,1.879-1.91,1.92
	c-1.709,0.07-3.42,0.021-5.398,0.021v-4.739c2.051,0.17,3.979,0.26,5.891,0.51C540.493,145.42,540.702,146.42,540.622,147.542z"/>
<path fill="#FFFFFF" d="M30.626,153.778c0,3.09,0,6.014,0,9.045c-2.407,0-4.687,0-7.122,0c0-7.656,0-15.359,0-23.197
	c2.272,0,4.597,0,7.066,0c0,2.549,0,5.086,0,7.777c2.335,0,4.537,0,6.979,0c0-2.496,0-5.076,0-7.781c2.625,0,5.016,0,7.525,0
	c0,7.689,0,15.34,0,23.152c-2.375,0-4.766,0-7.376,0c0-2.923,0-5.896,0-8.996C35.285,153.778,33.085,153.778,30.626,153.778z"/>
<path fill="#FFFFFF" d="M281.196,147.42c0-2.631,0-5.121,0-7.772c2.396,0,4.722,0,7.185,0c0,7.653,0,15.358,0,23.175
	c-2.301,0-4.582,0-7.066,0c0-2.924,0-5.898,0-9.021c-2.521,0-4.843,0-7.369,0c0,2.98,0,5.955,0,9.027c-2.479,0-4.76,0-7.189,0
	c0-7.683,0-15.389,0-23.215c2.309,0,4.635,0,7.105,0c0,2.59,0,5.129,0,7.807C276.328,147.42,278.654,147.42,281.196,147.42z"/>
<path fill="#FFFFFF" d="M68.172,145.297c-4.213,0-8.289,0-12.451,0c0,1.014,0,1.887,0,2.965c3.724,0,7.465,0,11.32,0
	c0,1.888,0,3.572,0,5.445c-2.929,0-5.792,0-8.655,0c-2.845,0.002-2.845,0.002-2.676,3.062c4.229,0,8.48,0,12.857,0
	c0,2.118,0,4.004,0,6.026c-6.65,0-13.33,0-20.124,0c0-7.713,0-15.416,0-23.213c6.578,0,13.084,0,19.729,0
	C68.172,141.395,68.172,143.208,68.172,145.297z"/>
<path fill="#FFFFFF" d="M656.434,139.575c6.627,0,13.131,0,19.734,0c0,1.85,0,3.618,0,5.6c-4.092,0-8.213,0-12.455,0
	c0,1.121,0,2.035,0,3.096c3.729,0,7.42,0,11.258,0c0,1.82,0,3.504,0,5.438c-2.893,0-5.811,0-8.73,0
	c-2.838,0.002-2.838,0.002-2.48,3.07c4.176,0,8.375,0,12.736,0c0,2.096,0,4.023,0,6.057c-6.65,0-13.283,0-20.062,0
	C656.434,155.143,656.434,147.44,656.434,139.575z"/>
<path fill="#FFFFFF" d="M163.706,162.793c0-7.793,0-15.449,0-23.203c6.59,0,13.094,0,19.747,0c0,1.783,0,3.597,0,5.619
	c-4.089,0-8.21,0-12.431,0c0,1.076,0,1.949,0,3.027c3.691,0,7.43,0,11.295,0c0,1.887,0,3.568,0,5.463c-3.761,0-7.498,0-11.315,0
	c0,1.082,0,1.957,0,3.067c4.233,0,8.48,0,12.853,0c0,2.114,0,4,0,6.026C177.212,162.793,170.534,162.793,163.706,162.793z"/>
<path fill="#FFFFFF" d="M429.69,139.579c6.643,0,13.145,0,19.748,0c0,1.854,0,3.619,0,5.598c-4.102,0-8.223,0-12.463,0
	c0,1.119,0,2.035,0,3.092c3.73,0,7.422,0,11.26,0c0,1.818,0,3.503,0,5.398c-3.705,0-7.441,0-11.277,0c0,1.125,0,2.045,0,3.135
	c4.271,0,8.469,0,12.814,0c0,2.049,0,3.934,0,5.977c-6.59,0-13.268,0-20.082,0C429.69,155.129,429.69,147.428,429.69,139.579z"/>
<path fill="#FFFFFF" d="M116.572,138.821c-6.55-0.13-12.24,4.16-12.13,12.109c-0.49,7.301,5.37,12.32,11.62,12.449
	c7.55,0.16,12.86-4.789,12.8-12.1C128.802,144.032,124.992,139,116.572,138.821z M120.302,155.651c-1.08,1.898-3.03,2.32-5.01,1.85
	c-2.05-0.49-3.2-2.17-3.44-4.108c-0.22-1.78-0.09-3.71,0.35-5.45c0.6-2.42,2.78-3.721,4.98-3.449c2.11,0.25,3.88,2.17,4.15,4.549
	c0.08,0.75,0.01,1.531,0.01,2.301c0.13,0.039,0.271,0.07,0.41,0.109C121.282,152.862,121.012,154.379,120.302,155.651z"/>
<path fill="#FFFFFF" d="M523.323,151.241c0.139-8.47-5.691-12.58-12.211-12.41c-8.102,0.211-12,4.701-12.199,12.32
	c-0.191,6.95,4.49,11.939,11.879,12.221C517.971,163.641,523.721,158.112,523.323,151.241z M515.592,154.481
	c-0.701,2.311-2.711,3.381-5.25,3.08c-1.84-0.221-3.738-2.301-3.92-4.33c-0.061-0.699-0.01-1.41-0.01-2.109
	c-0.1-0.021-0.191-0.041-0.291-0.061c0.32-1.33,0.48-2.73,0.99-3.99c0.711-1.74,2.221-2.539,4.068-2.57
	c1.791-0.029,3.143,0.861,3.961,2.41C516.422,149.351,516.354,151.952,515.592,154.481z"/>
<path fill="#FFFFFF" d="M291.975,139.6c2.261,0,4.651,0,7.238,0c0,2.902-0.005,5.703,0.002,8.503c0.006,2.05-0.007,4.099,0.06,6.146
	c0.068,2.152,1.094,3.146,3.076,3.36c2.283,0.247,3.786-0.922,3.875-2.858c0.141-3.115,0.262-6.23,0.344-9.348
	c0.05-1.904,0.009-3.811,0.009-5.812c2.451,0,4.731,0,7.302,0c0,1.101,0.021,2.224-0.004,3.345c-0.09,4.274-0.122,8.55-0.312,12.819
	c-0.221,4.929-3.937,7.045-8.113,7.453c-2.713,0.264-5.589-0.113-8.264-0.746c-3.223-0.762-5.039-3.278-5.157-6.531
	C291.833,150.53,291.975,145.12,291.975,139.6z"/>
<path fill="#FFFFFF" d="M421.872,139.891c-1.33-0.32-2.75-0.37-4.139-0.381c-3.811-0.051-7.621-0.02-11.451-0.02v23.309h7.451v-7.17
	c2.18,0,4.029,0.031,5.889-0.01c4.211-0.07,7.48-2.859,7.98-6.89C428.051,145.112,426.192,140.941,421.872,139.891z
	 M418.022,150.209c-1.311,0.17-2.65,0.041-4.131,0.041v-4.99c1.432,0,2.762-0.069,4.07,0.011c1.5,0.101,2.73,0.601,2.75,2.431
	C420.743,149.542,419.413,150.032,418.022,150.209z"/>
<path fill="#FFFFFF" d="M98.422,140.311c-1.98-0.521-4.08-0.721-6.14-0.79c-3.48-0.12-6.97-0.03-10.43-0.03v23.33h7.2v-7.189
	c1.8,0,3.34,0.101,4.86-0.029c1.55-0.141,3.14-0.33,4.61-0.801c2.71-0.869,4.76-3.961,4.65-7.199
	C103.062,144.5,101.502,141.129,98.422,140.311z M94.282,149.959c-1.63,0.19-3.271,0.271-5.13,0.42v-5.119
	c1.59,0,3.21-0.229,4.71,0.091c0.82,0.181,1.79,1.159,2.08,1.979C96.372,148.571,95.852,149.782,94.282,149.959z"/>
<path fill="#FFFFFF" d="M653.887,147.86c-2.688,0-4.975,0-7.344,0c-0.604-2.074-1.848-3.461-4.168-3.359
	c-1.971,0.088-3.256,1.176-3.938,3.021c-0.975,2.625-0.828,5.264,0.254,7.76c0.582,1.342,1.77,2.205,3.445,2.348
	c2.047,0.17,3.422-0.723,3.984-2.494c0.416-1.311,1.086-1.48,2.217-1.441c1.783,0.061,3.572,0.016,5.355,0.016
	c0.041,5.998-5.611,9.617-10.352,9.652c-4.816,0.037-8.871-1.367-11.176-5.736c-2.504-4.744-2.359-9.58,0.666-14.205
	c2.252-3.44,7.904-5.155,11.619-4.557c3.139,0.504,6.104,1.439,7.729,4.475C652.903,144.685,653.282,146.217,653.887,147.86z"/>
<path fill="#FFFFFF" d="M362.432,139.491c-2.1,0-4.141-0.08-6.18,0.051c-0.55,0.039-1.34,0.619-1.55,1.141
	c-1.71,4.26-3.33,8.561-4.94,12.85c-1.149,3.08-2.26,6.17-3.399,9.32h7.29c0.39-1.141,0.74-2.21,1.109-3.279h7.79
	c0.391,1.159,0.74,2.229,1.102,3.299h7.539C368.252,155.021,365.352,147.292,362.432,139.491z M356.402,154.401
	c0.76-2.369,1.479-4.609,2.209-6.852c0.131,0,0.27,0.012,0.41,0.012c0.67,2.25,1.33,4.5,2.02,6.84H356.402z"/>
<path fill="#FFFFFF" d="M604.354,161.67c-2.15-5.711-4.291-11.42-6.48-17.121c-0.641-1.68-0.971-3.988-2.23-4.789
	c-1.328-0.85-3.6-0.159-5.439-0.301c-1.199-0.09-1.68,0.432-2.039,1.44c-0.99,2.72-2.051,5.421-3.07,8.12
	c-1.729,4.59-3.461,9.18-5.238,13.91c1.809,0,3.42-0.131,5,0.039c1.75,0.181,2.729-0.35,3.068-2.148
	c0.102-0.511,0.789-1.261,1.23-1.291c2.357-0.119,4.719-0.061,7.039-0.061c0.76,3.461,0.76,3.461,4,3.461h4.381
	C604.483,162.411,604.483,162.021,604.354,161.67z M589.913,154.441c0.789-2.42,1.539-4.739,2.299-7.069
	c0.131,0.039,0.25,0.069,0.371,0.109c0.689,2.301,1.369,4.59,2.08,6.96H589.913z"/>
<path fill="#FFFFFF" d="M486.043,162.891c-2.527,0-4.76,0-7.146,0c0-7.729,0-15.432,0-23.268c6.117,0,12.283,0,18.562,0
	c0,1.776,0,3.545,0,5.525c-3.674,0-7.41,0-11.279,0c0,1.121,0,2.037,0,3.129c3.17,0,6.346,0,9.654,0c0,1.854,0,3.534,0,5.432
	c-2.727,0-5.396,0.061-8.062-0.025c-1.365-0.045-1.797,0.449-1.75,1.777C486.104,157.877,486.043,160.297,486.043,162.891z"/>
<path fill="#FFFFFF" d="M0,145.319c0-2.109,0-3.875,0-5.664c0.257-0.064,0.433-0.15,0.61-0.15
	c6.709-0.006,13.418-0.004,20.281-0.004c0,1.863,0,3.674,0,5.697c-2.148,0-4.347,0-6.739,0c0,5.979,0,11.76,0,17.635
	c-2.475,0-4.752,0-7.23,0c0-5.752,0-11.529,0-17.514C4.532,145.319,2.333,145.319,0,145.319z"/>
<path fill="#FFFFFF" d="M699.682,0.171c-8.51,0.05-13.908,6.02-13.961,13.91c-0.059,8.32,6.41,14.12,13.932,13.89
	c8.211,0.24,14.189-6.18,14.09-13.939C713.643,6.131,708.063,0.121,699.682,0.171z M699.782,25.811
	c-6.029,0.57-11.75-5.48-11.709-11.62c0.029-6.48,5.279-11.85,11.58-11.91c6.1-0.07,11.889,5.28,11.709,12.16
	C711.211,20.131,706.153,26.221,699.782,25.811z"/>
<path fill="#FFFFFF" d="M228.739,162.842c-2.49,0-4.837,0-7.297,0c0-7.73,0-15.381,0-23.189c2.366,0,4.756,0,7.297,0
	C228.739,147.288,228.739,154.982,228.739,162.842z"/>
<path fill="#FFFFFF" d="M701.563,14.371c0.379-0.13,0.789-0.23,1.158-0.42c1.461-0.76,2.051-2.08,1.881-3.62
	c-0.182-1.6-1.189-2.78-2.779-2.91c-2.4-0.18-4.82-0.05-7.34-0.05c-0.031,0.68-0.07,1.17-0.07,1.67
	c-0.01,3.57-0.031,7.15,0.039,10.72c0,0.351,0.551,0.7,0.99,1.23c0.229-0.58,0.318-0.7,0.318-0.82c0.021-1.08,0.031-2.17,0.041-3.25
	c0.01-2.37,0.301-2.67,2.65-2.37c0.51,0.07,1.129,0.351,1.438,0.74c1.102,1.37,2.041,2.87,3.16,4.23c0.5,0.6,1.271,0.97,1.92,1.45
	c0.182-0.189,0.361-0.38,0.541-0.569C704.211,18.421,702.922,16.451,701.563,14.371z M697.711,13.121
	c-0.568,0-1.129-0.05-1.818-0.08c-0.039-0.48-0.119-0.74-0.08-0.98c0.189-1.2,0.398-3.41,0.619-3.42c1.961,0,3.949,0.27,5.869,0.73
	c0.33,0.08,0.723,1.64,0.432,2.15c-0.4,0.71-1.34,1.3-2.17,1.54C699.682,13.321,698.663,13.131,697.711,13.121z"/>
</svg>
