<?xml version="1.0" encoding="utf-8"?>
<!-- Generator: Adobe Illustrator 16.0.3, SVG Export Plug-In . SVG Version: 6.00 Build 0)  -->
<!DOCTYPE svg PUBLIC "-//W3C//DTD SVG 1.1//EN" "http://www.w3.org/Graphics/SVG/1.1/DTD/svg11.dtd">
<svg version="1.1" id="Layer_1" xmlns="http://www.w3.org/2000/svg" xmlns:xlink="http://www.w3.org/1999/xlink" x="0px" y="0px"
	 width="713.743px" height="163.384px" viewBox="0 0 713.743 163.384" enable-background="new 0 0 713.743 163.384"
	 xml:space="preserve">
<path fill="#FFFFFF" d="M235.021,86.528c-0.962,0-1.724,0-2.485,0c-20.94,0-41.881,0.003-62.822-0.002
	c-4.506-0.001-7.477-2.119-8.762-5.837c-0.967-2.794,0.305-5.349,0.397-8.016c0.078-2.257,1.329-2.473,3.237-2.467
	c23.694,0.059,47.389,0.038,71.083,0.038c0.75,0,1.5,0,2.22,0c1.611-9.14,3.182-18.053,4.786-27.152c-25.351,0-50.625,0-75.983,0
	c0.512-2.843,1.256-5.483,1.407-8.156c0.262-4.646,4.654-7.797,8.294-7.781c22.349,0.097,44.699,0.035,67.048,0.075
	c1.54,0.003,2.156-0.33,2.415-2.026c0.834-5.474,1.969-10.902,2.935-16.356c0.511-2.881,0.912-5.779,1.38-8.786
	c-0.991,0-1.69,0-2.39,0c-27.217,0-54.433-0.022-81.649,0.033c-2.836,0.006-5.741,0.165-8.496,0.782
	c-10.913,2.447-18.114,9.207-21.123,19.894c-1.613,5.729-2.164,11.756-3.215,17.645c-1.261,7.062-2.54,14.121-3.817,21.18
	c-1.132,6.255-2.312,12.502-3.397,18.765c-0.705,4.063-1.209,8.167-0.377,12.271c1.254,6.188,4.041,11.513,8.883,15.719
	c5.084,4.416,11.008,6.853,17.654,6.885c25.23,0.13,50.461,0.052,75.692,0.052c0.758,0,1.515,0,2.345,0
	C231.862,104.359,233.418,95.579,235.021,86.528z"/>
<path fill="#FFFFFF" d="M553.418,0.061c-0.976,0-1.669,0-2.361,0c-27.411,0-54.825-0.021-82.237,0.033
	c-2.644,0.006-5.349,0.196-7.92,0.773c-10.976,2.466-18.125,9.239-21.213,20.004c-1.21,4.215-1.629,8.655-2.408,12.994
	c-1.4,7.807-2.793,15.616-4.2,23.422c-1.129,6.255-2.399,12.489-3.368,18.769c-0.663,4.283-1.572,8.509-0.949,12.989
	c1.021,7.345,4.145,13.379,9.835,18.017c4.957,4.038,10.757,6.179,17.154,6.195c25.171,0.069,50.341,0.028,75.512,0.028
	c0.752,0,1.503,0,2.236,0c1.584-9.01,3.129-17.798,4.703-26.758c-1.376,0-2.647,0-3.92,0c-20.495,0-40.991,0.029-61.486-0.023
	c-4.573-0.012-8.187-1.96-8.686-6.907c-0.244-2.419,0.573-4.927,0.626-7.399c0.039-1.872,0.965-1.979,2.433-1.975
	c19.151,0.032,38.3,0.021,57.451,0.021c4.996,0,9.992-0.014,14.986,0.011c1.024,0.005,1.545-0.17,1.752-1.409
	c1.424-8.544,2.972-17.068,4.519-25.814c-25.393,0-50.654,0-75.965,0c0.508-2.86,1.087-5.506,1.431-8.183
	c0.614-4.759,3.74-7.646,8.497-7.646c22.289-0.002,44.577-0.015,66.866,0.029c1.603,0.003,2.117-0.468,2.352-2.095
	c0.682-4.736,1.641-9.431,2.474-14.146C552.162,7.414,552.769,3.83,553.418,0.061z"/>
<path fill="#FFFFFF" d="M675.032,21.991c-3.46-13.54-13.15-21.9-27.46-21.92c-24.53-0.04-49.061-0.01-73.59-0.01
	c-0.511,0-1.11-0.16-1.511,0.04c-0.55,0.28-1.26,0.79-1.369,1.31c-0.521,2.46-0.801,4.97-1.25,7.45
	c-1.631,9.11-3.33,18.21-4.94,27.32c-1.47,8.31-2.83,16.65-4.28,24.96c-1.37,7.82-2.79,15.62-4.2,23.43
	c-1.38,7.68-2.79,15.35-4.159,23.03c-0.33,1.83-0.551,3.67-0.83,5.53c0.41,0.07,0.59,0.14,0.77,0.14c10.7,0.01,21.391,0,32.09,0.03
	c1.16,0.01,1.45-0.46,1.63-1.56c0.891-5.53,1.9-11.04,2.87-16.55c0.95-5.4,1.9-10.8,2.86-16.19c0.51-2.9,1.05-5.79,1.59-8.76
	c4.12,0,8.021,0.06,11.92-0.01c3.74-0.08,6.37,1.68,7.83,4.95c2.91,6.5,5.62,13.1,8.42,19.66c2.46,5.74,4.92,11.49,7.46,17.21
	c0.24,0.54,1.05,1.18,1.601,1.18c11.779,0.07,23.569,0.05,35.659,0.05c-6.71-15.65-13.35-31.13-20.069-46.8
	c5.53-0.09,10.24-1.78,14.71-4.29c5.149-2.9,9.17-6.93,11.2-12.5c1.34-3.69,2.1-7.62,2.93-11.48
	C676.082,32.831,676.412,27.391,675.032,21.991z M633.692,43.031c-11.57,0.2-23.15,0.06-34.73,0.06c-0.18,0-0.37-0.08-0.91-0.2
	c0.63-3.63,1.24-7.16,1.851-10.69c0.189-1.11,0.55-2.23,0.55-3.34c0.01-1.45,0.72-1.67,1.93-1.67c10.36,0.02,20.73-0.11,31.09,0.08
	c3.86,0.06,7.42,2.91,7.53,7.26C641.142,39.781,637.652,42.961,633.692,43.031z"/>
<path fill="#FFFFFF" d="M300.705,113.286c0.97,0,1.665,0,2.361,0c27.089,0,54.179,0.008,81.268-0.016
	c1.708-0.001,3.421-0.17,5.119-0.372c12.191-1.44,20.666-11.353,23.101-22.201c0.88-3.927,1.568-7.9,2.255-11.869
	c0.769-4.448,1.328-8.937,0.392-13.42c-1.787-8.552-6.799-14.715-14.422-18.784c-4.542-2.424-9.503-3.453-14.609-3.495
	c-10.63-0.086-21.262-0.022-31.893-0.035c-0.687-0.001-1.403-0.045-2.056-0.235c-3.154-0.921-6.144-5.152-5.726-8.136
	c0.662-4.737,4.229-7.6,8.013-7.578c21.518,0.123,43.036,0.06,64.554,0.059c0.513,0,1.091,0.147,1.518-0.045
	c0.476-0.211,1.087-0.683,1.167-1.125c1.54-8.604,3.012-17.22,4.52-25.972c-0.787,0-1.548,0-2.31,0
	c-26.962,0-53.923-0.009-80.886,0.017c-1.962,0.003-3.952,0.085-5.883,0.412c-11.12,1.884-19.745,10.54-22.414,20.815
	c-1.247,4.8-1.78,9.781-2.782,14.65c-0.804,3.903-1.101,7.818-0.252,11.698c1.412,6.461,4.646,11.873,9.947,15.948
	c5.59,4.296,11.839,6.677,18.962,6.652c10.631-0.038,21.261-0.02,31.893-0.005c4.719,0.007,8.671,5.134,7.512,9.697
	c-1.04,4.098-4.247,6.566-8.619,6.576c-7.621,0.018-15.242,0.005-22.863,0.005c-13.769,0-27.539,0.008-41.307-0.013
	c-1.265-0.003-2.018,0.042-2.238,1.735c-0.537,4.116-1.477,8.177-2.196,12.271C302.101,104.677,301.44,108.848,300.705,113.286z"/>
<path fill="#FFFFFF" d="M57.607,0.23c-0.568-0.098-0.752-0.157-0.937-0.157c-10.632-0.007-21.263,0.01-31.894-0.036
	c-1.286-0.004-1.669,0.582-1.745,1.687c-0.035,0.498-0.154,0.992-0.241,1.488c-0.942,5.396-1.884,10.794-2.83,16.191
	c-0.957,5.459-1.917,10.917-2.879,16.375c-0.96,5.457-1.921,10.914-2.888,16.37c-0.966,5.459-1.94,10.915-2.909,16.373
	c-1.08,6.08-2.161,12.16-3.232,18.241c-0.984,5.581-1.959,11.162-2.936,16.744c-0.559,3.196-1.115,6.394-1.683,9.657
	c11.548,0,22.916,0,34.251,0c2.538-14.364,5.055-28.604,7.585-42.919c3.918,0,7.634,0.155,11.333-0.041
	c4.366-0.229,7.35,2.15,8.977,5.963c5.054,11.839,10.161,23.654,15.172,35.512c0.534,1.261,1.165,1.646,2.495,1.638
	c11.08-0.054,22.159-0.028,33.239-0.033c0.534-0.002,1.068-0.069,1.706-0.111c-1.586-3.657-3.098-7.124-4.593-10.597
	c-4.188-9.74-8.378-19.479-12.552-29.227c-3.403-7.945-6.792-15.897-10.143-23.866c-0.166-0.395-0.065-1.103,0.199-1.438
	c0.986-1.246,2.091-2.399,3.153-3.585c4.591-5.128,9.2-10.239,13.771-15.384c6.81-7.666,13.601-15.349,20.386-23.035
	c1.659-1.882,3.264-3.81,5.119-5.979c-1.003,0-1.626,0-2.248,0c-13.514,0-27.027,0.034-40.54-0.043
	c-1.702-0.009-2.901,0.466-3.931,1.755c-0.992,1.243-2.091,2.401-3.144,3.598c-5.47,6.213-10.937,12.428-16.409,18.637
	c-3.328,3.774-6.654,7.55-10.001,11.308c-2.213,2.485-4.46,4.942-6.692,7.413c-0.135-0.081-0.27-0.161-0.403-0.241
	C52.64,28.436,55.115,14.385,57.607,0.23z"/>
<path fill="#FFFFFF" d="M248.174,113.135c0.47,0.07,0.716,0.14,0.961,0.14c10.627,0.008,21.255-0.008,31.882,0.033
	c1.188,0.003,1.521-0.548,1.671-1.561c0.285-1.93,0.63-3.854,0.972-5.775c0.948-5.327,1.915-10.653,2.858-15.982
	c0.988-5.578,1.958-11.159,2.936-16.739c0.945-5.396,1.891-10.791,2.833-16.187c0.954-5.46,1.9-10.922,2.862-16.381
	c0.961-5.457,1.937-10.912,2.903-16.367c0.968-5.455,1.936-10.909,2.897-16.365c0.452-2.567,0.893-5.138,1.333-7.677
	c-0.325-0.107-0.445-0.181-0.564-0.181c-10.819-0.014-21.639-0.039-32.457,0.023c-0.478,0.003-1.284,0.75-1.376,1.253
	c-1.363,7.496-2.611,15.014-3.931,22.519c-1.373,7.812-2.812,15.612-4.189,23.423c-1.203,6.826-2.33,13.662-3.541,20.485
	c-1.089,6.131-2.263,12.245-3.368,18.373c-1.139,6.314-2.249,12.635-3.354,18.955C249.041,107.769,248.622,110.422,248.174,113.135z
	"/>
<path fill="#FFFFFF" d="M323.835,147.842c0.452,0.641,0.66,0.819,0.721,1.04c1.189,4.239,2.341,8.491,3.565,12.719
	c0.144,0.497,0.64,1.227,1.027,1.261c1.456,0.131,3.098,0.398,4.341-0.141c0.734-0.319,0.912-2.042,1.235-3.162
	c1.052-3.648,2.057-7.309,3.08-10.963c0.14,0.014,0.278,0.029,0.418,0.045c0,4.735,0,9.472,0,14.188c2.466,0,4.685,0,6.97,0
	c0-7.806,0-15.507,0-23.337c-3.263,0-6.395-0.05-9.521,0.054c-0.472,0.016-1.176,0.671-1.332,1.168
	c-0.525,1.678-0.829,3.425-1.257,5.135c-0.586,2.345-1.209,4.679-1.817,7.019c-0.109-0.016-0.217-0.033-0.327-0.049
	c-1.113-4.414-2.226-8.827-3.326-13.187c-3.602,0-7.086,0-10.565,0c0,7.8,0,15.457,0,23.182c2.293,0,4.49,0,6.788,0
	C323.835,157.907,323.835,153.117,323.835,147.842z"/>
<path fill="#FFFFFF" d="M571.756,162.781c2.44,0,4.64,0,6.799,0c0-7.812,0-15.47,0-23.287c-3.228,0-6.352-0.044-9.473,0.053
	c-0.403,0.012-0.991,0.676-1.141,1.149c-0.487,1.56-0.797,3.172-1.202,4.757c-0.619,2.427-1.259,4.848-1.891,7.27
	c-0.128-0.019-0.255-0.039-0.383-0.059c-1.104-4.369-2.21-8.74-3.298-13.051c-3.583,0-7.009,0-10.415,0c0,7.829,0,15.535,0,23.216
	c2.301,0,4.454,0,6.793,0c0-4.89,0-9.681,0-14.474c0.117-0.014,0.234-0.028,0.354-0.044c1.368,4.857,2.736,9.713,4.104,14.569
	c1.842,0,3.562,0,5.379,0c1.371-4.885,2.736-9.746,4.104-14.608c0.09,0.016,0.18,0.033,0.271,0.049
	C571.756,153.106,571.756,157.889,571.756,162.781z"/>
<path fill="#FFFFFF" d="M129.322,139.569c2.119,7.546,4.159,14.869,6.264,22.175c0.134,0.468,0.745,1.108,1.164,1.132
	c2.089,0.116,4.188,0.052,6.251,0.052c0.869-4.765,1.7-9.326,2.532-13.887c0.126,0.014,0.252,0.027,0.378,0.042
	c0.833,4.565,1.668,9.134,2.529,13.848c1.912,0,3.761-0.075,5.6,0.028c1.194,0.065,1.624-0.416,1.93-1.507
	c1.201-4.294,2.525-8.554,3.767-12.835c0.865-2.984,1.67-5.984,2.542-9.126c-2.114,0-3.969,0.071-5.815-0.028
	c-1.083-0.058-1.482,0.472-1.658,1.357c-0.537,2.715-1.029,5.438-1.583,8.149c-0.332,1.62-0.744,3.225-1.12,4.837
	c-1.127-4.486-1.927-8.885-2.833-13.264c-0.087-0.42-0.814-0.973-1.275-1.004c-1.776-0.117-3.565-0.047-5.424-0.047
	c-0.969,4.718-1.914,9.32-2.859,13.922c-0.133-0.001-0.267-0.001-0.401-0.001c-0.929-4.595-1.858-9.188-2.8-13.844
	C134.157,139.569,131.871,139.569,129.322,139.569z"/>
<path fill="#FFFFFF" d="M620.97,151.5c-0.168,0.057-0.339,0.111-0.508,0.168c-2.076-3.659-4.138-7.328-6.252-10.965
	c-0.281-0.485-0.822-1.128-1.271-1.152c-2.277-0.116-4.562-0.054-6.865-0.054c0,7.917,0,15.618,0,23.282c2.33,0,4.527,0,6.887,0
	c0-4.195,0-8.242,0-12.625c0.39,0.464,0.569,0.627,0.685,0.825c2.113,3.59,4.202,7.194,6.346,10.767
	c0.286,0.479,0.83,1.102,1.285,1.127c2.145,0.12,4.299,0.054,6.434,0.054c0-7.942,0-15.644,0-23.341c-2.294,0-4.445,0-6.74,0
	C620.97,143.621,620.97,147.559,620.97,151.5z"/>
<path fill="#FFFFFF" d="M246.975,151.863c-0.408-0.435-0.604-0.576-0.71-0.767c-1.853-3.304-3.674-6.627-5.556-9.914
	c-0.358-0.625-0.92-1.559-1.442-1.598c-2.386-0.171-4.793-0.075-7.137-0.075c0,7.95,0,15.605,0,23.293c2.304,0,4.501,0,6.929,0
	c0-4.21,0-8.294,0-12.946c0.598,0.938,0.88,1.347,1.131,1.775c1.912,3.272,3.801,6.558,5.74,9.812
	c0.332,0.555,0.844,1.374,1.317,1.408c2.198,0.15,4.412,0.066,6.579,0.066c0-7.947,0-15.604,0-23.303c-2.3,0-4.496,0-6.852,0
	C246.975,143.661,246.975,147.584,246.975,151.863z"/>
<path fill="#FFFFFF" d="M372.431,139.491c0,7.94,0,15.642,0,23.348c2.29,0,4.441,0,6.812,0c0-4.188,0-8.288,0-12.388
	c0.623,0.307,0.913,0.685,1.154,1.093c1.923,3.265,3.808,6.552,5.776,9.79c0.381,0.628,1.033,1.471,1.623,1.521
	c2.072,0.188,4.172,0.074,6.269,0.074c0-7.93,0-15.63,0-23.284c-2.333,0-4.531,0-6.894,0c0,4.067,0,7.979,0,11.889
	c-2.288-3.426-4.209-6.958-6.264-10.409c-0.416-0.699-1.3-1.485-2.034-1.559C376.787,139.353,374.668,139.491,372.431,139.491z"/>
<path fill="#FFFFFF" d="M205.602,151.84c2.65-1.489,3.55-3.909,3.21-6.729c-0.39-3.29-2.74-5.021-5.7-5.51
	c-2.5-0.41-5.11-0.11-7.67-0.11h-8.6v23.33h7.44v-8.34c1.46,0,2.61-0.05,3.75,0.01c2.2,0.11,3.44,1.37,3.63,3.57
	c0.11,1.199,0.13,2.43,0.45,3.58c0.14,0.52,0.9,1.189,1.42,1.229c1.97,0.15,3.96,0.061,5.95,0.061
	C208.162,152.041,207.542,153.861,205.602,151.84z M201.632,147.411c-0.18,1.271-1,2.03-2.32,2.08c-1.58,0.04-3.16,0.01-4.88,0.01
	v-4.74c1.91,0.131,3.68,0.141,5.41,0.4C200.982,145.331,201.812,146.121,201.632,147.411z"/>
<path fill="#FFFFFF" d="M471.082,152.071c0.44-0.48,0.7-0.85,1.04-1.14c2.08-1.79,2.41-4.2,1.87-6.601
	c-0.56-2.43-2.18-4.34-4.83-4.42c-5.57-0.17-11.16-0.06-16.83-0.06V162.8h7.29v-8.319c1.3,0,2.39-0.021,3.47,0
	c2.48,0.029,3.32,0.779,3.75,3.3c0.29,1.71,0.57,3.42,0.84,5.06h7.15C473.942,159.01,475.082,154.601,471.082,152.071z
	 M466.832,147.481c-0.17,1.35-0.96,2-2.28,2.02c-1.58,0.03-3.16,0.01-4.95,0.01v-4.689c1.81,0.09,3.62,0.09,5.41,0.29
	C466.322,145.25,467.012,146.061,466.832,147.481z"/>
<path fill="#FFFFFF" d="M544.732,152.021c0.449-0.41,0.77-0.721,1.1-1.021c2.23-2.029,2.57-4.529,1.71-7.27
	c-0.9-2.891-3.25-4.07-5.93-4.181c-5.11-0.199-10.23-0.06-15.46-0.06v23.34h7.189v-8.21c0.391-0.07,0.57-0.13,0.75-0.13
	c0.96-0.01,1.92-0.03,2.88-0.01c2.341,0.04,3.261,0.85,3.65,3.2c0.29,1.729,0.54,3.449,0.81,5.119h7.181
	C547.742,158.96,548.832,154.59,544.732,152.021z M540.622,147.541c-0.1,1.2-0.75,1.88-1.91,1.92c-1.71,0.07-3.42,0.021-5.399,0.021
	v-4.74c2.05,0.17,3.979,0.26,5.89,0.51C540.492,145.42,540.702,146.42,540.622,147.541z"/>
<path fill="#FFFFFF" d="M30.626,153.778c2.459,0,4.659,0,7.072,0c0,3.1,0,6.073,0,8.996c2.61,0,5,0,7.376,0
	c0-7.812,0-15.463,0-23.152c-2.51,0-4.9,0-7.525,0c0,2.705,0,5.285,0,7.781c-2.442,0-4.644,0-6.979,0c0-2.692,0-5.229,0-7.778
	c-2.47,0-4.794,0-7.066,0c0,7.838,0,15.541,0,23.198c2.435,0,4.715,0,7.122,0C30.626,159.791,30.626,156.867,30.626,153.778z"/>
<path fill="#FFFFFF" d="M281.196,147.42c-2.542,0-4.868,0-7.334,0c0-2.678,0-5.217,0-7.808c-2.471,0-4.797,0-7.105,0
	c0,7.827,0,15.533,0,23.215c2.429,0,4.71,0,7.189,0c0-3.071,0-6.046,0-9.027c2.526,0,4.848,0,7.369,0c0,3.124,0,6.099,0,9.022
	c2.485,0,4.765,0,7.066,0c0-7.815,0-15.521,0-23.175c-2.463,0-4.789,0-7.185,0C281.196,142.299,281.196,144.79,281.196,147.42z"/>
<path fill="#FFFFFF" d="M68.172,145.298c0-2.091,0-3.903,0-5.716c-6.645,0-13.151,0-19.729,0c0,7.797,0,15.5,0,23.214
	c6.794,0,13.474,0,20.124,0c0-2.023,0-3.909,0-6.027c-4.377,0-8.628,0-12.857,0c-0.168-3.06-0.168-3.06,2.676-3.062
	c2.863,0,5.727,0,8.655,0c0-1.873,0-3.558,0-5.444c-3.855,0-7.597,0-11.32,0c0-1.079,0-1.952,0-2.965
	C59.884,145.298,63.959,145.298,68.172,145.298z"/>
<path fill="#FFFFFF" d="M656.434,139.575c0,7.865,0,15.568,0,23.259c6.778,0,13.412,0,20.062,0c0-2.031,0-3.961,0-6.057
	c-4.36,0-8.561,0-12.735,0c-0.358-3.067-0.358-3.067,2.479-3.069c2.92,0,5.84,0,8.732,0c0-1.935,0-3.618,0-5.438
	c-3.839,0-7.531,0-11.259,0c0-1.061,0-1.975,0-3.096c4.242,0,8.364,0,12.456,0c0-1.98,0-3.75,0-5.599
	C669.564,139.575,663.06,139.575,656.434,139.575z"/>
<path fill="#FFFFFF" d="M163.706,162.794c6.828,0,13.506,0,20.149,0c0-2.026,0-3.912,0-6.026c-4.373,0-8.62,0-12.853,0
	c0-1.11,0-1.986,0-3.068c3.817,0,7.554,0,11.315,0c0-1.894,0-3.576,0-5.462c-3.866,0-7.604,0-11.295,0c0-1.079,0-1.951,0-3.027
	c4.221,0,8.342,0,12.431,0c0-2.023,0-3.837,0-5.62c-6.653,0-13.157,0-19.747,0C163.706,147.345,163.706,155,163.706,162.794z"/>
<path fill="#FFFFFF" d="M429.689,139.578c0,7.851,0,15.552,0,23.199c6.814,0,13.493,0,20.081,0c0-2.043,0-3.928,0-5.977
	c-4.344,0-8.542,0-12.813,0c0-1.09,0-2.009,0-3.135c3.835,0,7.573,0,11.277,0c0-1.896,0-3.579,0-5.398c-3.839,0-7.529,0-11.259,0
	c0-1.057,0-1.972,0-3.091c4.239,0,8.361,0,12.461,0c0-1.979,0-3.745,0-5.599C442.835,139.578,436.332,139.578,429.689,139.578z"/>
<path fill="#FFFFFF" d="M116.572,138.821c-6.55-0.13-12.24,4.16-12.13,12.11c-0.49,7.3,5.37,12.319,11.62,12.449
	c7.55,0.16,12.86-4.79,12.8-12.1C128.802,144.031,124.992,139,116.572,138.821z M120.302,155.651c-1.08,1.899-3.03,2.32-5.01,1.85
	c-2.05-0.49-3.2-2.17-3.44-4.109c-0.22-1.78-0.09-3.71,0.35-5.45c0.6-2.42,2.78-3.72,4.98-3.45c2.11,0.25,3.88,2.17,4.15,4.55
	c0.08,0.75,0.01,1.53,0.01,2.3c0.13,0.04,0.27,0.07,0.41,0.11C121.282,152.861,121.012,154.38,120.302,155.651z"/>
<path fill="#FFFFFF" d="M523.322,151.241c0.14-8.47-5.69-12.58-12.21-12.41c-8.101,0.21-12,4.7-12.2,12.32
	c-0.19,6.95,4.49,11.939,11.88,12.22C517.972,163.641,523.722,158.111,523.322,151.241z M515.592,154.481
	c-0.7,2.31-2.71,3.38-5.25,3.08c-1.84-0.221-3.739-2.301-3.92-4.33c-0.06-0.7-0.01-1.41-0.01-2.11c-0.1-0.02-0.19-0.04-0.29-0.06
	c0.32-1.33,0.48-2.73,0.99-3.99c0.71-1.74,2.22-2.54,4.069-2.57c1.79-0.029,3.141,0.86,3.96,2.41
	C516.422,149.351,516.353,151.951,515.592,154.481z"/>
<path fill="#FFFFFF" d="M291.975,139.6c0,5.519-0.142,10.93,0.053,16.33c0.118,3.252,1.934,5.769,5.157,6.531
	c2.674,0.633,5.551,1.01,8.264,0.746c4.178-0.408,7.893-2.525,8.113-7.454c0.192-4.27,0.224-8.545,0.313-12.819
	c0.024-1.121,0.004-2.244,0.004-3.344c-2.57,0-4.851,0-7.302,0c0,2.002,0.041,3.908-0.009,5.812
	c-0.082,3.116-0.203,6.231-0.344,9.347c-0.089,1.938-1.592,3.106-3.875,2.859c-1.981-0.214-3.007-1.208-3.076-3.36
	c-0.066-2.047-0.054-4.097-0.06-6.146c-0.008-2.8-0.002-5.601-0.002-8.503C296.626,139.6,294.235,139.6,291.975,139.6z"/>
<path fill="#FFFFFF" d="M421.872,139.891c-1.33-0.32-2.75-0.37-4.14-0.381c-3.81-0.05-7.62-0.02-11.45-0.02v23.31h7.45v-7.17
	c2.18,0,4.03,0.03,5.89-0.01c4.21-0.07,7.48-2.86,7.98-6.89C428.052,145.111,426.192,140.941,421.872,139.891z M418.022,150.21
	c-1.31,0.17-2.65,0.04-4.13,0.04v-4.99c1.43,0,2.76-0.069,4.07,0.011c1.5,0.1,2.73,0.6,2.75,2.43
	C420.742,149.541,419.412,150.031,418.022,150.21z"/>
<path fill="#FFFFFF" d="M98.422,140.311c-1.98-0.521-4.08-0.721-6.14-0.79c-3.48-0.12-6.97-0.03-10.43-0.03v23.33h7.2v-7.19
	c1.8,0,3.34,0.101,4.86-0.029c1.55-0.141,3.14-0.33,4.61-0.801c2.71-0.869,4.76-3.96,4.65-7.199
	C103.062,144.5,101.502,141.13,98.422,140.311z M94.282,149.96c-1.63,0.19-3.27,0.271-5.13,0.42v-5.12c1.59,0,3.21-0.229,4.71,0.091
	c0.82,0.18,1.79,1.159,2.08,1.979C96.372,148.571,95.852,149.781,94.282,149.96z"/>
<path fill="#FFFFFF" d="M653.888,147.86c-0.606-1.643-0.984-3.175-1.707-4.522c-1.627-3.034-4.59-3.972-7.729-4.476
	c-3.714-0.599-9.366,1.116-11.618,4.557c-3.027,4.626-3.17,9.461-0.666,14.205c2.303,4.369,6.357,5.774,11.176,5.737
	c4.739-0.036,10.391-3.654,10.35-9.653c-1.782,0-3.571,0.047-5.354-0.016c-1.131-0.039-1.802,0.133-2.218,1.442
	c-0.563,1.771-1.938,2.664-3.984,2.494c-1.675-0.142-2.864-1.006-3.446-2.348c-1.082-2.496-1.227-5.134-0.254-7.759
	c0.684-1.847,1.969-2.934,3.939-3.021c2.32-0.102,3.563,1.285,4.167,3.359C648.912,147.86,651.2,147.86,653.888,147.86z"/>
<path fill="#FFFFFF" d="M362.432,139.491c-2.1,0-4.14-0.08-6.18,0.05c-0.55,0.04-1.34,0.62-1.55,1.141
	c-1.71,4.26-3.33,8.56-4.94,12.85c-1.15,3.08-2.26,6.17-3.4,9.32h7.29c0.39-1.141,0.74-2.21,1.11-3.28h7.79
	c0.39,1.16,0.74,2.229,1.1,3.3h7.54C368.252,155.021,365.352,147.291,362.432,139.491z M356.402,154.401
	c0.76-2.37,1.48-4.61,2.21-6.851c0.13,0,0.27,0.011,0.41,0.011c0.67,2.25,1.33,4.5,2.02,6.84H356.402z"/>
<path fill="#FFFFFF" d="M604.353,161.67c-2.15-5.71-4.29-11.42-6.48-17.12c-0.64-1.68-0.97-3.989-2.23-4.79
	c-1.329-0.85-3.6-0.159-5.439-0.3c-1.2-0.09-1.68,0.431-2.04,1.44c-0.99,2.72-2.05,5.42-3.07,8.12
	c-1.729,4.59-3.46,9.18-5.239,13.91c1.81,0,3.42-0.131,5,0.04c1.75,0.18,2.729-0.351,3.069-2.15c0.101-0.51,0.79-1.26,1.23-1.29
	c2.359-0.12,4.72-0.06,7.04-0.06c0.76,3.46,0.76,3.46,4,3.46h4.38C604.482,162.411,604.482,162.021,604.353,161.67z
	 M589.912,154.441c0.79-2.42,1.54-4.74,2.3-7.07c0.13,0.04,0.25,0.07,0.37,0.11c0.69,2.3,1.37,4.59,2.08,6.96H589.912z"/>
<path fill="#FFFFFF" d="M486.044,162.891c0-2.593,0.06-5.013-0.023-7.429c-0.045-1.329,0.386-1.823,1.751-1.778
	c2.667,0.086,5.337,0.025,8.062,0.025c0-1.896,0-3.578,0-5.431c-3.31,0-6.484,0-9.654,0c0-1.092,0-2.008,0-3.129
	c3.87,0,7.606,0,11.28,0c0-1.981,0-3.749,0-5.526c-6.279,0-12.445,0-18.563,0c0,7.837,0,15.538,0,23.268
	C481.284,162.891,483.517,162.891,486.044,162.891z"/>
<path fill="#FFFFFF" d="M0,145.319c2.333,0,4.532,0,6.921,0c0,5.984,0,11.762,0,17.513c2.479,0,4.756,0,7.23,0
	c0-5.874,0-11.654,0-17.635c2.393,0,4.591,0,6.739,0c0-2.022,0-3.833,0-5.697c-6.862,0-13.571-0.001-20.281,0.005
	c-0.177,0-0.353,0.085-0.61,0.15C0,141.444,0,143.208,0,145.319z"/>
<path fill="#FFFFFF" d="M701.562,14.371c0.38-0.13,0.79-0.23,1.159-0.42c1.46-0.76,2.051-2.08,1.881-3.62
	c-0.181-1.6-1.19-2.78-2.78-2.91c-2.4-0.18-4.82-0.05-7.34-0.05c-0.03,0.68-0.07,1.17-0.07,1.67c-0.01,3.57-0.03,7.15,0.04,10.72
	c0,0.35,0.55,0.7,0.99,1.23c0.229-0.58,0.319-0.7,0.319-0.82c0.021-1.08,0.03-2.17,0.04-3.25c0.011-2.37,0.301-2.67,2.65-2.37
	c0.51,0.07,1.13,0.35,1.439,0.74c1.101,1.37,2.04,2.87,3.16,4.23c0.5,0.6,1.271,0.97,1.92,1.45c0.181-0.19,0.36-0.38,0.54-0.57
	C704.212,18.421,702.922,16.451,701.562,14.371z M697.712,13.121c-0.57,0-1.13-0.05-1.82-0.08c-0.039-0.48-0.119-0.74-0.079-0.98
	c0.189-1.2,0.399-3.41,0.619-3.42c1.96,0,3.95,0.27,5.87,0.73c0.33,0.08,0.721,1.64,0.431,2.15c-0.4,0.71-1.341,1.3-2.17,1.54
	C699.682,13.321,698.662,13.131,697.712,13.121z"/>
<path fill="#FFFFFF" d="M699.682,0.171c-8.51,0.05-13.909,6.02-13.96,13.91c-0.06,8.32,6.41,14.12,13.931,13.89
	c8.21,0.24,14.189-6.18,14.09-13.94C713.642,6.131,708.062,0.121,699.682,0.171z M699.782,25.811c-6.03,0.57-11.75-5.48-11.71-11.62
	c0.03-6.48,5.28-11.85,11.58-11.91c6.1-0.07,11.89,5.28,11.71,12.16C711.212,20.131,706.152,26.221,699.782,25.811z"/>
<path fill="#FFFFFF" d="M228.739,162.843c0-7.861,0-15.556,0-23.191c-2.541,0-4.932,0-7.297,0c0,7.811,0,15.459,0,23.191
	C223.902,162.843,226.249,162.843,228.739,162.843z"/>
<path fill-rule="evenodd" clip-rule="evenodd" d="M235.021,86.528c-1.603,9.051-3.159,17.831-4.74,26.758c-0.831,0-1.587,0-2.345,0
	c-25.231,0-50.462,0.078-75.692-0.052c-6.646-0.032-12.57-2.469-17.654-6.885c-4.842-4.206-7.629-9.531-8.883-15.719
	c-0.832-4.104-0.328-8.208,0.377-12.271c1.085-6.263,2.266-12.51,3.397-18.765c1.278-7.059,2.557-14.117,3.817-21.18
	c1.051-5.889,1.602-11.915,3.215-17.645c3.009-10.687,10.209-17.446,21.123-19.894c2.754-0.617,5.659-0.776,8.496-0.782
	c27.217-0.056,54.433-0.033,81.649-0.033c0.7,0,1.399,0,2.39,0c-0.468,3.007-0.87,5.905-1.38,8.786
	c-0.966,5.454-2.101,10.883-2.935,16.356c-0.259,1.696-0.875,2.029-2.415,2.026c-22.35-0.04-44.7,0.021-67.048-0.075
	c-3.64-0.016-8.033,3.136-8.294,7.781c-0.151,2.673-0.896,5.313-1.407,8.156c25.358,0,50.633,0,75.983,0
	c-1.604,9.1-3.175,18.013-4.786,27.152c-0.72,0-1.47,0-2.22,0c-23.694,0-47.388,0.021-71.083-0.038
	c-1.908-0.006-3.159,0.21-3.237,2.467c-0.092,2.667-1.364,5.222-0.397,8.016c1.285,3.718,4.255,5.836,8.762,5.837
	c20.94,0.005,41.881,0.002,62.822,0.002C233.298,86.528,234.06,86.528,235.021,86.528z"/>
<path fill-rule="evenodd" clip-rule="evenodd" d="M553.418,0.061c-0.649,3.769-1.256,7.353-1.888,10.932
	c-0.833,4.715-1.792,9.409-2.474,14.146c-0.234,1.627-0.749,2.098-2.352,2.095c-22.289-0.044-44.577-0.031-66.866-0.029
	c-4.757,0-7.883,2.887-8.497,7.646c-0.344,2.677-0.923,5.322-1.431,8.183c25.311,0,50.572,0,75.965,0
	c-1.547,8.746-3.095,17.271-4.519,25.814c-0.207,1.239-0.728,1.414-1.752,1.409c-4.994-0.024-9.99-0.011-14.986-0.011
	c-19.151,0-38.3,0.011-57.451-0.021c-1.468-0.004-2.394,0.103-2.433,1.975c-0.053,2.473-0.87,4.98-0.626,7.399
	c0.499,4.947,4.113,6.896,8.686,6.907c20.495,0.053,40.991,0.023,61.486,0.023c1.272,0,2.544,0,3.92,0
	c-1.574,8.96-3.119,17.748-4.703,26.758c-0.733,0-1.484,0-2.236,0c-25.171,0-50.341,0.041-75.512-0.028
	c-6.397-0.017-12.197-2.157-17.154-6.195c-5.69-4.638-8.815-10.672-9.835-18.017c-0.623-4.48,0.286-8.706,0.949-12.989
	c0.969-6.279,2.239-12.514,3.368-18.769c1.407-7.806,2.8-15.615,4.2-23.422c0.778-4.339,1.197-8.779,2.408-12.994
	c3.088-10.765,10.238-17.538,21.213-20.004c2.571-0.577,5.276-0.768,7.92-0.773c27.412-0.054,54.826-0.033,82.237-0.033
	C551.749,0.061,552.442,0.061,553.418,0.061z"/>
<path fill-rule="evenodd" clip-rule="evenodd" d="M675.032,21.991c-3.46-13.54-13.15-21.9-27.46-21.92
	c-24.53-0.04-49.061-0.01-73.59-0.01c-0.511,0-1.11-0.16-1.511,0.04c-0.55,0.28-1.26,0.79-1.369,1.31
	c-0.521,2.46-0.801,4.97-1.25,7.45c-1.631,9.11-3.33,18.21-4.94,27.32c-1.47,8.31-2.83,16.65-4.28,24.96
	c-1.37,7.82-2.79,15.62-4.2,23.43c-1.38,7.68-2.79,15.35-4.159,23.03c-0.33,1.83-0.551,3.67-0.83,5.53
	c0.41,0.07,0.59,0.14,0.77,0.14c10.7,0.01,21.391,0,32.09,0.03c1.16,0.01,1.45-0.46,1.63-1.56c0.891-5.53,1.9-11.04,2.87-16.55
	c0.95-5.4,1.9-10.8,2.86-16.19c0.51-2.9,1.05-5.79,1.59-8.76c4.12,0,8.021,0.06,11.92-0.01c3.74-0.08,6.37,1.68,7.83,4.95
	c2.91,6.5,5.62,13.1,8.42,19.66c2.46,5.74,4.92,11.49,7.46,17.21c0.24,0.54,1.05,1.18,1.601,1.18
	c11.779,0.07,23.569,0.05,35.659,0.05c-6.71-15.65-13.35-31.13-20.069-46.8c5.53-0.09,10.24-1.78,14.71-4.29
	c5.149-2.9,9.17-6.93,11.2-12.5c1.34-3.69,2.1-7.62,2.93-11.48C676.082,32.831,676.412,27.391,675.032,21.991z M633.692,43.031
	c-11.57,0.2-23.15,0.06-34.73,0.06c-0.18,0-0.37-0.08-0.91-0.2c0.63-3.63,1.24-7.16,1.851-10.69c0.189-1.11,0.55-2.23,0.55-3.34
	c0.01-1.45,0.72-1.67,1.93-1.67c10.36,0.02,20.73-0.11,31.09,0.08c3.86,0.06,7.42,2.91,7.53,7.26
	C641.142,39.781,637.652,42.961,633.692,43.031z"/>
<path fill-rule="evenodd" clip-rule="evenodd" d="M300.705,113.286c0.735-4.438,1.396-8.608,2.125-12.765
	c0.719-4.094,1.659-8.154,2.196-12.271c0.221-1.693,0.974-1.738,2.238-1.735c13.769,0.021,27.538,0.013,41.307,0.013
	c7.621,0,15.242,0.013,22.863-0.005c4.372-0.01,7.58-2.479,8.619-6.576c1.159-4.563-2.792-9.69-7.512-9.697
	c-10.632-0.015-21.262-0.033-31.893,0.005c-7.123,0.024-13.372-2.356-18.962-6.652c-5.302-4.075-8.535-9.487-9.947-15.948
	c-0.849-3.88-0.552-7.795,0.252-11.698c1.002-4.869,1.535-9.851,2.782-14.65c2.669-10.275,11.294-18.932,22.414-20.815
	c1.931-0.327,3.92-0.409,5.883-0.412c26.962-0.025,53.924-0.017,80.886-0.017c0.761,0,1.522,0,2.31,0
	c-1.508,8.752-2.979,17.367-4.52,25.972c-0.08,0.442-0.691,0.914-1.167,1.125c-0.427,0.192-1.005,0.045-1.518,0.045
	c-21.519,0.001-43.037,0.064-64.554-0.059c-3.784-0.021-7.351,2.841-8.013,7.578c-0.418,2.983,2.571,7.215,5.726,8.136
	c0.653,0.19,1.369,0.234,2.056,0.235c10.631,0.013,21.263-0.051,31.893,0.035c5.106,0.042,10.067,1.071,14.609,3.495
	c7.623,4.069,12.635,10.232,14.422,18.784c0.936,4.483,0.377,8.972-0.392,13.42c-0.687,3.969-1.375,7.942-2.255,11.869
	c-2.435,10.849-10.91,20.761-23.101,22.201c-1.698,0.202-3.412,0.371-5.119,0.372c-27.088,0.023-54.179,0.016-81.268,0.016
	C302.37,113.286,301.675,113.286,300.705,113.286z"/>
<path fill-rule="evenodd" clip-rule="evenodd" d="M57.607,0.23c-2.493,14.155-4.968,28.206-7.442,42.257
	c0.134,0.08,0.268,0.16,0.403,0.241c2.231-2.471,4.479-4.928,6.692-7.413c3.347-3.758,6.673-7.533,10.001-11.308
	c5.473-6.209,10.939-12.424,16.409-18.637c1.053-1.196,2.152-2.354,3.144-3.598c1.03-1.289,2.229-1.764,3.931-1.755
	c13.513,0.077,27.026,0.043,40.54,0.043c0.622,0,1.245,0,2.248,0c-1.855,2.17-3.46,4.098-5.119,5.979
	c-6.785,7.687-13.576,15.369-20.386,23.035c-4.572,5.145-9.181,10.256-13.771,15.384c-1.062,1.186-2.167,2.339-3.153,3.585
	c-0.264,0.335-0.364,1.043-0.199,1.438c3.351,7.969,6.74,15.921,10.143,23.866c4.173,9.747,8.363,19.486,12.552,29.227
	c1.495,3.473,3.007,6.939,4.593,10.597c-0.638,0.042-1.172,0.109-1.706,0.111c-11.08,0.005-22.159-0.021-33.239,0.033
	c-1.33,0.008-1.961-0.377-2.495-1.638c-5.011-11.857-10.118-23.673-15.172-35.512c-1.627-3.812-4.611-6.192-8.977-5.963
	c-3.698,0.196-7.414,0.041-11.333,0.041c-2.531,14.315-5.047,28.555-7.585,42.919c-11.335,0-22.704,0-34.251,0
	c0.568-3.264,1.125-6.461,1.683-9.657c0.977-5.582,1.951-11.163,2.936-16.744c1.071-6.081,2.153-12.161,3.232-18.241
	c0.969-5.458,1.943-10.914,2.909-16.373c0.967-5.456,1.928-10.913,2.888-16.37c0.962-5.458,1.922-10.916,2.879-16.375
	c0.946-5.397,1.888-10.795,2.83-16.191c0.087-0.496,0.207-0.99,0.241-1.488c0.076-1.104,0.459-1.69,1.745-1.687
	c10.631,0.046,21.262,0.029,31.894,0.036C56.855,0.073,57.04,0.132,57.607,0.23z"/>
<path fill-rule="evenodd" clip-rule="evenodd" d="M248.174,113.135c0.448-2.713,0.867-5.366,1.329-8.011
	c1.105-6.32,2.215-12.641,3.354-18.955c1.105-6.128,2.279-12.242,3.368-18.373c1.211-6.823,2.338-13.659,3.541-20.485
	c1.377-7.811,2.816-15.61,4.189-23.423c1.32-7.505,2.568-15.022,3.931-22.519c0.092-0.503,0.898-1.25,1.376-1.253
	c10.818-0.062,21.638-0.037,32.457-0.023c0.119,0,0.239,0.073,0.564,0.181c-0.44,2.539-0.88,5.109-1.333,7.677
	c-0.962,5.456-1.93,10.91-2.897,16.365c-0.967,5.455-1.942,10.91-2.903,16.367c-0.962,5.459-1.908,10.921-2.862,16.381
	c-0.943,5.396-1.888,10.791-2.833,16.187c-0.978,5.58-1.948,11.161-2.936,16.739c-0.944,5.329-1.911,10.655-2.858,15.982
	c-0.341,1.922-0.687,3.846-0.972,5.775c-0.15,1.013-0.483,1.563-1.671,1.561c-10.627-0.041-21.255-0.025-31.882-0.033
	C248.89,113.275,248.644,113.206,248.174,113.135z"/>
<path fill-rule="evenodd" clip-rule="evenodd" d="M323.835,147.842c0,5.274,0,10.064,0,14.971c-2.297,0-4.494,0-6.788,0
	c0-7.725,0-15.382,0-23.182c3.479,0,6.964,0,10.565,0c1.1,4.359,2.213,8.772,3.326,13.187c0.109,0.016,0.217,0.033,0.327,0.049
	c0.607-2.34,1.231-4.674,1.817-7.019c0.429-1.71,0.732-3.457,1.257-5.135c0.156-0.497,0.86-1.152,1.332-1.168
	c3.126-0.104,6.257-0.054,9.521-0.054c0,7.83,0,15.531,0,23.337c-2.285,0-4.503,0-6.97,0c0-4.716,0-9.452,0-14.188
	c-0.14-0.016-0.278-0.031-0.418-0.045c-1.022,3.654-2.027,7.314-3.08,10.963c-0.324,1.12-0.501,2.843-1.235,3.162
	c-1.244,0.539-2.885,0.271-4.341,0.141c-0.387-0.034-0.883-0.764-1.027-1.261c-1.224-4.228-2.376-8.479-3.565-12.719
	C324.495,148.662,324.287,148.483,323.835,147.842z"/>
<path fill-rule="evenodd" clip-rule="evenodd" d="M571.756,162.781c0-4.892,0-9.675,0-14.46c-0.091-0.016-0.181-0.033-0.271-0.049
	c-1.367,4.862-2.732,9.724-4.104,14.608c-1.816,0-3.537,0-5.379,0c-1.367-4.856-2.735-9.712-4.104-14.569
	c-0.119,0.016-0.236,0.03-0.354,0.044c0,4.793,0,9.584,0,14.474c-2.339,0-4.492,0-6.793,0c0-7.681,0-15.387,0-23.216
	c3.406,0,6.832,0,10.415,0c1.088,4.311,2.193,8.682,3.298,13.051c0.128,0.02,0.255,0.04,0.383,0.059
	c0.632-2.422,1.271-4.843,1.891-7.27c0.405-1.585,0.715-3.197,1.202-4.757c0.149-0.474,0.737-1.138,1.141-1.149
	c3.121-0.097,6.245-0.053,9.473-0.053c0,7.817,0,15.476,0,23.287C576.396,162.781,574.196,162.781,571.756,162.781z"/>
<path fill-rule="evenodd" clip-rule="evenodd" d="M129.322,139.569c2.549,0,4.835,0,7.188,0c0.942,4.656,1.871,9.249,2.8,13.844
	c0.134,0,0.268,0,0.401,0.001c0.945-4.602,1.89-9.204,2.859-13.922c1.859,0,3.648-0.07,5.424,0.047
	c0.461,0.031,1.188,0.584,1.275,1.004c0.906,4.379,1.706,8.777,2.833,13.264c0.376-1.612,0.789-3.217,1.12-4.837
	c0.554-2.711,1.046-5.435,1.583-8.149c0.175-0.886,0.575-1.415,1.658-1.357c1.847,0.1,3.702,0.028,5.815,0.028
	c-0.873,3.142-1.677,6.142-2.542,9.126c-1.241,4.281-2.565,8.541-3.767,12.835c-0.306,1.091-0.735,1.572-1.93,1.507
	c-1.839-0.104-3.688-0.028-5.6-0.028c-0.861-4.714-1.696-9.282-2.529-13.848c-0.126-0.015-0.252-0.028-0.378-0.042
	c-0.832,4.561-1.663,9.122-2.532,13.887c-2.063,0-4.163,0.064-6.251-0.052c-0.419-0.023-1.029-0.664-1.164-1.132
	C133.481,154.438,131.441,147.115,129.322,139.569z"/>
<path fill-rule="evenodd" clip-rule="evenodd" d="M620.97,151.5c0-3.94,0-7.879,0-11.914c2.295,0,4.446,0,6.74,0
	c0,7.697,0,15.398,0,23.341c-2.135,0-4.289,0.066-6.434-0.054c-0.455-0.025-0.999-0.648-1.285-1.127
	c-2.144-3.572-4.232-7.177-6.346-10.767c-0.115-0.198-0.295-0.361-0.685-0.825c0,4.383,0,8.43,0,12.625c-2.359,0-4.557,0-6.887,0
	c0-7.664,0-15.365,0-23.282c2.304,0,4.588-0.062,6.865,0.054c0.448,0.024,0.989,0.667,1.271,1.152
	c2.114,3.637,4.176,7.306,6.252,10.965C620.631,151.611,620.802,151.556,620.97,151.5z"/>
<path fill-rule="evenodd" clip-rule="evenodd" d="M246.975,151.863c0-4.278,0-8.202,0-12.247c2.355,0,4.552,0,6.852,0
	c0,7.699,0,15.355,0,23.303c-2.167,0-4.381,0.084-6.579-0.066c-0.474-0.034-0.986-0.854-1.317-1.408
	c-1.939-3.255-3.829-6.54-5.74-9.812c-0.251-0.429-0.533-0.838-1.131-1.775c0,4.652,0,8.736,0,12.946c-2.428,0-4.625,0-6.929,0
	c0-7.688,0-15.343,0-23.293c2.344,0,4.751-0.096,7.137,0.075c0.522,0.039,1.084,0.973,1.442,1.598
	c1.882,3.287,3.703,6.61,5.556,9.914C246.371,151.287,246.566,151.428,246.975,151.863z"/>
<path fill-rule="evenodd" clip-rule="evenodd" d="M372.431,139.491c2.238,0,4.356-0.138,6.441,0.075
	c0.734,0.073,1.618,0.859,2.034,1.559c2.055,3.451,3.977,6.983,6.264,10.409c0-3.91,0-7.821,0-11.889c2.363,0,4.561,0,6.894,0
	c0,7.654,0,15.354,0,23.284c-2.097,0-4.196,0.114-6.269-0.074c-0.59-0.051-1.242-0.894-1.623-1.521
	c-1.969-3.238-3.853-6.525-5.776-9.79c-0.241-0.408-0.532-0.786-1.154-1.093c0,4.1,0,8.2,0,12.388c-2.37,0-4.522,0-6.812,0
	C372.431,155.132,372.431,147.431,372.431,139.491z"/>
<path fill-rule="evenodd" clip-rule="evenodd" d="M205.602,151.84c2.65-1.489,3.55-3.909,3.21-6.729c-0.39-3.29-2.74-5.021-5.7-5.51
	c-2.5-0.41-5.11-0.11-7.67-0.11h-8.6v23.33h7.44v-8.34c1.46,0,2.61-0.05,3.75,0.01c2.2,0.11,3.44,1.37,3.63,3.57
	c0.11,1.199,0.13,2.43,0.45,3.58c0.14,0.52,0.9,1.189,1.42,1.229c1.97,0.15,3.96,0.061,5.95,0.061
	C208.162,152.041,207.542,153.861,205.602,151.84z M201.632,147.411c-0.18,1.271-1,2.03-2.32,2.08c-1.58,0.04-3.16,0.01-4.88,0.01
	v-4.74c1.91,0.131,3.68,0.141,5.41,0.4C200.982,145.331,201.812,146.121,201.632,147.411z"/>
<path fill-rule="evenodd" clip-rule="evenodd" d="M471.082,152.071c0.44-0.48,0.7-0.85,1.04-1.14c2.08-1.79,2.41-4.2,1.87-6.601
	c-0.56-2.43-2.18-4.34-4.83-4.42c-5.57-0.17-11.16-0.06-16.83-0.06V162.8h7.29v-8.319c1.3,0,2.39-0.021,3.47,0
	c2.48,0.029,3.32,0.779,3.75,3.3c0.29,1.71,0.57,3.42,0.84,5.06h7.15C473.942,159.01,475.082,154.601,471.082,152.071z
	 M466.832,147.481c-0.17,1.35-0.96,2-2.28,2.02c-1.58,0.03-3.16,0.01-4.95,0.01v-4.689c1.81,0.09,3.62,0.09,5.41,0.29
	C466.322,145.25,467.012,146.061,466.832,147.481z"/>
<path fill-rule="evenodd" clip-rule="evenodd" d="M544.732,152.021c0.449-0.41,0.77-0.721,1.1-1.021
	c2.23-2.029,2.57-4.529,1.71-7.27c-0.9-2.891-3.25-4.07-5.93-4.181c-5.11-0.199-10.23-0.06-15.46-0.06v23.34h7.189v-8.21
	c0.391-0.07,0.57-0.13,0.75-0.13c0.96-0.01,1.92-0.03,2.88-0.01c2.341,0.04,3.261,0.85,3.65,3.2c0.29,1.729,0.54,3.449,0.81,5.119
	h7.181C547.742,158.96,548.832,154.59,544.732,152.021z M540.622,147.541c-0.1,1.2-0.75,1.88-1.91,1.92
	c-1.71,0.07-3.42,0.021-5.399,0.021v-4.74c2.05,0.17,3.979,0.26,5.89,0.51C540.492,145.42,540.702,146.42,540.622,147.541z"/>
<path fill-rule="evenodd" clip-rule="evenodd" d="M30.626,153.778c0,3.089,0,6.013,0,9.045c-2.407,0-4.687,0-7.122,0
	c0-7.657,0-15.36,0-23.198c2.272,0,4.597,0,7.066,0c0,2.549,0,5.086,0,7.778c2.335,0,4.537,0,6.979,0c0-2.496,0-5.076,0-7.781
	c2.625,0,5.016,0,7.525,0c0,7.689,0,15.34,0,23.152c-2.375,0-4.766,0-7.376,0c0-2.923,0-5.896,0-8.996
	C35.285,153.778,33.085,153.778,30.626,153.778z"/>
<path fill-rule="evenodd" clip-rule="evenodd" d="M281.196,147.42c0-2.631,0-5.121,0-7.772c2.396,0,4.722,0,7.185,0
	c0,7.653,0,15.359,0,23.175c-2.301,0-4.582,0-7.066,0c0-2.924,0-5.898,0-9.022c-2.521,0-4.843,0-7.369,0c0,2.981,0,5.956,0,9.027
	c-2.479,0-4.76,0-7.189,0c0-7.682,0-15.388,0-23.215c2.309,0,4.635,0,7.105,0c0,2.591,0,5.13,0,7.808
	C276.328,147.42,278.654,147.42,281.196,147.42z"/>
<path fill-rule="evenodd" clip-rule="evenodd" d="M68.172,145.298c-4.213,0-8.289,0-12.451,0c0,1.013,0,1.886,0,2.965
	c3.724,0,7.465,0,11.32,0c0,1.887,0,3.571,0,5.444c-2.929,0-5.792,0-8.655,0c-2.845,0.002-2.845,0.002-2.676,3.062
	c4.229,0,8.48,0,12.857,0c0,2.118,0,4.004,0,6.027c-6.65,0-13.33,0-20.124,0c0-7.714,0-15.417,0-23.214c6.578,0,13.084,0,19.729,0
	C68.172,141.395,68.172,143.208,68.172,145.298z"/>
<path fill-rule="evenodd" clip-rule="evenodd" d="M656.434,139.575c6.626,0,13.131,0,19.735,0c0,1.849,0,3.618,0,5.599
	c-4.092,0-8.214,0-12.456,0c0,1.121,0,2.035,0,3.096c3.728,0,7.42,0,11.259,0c0,1.82,0,3.504,0,5.438c-2.893,0-5.812,0-8.732,0
	c-2.838,0.002-2.838,0.002-2.479,3.069c4.175,0,8.375,0,12.735,0c0,2.096,0,4.025,0,6.057c-6.649,0-13.283,0-20.062,0
	C656.434,155.143,656.434,147.44,656.434,139.575z"/>
<path fill-rule="evenodd" clip-rule="evenodd" d="M163.706,162.794c0-7.794,0-15.449,0-23.204c6.59,0,13.094,0,19.747,0
	c0,1.783,0,3.597,0,5.62c-4.089,0-8.21,0-12.431,0c0,1.076,0,1.948,0,3.027c3.691,0,7.43,0,11.295,0c0,1.886,0,3.568,0,5.462
	c-3.761,0-7.498,0-11.315,0c0,1.082,0,1.958,0,3.068c4.233,0,8.48,0,12.853,0c0,2.114,0,4,0,6.026
	C177.212,162.794,170.534,162.794,163.706,162.794z"/>
<path fill-rule="evenodd" clip-rule="evenodd" d="M429.689,139.578c6.643,0,13.146,0,19.748,0c0,1.854,0,3.62,0,5.599
	c-4.1,0-8.222,0-12.461,0c0,1.119,0,2.034,0,3.091c3.729,0,7.42,0,11.259,0c0,1.819,0,3.503,0,5.398c-3.705,0-7.442,0-11.277,0
	c0,1.126,0,2.045,0,3.135c4.271,0,8.469,0,12.813,0c0,2.049,0,3.934,0,5.977c-6.588,0-13.267,0-20.081,0
	C429.689,155.129,429.689,147.428,429.689,139.578z"/>
<path fill-rule="evenodd" clip-rule="evenodd" d="M116.572,138.821c-6.55-0.13-12.24,4.16-12.13,12.11
	c-0.49,7.3,5.37,12.319,11.62,12.449c7.55,0.16,12.86-4.79,12.8-12.1C128.802,144.031,124.992,139,116.572,138.821z
	 M120.302,155.651c-1.08,1.899-3.03,2.32-5.01,1.85c-2.05-0.49-3.2-2.17-3.44-4.109c-0.22-1.78-0.09-3.71,0.35-5.45
	c0.6-2.42,2.78-3.72,4.98-3.45c2.11,0.25,3.88,2.17,4.15,4.55c0.08,0.75,0.01,1.53,0.01,2.3c0.13,0.04,0.27,0.07,0.41,0.11
	C121.282,152.861,121.012,154.38,120.302,155.651z"/>
<path fill-rule="evenodd" clip-rule="evenodd" d="M523.322,151.241c0.14-8.47-5.69-12.58-12.21-12.41c-8.101,0.21-12,4.7-12.2,12.32
	c-0.19,6.95,4.49,11.939,11.88,12.22C517.972,163.641,523.722,158.111,523.322,151.241z M515.592,154.481
	c-0.7,2.31-2.71,3.38-5.25,3.08c-1.84-0.221-3.739-2.301-3.92-4.33c-0.06-0.7-0.01-1.41-0.01-2.11c-0.1-0.02-0.19-0.04-0.29-0.06
	c0.32-1.33,0.48-2.73,0.99-3.99c0.71-1.74,2.22-2.54,4.069-2.57c1.79-0.029,3.141,0.86,3.96,2.41
	C516.422,149.351,516.353,151.951,515.592,154.481z"/>
<path fill-rule="evenodd" clip-rule="evenodd" d="M291.975,139.6c2.261,0,4.651,0,7.238,0c0,2.902-0.005,5.703,0.002,8.503
	c0.006,2.049-0.007,4.099,0.06,6.146c0.068,2.152,1.094,3.146,3.076,3.36c2.283,0.247,3.786-0.922,3.875-2.859
	c0.141-3.115,0.262-6.23,0.344-9.347c0.05-1.904,0.009-3.811,0.009-5.812c2.451,0,4.731,0,7.302,0c0,1.1,0.021,2.223-0.004,3.344
	c-0.09,4.274-0.122,8.55-0.313,12.819c-0.22,4.929-3.936,7.046-8.113,7.454c-2.713,0.264-5.589-0.113-8.264-0.746
	c-3.223-0.763-5.039-3.279-5.157-6.531C291.833,150.53,291.975,145.119,291.975,139.6z"/>
<path fill-rule="evenodd" clip-rule="evenodd" d="M421.872,139.891c-1.33-0.32-2.75-0.37-4.14-0.381
	c-3.81-0.05-7.62-0.02-11.45-0.02v23.31h7.45v-7.17c2.18,0,4.03,0.03,5.89-0.01c4.21-0.07,7.48-2.86,7.98-6.89
	C428.052,145.111,426.192,140.941,421.872,139.891z M418.022,150.21c-1.31,0.17-2.65,0.04-4.13,0.04v-4.99
	c1.43,0,2.76-0.069,4.07,0.011c1.5,0.1,2.73,0.6,2.75,2.43C420.742,149.541,419.412,150.031,418.022,150.21z"/>
<path fill-rule="evenodd" clip-rule="evenodd" d="M98.422,140.311c-1.98-0.521-4.08-0.721-6.14-0.79
	c-3.48-0.12-6.97-0.03-10.43-0.03v23.33h7.2v-7.19c1.8,0,3.34,0.101,4.86-0.029c1.55-0.141,3.14-0.33,4.61-0.801
	c2.71-0.869,4.76-3.96,4.65-7.199C103.062,144.5,101.502,141.13,98.422,140.311z M94.282,149.96c-1.63,0.19-3.27,0.271-5.13,0.42
	v-5.12c1.59,0,3.21-0.229,4.71,0.091c0.82,0.18,1.79,1.159,2.08,1.979C96.372,148.571,95.852,149.781,94.282,149.96z"/>
<path fill-rule="evenodd" clip-rule="evenodd" d="M653.888,147.86c-2.688,0-4.976,0-7.345,0c-0.604-2.074-1.847-3.461-4.167-3.359
	c-1.971,0.088-3.256,1.175-3.939,3.021c-0.973,2.625-0.828,5.263,0.254,7.759c0.582,1.342,1.771,2.206,3.446,2.348
	c2.046,0.17,3.421-0.723,3.984-2.494c0.416-1.31,1.087-1.481,2.218-1.442c1.782,0.062,3.571,0.016,5.354,0.016
	c0.041,5.999-5.61,9.617-10.35,9.653c-4.818,0.037-8.873-1.368-11.176-5.737c-2.504-4.744-2.361-9.579,0.666-14.205
	c2.252-3.44,7.904-5.155,11.618-4.557c3.14,0.504,6.103,1.441,7.729,4.476C652.903,144.685,653.281,146.217,653.888,147.86z"/>
<path fill-rule="evenodd" clip-rule="evenodd" d="M362.432,139.491c-2.1,0-4.14-0.08-6.18,0.05c-0.55,0.04-1.34,0.62-1.55,1.141
	c-1.71,4.26-3.33,8.56-4.94,12.85c-1.15,3.08-2.26,6.17-3.4,9.32h7.29c0.39-1.141,0.74-2.21,1.11-3.28h7.79
	c0.39,1.16,0.74,2.229,1.1,3.3h7.54C368.252,155.021,365.352,147.291,362.432,139.491z M356.402,154.401
	c0.76-2.37,1.48-4.61,2.21-6.851c0.13,0,0.27,0.011,0.41,0.011c0.67,2.25,1.33,4.5,2.02,6.84H356.402z"/>
<path fill-rule="evenodd" clip-rule="evenodd" d="M604.353,161.67c-2.15-5.71-4.29-11.42-6.48-17.12
	c-0.64-1.68-0.97-3.989-2.23-4.79c-1.329-0.85-3.6-0.159-5.439-0.3c-1.2-0.09-1.68,0.431-2.04,1.44c-0.99,2.72-2.05,5.42-3.07,8.12
	c-1.729,4.59-3.46,9.18-5.239,13.91c1.81,0,3.42-0.131,5,0.04c1.75,0.18,2.729-0.351,3.069-2.15c0.101-0.51,0.79-1.26,1.23-1.29
	c2.359-0.12,4.72-0.06,7.04-0.06c0.76,3.46,0.76,3.46,4,3.46h4.38C604.482,162.411,604.482,162.021,604.353,161.67z
	 M589.912,154.441c0.79-2.42,1.54-4.74,2.3-7.07c0.13,0.04,0.25,0.07,0.37,0.11c0.69,2.3,1.37,4.59,2.08,6.96H589.912z"/>
<path fill-rule="evenodd" clip-rule="evenodd" d="M486.044,162.891c-2.527,0-4.76,0-7.147,0c0-7.729,0-15.431,0-23.268
	c6.118,0,12.284,0,18.563,0c0,1.777,0,3.545,0,5.526c-3.674,0-7.41,0-11.28,0c0,1.121,0,2.037,0,3.129c3.17,0,6.345,0,9.654,0
	c0,1.853,0,3.534,0,5.431c-2.726,0-5.396,0.061-8.062-0.025c-1.365-0.045-1.796,0.449-1.751,1.778
	C486.104,157.878,486.044,160.298,486.044,162.891z"/>
<path fill-rule="evenodd" clip-rule="evenodd" d="M0,145.319c0-2.11,0-3.875,0-5.664c0.257-0.065,0.433-0.15,0.61-0.15
	c6.709-0.006,13.418-0.005,20.281-0.005c0,1.864,0,3.675,0,5.697c-2.148,0-4.347,0-6.739,0c0,5.98,0,11.761,0,17.635
	c-2.475,0-4.752,0-7.23,0c0-5.751,0-11.528,0-17.513C4.532,145.319,2.333,145.319,0,145.319z"/>
<path fill-rule="evenodd" clip-rule="evenodd" d="M699.682,0.171c-8.51,0.05-13.909,6.02-13.96,13.91
	c-0.06,8.32,6.41,14.12,13.931,13.89c8.21,0.24,14.189-6.18,14.09-13.94C713.642,6.131,708.062,0.121,699.682,0.171z
	 M699.782,25.811c-6.03,0.57-11.75-5.48-11.71-11.62c0.03-6.48,5.28-11.85,11.58-11.91c6.1-0.07,11.89,5.28,11.71,12.16
	C711.212,20.131,706.152,26.221,699.782,25.811z"/>
<path fill-rule="evenodd" clip-rule="evenodd" d="M228.739,162.843c-2.49,0-4.837,0-7.297,0c0-7.732,0-15.381,0-23.191
	c2.366,0,4.756,0,7.297,0C228.739,147.288,228.739,154.982,228.739,162.843z"/>
<path fill-rule="evenodd" clip-rule="evenodd" d="M701.562,14.371c0.38-0.13,0.79-0.23,1.159-0.42c1.46-0.76,2.051-2.08,1.881-3.62
	c-0.181-1.6-1.19-2.78-2.78-2.91c-2.4-0.18-4.82-0.05-7.34-0.05c-0.03,0.68-0.07,1.17-0.07,1.67c-0.01,3.57-0.03,7.15,0.04,10.72
	c0,0.35,0.55,0.7,0.99,1.23c0.229-0.58,0.319-0.7,0.319-0.82c0.021-1.08,0.03-2.17,0.04-3.25c0.011-2.37,0.301-2.67,2.65-2.37
	c0.51,0.07,1.13,0.35,1.439,0.74c1.101,1.37,2.04,2.87,3.16,4.23c0.5,0.6,1.271,0.97,1.92,1.45c0.181-0.19,0.36-0.38,0.54-0.57
	C704.212,18.421,702.922,16.451,701.562,14.371z M697.712,13.121c-0.57,0-1.13-0.05-1.82-0.08c-0.039-0.48-0.119-0.74-0.079-0.98
	c0.189-1.2,0.399-3.41,0.619-3.42c1.96,0,3.95,0.27,5.87,0.73c0.33,0.08,0.721,1.64,0.431,2.15c-0.4,0.71-1.341,1.3-2.17,1.54
	C699.682,13.321,698.662,13.131,697.712,13.121z"/>
</svg>
