<?xml version="1.0" encoding="utf-8"?>
<!-- Generator: Adobe Illustrator 16.0.3, SVG Export Plug-In . SVG Version: 6.00 Build 0)  -->
<!DOCTYPE svg PUBLIC "-//W3C//DTD SVG 1.1//EN" "http://www.w3.org/Graphics/SVG/1.1/DTD/svg11.dtd">
<svg version="1.1" id="svg2997" xmlns:svg="http://www.w3.org/2000/svg"
	 xmlns="http://www.w3.org/2000/svg" xmlns:xlink="http://www.w3.org/1999/xlink" x="0px" y="0px" width="180.992px"
	 height="67.743px" viewBox="9.004 116.562 180.992 67.743" enable-background="new 9.004 116.562 180.992 67.743"
	 xml:space="preserve">
<path id="path2343" d="M10.063,170.061c2.903,0.027,5.809-0.039,8.712,0.016l-0.375,2.293l-5.096,0.02l-0.021,3.24h4.088v2.342
	h-4.088v6.334h-3.22V170.061z"/>
<path id="path3315" d="M30.648,184.227c-2.242-0.338-3.854-1.586-4.75-3.68c-0.511-1.191-0.656-2.105-0.596-3.748
	c0.062-1.664,0.254-2.451,0.886-3.604c0.814-1.488,1.881-2.346,3.555-2.848c0.877-0.266,1.065-0.291,2.274-0.293
	c1.095-0.004,1.446,0.029,2.078,0.201c2.303,0.627,3.802,2.172,4.426,4.559c0.288,1.105,0.265,3.766-0.042,4.848
	c-0.697,2.463-2.385,4.098-4.674,4.525C33.093,184.322,31.412,184.342,30.648,184.227z M32.991,181.963
	c0.926-0.281,1.579-1.137,1.876-2.463c0.205-0.91,0.238-3.596,0.058-4.547c-0.335-1.762-1.328-2.654-2.957-2.656
	c-1.589-0.002-2.456,0.793-2.912,2.67c-0.214,0.883-0.238,3.438-0.041,4.396c0.279,1.355,0.877,2.211,1.761,2.512
	C31.381,182.082,32.455,182.123,32.991,181.963z"/>
<path id="flowRoot5258" d="M47.563,170.053h3.446v8.381c0,1.154,0.179,1.98,0.537,2.48c0.364,0.492,0.955,0.883,1.772,0.883
	c0.823,0,1.414-0.391,1.772-0.883c0.364-0.5,0.546-1.326,0.546-2.48v-8.381h3.445v8.381c0,1.979-0.474,3.451-1.423,4.418
	c-0.948,0.969-2.396,1.451-4.34,1.451c-1.939,0-3.383-0.482-4.331-1.451c-0.949-0.967-1.423-2.438-1.423-4.418L47.563,170.053"/>
<path id="path6262" d="M68.606,170.053l3.509,0.051c1.381,2.793,2.899,5.531,4.078,8.41l0.197,0.504l-0.049-1.01l-0.18-7.951h2.948
	v14.246h-3.182l-0.363-0.758c-1.15-2.398-3.13-6.629-3.602-7.697c-0.302-0.684-0.524-1.137-0.495-1.012
	c0.029,0.127,0.083,2.309,0.119,4.848l0.065,4.619h-3.047v-14.25H68.606z"/>
<path id="text8203" d="M92.398,182.191l0.931,0.002c0.986,0,1.844-1.076,2.366-1.844s0.978-1.873,0.978-3.322
	c0-1.424-0.432-2.496-0.905-3.213c-0.47-0.727-1.17-1.426-2.104-1.426l-1.265-0.002v9.807 M88.878,184.303v-14.25h4.208
	c1.174,0,2.121,0.104,2.84,0.312c0.721,0.199,1.357,0.527,1.912,0.984c0.801,0.65,1.394,1.455,1.777,2.41
	c0.389,0.949,0.584,2.084,0.584,3.404c0,1.223-0.201,2.328-0.601,3.314c-0.399,0.984-0.981,1.812-1.744,2.48
	c-0.544,0.477-1.155,0.818-1.832,1.031c-0.679,0.207-1.558,0.311-2.642,0.311L88.878,184.303"/>
<path id="path9182" d="M106.307,184.277l5.092-14.227h3.457c1.617,4.746,3.281,9.479,4.887,14.227l-3.457,0.021l-1.084-3.391
	l-4.434,0.002l-1.084,3.389C108.559,184.289,107.432,184.324,106.307,184.277z M113.051,173.643l-1.51,4.889h2.873
	C113.82,176.934,113.57,175.254,113.051,173.643z"/>
<path id="path10154" d="M127.924,172.535h-3.867v-2.48c3.799,0,7.602-0.004,11.4,0c-0.002,0-0.529,2.479-0.529,2.479l-3.748,0.002
	v11.768h-3.256V172.535z"/>
<path id="path11126" d="M142.327,170.053h3.471v14.242h-3.471V170.053z"/>
<path id="path14040" d="M159.95,184.227c-2.24-0.338-3.855-1.586-4.748-3.68c-0.513-1.191-0.656-2.105-0.599-3.748
	c0.062-1.664,0.254-2.451,0.886-3.604c0.814-1.488,1.883-2.346,3.557-2.848c0.877-0.266,1.063-0.291,2.274-0.293
	c1.095-0.004,1.445,0.029,2.076,0.201c2.306,0.627,3.804,2.172,4.427,4.559c0.288,1.105,0.266,3.766-0.041,4.848
	c-0.697,2.463-2.388,4.098-4.677,4.525C162.395,184.322,160.713,184.342,159.95,184.227z M162.293,181.963
	c0.926-0.281,1.578-1.137,1.875-2.463c0.205-0.91,0.24-3.596,0.059-4.547c-0.336-1.762-1.328-2.654-2.957-2.656
	c-1.59-0.002-2.457,0.793-2.912,2.67c-0.215,0.883-0.236,3.438-0.041,4.396c0.279,1.355,0.877,2.211,1.764,2.512
	C160.682,182.082,161.756,182.123,162.293,181.963z"/>
<path id="path2224" d="M176.657,170.053l3.561,0.051c1.402,2.793,2.945,5.531,4.145,8.41l0.198,0.504l-0.05-1.01l-0.182-7.951h2.992
	v14.246h-3.23l-0.368-0.758c-1.169-2.398-3.179-6.629-3.658-7.697c-0.306-0.684-0.53-1.137-0.502-1.012
	c0.03,0.127,0.086,2.309,0.121,4.848l0.065,4.619h-3.094v-14.25H176.657z"/>
<g id="g3173" transform="translate(-0.4495808,1251.722)">
	<path id="path2320" d="M185.373-1089.164c-1.526-0.851-2.496-1.666-3.188-2.688l-0.402-0.596l-0.586,0.516
		c-0.814,0.726-1.141,0.966-1.887,1.406c-1.728,1.021-4.043,1.438-6.92,1.252c-5.955-0.385-9.082-3.238-9.49-8.66
		c-0.182-2.412,0.223-4.606,1.158-6.289c1.281-2.305,3.789-3.913,7.312-4.694c1.804-0.397,3.267-0.545,5.978-0.594l2.518-0.05
		l-0.051-1.312c-0.025-0.724-0.09-1.543-0.137-1.823c-0.25-1.478-0.871-2.224-2.035-2.444c-0.9-0.171-1.318-0.181-2.355-0.054
		c-2.006,0.246-4.1,1.065-6.68,2.623c-0.689,0.416-1.297,0.744-1.346,0.726c-0.097-0.037-3.463-5.683-3.461-5.799
		c0.008-0.166,2.094-1.316,3.582-1.974c4.022-1.774,6.543-2.377,9.953-2.377c3.17,0,5.357,0.532,7.127,1.735
		c0.692,0.474,1.735,1.552,2.114,2.187c0.351,0.586,0.776,1.646,1.013,2.511l0.188,0.69l-0.041,4.767
		c-0.02,2.618-0.04,6.43-0.04,8.467c0,4.178,0,4.181,0.633,5.414c0.272,0.537,0.498,0.813,1.267,1.569
		c0.854,0.843,0.922,0.931,0.811,1.06c-0.068,0.076-1.029,1.185-2.139,2.461c-1.107,1.274-2.057,2.328-2.105,2.338
		C186.108-1088.787,185.757-1088.953,185.373-1089.164z M175.903-1095.453c1.229-0.154,2.246-0.643,3.182-1.52l0.51-0.477
		l0.055-3.168l0.054-3.168l-1.315,0.057c-4.154,0.179-5.707,0.843-6.377,2.729c-0.213,0.597-0.295,2.16-0.146,2.787
		c0.334,1.418,1.457,2.532,2.77,2.748c0.244,0.039,0.484,0.078,0.529,0.082C175.203-1095.375,175.539-1095.408,175.903-1095.453z
		 M137.623-1089.718c-1.317-0.205-2.459-0.68-3.502-1.459c-1.108-0.826-1.763-1.803-2.237-3.348
		c-0.445-1.441-0.437-1.025-0.49-18.475c-0.051-15.838-0.058-16.158-0.236-18.188c-0.102-1.135-0.162-2.086-0.137-2.109
		c0.074-0.074,8.055-1.893,8.154-1.857c0.098,0.037,0.248,1.135,0.36,2.654c0.162,10.801,0.013,21.604,0.155,32.404
		c0.062,2.619,0.086,2.938,0.24,3.373c0.379,1.078,0.9,1.471,1.963,1.467c0.336,0,0.662-0.02,0.728-0.039
		c0.104-0.033,0.479,1.133,1.371,4.289l0.162,0.576l-1.271,0.334C141.034-1089.607,139.186-1089.476,137.623-1089.718z
		 M154.556-1089.644c-1.066-0.125-1.982-0.391-2.851-0.822c-2.164-1.08-3.22-2.633-3.713-5.475
		c-0.065-0.375-0.108-5.193-0.146-16.57c-0.054-15.979-0.056-16.049-0.25-18.383c-0.117-1.43-0.164-2.367-0.119-2.408
		c0.102-0.088,8.1-1.91,8.152-1.857c0.088,0.09,0.268,1.713,0.348,3.148c0.213,11.125-0.035,22.258,0.162,33.383
		c0.055,1.182,0.106,1.611,0.238,1.984c0.221,0.625,0.523,1.014,0.944,1.199c0.457,0.203,1.183,0.281,1.517,0.166
		c0.174-0.063,0.282-0.066,0.315-0.014c0.077,0.129,1.401,4.814,1.368,4.85c-0.016,0.018-0.504,0.164-1.084,0.328
		C158.041-1089.722,155.75-1089.501,154.556-1089.644z M67.676-1089.716c-0.134-0.018-0.61-0.076-1.059-0.127
		c-0.447-0.053-1.237-0.215-1.756-0.363c-5.568-1.582-9.046-6.182-9.853-13.021c-0.124-1.047-0.123-3.987,0.001-5.09
		c0.362-3.213,1.4-6.119,2.997-8.387c1.083-1.537,2.861-3.087,4.462-3.89c2.021-1.017,3.78-1.401,6.368-1.401
		c2.148,0,3.536,0.219,5.156,0.814c3.931,1.449,7.106,5.005,8.254,9.238c0.922,3.397,0.905,8.646-0.037,12.051
		c-0.744,2.691-2.024,4.861-3.966,6.726c-1.942,1.865-4.086,2.918-6.7,3.298C70.775-1089.757,68.143-1089.654,67.676-1089.716z
		 M70.77-1096.027c1.815-0.824,2.693-2.672,3.095-6.512c0.153-1.465,0.177-5.111,0.041-6.512c-0.375-3.881-1.335-5.748-3.356-6.531
		c-1.055-0.41-2.505-0.303-3.577,0.262c-1.823,0.959-2.647,2.99-2.926,7.207c-0.158,2.404-0.013,5.633,0.343,7.572
		c0.475,2.602,1.225,3.77,2.859,4.457c0.768,0.322,1.166,0.387,2.144,0.344C70.09-1095.769,70.293-1095.812,70.77-1096.027z
		 M10.314-1116.746c-0.13-1.062-0.376-2.028-0.667-2.62c-0.147-0.302-0.224-0.548-0.182-0.584c0.09-0.078,7.021-1.966,7.22-1.966
		c0.204,0,0.671,0.979,0.915,1.921c0.112,0.432,0.204,0.854,0.204,0.938c0,0.087,0.027,0.152,0.061,0.152
		c0.034-0.002,0.391-0.277,0.794-0.615c1.52-1.271,3.532-2.127,5.465-2.323c2.115-0.218,4.02,0.101,5.551,0.92
		c0.98,0.526,2.146,1.513,2.768,2.336l0.488,0.646l0.314-0.326c0.76-0.788,2.256-1.92,3.307-2.495
		c0.898-0.494,2.17-0.894,3.413-1.074c1.114-0.159,3.312-0.062,4.384,0.197c1.185,0.286,2.204,0.719,2.971,1.26
		c1.574,1.108,2.172,2.082,2.584,4.207c0.172,0.886,0.174,1.024,0.203,13.373l0.029,12.479H42.15v-10.934
		c0-7.029-0.03-11.182-0.084-11.623c-0.198-1.623-0.574-2.098-1.798-2.27c-1.429-0.199-3.438,0.574-5.267,2.025l-0.667,0.529v22.27
		h-7.729c-0.473-7.383,0.652-15.438-0.186-22.727c-0.296-1.433-0.807-1.955-2.059-2.107c-1.462-0.178-3.452,0.498-5.153,1.75
		l-0.664,0.488l-0.005,22.596h-7.979C10.282-1099.062,11.051-1108.048,10.314-1116.746z M86.536-1095.492l14.458-19.949
		l-13.248-0.043v-5.779h23.042v5.578c-4.502,6.535-9.129,12.986-13.598,19.545l14.18,0.037l-0.061,0.182l-1.887,5.561l-22.9,0.041
		L86.536-1095.492z M116.735-1120.853l0.184-0.041c2.59-0.43,5.188-0.809,7.775-1.227l0.266-0.045v31.844h-8.225V-1120.853z
		 M120.276-1124.939c-1.963-0.195-3.682-1.678-4.188-3.611c-0.703-2.688,0.707-5.359,3.271-6.201
		c0.484-0.156,0.755-0.189,1.593-0.189c1.578,0,2.481,0.355,3.509,1.381c0.985,0.985,1.411,2.067,1.418,3.586
		c0.004,1.563-0.406,2.584-1.457,3.639C123.332-1125.246,121.934-1124.773,120.276-1124.939z"/>
</g>
</svg>
