<?xml version="1.0" encoding="utf-8"?>
<!-- Generator: Adobe Illustrator 19.1.0, SVG Export Plug-In . SVG Version: 6.00 Build 0)  -->
<svg version="1.1" id="Nissan_Logo" xmlns="http://www.w3.org/2000/svg" xmlns:xlink="http://www.w3.org/1999/xlink" x="0px"
	 y="0px" viewBox="-200 306 210 181" style="enable-background:new -200 306 210 181;" xml:space="preserve">
<style type="text/css">
	.st0{fill:#4D4D4D;}
	.st1{fill:#FFFFFF;}
</style>
<title>Nissan Logo</title>
<desc>Für mehr Informationen siehe: http://de.wikipedia.org/wiki/Datei:Nissan_Logo.svg</desc>
<path class="st0" d="M-59.9,391.1c-0.1-0.3-0.3-0.4-0.5-0.4c-0.1-0.1-0.4-0.1-0.6-0.1c-0.3,0-0.6,0-0.7,0.1c-0.3,0-0.5,0.1-0.6,0.3
	c0,0.1-1.6,3.9-3.3,7.8h8.9C-58,395.5-59.5,392.2-59.9,391.1z M-59.9,391.1c-0.1-0.3-0.3-0.4-0.5-0.4c-0.1-0.1-0.4-0.1-0.6-0.1
	c-0.3,0-0.6,0-0.7,0.1c-0.3,0-0.5,0.1-0.6,0.3c0,0.1-1.6,3.9-3.3,7.8h8.9C-58,395.5-59.5,392.2-59.9,391.1z M-59.9,391.1
	c-0.1-0.3-0.3-0.4-0.5-0.4c-0.1-0.1-0.4-0.1-0.6-0.1c-0.3,0-0.6,0-0.7,0.1c-0.3,0-0.5,0.1-0.6,0.3c0,0.1-1.6,3.9-3.3,7.8h8.9
	C-58,395.5-59.5,392.2-59.9,391.1z M-59.9,391.1c-0.1-0.3-0.3-0.4-0.5-0.4c-0.1-0.1-0.4-0.1-0.6-0.1c-0.3,0-0.6,0-0.7,0.1
	c-0.3,0-0.5,0.1-0.6,0.3c0,0.1-1.6,3.9-3.3,7.8h8.9C-58,395.5-59.5,392.2-59.9,391.1z M-1.9,375.8c-1.7-0.5-3.7-0.8-7.7-1.2
	c-0.2,0-0.3,0-0.5-0.1c-3.5-0.2-8-0.3-13.2-0.5c0,0,0,0,0,0c0,0,0,0,0,0c-0.4,0-0.8,0-1.2,0c-2.2-0.1-4.5-0.2-6.8-0.2h0
	C-52.1,372.8-79,372-95,372c-15.8,0-42.1,0.8-62.7,1.6h0c-2.2,0.1-4.4,0.2-6.5,0.2c-0.6,0-1.2,0.1-1.9,0.1h0c0,0,0,0,0,0
	c0,0,0,0,0,0c-5.4,0.2-10.1,0.4-13.8,0.6c-4.3,0.5-6.4,0.8-8.2,1.3c-5.7,1.3-6.9,3.3-6.9,7.4v27.7c0,4,4.3,6.8,7.3,7.3
	c3,0.6,4.9,0.8,8,1.1h0c2.4,0.2,5.2,0.3,8.4,0.5c1.7,0.1,3.6,0.2,5.5,0.3h0c0,0,0.1,0,0.1,0c0.4,0,0.9,0.1,1.3,0.1h0
	c0.1,0,0.3,0,0.4,0c2,0.1,4.1,0.2,6.3,0.3c0,0,0,0,0,0c0.1,0,0.2,0,0.3,0c18.1,0.9,41.5,1.8,62.3,1.8c21.1,0,44.7-0.9,62.9-1.9h0.1
	c2-0.1,3.9-0.2,5.8-0.3c0.2,0,0.4,0,0.6,0c0.7,0,1.3-0.1,1.9-0.1c0,0,0,0,0,0h0.1c5.2-0.3,9.8-0.6,13.3-0.8c0.2,0,0.4,0,0.6-0.1
	c2.8-0.3,4.6-0.5,7.4-1c3-0.5,7.3-3.3,7.3-7.3v-27.7C5,379.1,3.8,377.1-1.9,375.8z M-15.5,407.2c0,0.6-0.1,0.7-0.7,0.7h-6
	c-3.5,0-3.8,0-5-2c-2.5-3.8-9.8-15.1-9.8-15.1v16.4c0,0.6-0.1,0.7-0.7,0.7h-4.4c-0.6,0-0.7-0.1-0.7-0.7v-20.9c0-0.5,0.1-0.7,0.7-0.7
	c0,0,1.2,0,5.1,0c3.8,0,4.3-0.1,5.7,1.9c1.2,1.8,10,15.5,10,15.5v-16.7c0-0.5,0.1-0.7,0.7-0.7h4.4c0.6,0,0.7,0.2,0.7,0.7V407.2z
	 M-173.8,386.3c0-0.5,0.1-0.7,0.7-0.7c0,0,1.2,0,5.1,0c3.8,0,4.3-0.1,5.7,1.9c1.1,1.8,10,15.5,10,15.5v-16.7c0-0.5,0.1-0.7,0.7-0.7
	h4.4c0.6,0,0.7,0.2,0.7,0.7v20.9c0,0.6-0.1,0.7-0.7,0.7h-6c-3.5,0-3.8,0-5-2c-2.4-3.8-9.8-15.1-9.8-15.1v16.4c0,0.6-0.1,0.7-0.7,0.7
	h-4.4c-0.6,0-0.7-0.1-0.7-0.7V386.3z M-113.7,399.7c-1.9-0.1-7.4-0.6-11.1-1c-4.8-0.5-6-2.5-6.2-4.3c-0.1-0.6-0.1-1.4-0.1-2.1
	c0-0.6,0-1.5,0.1-2.2c0.7-3.1,3-4.6,7.2-4.6h16c0.6,0,0.8,0.1,0.8,0.6v3.6c0,0.5-0.2,0.7-0.8,0.6c0,0-15.3,0-15.7,0
	c-0.7,0-1,0.3-1.1,1v0.9c0,0.5,0.3,0.9,1,1c1.8,0.3,7.6,0.7,9.8,0.9c3.9,0.4,6.8,1.1,7.6,4.8c0,0.3,0.1,1.3,0.1,2.4
	c0,0.7,0,1.6-0.2,2.4c-0.7,3.5-3.3,4.2-7.5,4.2h-16.5c-0.6,0-0.7-0.1-0.7-0.7v-3.5c0-0.6,0.1-0.7,0.7-0.7c0,0,16.4,0,16.7,0
	c0.7,0,0.9-0.2,1-0.7v-1.5C-112.7,400.4-112.8,399.8-113.7,399.7z M-135.7,386v21c0,0.5-0.1,0.7-0.7,0.7h-5.1
	c-0.6,0-0.7-0.1-0.7-0.7v-21c0-0.4,0.1-0.6,0.5-0.6h5.4C-135.8,385.4-135.7,385.6-135.7,386z M-102.6,407.2v-3.5
	c0-0.6,0.1-0.7,0.7-0.7c0,0,16.4,0,16.7,0c0.7,0,0.9-0.2,1-0.7v-1.5c-0.1-0.4-0.3-1-1.1-1.1c-1.9-0.1-7.4-0.6-11.1-1
	c-4.8-0.5-5.9-2.5-6.2-4.3c-0.1-0.6-0.1-1.4-0.1-2.1c0-0.6,0-1.5,0.1-2.2c0.7-3.1,3-4.6,7.2-4.6h16c0.6,0,0.8,0.1,0.8,0.6v3.6
	c0,0.5-0.2,0.7-0.8,0.6c0,0-15.3,0-15.7,0c-0.7,0-1,0.3-1.1,1v0.9c0,0.5,0.2,0.9,1,1c1.8,0.3,7.6,0.7,9.7,0.9
	c3.9,0.4,6.8,1.1,7.6,4.8c0,0.3,0.1,1.3,0.1,2.4c0,0.7,0,1.6-0.2,2.4c-0.7,3.5-3.3,4.2-7.5,4.2h-16.4
	C-102.5,407.9-102.6,407.8-102.6,407.2z M-46.8,407.9h-5.5c-0.3,0-0.6-0.1-0.7-0.4c0-0.1-0.7-1.7-1.7-4h-12.9c-1,2.3-1.8,4-1.8,4
	c-0.1,0.2-0.3,0.4-0.7,0.4h-5.3c-0.8,0-1.1,0-0.6-1l0.1-0.2c2.5-5.5,8.4-18.7,8.4-18.7c1.2-2.5,0.6-2.3,4-2.3
	c0.9-0.1,1.1-0.1,2.2-0.1c1.1,0,1.9,0,2.2,0.1c3.6,0.1,3-0.3,4.7,3.4c0.9,2.1,7.3,15.8,8.3,18.2C-45.8,408-46,407.9-46.8,407.9z
	 M-60.4,390.7c-0.1-0.1-0.4-0.1-0.6-0.1c-0.3,0-0.6,0-0.7,0.1c-0.3,0-0.5,0.1-0.6,0.3c0,0.1-1.6,3.9-3.3,7.8h8.9
	c-1.3-3.3-2.8-6.6-3.2-7.7C-60,390.8-60.2,390.7-60.4,390.7z M-59.9,391.1c-0.1-0.3-0.3-0.4-0.5-0.4c-0.1-0.1-0.4-0.1-0.6-0.1
	c-0.3,0-0.6,0-0.7,0.1c-0.3,0-0.5,0.1-0.6,0.3c0,0.1-1.6,3.9-3.3,7.8h8.9C-58,395.5-59.5,392.2-59.9,391.1z M-59.9,391.1
	c-0.1-0.3-0.3-0.4-0.5-0.4c-0.1-0.1-0.4-0.1-0.6-0.1c-0.3,0-0.6,0-0.7,0.1c-0.3,0-0.5,0.1-0.6,0.3c0,0.1-1.6,3.9-3.3,7.8h8.9
	C-58,395.5-59.5,392.2-59.9,391.1z"/>
<path class="st0" d="M-167,376.9c8.8-30.7,37.8-53.2,72.3-53.2c34.3,0,63.3,22.4,72.2,53c0,0.1,0,0.2,0.1,0.3
	c5.1-0.6,9.7-1.5,12.9-2.3c-0.1-0.2-0.1-0.2-0.1-0.4c-10.1-36.6-44.4-63.4-85.1-63.4c-40.8,0-75.2,27-85.2,63.6
	C-175.4,375.7-172.1,376.2-167,376.9z"/>
<path class="st0" d="M-22.7,417.1c-0.1,0.3-0.2,0.6-0.2,0.7c-9.4,29.9-38,51.6-71.8,51.6c-34.1,0-62.8-22-72-52.3
	c-5.6,1-7.5,1.4-13,2.1c10.3,36.3,44.4,62.9,85,62.9s74.8-26.7,85-63C-14.6,418.6-17.4,418.1-22.7,417.1z"/>
<path class="st0" d="M-165.1,376.8c2.1-0.9,4.2-2.3,7.4-3.2c9.6-24.8,34.2-42.5,63.1-42.5c28.8,0,53.4,17.6,63,42.3
	c0,0.1,0.1,0.2,0.1,0.2c1.7,0.6,6.5,2.5,8,3.2c0.2,0,0.7,0,1.1,0c0-0.1-0.1-0.2-0.1-0.3c-8.9-30.6-37.9-53-72.2-53
	c-34.4,0-63.4,22.5-72.3,53.2C-166.4,376.9-165.5,376.8-165.1,376.8z"/>
<path class="st1" d="M-95.2,325.7c32.2,0,60.8,19.2,71.6,50.9c0,0.1,0.1,0.2,0.1,0.3c0.2,0,0.8,0,1.1,0c0-0.1-0.1-0.2-0.1-0.3
	c-8.9-30.6-37.9-53-72.2-53c-34.4,0-63.4,22.5-72.3,53.2c0.7,0,1,0,1.8-0.1C-155.5,346.7-127.2,325.7-95.2,325.7z"/>
<path class="st0" d="M-24.5,417.2c-2.3,1.3-5.2,2.5-7.5,3.3c0,0.1-0.2,0.4-0.2,0.5c-10,24-34.2,41-62.5,41
	c-28.5,0-52.8-17.2-62.7-41.4c-2.7-0.7-6.6-2.5-8.1-3.3c-0.6,0-0.9,0-1.2-0.1c9.2,30.2,37.9,52.3,72,52.3
	c33.9,0,62.6-21.8,71.8-51.8c0-0.1,0.1-0.4,0.1-0.4C-23.2,417.1-24.1,417.2-24.5,417.2z"/>
<path class="st0" d="M-59.9,391.1c-0.1-0.3-0.3-0.4-0.5-0.4c-0.1-0.1-0.4-0.1-0.6-0.1c-0.3,0-0.6,0-0.7,0.1c-0.3,0-0.5,0.1-0.6,0.3
	c0,0.1-1.6,3.9-3.3,7.8h8.9C-58,395.5-59.5,392.2-59.9,391.1z M-59.9,391.1c-0.1-0.3-0.3-0.4-0.5-0.4c-0.1-0.1-0.4-0.1-0.6-0.1
	c-0.3,0-0.6,0-0.7,0.1c-0.3,0-0.5,0.1-0.6,0.3c0,0.1-1.6,3.9-3.3,7.8h8.9C-58,395.5-59.5,392.2-59.9,391.1z M-59.9,391.1
	c-0.1-0.3-0.3-0.4-0.5-0.4c-0.1-0.1-0.4-0.1-0.6-0.1c-0.3,0-0.6,0-0.7,0.1c-0.3,0-0.5,0.1-0.6,0.3c0,0.1-1.6,3.9-3.3,7.8h8.9
	C-58,395.5-59.5,392.2-59.9,391.1z M-59.9,391.1c-0.1-0.3-0.3-0.4-0.5-0.4c-0.1-0.1-0.4-0.1-0.6-0.1c-0.3,0-0.6,0-0.7,0.1
	c-0.3,0-0.5,0.1-0.6,0.3c0,0.1-1.6,3.9-3.3,7.8h8.9C-58,395.5-59.5,392.2-59.9,391.1z M-3.5,377.8c-4.6-0.6-7.8-0.5-18.4-0.9
	c0,0,0,0,0,0c-0.2,0-0.3,0-0.5,0c-0.2,0-0.4,0-0.6,0c-0.1,0-0.3,0-0.4,0c-0.4,0-0.8,0-1.2-0.1c-21-0.7-52.5-1.7-70.3-1.7
	c-17.7,0-49.2,1-70.1,1.7c-0.1,0-0.1,0-0.2,0c-0.3,0-0.6,0-0.9,0h-0.1c-0.2,0-0.5,0-0.7,0.1h-0.1c-11.5,0.4-14.7,0.3-19.5,0.9
	c-4.8,0.6-8.5,2.6-8.5,6.2v25.7c0,3.5,4.5,6.4,8.5,6.4c0,0,7.7,0.5,19.5,1.1h0c0,0,0.1,0,0.2,0h0c0,0,0.1,0,0.1,0c0,0,0.1,0,0.1,0h0
	c0.4,0,0.8,0,1.2,0h0c0,0,0,0,0,0h0c18.5,0.9,46.2,2,70.3,2.1c24.2,0,51.9-1.1,70.4-2c0,0,0,0,0,0h0.1c0.4,0,0.7,0,1.1-0.1h0.1
	c0.2,0,0.4,0,0.6,0h0.1c0.1,0,0.1,0,0.2,0c0,0,0,0,0,0c11.5-0.6,18.9-1.1,18.9-1.1c4,0,8.5-2.9,8.5-6.4V384
	C5,380.4,1.3,378.4-3.5,377.8z M-146.5,407.2c0,0.6-0.1,0.7-0.7,0.7h-6c-3.5,0-3.8,0-5-2c-2.4-3.8-9.8-15.1-9.8-15.1v16.4
	c0,0.6-0.1,0.7-0.7,0.7h-4.4c-0.6,0-0.7-0.1-0.7-0.7v-20.9c0-0.5,0.1-0.7,0.7-0.7c0,0,1.2,0,5.1,0c3.8,0,4.3-0.1,5.7,1.9
	c1.1,1.8,10,15.5,10,15.5v-16.7c0-0.5,0.1-0.7,0.7-0.7h4.4c0.6,0,0.7,0.2,0.7,0.7V407.2z M-135.7,407c0,0.5-0.1,0.7-0.7,0.7h-5.1
	c-0.6,0-0.7-0.1-0.7-0.7v-21c0-0.4,0.1-0.6,0.5-0.6h5.4c0.5,0,0.6,0.2,0.6,0.6V407z M-106.3,403.7c-0.7,3.5-3.3,4.2-7.5,4.2h-16.5
	c-0.6,0-0.7-0.1-0.7-0.7v-3.5c0-0.6,0.1-0.7,0.7-0.7c0,0,16.4,0,16.7,0c0.7,0,0.9-0.2,1-0.7v-1.5c-0.1-0.4-0.2-1-1.1-1.1
	c-1.9-0.1-7.4-0.6-11.1-1c-4.8-0.5-6-2.5-6.2-4.3c-0.1-0.6-0.1-1.4-0.1-2.1c0-0.6,0-1.5,0.1-2.2c0.7-3.1,3-4.6,7.2-4.6h16
	c0.6,0,0.8,0.1,0.8,0.6v3.6c0,0.5-0.2,0.7-0.8,0.6c0,0-15.3,0-15.7,0c-0.7,0-1,0.3-1.1,1v0.9c0,0.5,0.3,0.9,1,1
	c1.8,0.3,7.6,0.7,9.8,0.9c3.9,0.4,6.8,1.1,7.6,4.8c0,0.3,0.1,1.3,0.1,2.4C-106.1,402-106.1,402.9-106.3,403.7z M-78,403.7
	c-0.7,3.5-3.3,4.2-7.5,4.2h-16.4c-0.6,0-0.7-0.1-0.7-0.7v-3.5c0-0.6,0.1-0.7,0.7-0.7c0,0,16.4,0,16.7,0c0.7,0,0.9-0.2,1-0.7v-1.5
	c-0.1-0.4-0.3-1-1.1-1.1c-1.9-0.1-7.4-0.6-11.1-1c-4.8-0.5-5.9-2.5-6.2-4.3c-0.1-0.6-0.1-1.4-0.1-2.1c0-0.6,0-1.5,0.1-2.2
	c0.7-3.1,3-4.6,7.2-4.6h16c0.6,0,0.8,0.1,0.8,0.6v3.6c0,0.5-0.2,0.7-0.8,0.6c0,0-15.3,0-15.7,0c-0.7,0-1,0.3-1.1,1v0.9
	c0,0.5,0.2,0.9,1,1c1.8,0.3,7.6,0.7,9.7,0.9c3.9,0.4,6.8,1.1,7.6,4.8c0,0.3,0.1,1.3,0.1,2.4C-77.8,402-77.8,402.9-78,403.7z
	 M-46.8,407.9h-5.5c-0.3,0-0.6-0.1-0.7-0.4c0-0.1-0.7-1.7-1.7-4h-12.9c-1,2.3-1.8,4-1.8,4c-0.1,0.2-0.3,0.4-0.7,0.4h-5.3
	c-0.8,0-1.1,0-0.6-1l0.1-0.2c2.5-5.5,8.4-18.7,8.4-18.7c1.2-2.5,0.6-2.3,4-2.3c0.9-0.1,1.1-0.1,2.2-0.1c1.1,0,1.9,0,2.2,0.1
	c3.6,0.1,3-0.3,4.7,3.4c0.9,2.1,7.3,15.8,8.3,18.2C-45.8,408-46,407.9-46.8,407.9z M-15.5,407.2c0,0.6-0.1,0.7-0.7,0.7h-6
	c-3.5,0-3.8,0-5-2c-2.5-3.8-9.8-15.1-9.8-15.1v16.4c0,0.6-0.1,0.7-0.7,0.7h-4.4c-0.6,0-0.7-0.1-0.7-0.7v-20.9c0-0.5,0.1-0.7,0.7-0.7
	c0,0,1.2,0,5.1,0c3.8,0,4.3-0.1,5.7,1.9c1.2,1.8,10,15.5,10,15.5v-16.7c0-0.5,0.1-0.7,0.7-0.7h4.4c0.6,0,0.7,0.2,0.7,0.7V407.2z
	 M-60.4,390.7c-0.1-0.1-0.4-0.1-0.6-0.1c-0.3,0-0.6,0-0.7,0.1c-0.3,0-0.5,0.1-0.6,0.3c0,0.1-1.6,3.9-3.3,7.8h8.9
	c-1.3-3.3-2.8-6.6-3.2-7.7C-60,390.8-60.2,390.7-60.4,390.7z M-59.9,391.1c-0.1-0.3-0.3-0.4-0.5-0.4c-0.1-0.1-0.4-0.1-0.6-0.1
	c-0.3,0-0.6,0-0.7,0.1c-0.3,0-0.5,0.1-0.6,0.3c0,0.1-1.6,3.9-3.3,7.8h8.9C-58,395.5-59.5,392.2-59.9,391.1z M-59.9,391.1
	c-0.1-0.3-0.3-0.4-0.5-0.4c-0.1-0.1-0.4-0.1-0.6-0.1c-0.3,0-0.6,0-0.7,0.1c-0.3,0-0.5,0.1-0.6,0.3c0,0.1-1.6,3.9-3.3,7.8h8.9
	C-58,395.5-59.5,392.2-59.9,391.1z"/>
<path class="st1" d="M-24.5,417.2c-10,29.5-38,50.1-69.6,50.1c-32,0-60.3-18.9-71.3-50.1c-0.4,0-0.8,0-1.2-0.1
	c9.2,30.2,37.9,52.3,72,52.3s62.8-22.1,72-52.3C-23.3,417.1-23.9,417.2-24.5,417.2z"/>
<path class="st0" d="M-24.5,417.2L-24.5,417.2c-2.4,1.3-5.3,2.5-7.6,3.3c0,0.1-0.2,0.4-0.2,0.5c-3.2,7.6-7.7,14.5-13.4,20.4
	C-36.7,434.8-29.5,426.6-24.5,417.2z"/>
<path class="st0" d="M-141.8,443.2c-6.7-6.4-12-14.1-15.5-22.7c-2.7-0.7-6.6-2.5-8.1-3.3c1.6,3.4,3.5,6.5,5.6,9.5
	c4.4,5.7,9.8,10.9,15.8,15.2C-143.3,442.3-142.5,442.8-141.8,443.2z"/>
</svg>
