<?xml version="1.0" encoding="utf-8"?>
<!-- Generator: Adobe Illustrator 19.1.0, SVG Export Plug-In . SVG Version: 6.00 Build 0)  -->
<svg version="1.1" id="Layer_1" xmlns="http://www.w3.org/2000/svg" xmlns:xlink="http://www.w3.org/1999/xlink" x="0px" y="0px"
	 viewBox="0 0 341.7 98" style="enable-background:new 0 0 341.7 98;" xml:space="preserve">
<style type="text/css">
	.st0{fill:#4D4D4D;}
</style>
<g>
	<path class="st0" d="M283,82.5C283,82.5,283,82.5,283,82.5c0,3.5,0.2,7-0.1,10.5c-0.3,3.9,2.3,3.1,4.5,3.2c2.4,0.1,4.6,0.4,4.5-3.4
		c-0.3-6.2-0.1-12.3-0.1-18.5c0-5.9,3-9.4,7.9-9.4c4.9-0.1,8.1,3.5,8.2,9.2c0.1,6,0.2,12-0.1,18c-0.1,3.3,1,4.2,4.2,4.2
		c3.4,0,4.8-0.8,4.6-4.4c-0.3-5.8-0.2-11.7,0-17.5c0.1-6.3,3.3-9.7,8.5-9.5c4.8,0.2,7.8,3.8,7.9,9.6c0.1,6.2,0.2,12.3-0.1,18.5
		c-0.1,3.4,1.8,3.3,4.1,3.2c2.2-0.1,4.8,0.7,4.7-3.2c-0.2-6.8,0.1-13.7-0.1-20.5c-0.2-6.5-3.3-11.5-9.1-14.5c-6-3.1-12-2.7-17.4,1.3
		c-2.1,1.5-3.3,1.6-5.5,0c-5.2-3.8-11-4.4-17-1.5c-6.1,3-9.2,8-9.6,14.7C282.9,75.8,283,79.1,283,82.5z"/>
	<path class="st0" d="M100.1,82.2c0,3.5,0.2,7-0.1,10.5c-0.3,3.6,1.8,3.6,4.3,3.5c2.4-0.1,4.7,0.4,4.5-3.4
		c-0.3-5.8-0.1-11.7-0.1-17.5c0-6.9,2.7-10.4,8-10.5c5.4-0.1,8.3,3.5,8.3,10.7c0,5.8,0.2,11.7-0.1,17.5c-0.1,3.5,2,3.2,4.2,3.1
		c2.2-0.1,4.8,0.7,4.6-3.2c-0.2-6.3-0.1-12.7,0-19c0.1-5.5,3-9,7.8-9.1c5-0.1,8.3,3.4,8.3,9.1c0.1,6.3,0.2,12.7-0.1,19
		c-0.1,3.3,1.7,3.5,4,3.2c2-0.2,5,1.3,4.9-2.8c-0.1-7,0.4-14-0.2-21c-1.1-13.9-15.3-20.7-26.7-12.9c-2.3,1.6-3.5,1.2-5.5-0.3
		c-5.3-3.8-11.1-4.2-17-1.3c-6,3-9.1,8.1-9.4,14.8C100,75.9,100.1,79,100.1,82.2z"/>
	<path class="st0" d="M225.2,83.9c0-2.2,0-4.3,0-6.5c-0.3-12.2-9-21.1-20.5-21.3C193,56,184,64.5,183.2,76.6
		c-0.3,5.5,0.1,11-0.1,16.5c-0.2,4,2.6,3,4.7,3.1c2.5,0.2,4.5,0.2,4.3-3.5c-0.3-5.1-0.2-10.3-0.1-15.5c0.1-7.1,5.3-12.4,12.2-12.4
		c6.9,0,12,5.1,12.1,12.4c0.1,5.2,0,10.3,0,15.5c0,1.4-0.4,2.9,1.8,3.4c5,1.2,6.9-0.1,6.9-5.3C225.2,88.6,225.2,86.2,225.2,83.9z"/>
	<path class="st0" d="M175.2,77c0-5.2-0.2-10.3,0.1-15.5c0.2-3.4-1.4-3.8-4.2-3.7c-2.5,0.1-4.4-0.1-4.3,3.5c0.2,10.5,0.2,21,0,31.5
		c-0.1,3.1,1.4,3.6,3.9,3.4c2.2-0.2,4.8,0.6,4.6-3.3C175,87.6,175.2,82.3,175.2,77z"/>
	<path class="st0" d="M216.4,29.5c0,2.6,0,5.3,0,7.9c0,1.1-0.1,2.2,1.4,2.8c4.5,1.6,7.5-0.3,7.5-5c0-4.1-0.1-8.3,0-12.4
		c0.1-2.1-0.7-2.7-2.8-2.9c-4.4-0.4-7.1,0.4-6.1,5.7C216.6,26.8,216.4,28.2,216.4,29.5z"/>
	<path class="st0" d="M308,30.1c0,2.3,0.2,4.7,0,6.9c-0.4,3.3,1.5,3.5,3.9,3.2c2-0.2,4.9,1.1,4.8-2.9c-0.1-4.8,0-9.6,0-14.4
		c0-1.3,0.2-2.5-1.7-3c-4.9-1.2-6.9,0.2-6.9,5.2C308,26.8,308,28.4,308,30.1z"/>
	<path class="st0" d="M333,29.8c0,2,0.2,4,0,5.9c-0.3,3.2,0.3,4.7,4.1,4.7c3.8,0,5-1.1,4.6-4.8c-0.3-3.9-0.2-7.9,0-11.9
		c0.1-2.6-0.5-3.8-3.5-3.9c-3.9-0.1-6,0.6-5.3,5C333.2,26.5,333,28.2,333,29.8z"/>
	<path class="st0" d="M291.9,29.9c0-2.3-0.1-4.7,0-7c0.3-4.1-2.8-2.8-4.8-2.9c-2.1-0.1-4.4-0.6-4.2,3c0.3,4.6,0.2,9.3,0,14
		c-0.1,2.7,1,3.1,3.5,3.3c4.2,0.4,6.3-0.8,5.5-5.4C291.6,33.3,291.9,31.6,291.9,29.9z"/>
	<path class="st0" d="M192,30.5c0-2.7-0.1-5.3,0-8c0.2-3.5-2.4-2.6-4.1-2.4c-1.8,0.1-4.8-1.5-4.8,2.3c0,5.2,0,10.3,0,15.5
		c0,1,0.2,1.8,1.4,2.3c4.5,1.7,7.4-0.3,7.4-5.2C192,33.5,192,32,192,30.5z"/>
	<path class="st0" d="M150,29.9c0,2.3,0.2,4.7,0,7c-0.4,3.9,2.2,3.3,4.5,3.3c2.3,0,4.7,0.5,4.5-3.3c-0.2-4.6-0.1-9.3,0-14
		c0-2.1-0.6-2.9-2.8-3c-6-0.4-6.1-0.4-6.1,5.5C150,27,150,28.5,150,29.9z"/>
	<path class="st0" d="M125.1,29.6c0,2,0.2,4,0,6c-0.3,3.2,0.4,4.7,4.2,4.7c3.8,0,4.9-1.2,4.7-4.8c-0.3-4-0.2-8,0-12
		c0.2-2.9-1-3.5-3.7-3.7c-4.2-0.3-5.8,1.1-5.1,5.2C125.3,26.6,125.1,28.1,125.1,29.6z"/>
	<path class="st0" d="M100.1,29.6c0,2.3,0.2,4.7,0,7c-0.4,3.6,1.6,3.7,4.3,3.6c2.6-0.1,4.9,0.2,4.6-3.8c-0.4-4.3-0.2-8.6,0-13
		c0.1-2.4-0.5-3.5-3.2-3.6c-4-0.2-6.5,0.5-5.6,5.3C100.4,26.6,100.1,28.1,100.1,29.6z"/>
	<path class="st0" d="M33.8,30.2c0,2.3,0.2,4.7,0,7c-0.3,3.5,2.1,3.1,4.2,3c2.1,0,4.4,0.6,4.3-3c-0.2-4.8-0.1-9.6,0-14.4
		c0-1.8-0.4-2.7-2.4-2.8c-3.9-0.3-7,0-6,5.3C34.1,26.8,33.8,28.5,33.8,30.2z"/>
	<path class="st0" d="M66,98c-7.7-3.5-13.8-8.4-15.4-17.4c-2-11,5.3-21.7,16.6-24.1C78,54.3,88.9,61.2,91.6,72
		c2.7,10.8-3.8,22.1-14.4,25.1c-0.8,0.2-1.5,0.6-2.2,0.9C72,98,69,98,66,98z M71.4,89.3c6.9-0.1,12.2-5.7,12-12.6
		c-0.2-6.8-5.5-11.9-12.3-11.8C64.4,64.9,59,70.3,59,77C59,83.8,64.5,89.4,71.4,89.3z"/>
	<path class="st0" d="M249,98c-7.9-3.6-14.6-8.5-15.5-17.8c-0.7-6.6-0.3-13.3-0.3-20c0-3.8,3-2.1,4.8-2.4c2-0.3,4-0.3,3.9,2.9
		c-0.2,5.2-0.1,10.3,0,15.5c0.1,7.7,5.1,13,12.1,13.1c7.1,0.1,12.1-5.1,12.3-12.9c0.1-5.2,0.2-10.3,0-15.5c-0.1-4,2.6-3,4.7-3.1
		c2.4-0.2,4.2-0.1,4,3.3c-0.3,5.8,0.2,11.7-0.1,17.5c-0.5,7.9-4.6,13.7-11.6,17.4c-1.4,0.8-3.3,0.5-4.3,2C255.7,98,252.3,98,249,98z
		"/>
	<path class="st0" d="M0,73c1.7-0.9,1.4-2.8,2.1-4.2c4-9.1,13.8-14.3,23.3-12.3c10,2.1,16.6,10,16.8,20.2c0.1,5.5-0.1,11,0.1,16.5
		c0.1,3.6-2.2,3-4.3,3c-2.2,0-4.4,0.4-4.2-3.1c0.2-4.7,0.1-9.3,0-14c-0.1-8.8-5.1-14.3-12.7-14.2C13.9,65,9.1,70.6,9,79
		c0,3.8-0.4,7.7,0.1,11.5c0.7,5.2-1.6,6.4-6.1,5.7C2,96,1,96.1,0,96C0,88.3,0,80.7,0,73z"/>
	<path class="st0" d="M275,0c0,5.6-0.2,11.3,0.1,16.9c0.2,3.8-2,3.3-4.4,3.4c-2.4,0-4.6,0.3-4.4-3.4c0.2-5.6-0.2-11.3-0.3-16.9
		C269,0,272,0,275,0z"/>
	<path class="st0" d="M242,0c0,5.6-0.3,11.2-0.1,16.8c0.1,3.7-2.1,3.4-4.4,3.4c-2.4,0-4.6,0.3-4.4-3.4c0.2-5.6,0-11.2-0.1-16.8
		C236,0,239,0,242,0z"/>
	<path class="st0" d="M175,0c0.1,5.6-0.1,11.3,0.2,16.9c0.2,3.8-2.2,3.2-4.5,3.3c-2.4,0.1-4.2,0-4-3.3C167,11.3,166.9,5.6,167,0
		C169.7,0,172.3,0,175,0z"/>
	<path class="st0" d="M283,82.5c0-3.3-0.2-6.7,0-10c0.4-6.7,3.5-11.7,9.6-14.7c5.9-2.9,11.7-2.3,17,1.5c2.2,1.6,3.4,1.5,5.5,0
		c5.4-4,11.4-4.4,17.4-1.3c5.8,3,8.9,8,9.1,14.5c0.2,6.8-0.1,13.7,0.1,20.5c0.1,3.9-2.4,3.1-4.7,3.2c-2.3,0.1-4.2,0.3-4.1-3.2
		c0.2-6.2,0.1-12.3,0.1-18.5c-0.1-5.9-3-9.5-7.9-9.6c-5.2-0.2-8.3,3.2-8.5,9.5c-0.1,5.8-0.2,11.7,0,17.5c0.2,3.6-1.2,4.4-4.6,4.4
		c-3.2,0-4.3-0.8-4.2-4.2c0.3-6,0.1-12,0.1-18c-0.1-5.8-3.3-9.3-8.2-9.2c-4.9,0.1-7.9,3.5-7.9,9.4c0,6.2-0.2,12.3,0.1,18.5
		c0.2,3.7-2.1,3.5-4.5,3.4c-2.2-0.1-4.8,0.7-4.5-3.2C283.2,89.5,283,86,283,82.5C283,82.5,283,82.5,283,82.5z"/>
	<path class="st0" d="M100.1,82.2c0-3.2-0.1-6.3,0-9.5c0.3-6.7,3.4-11.8,9.4-14.8c5.9-2.9,11.7-2.5,17,1.3c2,1.4,3.1,1.9,5.5,0.3
		c11.4-7.9,25.6-1.1,26.7,12.9c0.5,7,0.1,14,0.2,21c0.1,4.1-2.9,2.6-4.9,2.8c-2.3,0.3-4.2,0.1-4-3.2c0.2-6.3,0.1-12.7,0.1-19
		c-0.1-5.7-3.4-9.2-8.3-9.1c-4.7,0.1-7.7,3.5-7.8,9.1c-0.1,6.3-0.2,12.7,0,19c0.1,3.9-2.4,3.1-4.6,3.2c-2.2,0.1-4.3,0.4-4.2-3.1
		c0.2-5.8,0.1-11.7,0.1-17.5c0-7.1-2.9-10.8-8.3-10.7c-5.2,0.1-7.9,3.6-8,10.5c0,5.8-0.2,11.7,0.1,17.5c0.2,3.8-2.2,3.3-4.5,3.4
		c-2.5,0.1-4.6,0.1-4.3-3.5C100.4,89.2,100.1,85.7,100.1,82.2z"/>
	<path class="st0" d="M225.2,83.9c0,2.3,0,4.7,0,7c0,5.2-1.9,6.5-6.9,5.3c-2.2-0.5-1.8-2-1.8-3.4c0-5.2,0.1-10.3,0-15.5
		c-0.1-7.3-5.2-12.4-12.1-12.4c-6.9,0-12.1,5.3-12.2,12.4c-0.1,5.2-0.3,10.3,0.1,15.5c0.2,3.7-1.8,3.6-4.3,3.5
		c-2.1-0.1-4.9,0.9-4.7-3.1c0.2-5.5-0.2-11,0.1-16.5C184,64.5,193,56,204.6,56.1c11.5,0.2,20.2,9.1,20.5,21.3
		C225.2,79.6,225.2,81.7,225.2,83.9z"/>
	<path class="st0" d="M175.2,77c0,5.3-0.2,10.7,0.1,16c0.2,3.9-2.3,3.1-4.6,3.3c-2.5,0.2-4-0.3-3.9-3.4c0.2-10.5,0.2-21,0-31.5
		c-0.1-3.7,1.8-3.4,4.3-3.5c2.8-0.1,4.3,0.3,4.2,3.7C175,66.6,175.2,71.8,175.2,77z"/>
	<path class="st0" d="M216.4,29.5c0-1.3,0.2-2.7,0-4c-1-5.3,1.8-6,6.1-5.7c2.1,0.2,2.9,0.8,2.8,2.9c-0.1,4.1,0,8.3,0,12.4
		c0,4.7-3,6.7-7.5,5c-1.5-0.6-1.4-1.7-1.4-2.8C216.4,34.8,216.4,32.1,216.4,29.5z"/>
	<path class="st0" d="M308,30.1c0-1.7,0-3.3,0-5c0-5,2-6.4,6.9-5.2c1.9,0.5,1.7,1.7,1.7,3c0,4.8-0.1,9.6,0,14.4
		c0.1,4.1-2.8,2.7-4.8,2.9c-2.4,0.3-4.3,0-3.9-3.2C308.2,34.7,308,32.4,308,30.1z"/>
	<path class="st0" d="M333,29.8c0-1.7,0.2-3.3,0-5c-0.8-4.4,1.4-5.1,5.3-5c3,0.1,3.6,1.3,3.5,3.9c-0.2,4-0.3,8,0,11.9
		c0.3,3.7-0.9,4.8-4.6,4.8c-3.8,0-4.4-1.5-4.1-4.7C333.1,33.8,333,31.8,333,29.8z"/>
	<path class="st0" d="M291.9,29.9c0,1.7-0.2,3.4,0,5c0.8,4.6-1.3,5.8-5.5,5.4c-2.4-0.2-3.6-0.6-3.5-3.3c0.2-4.6,0.2-9.3,0-14
		c-0.2-3.6,2.1-3.1,4.2-3c2,0.1,5.1-1.2,4.8,2.9C291.8,25.2,291.9,27.6,291.9,29.9z"/>
	<path class="st0" d="M192,30.5c0,1.5,0,3,0,4.5c0,4.9-2.9,6.8-7.4,5.2c-1.2-0.4-1.4-1.2-1.4-2.3c0-5.2,0-10.3,0-15.5
		c0-3.8,3-2.2,4.8-2.3c1.7-0.1,4.3-1,4.1,2.4C191.9,25.2,192,27.8,192,30.5z"/>
	<path class="st0" d="M150,29.9c0-1.5,0-3,0-4.5c0-5.9,0.1-5.9,6.1-5.5c2.2,0.1,2.8,1,2.8,3c-0.1,4.7-0.2,9.3,0,14
		c0.2,3.8-2.2,3.3-4.5,3.3c-2.3,0-4.9,0.6-4.5-3.3C150.2,34.6,150,32.3,150,29.9z"/>
	<path class="st0" d="M125.1,29.6c0-1.5,0.2-3,0-4.5c-0.6-4.1,0.9-5.6,5.1-5.2c2.7,0.2,3.9,0.7,3.7,3.7c-0.2,4-0.3,8,0,12
		c0.3,3.7-0.8,4.9-4.7,4.8c-3.8,0-4.5-1.5-4.2-4.7C125.3,33.6,125.1,31.6,125.1,29.6z"/>
	<path class="st0" d="M100.1,29.6c0-1.5,0.2-3,0-4.5c-0.9-4.8,1.6-5.5,5.6-5.3c2.8,0.1,3.3,1.2,3.2,3.6c-0.1,4.3-0.3,8.7,0,13
		c0.3,4-2,3.7-4.6,3.8c-2.6,0-4.7,0-4.3-3.6C100.3,34.3,100.1,32,100.1,29.6z"/>
	<path class="st0" d="M33.8,30.2c0-1.7,0.2-3.4,0-5c-1-5.3,2.1-5.5,6-5.3c2.1,0.1,2.5,1.1,2.4,2.8c-0.1,4.8-0.2,9.6,0,14.4
		c0.2,3.6-2.1,3-4.3,3c-2.1,0-4.5,0.5-4.2-3C34,34.8,33.8,32.5,33.8,30.2z"/>
</g>
<path class="st0" d="M0,20c9-0.1,9-0.1,9,9.1c0,0.8,0,1.7,0,2.5c0,9,0,9-9,8.4C0,33.3,0,26.7,0,20z"/>
</svg>
