<?xml version="1.0" encoding="UTF-8" standalone="no"?>
<!-- Created with Inkscape (http://www.inkscape.org/) -->
<svg
   xmlns:dc="http://purl.org/dc/elements/1.1/"
   xmlns:cc="http://creativecommons.org/ns#"
   xmlns:rdf="http://www.w3.org/1999/02/22-rdf-syntax-ns#"
   xmlns:svg="http://www.w3.org/2000/svg"
   xmlns="http://www.w3.org/2000/svg"
   xmlns:sodipodi="http://sodipodi.sourceforge.net/DTD/sodipodi-0.dtd"
   xmlns:inkscape="http://www.inkscape.org/namespaces/inkscape"
   width="254.72279"
   height="71.750244"
   id="svg2"
   sodipodi:version="0.32"
   inkscape:version="0.46"
   version="1.0"
   sodipodi:docname="OUP logo.svg"
   inkscape:output_extension="org.inkscape.output.svg.inkscape">
  <defs
     id="defs4">
    <inkscape:perspective
       sodipodi:type="inkscape:persp3d"
       inkscape:vp_x="0 : 526.18109 : 1"
       inkscape:vp_y="0 : 1000 : 0"
       inkscape:vp_z="744.09448 : 526.18109 : 1"
       inkscape:persp3d-origin="372.04724 : 350.78739 : 1"
       id="perspective10" />
    <inkscape:perspective
       id="perspective2390"
       inkscape:persp3d-origin="372.04724 : 350.78739 : 1"
       inkscape:vp_z="744.09448 : 526.18109 : 1"
       inkscape:vp_y="0 : 1000 : 0"
       inkscape:vp_x="0 : 526.18109 : 1"
       sodipodi:type="inkscape:persp3d" />
  </defs>
  <sodipodi:namedview
     id="base"
     pagecolor="#ffffff"
     bordercolor="#666666"
     borderopacity="1.0"
     gridtolerance="10000"
     guidetolerance="10"
     objecttolerance="10"
     inkscape:pageopacity="0.0"
     inkscape:pageshadow="2"
     inkscape:zoom="0.98994949"
     inkscape:cx="216.3237"
     inkscape:cy="186.59207"
     inkscape:document-units="px"
     inkscape:current-layer="layer1"
     showgrid="false"
     inkscape:window-width="640"
     inkscape:window-height="672"
     inkscape:window-x="66"
     inkscape:window-y="69" />
  <metadata
     id="metadata7">
    <rdf:RDF>
      <cc:Work
         rdf:about="">
        <dc:format>image/svg+xml</dc:format>
        <dc:type
           rdf:resource="http://purl.org/dc/dcmitype/StillImage" />
      </cc:Work>
    </rdf:RDF>
  </metadata>
  <g
     inkscape:label="Layer 1"
     inkscape:groupmode="layer"
     id="layer1"
     transform="translate(692.89034,-110.22754)">
    <path
       style="fill:#000000"
       d="M -629.68881,181.93165 C -629.71772,181.88488 -631.00548,178.98527 -632.5505,175.48807 C -634.09552,171.99087 -635.48628,168.91339 -635.64109,168.64924 C -636.01801,168.00608 -636.55629,167.61657 -637.37936,167.39142 C -637.825,167.26951 -638.07367,167.14204 -638.09689,167.02359 C -638.12939,166.85787 -637.79212,166.84231 -634.16677,166.84231 C -630.38867,166.84231 -630.20112,166.85188 -630.20112,167.04468 C -630.20112,167.20147 -630.34348,167.27869 -630.83323,167.38749 C -631.62819,167.56412 -632.24566,167.87353 -632.40782,168.17652 C -632.48126,168.31375 -632.50409,168.59226 -632.46298,168.84935 C -632.35957,169.49611 -631.56212,171.56365 -630.49521,173.95122 C -629.24284,176.75383 -628.78866,177.63966 -628.631,177.5871 C -628.37312,177.50115 -625.55606,170.76307 -625.20099,169.38292 C -625.05584,168.81874 -625.04575,168.61901 -625.14972,168.368 C -625.30145,168.0017 -626.10542,167.57152 -626.98556,167.38568 C -627.43873,167.29 -627.56271,167.21856 -627.56271,167.05307 C -627.56271,166.85004 -627.44191,166.84231 -624.26471,166.84231 C -621.09365,166.84231 -620.96671,166.85039 -620.96671,167.05195 C -620.96671,167.21095 -621.11937,167.30931 -621.59883,167.45921 C -622.06928,167.60629 -622.3726,167.79869 -622.78483,168.21149 C -623.59932,169.02711 -625.04983,171.95297 -628.49741,179.73442 C -629.43069,181.84091 -629.57753,182.11171 -629.68881,181.93165 z M -682.85919,181.51708 C -685.23828,181.10249 -686.40762,180.00749 -686.86949,177.7618 C -686.95439,177.34894 -687.15111,175.74967 -687.30664,174.20785 C -687.76777,169.6362 -687.98256,168.74421 -688.80018,168.00556 C -689.10758,167.72783 -689.35867,167.60934 -689.74895,167.55783 C -690.8118,167.41753 -690.88433,167.3899 -690.88433,167.12545 C -690.88433,166.88234 -690.84851,166.87468 -689.38285,166.80439 C -688.55703,166.76478 -687.24911,166.73238 -686.47635,166.73238 L -685.07133,166.73238 L -685.01571,167.1996 C -684.98513,167.45657 -684.88107,169.07671 -684.78446,170.79992 C -684.58851,174.29504 -684.33226,177.24413 -684.17158,177.85294 C -684.00714,178.47602 -683.40826,179.28341 -682.81785,179.67799 C -682.05364,180.18872 -681.22662,180.40603 -680.05589,180.40377 C -678.3531,180.40046 -677.02048,179.76854 -676.47932,178.70779 C -675.98375,177.7364 -675.41419,174.31189 -675.30939,171.67355 C -675.23181,169.72036 -675.33483,169.07336 -675.83291,168.38578 C -676.17236,167.91717 -677.06119,167.39198 -677.51478,167.39198 C -677.92825,167.39198 -678.13206,167.2792 -678.13206,167.05042 C -678.13206,166.85025 -677.98732,166.84231 -674.33936,166.84231 C -670.69823,166.84231 -670.54665,166.85059 -670.54665,167.04935 C -670.54665,167.26366 -670.82031,167.38583 -671.31619,167.3929 C -671.69935,167.39834 -672.51993,167.78742 -672.89299,168.14051 C -673.60687,168.81617 -674.07174,170.24145 -674.28182,172.39864 C -674.59463,175.61069 -674.74562,176.78567 -674.94827,177.58494 C -675.50876,179.79552 -676.6842,181.0667 -678.58132,181.51388 C -679.44863,181.71831 -681.69483,181.72 -682.85919,181.51708 z M -580.67614,181.39002 C -581.30724,181.25249 -582.50944,180.86279 -583.06719,180.61497 L -583.6993,180.33409 L -583.6993,178.03285 C -583.6993,175.7547 -583.69698,175.73198 -583.46763,175.76675 C -583.27418,175.79608 -583.19374,175.96931 -582.98014,176.81645 C -582.31177,179.46726 -580.76533,180.96295 -578.89278,180.76969 C -577.32776,180.60816 -576.31455,179.18736 -576.66085,177.63991 C -576.77709,177.12051 -576.89747,176.92455 -577.42332,176.39872 C -577.94089,175.88115 -578.35732,175.62191 -579.85664,174.88395 C -580.85154,174.39427 -581.89643,173.82169 -582.17864,173.61155 C -583.58119,172.56719 -584.05551,170.68355 -583.32031,169.07767 C -582.5811,167.46301 -580.77136,166.47614 -578.53244,166.46679 C -577.43006,166.46218 -576.68699,166.60435 -575.68148,167.01222 C -575.10292,167.24692 -575.06748,167.28355 -575.03196,167.6835 C -575.01128,167.91618 -575.02893,168.81424 -575.07117,169.6792 C -575.14405,171.17153 -575.15926,171.25015 -575.36902,171.21827 C -575.54094,171.19215 -575.64365,171.00144 -575.83117,170.36018 C -576.27899,168.82869 -576.83871,167.98323 -577.6835,167.56225 C -578.84126,166.98532 -580.11718,167.28803 -580.80343,168.30246 C -581.25806,168.97451 -581.34658,169.52788 -581.12267,170.29811 C -580.83728,171.27979 -580.19619,171.82491 -578.07123,172.8927 C -576.03879,173.91399 -575.55553,174.2223 -574.9684,174.87217 C -573.9629,175.98514 -573.76982,177.68456 -574.48598,179.1185 C -574.98939,180.12651 -576.33032,181.04179 -577.74083,181.34019 C -578.29793,181.45805 -580.21465,181.4906 -580.67614,181.39002 z M -462.77639,181.18965 C -463.2924,181.04793 -463.99735,180.80693 -464.34294,180.65409 L -464.97128,180.37621 L -464.97128,178.06156 C -464.97128,175.92371 -464.95647,175.74692 -464.77741,175.74692 C -464.62434,175.74692 -464.53466,175.95159 -464.35112,176.71993 C -463.65116,179.65004 -461.89676,181.19586 -459.83311,180.7008 C -458.29077,180.3308 -457.4953,178.54238 -458.22329,177.08151 C -458.60651,176.3125 -459.25111,175.84281 -461.25873,174.86978 C -464.23283,173.42831 -464.95542,172.60861 -464.96645,170.66367 C -464.97473,169.20406 -464.41315,168.17672 -463.16661,167.37104 C -461.46001,166.26801 -458.97749,166.15151 -456.83355,167.0738 L -456.29019,167.30754 L -456.34739,168.47659 C -456.46971,170.97657 -456.50627,171.23965 -456.73142,171.23965 C -456.88241,171.23965 -456.96902,171.11449 -457.0547,170.77243 C -457.43241,169.2645 -458.05903,168.15404 -458.81428,167.65424 C -459.39943,167.26702 -460.56338,167.16239 -461.15628,167.44373 C -462.01814,167.85271 -462.55417,168.68712 -462.55033,169.61374 C -462.5449,170.91918 -461.79442,171.71264 -459.50576,172.83267 C -456.99567,174.06106 -456.24765,174.65108 -455.70135,175.83356 C -455.33543,176.62558 -455.3629,178.10596 -455.75935,178.9592 C -456.28811,180.09726 -457.36113,180.89332 -458.90592,181.29361 C -459.90375,181.55218 -461.62475,181.50595 -462.77639,181.18965 z M -449.12898,181.23192 C -449.57593,181.11192 -450.29325,180.87871 -450.72302,180.71367 L -451.50444,180.41361 L -451.53411,178.08026 C -451.56287,175.81754 -451.55718,175.74692 -451.34596,175.74692 C -451.18184,175.74692 -451.09854,175.86209 -451.00803,176.21413 C -450.51833,178.11891 -450.04647,179.10865 -449.26447,179.87125 C -447.80448,181.29501 -445.46356,181.0201 -444.67782,179.33262 C -444.16472,178.23068 -444.42127,177.01346 -445.33067,176.23505 C -445.57825,176.02313 -446.65812,175.40344 -447.73038,174.85796 C -450.63168,173.38202 -451.32106,172.64238 -451.42602,170.89281 C -451.51693,169.37757 -450.92432,168.19803 -449.66233,167.38236 C -447.92808,166.26147 -445.47417,166.14727 -443.28592,167.08563 L -442.76274,167.30997 L -442.82329,168.69766 C -442.91808,170.87029 -442.97063,171.23968 -443.1849,171.23941 C -443.32065,171.23924 -443.45174,170.9785 -443.68129,170.25221 C -444.10302,168.9177 -444.67656,168.04922 -445.42454,167.61252 C -445.95188,167.30462 -446.08246,167.27525 -446.78722,167.30576 C -447.4184,167.33309 -447.65347,167.39695 -448.02303,167.64152 C -448.92772,168.24022 -449.31802,169.27985 -449.02756,170.31726 C -448.76915,171.2402 -448.04673,171.83376 -445.85185,172.92647 C -443.3409,174.17654 -442.81372,174.57901 -442.23778,175.68555 C -441.98578,176.1697 -441.94782,176.37667 -441.94429,177.28599 C -441.9407,178.21028 -441.97538,178.40193 -442.24599,178.95297 C -442.81143,180.1044 -443.75132,180.80892 -445.29136,181.23568 C -446.38152,181.53778 -447.99574,181.5362 -449.12898,181.23192 z M -588.04167,181.23813 C -588.76723,181.19383 -589.59536,181.08298 -589.88195,180.99181 C -591.376,180.5165 -592.81295,179.15829 -594.23746,176.87498 C -594.9287,175.76701 -596.04457,173.76212 -595.99389,173.71919 C -595.97353,173.70194 -595.68479,173.59926 -595.35224,173.49102 C -593.77963,172.97914 -593.14124,172.15616 -593.13527,170.63297 C -593.13138,169.64244 -593.37908,169.03734 -594.02757,168.45315 C -594.72941,167.82089 -595.89221,167.39583 -596.92686,167.39328 L -597.4571,167.39198 L -597.41514,172.91613 C -597.36862,179.04041 -597.35511,179.16404 -596.65285,179.88859 C -596.26606,180.28766 -595.65862,180.51614 -594.64921,180.64226 C -594.14612,180.70512 -594.03304,180.75727 -594.03304,180.92645 C -594.03304,181.12593 -594.19482,181.13365 -598.37541,181.13365 C -602.56146,181.13365 -602.71778,181.12617 -602.71778,180.92572 C -602.71778,180.75772 -602.56703,180.68373 -601.93315,180.54057 C -600.9426,180.31688 -600.46736,180.0238 -600.1584,179.44609 C -599.91683,178.99434 -599.91448,178.9423 -599.91448,174.04295 L -599.91448,169.09595 L -600.18931,168.54812 C -600.51524,167.89846 -600.84949,167.68369 -601.95923,167.4109 C -602.61992,167.2485 -602.77274,167.17115 -602.77274,166.99914 C -602.77274,166.79367 -602.64637,166.78741 -598.54031,166.78935 C -593.86797,166.79157 -593.51473,166.83111 -592.08903,167.51153 C -590.74445,168.15325 -590.1911,168.98281 -590.18886,170.36018 C -590.18651,171.80311 -590.88474,172.79128 -592.45173,173.56271 L -593.1443,173.90366 L -592.88152,174.42222 C -592.05891,176.04555 -589.94793,178.58911 -588.58678,179.59699 C -587.97123,180.05277 -587.15708,180.48443 -586.53009,180.68743 C -586.2039,180.79303 -586.11784,180.87648 -586.11784,181.0872 C -586.11784,181.30865 -586.16876,181.35059 -586.42015,181.33609 C -586.58643,181.32652 -587.31611,181.28243 -588.04167,181.23813 z M -485.63874,181.24395 C -486.33408,181.20257 -487.17739,181.08815 -487.51276,180.98971 C -489.30811,180.46265 -490.99585,178.64318 -493.00933,175.06412 L -493.76934,173.71315 L -493.19443,173.53909 C -491.63008,173.06548 -490.91546,172.32203 -490.74976,170.99581 C -490.50416,169.03002 -491.87239,167.70214 -494.45762,167.39732 L -495.09302,167.32239 L -495.08597,171.56214 C -495.0821,173.89399 -495.04173,176.49717 -494.99625,177.34695 C -494.86744,179.75364 -494.53658,180.22207 -492.72387,180.5643 C -491.96949,180.70672 -491.79501,180.77666 -491.79501,180.93665 C -491.79501,181.12262 -492.03208,181.13365 -496.02745,181.13365 C -500.07738,181.13365 -500.25989,181.12484 -500.25989,180.92957 C -500.25989,180.76943 -500.1034,180.6869 -499.5329,180.54611 C -497.87205,180.13625 -497.65301,179.75208 -497.50691,176.99279 C -497.44507,175.82492 -497.44075,173.82494 -497.49622,172.04579 C -497.58452,169.21404 -497.603,169.0317 -497.85277,168.52793 C -498.15803,167.91219 -498.69678,167.58259 -499.73029,167.37925 C -500.30088,167.267 -500.36982,167.22449 -500.36982,166.98484 L -500.36982,166.71622 L -496.16486,166.76224 C -491.54243,166.81283 -491.07913,166.86786 -489.76124,167.52281 C -488.98084,167.91065 -488.45641,168.38146 -488.13142,168.98601 C -487.80499,169.5932 -487.79313,171.09036 -488.10964,171.73435 C -488.41571,172.35712 -489.20605,173.10352 -490.0086,173.52775 C -490.38649,173.7275 -490.69484,173.94987 -490.69381,174.02191 C -490.69071,174.23988 -489.47748,176.11687 -488.72396,177.0695 C -487.8571,178.16541 -486.41724,179.52495 -485.60638,180.01319 C -485.27422,180.21319 -484.70039,180.47997 -484.3312,180.60602 C -483.76414,180.79965 -483.65995,180.87545 -483.65995,181.09438 C -483.65995,181.38567 -483.48276,181.37227 -485.63874,181.24395 z M -668.56786,180.92288 C -668.56786,180.75871 -668.44517,180.68582 -668.0127,180.59308 C -666.89394,180.35314 -666.22994,179.83738 -665.98711,179.01969 C -665.64465,177.8665 -665.41746,173.64626 -665.5518,170.9338 L -665.63195,169.31596 L -666.33975,168.58279 C -667.03963,167.85785 -667.5798,167.54857 -668.56769,167.30717 C -668.79028,167.25277 -668.96733,167.13508 -668.98799,167.02775 C -669.02063,166.85833 -668.81519,166.84231 -666.61037,166.84231 L -664.19704,166.84231 L -663.41719,167.81892 C -662.46452,169.01197 -661.55473,170.00169 -659.33486,172.25995 C -658.39691,173.21413 -656.98638,174.66266 -656.20035,175.47892 C -655.41433,176.29518 -654.73411,176.96148 -654.68876,176.9596 C -654.56466,176.95445 -654.58972,171.64458 -654.71982,170.3767 C -654.84517,169.15527 -655.03241,168.58903 -655.46131,168.13434 C -655.83476,167.73844 -656.73336,167.41038 -657.68721,167.32174 C -658.33534,167.2615 -658.45398,167.21889 -658.45398,167.04639 C -658.45398,166.85152 -658.28291,166.84231 -654.66129,166.84231 C -651.05116,166.84231 -650.86858,166.85205 -650.86858,167.04468 C -650.86858,167.20001 -651.00755,167.27815 -651.4664,167.38084 C -652.18237,167.54107 -652.73844,167.89257 -652.94042,168.31259 C -653.39947,169.26723 -653.67387,173.745 -653.55262,178.30287 L -653.47732,181.13365 L -653.86186,181.13365 C -654.21083,181.13365 -654.35204,181.01925 -655.38828,179.89704 C -656.01631,179.21691 -657.6927,177.47134 -659.11359,176.01801 C -660.53448,174.56468 -662.28878,172.7466 -663.01204,171.97782 C -663.7353,171.20905 -664.39846,170.58005 -664.48573,170.58005 C -664.62226,170.58005 -664.63362,171.05218 -664.56716,173.9605 C -664.48283,177.65037 -664.39121,178.61671 -664.0651,179.25594 C -663.63908,180.091 -663.1097,180.36968 -661.50464,180.60386 C -660.79486,180.70742 -660.65265,180.76201 -660.65265,180.9309 C -660.65265,181.12418 -660.83738,181.13365 -664.61026,181.13365 C -668.43755,181.13365 -668.56786,181.1267 -668.56786,180.92288 z M -648.01032,180.91587 C -648.01032,180.77837 -647.91915,180.6794 -647.76297,180.64734 C -645.71722,180.22749 -645.36963,179.91952 -645.13987,178.32312 C -644.96368,177.09902 -644.96014,170.62401 -645.13516,169.70059 C -645.30516,168.8036 -645.45778,168.39312 -645.73761,168.08018 C -645.98269,167.80611 -646.82923,167.45928 -647.5431,167.34048 C -647.90276,167.28062 -648.01032,167.21433 -648.01032,167.05252 C -648.01032,166.84921 -647.87302,166.84231 -643.83285,166.84231 C -639.90208,166.84231 -639.65538,166.85386 -639.65538,167.03783 C -639.65538,167.18758 -639.83405,167.27937 -640.41858,167.42995 C -641.34182,167.66778 -641.9826,168.10872 -642.31829,168.73719 C -642.56749,169.20376 -642.56859,169.2265 -642.56343,173.76812 C -642.55892,177.73529 -642.53388,178.41128 -642.37137,178.9508 C -642.0833,179.90723 -641.3828,180.39596 -639.9577,180.63478 C -639.64549,180.68711 -639.54545,180.75602 -639.54545,180.91877 C -639.54545,181.12827 -639.65145,181.13365 -643.77789,181.13365 C -647.92346,181.13365 -648.01032,181.12918 -648.01032,180.91587 z M -619.09785,180.92437 C -619.09785,180.76146 -618.99112,180.69548 -618.63063,180.63548 C -617.91932,180.51711 -617.07127,180.17047 -616.82089,179.89576 C -616.29047,179.31384 -616.13293,177.8813 -616.13495,173.65818 C -616.13717,168.96894 -616.28593,168.27964 -617.41975,167.70483 C -617.7363,167.54435 -618.24337,167.37893 -618.54657,167.33724 C -618.98899,167.27639 -619.09785,167.22004 -619.09785,167.05186 C -619.09785,166.84824 -618.92332,166.84231 -612.92876,166.84231 L -606.75966,166.84231 L -606.82595,167.08967 C -606.86241,167.2257 -606.89291,168.09143 -606.89374,169.0135 L -606.89524,170.68999 L -607.17352,170.68999 C -607.32658,170.68999 -607.46793,170.62815 -607.48765,170.55256 C -607.76689,169.48177 -607.97891,169.05272 -608.48795,168.52825 C -609.26113,167.73166 -609.84366,167.57194 -612.00714,167.56339 L -613.65615,167.55688 L -613.68551,170.3327 L -613.71489,173.10851 L -612.47625,173.1063 C -610.98273,173.10364 -609.88677,172.95909 -609.66293,172.73525 C -609.57213,172.64444 -609.38909,172.23369 -609.25618,171.82245 C -609.0673,171.23803 -608.96317,171.06708 -608.77938,171.03961 C -608.55042,171.0054 -608.54426,171.03858 -608.54465,172.30385 C -608.54487,173.0185 -608.57729,174.30817 -608.61671,175.16976 C -608.68005,176.55423 -608.7105,176.73632 -608.87866,176.73632 C -609.02126,176.73632 -609.08847,176.60609 -609.14686,176.21671 C -609.26967,175.39778 -609.58724,174.88236 -610.11724,174.64174 C -610.50053,174.46772 -610.84305,174.43214 -612.15416,174.43012 L -613.73032,174.42772 L -613.69324,176.70884 C -613.64888,179.43664 -613.57244,179.69238 -612.66674,180.14274 C -612.18984,180.37987 -611.97729,180.41473 -611.06115,180.40605 C -610.10887,180.39703 -609.92747,180.36021 -609.21312,180.03095 C -607.98837,179.46641 -607.05102,178.31958 -606.4529,176.65387 C -606.27005,176.14465 -606.15307,175.96678 -606.00104,175.96678 C -605.88822,175.96678 -605.79591,176.02862 -605.79593,176.1042 C -605.79599,176.55025 -606.48457,179.65852 -606.76399,180.47406 L -606.97116,181.07868 L -613.03451,181.10709 C -618.95083,181.13482 -619.09785,181.13039 -619.09785,180.92437 z M -570.83711,180.91587 C -570.83711,180.76693 -570.74155,180.67811 -570.53478,180.63484 C -569.05307,180.32478 -568.53036,180.03418 -568.26603,179.37356 C -567.95184,178.58833 -567.84384,176.76931 -567.89729,173.16348 C -567.95072,169.55844 -568.04043,168.84694 -568.5278,168.16248 C -568.74808,167.85314 -569.62975,167.46559 -570.42485,167.32861 C -570.73064,167.27591 -570.83711,167.20396 -570.83711,167.04995 C -570.83711,166.85004 -570.68176,166.84231 -566.65964,166.84231 C -562.67582,166.84231 -562.48216,166.8517 -562.48216,167.04468 C -562.48216,167.20147 -562.62452,167.27869 -563.11428,167.38749 C -564.29536,167.6499 -565.04198,168.22487 -565.35627,169.114 C -565.55494,169.67601 -565.5532,177.15806 -565.35412,178.38375 C -565.12483,179.7955 -564.6982,180.23153 -563.23952,180.54498 C -562.54033,180.69523 -562.37223,180.77035 -562.37223,180.93251 C -562.37223,181.12393 -562.57683,181.13365 -566.60467,181.13365 C -570.75024,181.13365 -570.83711,181.12918 -570.83711,180.91587 z M -557.09543,180.92601 C -557.09543,180.77226 -556.98844,180.69956 -556.68317,180.64585 C -555.85648,180.50038 -554.9255,180.13131 -554.64392,179.8374 C -554.47466,179.66074 -554.27584,179.2427 -554.16174,178.82362 C -553.98934,178.19045 -553.96728,177.53721 -553.96494,172.99858 L -553.96233,167.88668 L -555.39147,167.92138 C -557.20212,167.96535 -557.84525,168.13409 -558.30076,168.68468 C -558.64794,169.10433 -559.03369,170.15305 -559.14955,170.9923 C -559.19832,171.34559 -559.26244,171.45951 -559.41249,171.45951 C -559.52163,171.45951 -559.64367,171.40652 -559.68372,171.34173 C -559.74854,171.23684 -559.58867,168.47822 -559.45165,167.33702 L -559.39883,166.89728 L -552.71309,166.89728 L -546.02735,166.89728 L -545.89113,168.87608 C -545.81619,169.96443 -545.72772,170.97008 -545.69453,171.11088 C -545.64122,171.33701 -545.66947,171.36268 -545.93631,171.33075 C -546.21205,171.29777 -546.2559,171.22569 -546.43807,170.50573 C -546.80381,169.06043 -547.32876,168.36387 -548.24419,168.10915 C -548.72629,167.97502 -550.29314,167.87712 -551.18651,167.92534 L -551.48883,167.94164 L -551.48883,172.86845 C -551.48883,179.68633 -551.43101,179.93651 -549.74328,180.41995 C -549.46384,180.49998 -549.02495,180.59873 -548.76798,180.63936 C -548.40697,180.69645 -548.30076,180.76102 -548.30076,180.92344 C -548.30076,181.12693 -548.44143,181.13365 -552.69809,181.13365 C -556.93577,181.13365 -557.09543,181.12611 -557.09543,180.92601 z M -539.94583,180.92601 C -539.94583,180.77226 -539.83886,180.69958 -539.53358,180.6459 C -538.12987,180.39911 -537.32586,179.92608 -537.00218,179.15656 C -536.89991,178.91346 -536.81878,178.23326 -536.78346,177.32309 L -536.72732,175.87611 L -537.19867,175.0145 C -538.581,172.48764 -540.91757,168.96493 -541.72221,168.19462 C -542.14594,167.78897 -542.87451,167.44691 -543.54614,167.33828 C -543.90657,167.28 -544.01336,167.21467 -544.01336,167.05252 C -544.01336,166.84972 -543.88364,166.84231 -540.33059,166.84231 C -536.80642,166.84231 -536.64783,166.85117 -536.64783,167.04789 C -536.64783,167.1985 -536.78353,167.29146 -537.15534,167.39557 C -537.43445,167.47371 -537.80548,167.65768 -537.97983,167.80439 C -538.60887,168.33369 -538.38204,168.9016 -536.28177,172.05568 C -534.70443,174.42449 -535.0048,174.38901 -533.91792,172.3349 C -533.09223,170.77441 -532.45782,169.15099 -532.43411,168.53785 C -532.41221,167.9723 -532.63316,167.6938 -533.30832,167.43595 C -533.63885,167.30973 -533.78956,167.188 -533.78956,167.04724 C -533.78956,166.85245 -533.64551,166.84231 -530.87632,166.84231 C -528.12309,166.84231 -527.96309,166.8534 -527.96309,167.04415 C -527.96309,167.19789 -528.12542,167.29113 -528.64423,167.43537 C -529.49966,167.6732 -530.23006,168.20454 -530.86783,169.05296 C -531.43121,169.80243 -532.5622,171.82875 -533.5883,173.92706 L -534.28426,175.35025 L -534.28426,176.95022 C -534.28426,178.75645 -534.12926,179.3817 -533.56351,179.85775 C -533.19909,180.16438 -532.30785,180.52073 -531.61838,180.63548 C -531.25872,180.69534 -531.15116,180.76163 -531.15116,180.92344 C -531.15116,181.12693 -531.29183,181.13365 -535.5485,181.13365 C -539.78618,181.13365 -539.94583,181.12611 -539.94583,180.92601 z M -516.53002,180.92344 C -516.53002,180.76163 -516.42246,180.69534 -516.0628,180.63548 C -515.33588,180.5145 -514.50268,180.16879 -514.22459,179.87279 C -513.71568,179.33108 -513.64427,178.72964 -513.58997,174.52774 C -513.51067,168.38892 -513.6693,167.8845 -515.80677,167.47904 C -516.43547,167.35977 -516.53002,167.31041 -516.53002,167.10145 C -516.53002,166.88318 -516.45672,166.85422 -515.733,166.78666 C -515.29465,166.74574 -513.40242,166.73288 -511.52806,166.75809 C -508.25793,166.80207 -508.07566,166.8158 -507.02079,167.09757 C -505.06055,167.62118 -503.92716,168.34011 -503.40269,169.39263 C -502.873,170.45556 -503.06562,172.26033 -503.81336,173.2407 C -504.56081,174.22068 -506.01572,174.91146 -507.92132,175.19114 C -509.1731,175.37487 -509.38435,175.354 -509.38435,175.04665 C -509.38435,174.81457 -509.3093,174.77156 -508.69728,174.65277 C -506.73651,174.27222 -506.08032,173.54528 -505.99806,171.6625 C -505.96312,170.86259 -505.99725,170.46412 -506.13671,170.04426 C -506.36701,169.35086 -507.09412,168.52599 -507.82628,168.1275 C -508.50538,167.75788 -509.89439,167.39198 -510.61837,167.39198 L -511.15761,167.39198 L -511.1177,173.02607 C -511.08167,178.11423 -511.05872,178.7106 -510.88085,179.18081 C -510.55641,180.03858 -509.87754,180.43428 -508.36747,180.64575 C -507.95489,180.70353 -507.84529,180.7624 -507.84529,180.92626 C -507.84529,181.12599 -508.0057,181.13365 -512.18765,181.13365 C -516.3902,181.13365 -516.53002,181.12688 -516.53002,180.92344 z M -482.12088,180.93343 C -482.12088,180.77019 -481.95497,180.6957 -481.25753,180.54583 C -480.09205,180.29538 -479.66688,179.92652 -479.4008,178.93498 C -479.23357,178.31185 -479.20894,177.65771 -479.20833,173.82309 C -479.2076,169.1281 -479.22779,168.9241 -479.76471,168.20447 C -480.0772,167.78564 -480.60538,167.52507 -481.46652,167.36492 C -481.98199,167.26907 -482.12088,167.20069 -482.12088,167.04277 C -482.12088,166.85117 -481.8492,166.84231 -475.97213,166.84231 L -469.82339,166.84231 L -469.8798,168.6837 C -469.91081,169.69646 -469.95387,170.58307 -469.97547,170.65396 C -469.99708,170.72484 -470.11339,170.75705 -470.23395,170.72552 C -470.39224,170.68413 -470.51495,170.46506 -470.67559,169.93704 C -471.24125,168.0779 -472.33827,167.50961 -475.37215,167.50412 L -476.59358,167.50192 L -476.66291,168.07907 C -476.70103,168.3965 -476.73266,169.66537 -476.73319,170.89878 L -476.73414,173.14134 L -474.98499,173.08065 C -473.85392,173.04141 -473.1257,172.96717 -472.92417,172.87058 C -472.58161,172.70639 -472.28285,172.17983 -472.17033,171.54197 C -472.10995,171.19962 -472.05265,171.12972 -471.83245,171.12972 L -471.56728,171.12972 L -471.56728,173.09193 C -471.56728,175.79842 -471.65305,176.73632 -471.90053,176.73632 C -472.04889,176.73632 -472.10793,176.60566 -472.16462,176.15191 C -472.24876,175.4785 -472.52607,174.9647 -472.95848,174.68104 C -473.21039,174.51578 -473.55069,174.47648 -474.99749,174.44554 L -476.73414,174.40839 L -476.73414,176.33648 C -476.73414,178.29785 -476.62209,179.22502 -476.32917,179.68731 C -475.77312,180.56489 -473.20413,180.67342 -471.84473,179.87676 C -470.88242,179.31281 -469.86594,177.91522 -469.42074,176.54394 C -469.28248,176.11808 -469.17904,175.96678 -469.02615,175.96678 C -468.89378,175.96678 -468.81894,176.04444 -468.81894,176.18184 C -468.81894,176.56412 -469.46584,179.51641 -469.72331,180.30915 L -469.97324,181.07868 L -476.04706,181.10709 C -481.87964,181.13438 -482.12088,181.12748 -482.12088,180.93343 z M -674.17446,150.49736 C -679.64392,149.93405 -684.03532,147.98415 -687.35955,144.64283 C -688.83194,143.16287 -689.80106,141.79947 -690.76377,139.85368 C -692.29026,136.76835 -692.8849,134.09393 -692.89029,130.28948 C -692.89349,128.02597 -692.73161,126.62398 -692.24301,124.68385 C -690.52835,117.87541 -685.19463,112.75119 -677.95688,110.9589 C -675.76551,110.41626 -674.16187,110.22879 -671.70028,110.22754 C -661.84629,110.22248 -654.40546,115.10651 -651.68735,123.36367 C -650.21319,127.84193 -650.17902,133.01808 -651.59556,137.27024 C -653.24028,142.20735 -656.66373,146.02284 -661.55554,148.37079 C -663.83629,149.46549 -666.40337,150.18411 -669.01618,150.45928 C -669.98483,150.56129 -673.31497,150.58587 -674.17446,150.49736 z M -668.96678,148.64838 C -663.85434,147.8778 -660.59419,144.75178 -658.95462,139.04812 C -657.92099,135.45242 -657.64048,130.50949 -658.2392,126.44181 C -658.89987,121.95332 -660.27401,118.8677 -662.81371,116.16979 C -664.62214,114.24871 -666.8031,112.93847 -669.17249,112.34971 C -670.23711,112.08516 -670.59215,112.04925 -672.14069,112.04947 C -675.97259,112.05004 -678.62185,113.10433 -681.06294,115.60017 C -684.19864,118.80618 -685.92913,125.02644 -685.50598,131.57078 C -685.11912,137.55383 -683.68412,141.30451 -680.52498,144.58964 C -677.33078,147.91123 -673.35011,149.30907 -668.96678,148.64838 z M -548.85043,150.50253 C -549.00159,150.48069 -549.57049,150.40901 -550.11466,150.34326 C -551.37753,150.19061 -553.46834,149.69602 -554.70759,149.25679 C -560.45034,147.2213 -564.70179,142.96388 -566.58708,137.3606 C -567.33585,135.13522 -567.64904,133.06601 -567.64904,130.34444 C -567.64904,127.69823 -567.34999,125.65195 -566.65298,123.52857 C -564.27446,116.28276 -557.86364,111.40785 -549.45506,110.45097 C -548.16591,110.30426 -544.84402,110.30511 -543.48685,110.45249 C -536.22671,111.2409 -530.45332,114.98201 -527.53844,120.78691 C -525.38011,125.08515 -524.75348,130.3928 -525.81949,135.34641 C -526.33524,137.74299 -527.44472,140.28961 -528.8129,142.21724 C -529.62577,143.3625 -531.59836,145.40861 -532.63526,146.18208 C -536.63319,149.1643 -541.25334,150.60087 -546.70606,150.5572 C -547.7343,150.54897 -548.69927,150.52437 -548.85043,150.50253 z M -544.12329,148.69979 C -537.83515,148.03967 -534.14893,143.67022 -532.95069,135.45635 C -532.67412,133.56051 -532.66893,128.51022 -532.94165,126.66168 C -533.4326,123.33387 -534.39345,120.57712 -535.79624,118.47163 C -539.05097,113.58654 -543.62078,111.38251 -548.9054,112.14905 C -551.58206,112.53731 -553.54532,113.44815 -555.34055,115.13458 C -558.01324,117.64529 -559.64989,121.58565 -560.17719,126.7792 C -560.35309,128.51158 -560.26011,132.83706 -560.01313,134.41198 C -559.64385,136.76673 -559.10237,138.60941 -558.24587,140.4259 C -557.48831,142.03259 -556.73741,143.10816 -555.40526,144.49475 C -552.19877,147.83228 -548.60811,149.17061 -544.12329,148.69979 z M -648.12025,148.6601 C -648.12025,148.01007 -648.04628,147.93378 -647.41606,147.93378 C -647.22005,147.93378 -646.59659,147.85423 -646.03063,147.75701 C -642.0478,147.07285 -639.91818,145.53605 -636.83046,141.11791 C -634.71916,138.0969 -630.16201,131.5989 -630.08226,131.49573 C -630.03362,131.4328 -630.14611,131.14072 -630.3363,130.83613 C -630.52403,130.53547 -632.03474,128.06332 -633.69341,125.34247 C -635.35209,122.62162 -637.00861,119.97498 -637.37457,119.46104 C -639.46976,116.51866 -641.66073,114.62557 -644.16265,113.59586 C -644.88107,113.30019 -646.65143,112.86503 -647.13596,112.86503 C -647.83168,112.86503 -647.90039,112.79975 -647.90039,112.13871 L -647.90039,111.54584 L -641.68768,111.54584 L -635.47498,111.54584 L -634.45683,113.11239 C -633.89684,113.97399 -631.78266,117.26341 -629.75865,120.42221 C -627.73463,123.58101 -626.02165,126.16582 -625.95202,126.16622 C -625.80151,126.16711 -623.90789,123.34002 -622.58624,121.14125 C -620.43094,117.55559 -619.70224,115.46749 -620.242,114.42372 C -620.64155,113.65107 -621.89999,113.03353 -623.35111,112.89801 L -624.04485,112.83323 L -624.04485,112.18954 L -624.04485,111.54584 L -616.17913,111.54584 L -608.3134,111.54584 L -608.34637,112.17795 L -608.37934,112.81007 L -608.81907,112.84101 C -610.45055,112.95582 -612.57939,113.55217 -614.05318,114.30724 C -615.06412,114.82518 -616.81339,116.15833 -617.4452,116.89235 C -618.52565,118.1476 -619.4421,119.42675 -621.56962,122.6491 C -624.86887,127.64614 -624.93204,127.74566 -624.88423,127.87107 C -624.79816,128.09686 -616.41022,141.09955 -615.77147,141.99738 C -613.44012,145.27429 -611.29036,146.99315 -608.59921,147.732 C -607.81863,147.94631 -607.46016,147.97276 -605.41114,147.9673 C -602.79348,147.96034 -601.28769,147.81806 -599.77773,147.43503 C -597.15058,146.76859 -595.59753,145.4271 -594.82888,143.16029 L -594.52774,142.27221 L -594.49553,130.23451 C -594.47317,121.88124 -594.5006,117.91211 -594.58515,117.26668 C -594.94705,114.50402 -596.02084,113.46326 -599.11975,112.87155 C -599.73823,112.75347 -600.42979,112.62724 -600.65652,112.59105 C -601.06136,112.52645 -601.06877,112.51646 -601.06877,112.03555 L -601.06877,111.54584 L -586.52494,111.54584 L -571.98111,111.54584 L -571.73555,115.42099 C -571.6005,117.55232 -571.49151,119.36068 -571.49335,119.43956 C -571.49574,119.54145 -571.645,119.5733 -572.00857,119.5495 L -572.52046,119.516 L -572.70157,118.74296 C -573.41804,115.68483 -575.54481,114.01425 -579.4119,113.47197 C -580.26861,113.35184 -581.92528,113.27297 -584.55129,113.2273 L -588.42644,113.15991 L -588.42644,120.82726 L -588.42644,128.49459 L -584.27645,128.43435 C -580.61195,128.38115 -578.34092,128.25743 -577.73542,128.07802 C -577.55442,128.0244 -577.54304,128.28496 -577.54304,132.48073 L -577.54304,136.94044 L -577.97101,136.94044 C -578.45991,136.94044 -578.53244,136.83402 -578.53244,136.11661 C -578.53244,134.85746 -579.13306,133.00423 -579.76215,132.32233 C -580.81482,131.18129 -582.31869,130.86717 -586.2103,130.97549 L -588.44198,131.03761 L -588.39683,137.42443 C -588.34879,144.22113 -588.31647,144.65774 -587.78428,145.70091 C -587.46664,146.32357 -586.68864,146.98947 -585.96055,147.26187 C -585.42835,147.46101 -583.28406,147.93424 -581.69302,148.20371 C -581.28878,148.27217 -581.28077,148.28306 -581.28077,148.76326 L -581.28077,149.25298 L -599.90021,149.25298 L -618.51963,149.25298 L -623.62256,141.26307 C -626.42916,136.86862 -628.77304,133.25917 -628.83118,133.24206 C -628.94035,133.20994 -629.60085,134.06424 -631.33242,136.4772 C -633.69642,139.77144 -635.64908,143.17717 -635.91884,144.47659 C -636.2455,146.05016 -635.1865,147.16883 -632.5372,148.04874 L -631.74018,148.31344 L -631.74018,148.78321 L -631.74018,149.25298 L -639.93021,149.25298 L -648.12025,149.25298 L -648.12025,148.6601 z M -516.27325,144.22353 C -516.23332,141.45733 -516.14632,135.80538 -516.07993,131.66364 C -515.94212,123.06749 -515.99074,116.72739 -516.20089,115.88821 C -516.5509,114.49053 -517.23742,113.56893 -518.16365,113.25328 C -518.44419,113.15769 -519.18524,113.04817 -519.81042,113.00991 L -520.94713,112.94034 L -520.87199,112.43547 C -520.83067,112.15779 -520.78912,111.92322 -520.77966,111.91419 C -520.72315,111.8603 -513.38808,111.63847 -509.76911,111.58119 C -505.36005,111.51141 -503.36595,111.59471 -501.08438,111.94398 C -495.90553,112.73679 -492.70369,114.778 -491.62121,117.97694 C -491.21934,119.16452 -491.15227,121.16699 -491.47105,122.46054 C -492.33714,125.97503 -495.36743,128.82543 -499.7926,130.28804 L -500.69948,130.58779 L -500.37957,130.9883 C -500.20361,131.20857 -499.25834,132.304 -498.27898,133.42257 C -490.11257,142.74978 -484.73719,147.24185 -480.91462,147.9335 C -480.12206,148.07692 -478.90843,148.0095 -477.61865,147.75041 C -475.33361,147.29141 -473.85439,145.91163 -473.27368,143.69754 C -472.90516,142.29251 -472.87414,141.06727 -472.91467,129.51994 C -472.95151,119.024 -472.97085,118.01929 -473.15053,117.26237 C -473.55978,115.53849 -474.30494,114.54942 -475.69007,113.89163 C -476.50377,113.50521 -478.24377,113.01911 -479.22686,112.90357 L -479.81228,112.83476 L -479.81228,112.31678 L -479.81228,111.79879 L -477.53116,111.72848 C -472.20704,111.56438 -462.70004,111.51898 -460.68388,111.64801 C -452.05258,112.20043 -446.27008,114.27836 -442.51459,118.17715 C -439.44722,121.36156 -438.01023,125.57692 -438.18116,130.8891 C -438.24672,132.92629 -438.41122,133.90287 -438.97068,135.57609 C -441.09045,141.91584 -447.34506,147.10552 -454.77265,148.68755 C -456.97151,149.15589 -457.32377,149.16637 -471.39528,149.18249 C -483.77266,149.19669 -485.02084,149.18176 -486.05987,149.00719 C -488.73727,148.55735 -491.09885,147.43662 -494.72912,144.89304 C -497.40393,143.01893 -499.59243,140.93005 -502.19718,137.76494 C -503.35813,136.35424 -507.60068,130.75668 -507.69475,130.51154 C -507.74627,130.3773 -507.66171,130.34444 -507.26471,130.34444 C -506.53621,130.34444 -504.97271,129.85452 -503.84887,129.27408 C -501.5716,128.0979 -499.49898,126.10397 -498.60365,124.22798 C -498.08315,123.13736 -497.90365,122.0743 -498.04217,120.90272 C -498.30679,118.66469 -499.29266,116.92716 -501.07049,115.56545 C -502.98202,114.10134 -505.54131,113.2534 -508.46178,113.11661 L -509.79285,113.05427 L -509.86271,116.6699 C -510.01871,124.74119 -510.07287,142.36544 -509.94486,143.40181 C -509.57788,146.37282 -508.51908,147.21969 -504.49232,147.76293 C -502.51589,148.02957 -502.67841,147.95005 -502.67841,148.65044 L -502.67841,149.25298 L -509.51214,149.25298 L -516.34586,149.25298 L -516.27325,144.22353 z M -457.66071,147.31964 C -451.55339,146.3302 -447.2921,142.00137 -445.88639,135.35876 C -445.50315,133.54776 -445.39388,129.93029 -445.66646,128.07744 C -446.08582,125.22674 -446.90739,122.99459 -448.30954,120.89631 C -450.9692,116.91614 -455.22375,114.43074 -460.84878,113.57118 C -462.34099,113.34316 -465.51568,113.309 -466.43089,113.51112 L -467.066,113.6514 L -467.03196,128.67637 C -467.00129,142.22266 -466.98021,143.75858 -466.81788,144.28296 C -466.29813,145.96183 -465.43273,146.82666 -463.86922,147.22965 C -462.40306,147.60754 -459.68125,147.647 -457.66071,147.31964 z"
       id="path2396" />
  </g>
</svg>
