<?xml version="1.0" encoding="utf-8"?>
<!-- Generator: Adobe Illustrator 16.0.3, SVG Export Plug-In . SVG Version: 6.00 Build 0)  -->
<!DOCTYPE svg PUBLIC "-//W3C//DTD SVG 1.1//EN" "http://www.w3.org/Graphics/SVG/1.1/DTD/svg11.dtd">
<svg version="1.1" id="Layer_1" xmlns="http://www.w3.org/2000/svg" xmlns:xlink="http://www.w3.org/1999/xlink" x="0px" y="0px"
	 width="1271.818px" height="163.168px" viewBox="0 0 1271.818 163.168" enable-background="new 0 0 1271.818 163.168"
	 xml:space="preserve">
<path d="M940.646,67.735c12.334,0,24.679-0.317,36.993,0.152c5.073,0.193,6.399-1.777,7.255-6.191
	c4.182-21.586,14.812-39.001,33.865-50.702c12.58-7.727,26.497-10.51,41.024-10.611c19.665-0.138,39.332-0.075,58.998-0.027
	c6.39,0.016,7.974,1.689,8.032,7.954c0.148,15.848,0.617,14.74-14.567,14.69c-17.166-0.056-34.333-0.024-51.499-0.01
	c-28.456,0.021-48.052,17.237-52.016,45.594c-2.725,19.48-0.793,38.086,11.847,53.993c12.449,15.666,29.498,19.948,48.414,16.312
	c17.086-3.281,26.569-15.309,31.772-31.143c1.028-3.127,1.646-6.438,2.041-9.715c0.551-4.561,2.724-6.953,7.444-6.863
	c3.832,0.074,7.669-0.063,11.499,0.051c3.945,0.121,6.406,2.039,6.03,6.24c-2.823,31.492-22.896,60.687-58.45,64.601
	c-17.946,1.976-34.904-0.587-50.457-9.896c-21.124-12.642-31.45-32.312-34.922-55.994c-0.621-4.23-1.609-5.983-6.293-5.94
	c-25.331,0.231-50.664,0.11-75.998,0.108c-2.67,0-5.651-0.524-4.88,3.914c2.952,16.986,9.958,31.324,25.804,39.979
	c7.172,3.918,14.896,5.687,23.005,5.733c13.166,0.076,26.333-0.004,39.499,0.033c5.946,0.018,7.581,1.736,7.666,7.783
	c0.21,15.059,0.209,15.189-14.971,15.02c-13.32-0.148-26.668,0.828-39.961-0.692c-29.938-3.424-50.936-19.081-61.016-47.383
	c-10.578-29.701-8.434-58.772,10.063-85.184c12.485-17.829,30.457-26.726,52.019-28.562c15.309-1.304,30.646-0.43,45.97-0.6
	c6.284-0.07,7.804,1.705,7.898,8.094c0.237,15.894-0.06,14.415-14.303,14.569c-13.313,0.144-26.646-0.857-39.945,0.784
	c-21.895,2.701-36.56,19.834-40.799,40.317c-0.797,3.852,1.46,3.604,3.937,3.6C914.648,67.721,927.648,67.734,940.646,67.735z"/>
<path d="M626.164,144.327c-11.416,9.207-22.852,14.939-35.979,17.084c-9.596,1.565-19.237,1.547-28.895,1.373
	c-3.727-0.066-5.823-2.142-6.01-5.938c-0.074-1.497-0.059-3-0.06-4.498c-0.002-46.827-0.004-93.654,0-140.481
	c0.001-9.599,0.756-10.279,10.109-10.423c16.43-0.251,14.737,0.654,14.74,14.758c0.004,39.328,0.075,78.656-0.099,117.983
	c-0.02,4.558,1.104,5.603,5.622,4.961c17.656-2.507,33.034-17.237,38.208-37.099c1.689-6.484,2.316-13.069,2.299-19.766
	c-0.062-24.331-0.031-48.661-0.02-72.991c0.004-8.04,1.238-9.26,9.234-9.273c3.166-0.005,6.332,0.044,9.498-0.003
	c4.393-0.063,6.387,2.243,6.506,6.443c0.053,1.832,0.049,3.666,0.041,5.499c-0.18,40.319-0.367,80.639-0.539,120.959
	c-0.032,7.389,0.386,7.721,8.113,5.752c19.553-4.984,30.672-18.201,35.877-37.072c1.735-6.297,2.25-12.739,2.229-19.275
	c-0.079-24.496-0.041-48.993-0.025-73.489c0.006-7.379,1.424-8.788,8.697-8.814c3-0.011,6-0.033,8.999,0.006
	c5.923,0.078,7.438,1.477,7.464,7.403c0.069,16.33,0.151,32.663-0.008,48.992c-0.137,13.971,0.803,27.966-1.322,41.897
	c-5.106,33.478-27.27,56.86-60.44,63.208c-9.363,1.792-18.914,1.504-28.406,1.238c-3.748-0.104-5.724-2.42-5.813-6.148
	C626.095,152.982,626.164,149.348,626.164,144.327z"/>
<path d="M303.424,46.935c-1.551,2.507-1.024,4.538-1.026,6.455c-0.038,33.316-0.021,66.633-0.033,99.951
	c-0.003,8.324-1.193,9.426-9.539,9.51c-16.388,0.166-15.32,0.361-15.312-15.154c0.024-45.812,0.005-91.622,0.01-137.433
	c0.001-9.143,0.791-9.964,10.049-9.911c17.213,0.1,12.45-1.857,21.872,11.673c22.99,33.02,45.645,66.273,68.453,99.423
	c1.201,1.745,2.567,3.379,3.965,5.205c1.624-1.816,0.912-3.715,0.915-5.406c0.051-34.149,0.036-68.299,0.04-102.449
	c0-7.235,1.147-8.398,8.355-8.45c3.332-0.022,6.664-0.022,9.995,0.036c4.009,0.071,6.147,2.148,6.322,6.167
	c0.064,1.497,0.044,2.998,0.044,4.497c0.001,46.977,0.002,93.953,0,140.93c0,9.929-0.986,10.165-10.71,11.056
	c-9.835,0.901-15.558-2.66-21.054-10.904c-22.78-34.168-46.393-67.781-69.705-101.594C305.322,49.453,304.515,48.417,303.424,46.935
	z"/>
<path fill="#808080" d="M89.642,0.343c10.328,0,20.656-0.057,30.984,0.021c6.11,0.047,7.66,1.654,7.787,7.747
	c0.36,17.259-0.822,14.846-14.497,14.87c-16.991,0.03-33.983-0.049-50.974,0.037c-6.174,0.031-12.296,0.809-18.139,2.935
	c-6.544,2.381-11.708,6.347-13.89,13.292c-3.466,11.03,0.015,18.793,10.943,22.538c13.369,4.582,27.373,6.853,41.073,10.241
	c8.417,2.081,16.63,4.663,24.415,8.566c30.075,15.079,26.691,53.831,4.718,69.848c-11.001,8.02-23.665,11.104-36.972,11.951
	c-19.082,1.217-37.728-0.314-54.063-11.547c-16.039-11.03-21.536-27.223-20.99-45.963c0.109-3.758,2.424-5.717,6.185-5.768
	c4.164-0.059,8.331-0.098,12.493,0.006c3.977,0.1,5.938,2.129,6.135,6.254c1,20.896,10.964,31.205,31.855,33.779
	c8.867,1.094,17.581,1.325,26.225-1.139c6.514-1.857,12.413-4.801,16.903-10.074c7.133-8.376,5.845-19.305-3.097-25.691
	c-7.811-5.58-17.141-6.957-26.126-9.283c-13.658-3.533-27.704-5.58-40.938-10.74c-33.159-12.934-29.456-52.34-9.463-68.606
	c12.125-9.865,26.31-13.03,41.449-13.229c9.327-0.122,18.656-0.021,27.985-0.021C89.642,0.357,89.642,0.35,89.642,0.343z"/>
<path d="M1271.816,81.729c0,24.324,0.007,48.648-0.004,72.973c-0.004,6.686-1.441,8.088-8.244,8.139
	c-2.5,0.019-4.998,0.01-7.497,0.002c-7.712-0.023-9.104-1.362-9.108-8.926c-0.016-19.658-0.167-39.32,0.109-58.976
	c0.066-4.797-1.163-6.134-6.039-6.073c-22.654,0.273-45.316,0.277-67.971-0.002c-4.992-0.062-6.056,1.534-5.996,6.203
	c0.242,19.656,0.123,39.316,0.088,58.977c-0.014,7.576-1.23,8.726-8.672,8.799c-17.485,0.17-16.105,0.535-16.1-15.889
	c0.015-45.65,0.002-91.298,0.008-136.948c0.002-8.747,0.934-9.605,9.805-9.676c15.75-0.122,15.037-0.514,14.984,14.996
	c-0.052,15.328,0.104,30.657-0.09,45.981c-0.052,3.981,1.293,5.076,5.157,5.051c23.322-0.152,46.647-0.152,69.972-0.008
	c3.709,0.022,4.854-1.067,4.815-4.808c-0.177-17.492-0.092-34.986-0.069-52.479c0.01-7.222,1.502-8.666,8.849-8.719
	c2.999-0.021,6.001-0.092,8.995,0.025c5.406,0.21,6.994,1.884,6.998,7.386C1271.828,32.414,1271.816,57.071,1271.816,81.729z"/>
<path d="M490.764,90.348c-14,0.001-28,0.105-41.997-0.07c-3.663-0.047-4.605,1.131-4.028,4.631
	c4.27,25.883,21.333,45.062,49.839,45.078c12.833,0.008,25.666-0.025,38.498,0.016c5.716,0.019,7.434,1.762,7.584,7.414
	c0.411,15.424,0.41,15.545-15.112,15.385c-13.155-0.135-26.335,0.812-39.463-0.645c-32.166-3.57-54.98-22.502-63.529-53.664
	c-7.322-26.697-5.145-52.646,10.188-76.243c14.089-21.685,35.279-31.123,60.624-31.771c13.323-0.34,26.664-0.169,39.995-0.096
	c5.447,0.03,7.212,1.838,7.274,7.239c0.192,16.404,0.734,15.337-14.96,15.432c-13.312,0.08-26.656-0.959-39.939,0.856
	c-22.157,3.029-36.56,20.877-40.417,41.321c-0.575,3.046,1.465,2.447,2.935,2.462c7.499,0.074,14.999,0.041,22.499,0.042
	c20.499,0.002,40.999-0.02,61.498,0.014c7.127,0.011,8.363,1.323,8.412,8.528c0.097,14.069,0.097,14.069-13.9,14.069
	C514.763,90.346,502.763,90.346,490.764,90.348z"/>
<path fill="#808080" d="M212.817,90.331c-13.998,0-27.998,0.113-41.993-0.074c-3.841-0.051-5.159,1.004-5.118,5.035
	c0.199,19.662,0.1,39.328,0.083,58.992c-0.006,7-1.517,8.51-8.473,8.553c-3.499,0.022-7.003,0.1-10.497-0.057
	c-3.722-0.166-5.985-2.188-5.926-6.004c0.461-29.643-2.097-59.406,1.186-88.907c3.893-34.987,26.544-60.884,61.658-66.378
	c13.378-2.093,26.939-1.009,40.424-1.148c4.166-0.043,8.337-0.095,12.496,0.079c3.917,0.164,6.105,2.201,6.124,6.337
	c0.075,17.44,1.077,16.199-15.09,16.294c-12.979,0.076-25.978-0.854-38.943,0.751c-22.317,2.761-36.651,19.898-40.98,40.157
	c-0.893,4.179,1.713,3.78,4.296,3.778c26.83-0.012,53.659-0.009,80.489-0.002c9.634,0.003,10.223,0.6,10.229,10.164
	c0.006,12.427,0.006,12.427-12.47,12.427C237.814,90.329,225.315,90.329,212.817,90.331z"/>
<path d="M808.507,0.333c21.49,0.001,42.982-0.016,64.474,0.01c7.41,0.009,8.769,1.43,8.846,8.643
	c0.158,14.818,0.416,14.102-13.721,14.021c-14.659-0.083-29.325,0.188-43.979-0.14c-4.607-0.104-5.416,1.42-5.4,5.633
	c0.149,41.816,0.093,83.632,0.088,125.449c0,7.674-1.223,8.868-9.045,8.891c-2.834,0.008-5.666,0.049-8.498-0.016
	c-5.409-0.121-7.226-1.855-7.293-7.203c-0.088-6.996-0.024-13.994-0.024-20.99c-0.001-35.319-0.082-70.639,0.101-105.958
	c0.023-4.557-1.187-5.884-5.793-5.795c-15.154,0.294-30.318,0.13-45.479,0.1c-5.863-0.011-6.92-1.125-6.961-7.048
	c-0.021-2.665-0.017-5.331-0.002-7.996c0.033-6.127,1.408-7.561,7.715-7.58c16.326-0.051,32.654-0.02,48.979-0.021
	C797.844,0.332,803.175,0.332,808.507,0.333z"/>
</svg>
