<?xml version="1.0" encoding="utf-8"?>
<!-- Generator: Adobe Illustrator 16.0.3, SVG Export Plug-In . SVG Version: 6.00 Build 0)  -->
<!DOCTYPE svg PUBLIC "-//W3C//DTD SVG 1.1//EN" "http://www.w3.org/Graphics/SVG/1.1/DTD/svg11.dtd">
<svg version="1.1" id="Layer_1" xmlns="http://www.w3.org/2000/svg" xmlns:xlink="http://www.w3.org/1999/xlink" x="0px" y="0px"
	 width="1271.819px" height="163.169px" viewBox="0 0 1271.819 163.169" enable-background="new 0 0 1271.819 163.169"
	 xml:space="preserve">
<path fill-rule="evenodd" clip-rule="evenodd" fill="#808080" d="M940.647,67.735c12.333,0,24.678-0.317,36.993,0.153
	c5.073,0.193,6.399-1.778,7.254-6.192c4.182-21.586,14.812-39.001,33.866-50.702c12.58-7.727,26.497-10.51,41.024-10.611
	c19.665-0.138,39.332-0.075,58.998-0.027c6.39,0.016,7.974,1.689,8.033,7.954c0.148,15.848,0.617,14.74-14.568,14.69
	c-17.166-0.056-34.333-0.024-51.499-0.01c-28.456,0.022-48.052,17.237-52.016,45.594c-2.724,19.48-0.793,38.087,11.847,53.992
	c12.449,15.667,29.498,19.949,48.414,16.314c17.086-3.282,26.569-15.31,31.773-31.143c1.028-3.128,1.645-6.439,2.041-9.716
	c0.551-4.559,2.723-6.953,7.444-6.862c3.832,0.074,7.669-0.064,11.499,0.051c3.945,0.12,6.406,2.039,6.03,6.239
	c-2.823,31.492-22.896,60.687-58.45,64.601c-17.946,1.976-34.904-0.587-50.457-9.895c-21.124-12.642-31.45-32.313-34.922-55.994
	c-0.621-4.231-1.609-5.984-6.293-5.941c-25.331,0.232-50.664,0.11-75.998,0.109c-2.67,0-5.651-0.525-4.88,3.913
	c2.952,16.987,9.958,31.324,25.804,39.98c7.172,3.918,14.896,5.686,23.005,5.733c13.166,0.077,26.333-0.004,39.499,0.034
	c5.946,0.017,7.581,1.736,7.666,7.782c0.21,15.06,0.209,15.19-14.971,15.021c-13.32-0.15-26.668,0.827-39.961-0.693
	c-29.938-3.424-50.936-19.081-61.016-47.383c-10.578-29.701-8.433-58.772,10.064-85.184c12.485-17.829,30.457-26.726,52.019-28.562
	c15.308-1.304,30.646-0.43,45.969-0.6c6.285-0.07,7.804,1.705,7.899,8.094c0.237,15.894-0.06,14.415-14.303,14.569
	c-13.314,0.144-26.646-0.857-39.945,0.784c-21.895,2.701-36.56,19.834-40.799,40.317c-0.797,3.852,1.46,3.604,3.936,3.6
	C914.648,67.721,927.648,67.734,940.647,67.735z"/>
<path fill-rule="evenodd" clip-rule="evenodd" fill="#808080" d="M626.164,144.326c-11.416,9.208-22.851,14.94-35.978,17.084
	c-9.596,1.566-19.238,1.548-28.895,1.374c-3.726-0.067-5.823-2.142-6.01-5.938c-0.074-1.497-0.058-2.999-0.059-4.498
	c-0.002-46.827-0.004-93.654,0-140.481c0.001-9.599,0.756-10.279,10.109-10.423c16.43-0.251,14.738,0.655,14.74,14.758
	c0.004,39.328,0.075,78.656-0.098,117.983c-0.02,4.558,1.103,5.603,5.622,4.961c17.656-2.507,33.034-17.237,38.208-37.098
	c1.689-6.485,2.316-13.07,2.299-19.767c-0.062-24.33-0.031-48.66-0.02-72.99c0.004-8.04,1.238-9.26,9.234-9.273
	c3.166-0.005,6.333,0.044,9.499-0.003c4.392-0.064,6.386,2.243,6.505,6.443c0.053,1.832,0.049,3.666,0.041,5.499
	c-0.179,40.319-0.367,80.64-0.539,120.96c-0.032,7.388,0.386,7.721,8.114,5.751c19.552-4.984,30.671-18.2,35.876-37.071
	c1.736-6.297,2.25-12.74,2.229-19.276c-0.079-24.496-0.041-48.993-0.025-73.489c0.005-7.379,1.424-8.788,8.697-8.814
	c3-0.011,6-0.033,8.999,0.006c5.923,0.078,7.439,1.477,7.464,7.403c0.069,16.33,0.151,32.663-0.008,48.992
	c-0.137,13.971,0.803,27.967-1.322,41.897c-5.107,33.478-27.27,56.86-60.441,63.208c-9.363,1.792-18.914,1.504-28.406,1.239
	c-3.748-0.104-5.723-2.42-5.814-6.149C626.095,152.982,626.164,149.348,626.164,144.326z"/>
<path fill-rule="evenodd" clip-rule="evenodd" fill="#808080" d="M303.424,46.935c-1.551,2.507-1.024,4.538-1.026,6.455
	c-0.038,33.316-0.021,66.633-0.033,99.95c-0.003,8.324-1.193,9.426-9.539,9.51c-16.388,0.166-15.32,0.362-15.312-15.155
	c0.024-45.811,0.005-91.621,0.01-137.432c0.001-9.143,0.791-9.964,10.049-9.911c17.213,0.1,12.45-1.857,21.872,11.673
	c22.991,33.02,45.645,66.273,68.453,99.422c1.202,1.746,2.568,3.38,3.965,5.206c1.624-1.816,0.912-3.715,0.915-5.406
	c0.051-34.149,0.036-68.3,0.04-102.449c0-7.235,1.148-8.398,8.356-8.45c3.332-0.023,6.664-0.023,9.995,0.036
	c4.009,0.071,6.147,2.148,6.322,6.167c0.065,1.497,0.044,2.998,0.044,4.497c0.001,46.977,0.002,93.953,0,140.93
	c0,9.928-0.986,10.165-10.71,11.056c-9.835,0.901-15.557-2.661-21.054-10.905c-22.78-34.168-46.392-67.781-69.705-101.594
	C305.322,49.453,304.515,48.417,303.424,46.935z"/>
<path fill-rule="evenodd" clip-rule="evenodd" fill="#FFFFFF" d="M89.642,0.343c10.328,0,20.656-0.057,30.984,0.021
	c6.11,0.047,7.66,1.654,7.787,7.747c0.36,17.259-0.822,14.846-14.497,14.87c-16.991,0.03-33.983-0.049-50.974,0.037
	c-6.174,0.031-12.296,0.809-18.139,2.935c-6.544,2.381-11.708,6.347-13.89,13.292c-3.466,11.03,0.015,18.793,10.943,22.538
	c13.369,4.582,27.373,6.853,41.073,10.241c8.417,2.081,16.63,4.663,24.415,8.566c30.075,15.079,26.691,53.831,4.718,69.848
	c-11.001,8.019-23.665,11.103-36.972,11.951c-19.082,1.217-37.728-0.315-54.063-11.547C4.988,139.812-0.509,123.619,0.037,104.879
	c0.109-3.757,2.424-5.717,6.185-5.768c4.164-0.057,8.331-0.097,12.493,0.007c3.977,0.099,5.938,2.128,6.135,6.254
	c1,20.896,10.964,31.204,31.855,33.779c8.867,1.094,17.581,1.325,26.225-1.139c6.514-1.857,12.413-4.801,16.903-10.074
	c7.133-8.376,5.845-19.305-3.097-25.692c-7.811-5.58-17.141-6.957-26.126-9.282c-13.658-3.533-27.704-5.58-40.938-10.741
	c-33.159-12.934-29.456-52.34-9.463-68.606c12.125-9.865,26.31-13.03,41.449-13.229c9.327-0.122,18.656-0.022,27.985-0.022
	C89.642,0.357,89.642,0.35,89.642,0.343z"/>
<path fill-rule="evenodd" clip-rule="evenodd" fill="#808080" d="M1271.816,81.729c0,24.324,0.007,48.648-0.004,72.973
	c-0.004,6.686-1.441,8.087-8.244,8.138c-2.499,0.019-4.998,0.01-7.497,0.002c-7.712-0.023-9.103-1.362-9.108-8.925
	c-0.016-19.659-0.167-39.32,0.109-58.976c0.066-4.797-1.163-6.134-6.039-6.074c-22.654,0.274-45.316,0.278-67.971-0.002
	c-4.992-0.062-6.055,1.535-5.996,6.204c0.242,19.656,0.123,39.317,0.088,58.976c-0.014,7.576-1.23,8.726-8.672,8.799
	c-17.485,0.171-16.105,0.536-16.1-15.889c0.015-45.649,0.002-91.298,0.009-136.947c0.001-8.747,0.933-9.606,9.804-9.676
	c15.75-0.122,15.037-0.514,14.984,14.996c-0.051,15.328,0.105,30.657-0.09,45.981c-0.051,3.981,1.294,5.076,5.158,5.051
	c23.322-0.152,46.648-0.152,69.972-0.008c3.709,0.022,4.853-1.067,4.815-4.808c-0.177-17.492-0.092-34.986-0.07-52.479
	c0.01-7.222,1.503-8.666,8.849-8.719c2.999-0.021,6.001-0.092,8.996,0.025c5.406,0.21,6.993,1.884,6.997,7.386
	C1271.828,32.414,1271.816,57.071,1271.816,81.729z"/>
<path fill-rule="evenodd" clip-rule="evenodd" fill="#808080" d="M490.764,90.348c-14,0.001-28,0.106-41.997-0.07
	c-3.664-0.047-4.606,1.131-4.029,4.631c4.27,25.883,21.333,45.062,49.839,45.078c12.833,0.007,25.666-0.025,38.498,0.016
	c5.716,0.018,7.434,1.762,7.584,7.413c0.411,15.424,0.41,15.546-15.112,15.386c-13.155-0.135-26.335,0.812-39.463-0.646
	c-32.166-3.57-54.98-22.501-63.529-53.664c-7.323-26.696-5.145-52.645,10.187-76.242c14.089-21.685,35.279-31.123,60.624-31.771
	c13.324-0.34,26.664-0.169,39.995-0.096c5.447,0.03,7.212,1.838,7.275,7.239c0.192,16.404,0.734,15.337-14.96,15.432
	c-13.312,0.08-26.657-0.959-39.94,0.856c-22.157,3.029-36.559,20.877-40.417,41.321c-0.575,3.046,1.465,2.447,2.935,2.462
	c7.499,0.074,14.999,0.041,22.499,0.042c20.499,0.002,40.999-0.019,61.498,0.014c7.127,0.011,8.363,1.323,8.412,8.528
	c0.097,14.069,0.097,14.069-13.9,14.069C514.763,90.347,502.763,90.347,490.764,90.348z"/>
<path fill-rule="evenodd" clip-rule="evenodd" fill="#FFFFFF" d="M212.817,90.33c-13.998,0.001-27.998,0.113-41.993-0.073
	c-3.841-0.051-5.159,1.004-5.118,5.035c0.199,19.662,0.1,39.327,0.083,58.991c-0.006,7.001-1.517,8.511-8.473,8.554
	c-3.499,0.022-7.003,0.099-10.497-0.057c-3.722-0.166-5.985-2.188-5.926-6.004c0.461-29.643-2.097-59.406,1.186-88.907
	c3.893-34.987,26.544-60.884,61.658-66.378c13.378-2.093,26.94-1.009,40.424-1.148c4.166-0.043,8.337-0.095,12.496,0.079
	c3.917,0.164,6.106,2.201,6.124,6.337c0.075,17.44,1.077,16.199-15.09,16.294c-12.979,0.076-25.978-0.854-38.943,0.751
	c-22.317,2.761-36.651,19.898-40.98,40.157c-0.893,4.179,1.713,3.78,4.296,3.778c26.83-0.012,53.659-0.009,80.489-0.002
	c9.634,0.003,10.223,0.6,10.228,10.164c0.006,12.427,0.006,12.427-12.47,12.427C237.814,90.329,225.315,90.329,212.817,90.33z"/>
<path fill-rule="evenodd" clip-rule="evenodd" fill="#808080" d="M808.507,0.333c21.49,0.001,42.982-0.016,64.474,0.01
	c7.409,0.009,8.768,1.43,8.845,8.642c0.158,14.819,0.416,14.102-13.72,14.021c-14.66-0.083-29.326,0.188-43.979-0.14
	c-4.607-0.103-5.416,1.42-5.401,5.633c0.15,41.816,0.093,83.633,0.089,125.449c0,7.674-1.223,8.868-9.046,8.89
	c-2.833,0.008-5.666,0.05-8.497-0.015c-5.41-0.122-7.226-1.855-7.293-7.203c-0.088-6.996-0.025-13.994-0.025-20.991
	c-0.001-35.319-0.082-70.639,0.101-105.957c0.023-4.557-1.187-5.884-5.793-5.795c-15.155,0.294-30.319,0.13-45.479,0.1
	c-5.863-0.011-6.92-1.125-6.961-7.048c-0.02-2.665-0.016-5.331-0.002-7.996c0.033-6.127,1.409-7.561,7.715-7.58
	c16.326-0.051,32.654-0.02,48.98-0.021C797.844,0.332,803.175,0.332,808.507,0.333z"/>
</svg>
