<?xml version="1.0" encoding="utf-8"?>
<!-- Generator: Adobe Illustrator 16.0.3, SVG Export Plug-In . SVG Version: 6.00 Build 0)  -->
<!DOCTYPE svg PUBLIC "-//W3C//DTD SVG 1.1//EN" "http://www.w3.org/Graphics/SVG/1.1/DTD/svg11.dtd">
<svg version="1.1" id="Layer_1" xmlns="http://www.w3.org/2000/svg" xmlns:xlink="http://www.w3.org/1999/xlink" x="0px" y="0px"
	 width="466.115px" height="157.197px" viewBox="0 0 466.115 157.197" enable-background="new 0 0 466.115 157.197"
	 xml:space="preserve">
<path fill="#FFFFFF" d="M199.237,57.673c-0.39-6.66-1.86-13.02-4.84-19c-4.67-9.39-11.98-15.78-22.05-18.72
	c-7.65-2.23-15.44-2.25-23.19-0.24c-7.25,1.87-13.33,5.67-18.1,11.45c-6.85,8.31-9.61,18.11-9.8,28.67
	c-0.19,10.07-0.04,20.15-0.04,30.23c0,10.278-0.01,20.56,0,30.84c0,0.33-0.2,0.8,0.19,0.97c0.43,0.18,0.59-0.31,0.81-0.56
	c6.05-6.762,12.08-13.53,18.11-20.302c0.46-0.52,0.83-0.67,1.53-0.318c7.78,3.909,16.02,4.87,24.57,3.8
	c4.93-0.63,9.61-2.09,13.87-4.63c10.05-5.99,15.45-15.2,17.9-26.351C199.348,68.303,199.558,63.003,199.237,57.673z M179.167,66.223
	c-0.66,5.12-2.25,9.851-5.52,13.931c-4.43,5.5-11.8,7.68-18.55,5.55c-5.73-1.81-9.24-5.88-11.53-11.19
	c-1.75-4.09-2.53-8.38-2.47-11.52c0.02-7.6,1.27-13.54,4.93-18.771c3.72-5.33,8.95-7.91,15.41-7.5c6.48,0.41,11.25,3.8,14.32,9.45
	C179.167,52.443,180.087,59.173,179.167,66.223z"/>
<path fill="#FFFFFF" d="M113.357,41.333c-1.77-8.42-6.79-13.87-14.79-16.74c-4.17-1.5-8.5-2.17-12.89-2.47
	c-5.3-0.35-10.6-0.42-15.87,0.39c-5.74,0.88-11.18,2.53-16.05,5.82c-6.85,4.64-10.04,11.24-10.47,19.34
	c-0.04,0.66-0.17,1.34,0.93,1.38c5.75,0.18,11.49,0.44,17.23,0.65c1.89,0.07,1.81,0.02,1.95-1.85c0.41-5.86,2.77-8.59,7.81-9.75
	c4.76-1.1,9.59-1.02,14.38-0.03c2.37,0.5,4.57,1.42,6.26,3.27c1.94,2.13,2.32,4.71,2.28,7.47c-0.02,1.01-0.29,1.45-1.29,1.74
	c-3.65,1.05-7.35,1.86-11.06,2.62c-4.34,0.88-8.67,1.79-13.02,2.61c-4.4,0.82-8.77,1.67-12.93,3.39c-4.81,2-9.04,4.81-12.14,9.03
	c-4.66,6.33-5.48,13.5-3.65,20.88c2.45,9.91,9.4,15.39,18.89,18.09c3.64,1.04,7.36,1.352,11.13,1.42c6.4,0.12,12.75-0.14,19-1.83
	c5.34-1.46,10.07-3.979,14.16-7.68c7.4-6.71,10.95-15.13,10.98-25.08c0.01-4.08,0-8.16,0-12.24v-7.189
	C114.188,50.143,114.268,45.713,113.357,41.333z M93.868,79.453c-1.04,4.819-4.29,7.79-8.51,9.86c-3.75,1.84-7.77,2.63-11.91,2.709
	c-3.23,0.069-6.29-0.659-9.07-2.489c-5.83-3.84-5.85-13.75,1.98-16.93c2.79-1.13,5.71-1.72,8.62-2.39
	c5.93-1.37,12.04-2.01,17.75-4.29c1.37-0.55,1.37-0.56,1.37,0.97v5.81C93.958,74.673,94.388,77.093,93.868,79.453z"/>
<path fill="#FFFFFF" d="M336.277,62.903c-0.109-4.09-0.601-8.11-1.67-12.061c-2.04-7.57-5.711-14.14-11.561-19.47
	c-4.62-4.2-9.979-7-15.96-8.6c-6.431-1.72-12.98-2.05-19.591-1.24c-6.431,0.79-12.46,2.75-17.869,6.34
	c-9.03,5.99-14.21,14.59-16.58,24.99c-1.16,5.08-1.38,10.26-1.051,15.479c0.36,5.67,1.569,11.12,3.91,16.301
	c3.479,7.738,8.83,13.8,16.33,17.879c6.79,3.699,14.079,5.199,22.55,5.149c5.551,0.11,11.69-0.938,17.551-3.399
	c8.851-3.721,15.29-9.979,19.439-18.601C335.247,78.483,336.508,70.853,336.277,62.903z M309.497,82.272
	c-3.329,4.051-7.659,6.279-12.84,6.891c-8.59,1.021-16.439-2.78-20.62-10.85c-2.029-3.93-2.989-8.12-3.149-12.53
	c-0.24-6.5,0.99-12.64,4.87-17.98c4.859-6.68,11.591-9.189,19.64-7.99c8.201,1.22,13.251,6.29,16.101,13.84
	c1.311,3.479,1.82,7.1,1.91,10.97C315.218,70.983,313.758,77.093,309.497,82.272z"/>
<path fill="#FFFFFF" d="M424.588,63.483c-0.141-9.18-2.271-17.78-7.471-25.45c-5.34-7.85-12.739-12.87-21.88-15.3
	c-5.12-1.36-10.351-1.8-15.66-1.51c-5.3,0.29-10.431,1.26-15.34,3.33c-11.88,5.03-19.029,14.12-22.41,26.36
	c-1.39,4.99-1.8,10.11-1.64,15.29c0.229,7.83,1.97,15.24,5.859,22.08c3.43,6.01,8.141,10.72,14.18,14.09
	c6.891,3.84,14.351,5.36,22.851,5.3c6.301,0.2,13.721-1.51,19.08-4.08c10.811-5.18,17.399-13.84,20.659-25.18
	C424.218,73.553,424.668,68.543,424.588,63.483z M399.497,79.913c-3.38,5.38-8.199,8.48-14.489,9.25c-9.029,1.1-17-3.1-21.09-11.64
	c-2.051-4.28-2.96-8.86-2.83-13.56c0.18-6.86,1.949-13.28,6.779-18.44c3.04-3.24,6.87-5.08,11.29-5.76
	c10.04-1.56,19.239,4.03,22.61,13.76c0.579,1.66,1.09,3.35,1.369,5.08c0.32,1.92,0.641,3.86,0.561,5.83
	C403.527,69.923,402.468,75.173,399.497,79.913z"/>
<path fill="#FFFFFF" d="M452.117,0c-0.434,0.413-0.676,0.607-0.874,0.841c-6.155,7.244-12.299,14.499-18.474,21.728
	c-0.51,0.597-0.704,1.176-0.704,1.938c0.015,25.558,0.019,51.114-0.012,76.672c-0.001,1.062,0.3,1.363,1.354,1.354
	c5.719-0.045,11.438-0.021,17.157-0.021c1.556,0,1.554-0.003,1.554-1.589c-0.001-19.078,0.009-38.156-0.027-57.234
	c-0.002-1.125,0.317-1.419,1.414-1.401c3.838,0.063,7.679,0.002,11.519,0.045c0.828,0.009,1.099-0.205,1.093-1.06
	c-0.035-5.439-0.032-10.879-0.001-16.318c0.005-0.826-0.216-1.095-1.075-1.085c-3.919,0.047-7.839,0.002-11.758,0.037
	c-0.886,0.008-1.195-0.287-1.183-1.179c0.045-2.759,0.019-5.519,0.019-8.279C452.118,9.736,452.117,5.024,452.117,0z"/>
<path fill="#FFFFFF" d="M14.256,0.174c-0.087,0.046-0.174,0.092-0.261,0.138c0,0.312,0,0.623,0,0.935
	c0.002,7.119-0.012,14.238,0.023,21.357c0.004,0.989-0.293,1.322-1.301,1.309c-3.879-0.05-7.759,0.003-11.639-0.042
	C0.226,23.86-0.004,24.12,0,24.952C0.033,30.391,0.034,35.83,0,41.27c-0.005,0.846,0.247,1.075,1.085,1.064
	c3.799-0.045,7.6,0.026,11.398-0.05c1.197-0.024,1.548,0.272,1.545,1.518c-0.043,19.118-0.023,38.235-0.053,57.354
	c-0.002,1.032,0.248,1.387,1.33,1.379c5.799-0.049,11.599-0.047,17.397-0.002c1.048,0.009,1.357-0.283,1.356-1.351
	c-0.029-25.599-0.024-51.194-0.012-76.793c0-0.679-0.167-1.203-0.618-1.73c-4.931-5.77-9.833-11.562-14.749-17.343
	C17.216,3.594,15.731,1.888,14.256,0.174z"/>
<path fill="#FFFFFF" d="M207.437,79.571c0,7.357,0.018,14.718-0.022,22.076c-0.005,0.949,0.246,1.231,1.2,1.226
	c5.879-0.038,11.758-0.043,17.637,0.004c1.028,0.008,1.249-0.332,1.246-1.301c-0.031-12.118-0.014-24.236-0.026-36.354
	c-0.003-2.562,0.059-5.115,0.537-7.641c1.388-7.326,5.206-12.873,11.989-16.183c3.754-1.832,7.776-2.598,11.932-2.725
	c0.636-0.02,1.31,0.121,1.306-0.906c-0.022-5.639-0.021-11.278-0.006-16.917c0.002-0.721-0.306-1.015-0.991-1.035
	c-1.237-0.036-2.476-0.145-3.712-0.131c-5.727,0.066-11.356,0.721-16.854,2.476c-7.593,2.424-13.576,6.906-17.999,13.524
	c-4.54,6.793-6.017,14.454-6.201,22.412C207.306,65.251,207.437,72.413,207.437,79.571z"/>
<path fill="#808080" d="M327.634,146.92c-0.209-0.244-0.382-0.406-0.506-0.6c-2.058-3.187-4.139-6.358-6.153-9.571
	c-1.71-2.729-1.676-2.71-4.867-2.727c-0.988-0.004-1.188,0.336-1.182,1.252c0.038,6.078,0.005,12.156,0.032,18.234
	c0.006,1.144-0.521,2.628,0.252,3.34c0.752,0.693,2.22,0.115,3.366,0.224c0.845,0.08,1.099-0.247,1.09-1.082
	c-0.038-3.64-0.024-7.278-0.008-10.917c0.002-0.396-0.227-0.883,0.258-1.188c0.085,0.051,0.179,0.073,0.216,0.131
	c2.097,3.26,4.236,6.489,6.265,9.788c2.056,3.345,2.007,3.375,5.245,3.259c0.04-0.002,0.08-0.004,0.12,0
	c0.606,0.062,0.854-0.188,0.854-0.818c-0.012-7.118-0.012-14.236,0.007-21.354c0.001-0.63-0.226-0.863-0.837-0.848
	c-0.92,0.023-1.844,0.059-2.759-0.011c-0.912-0.07-1.152,0.274-1.141,1.163c0.048,3.438,0.025,6.878,0.015,10.316
	C327.898,145.933,328.045,146.385,327.634,146.92z"/>
<path fill="#808080" d="M194.574,144.007c0.509,0.012,0.646,0.316,0.812,0.577c2.16,3.354,4.441,6.642,6.427,10.096
	c1.066,1.855,2.264,2.688,4.424,2.438c1.065-0.122,1.323-0.399,1.315-1.407c-0.039-6.117-0.02-12.233-0.021-18.353
	c0-3.364,0-3.331-3.427-3.332c-0.95,0-1.24,0.292-1.227,1.237c0.049,3.639,0.025,7.276,0.017,10.914
	c-0.001,0.289,0.151,0.718-0.29,0.798c-0.303,0.055-0.432-0.287-0.584-0.522c-2.157-3.357-4.435-6.646-6.433-10.097
	c-1.026-1.771-2.15-2.588-4.243-2.368c-1.177,0.123-1.438,0.441-1.431,1.549c0.049,6.036,0.023,12.073,0.023,18.11
	c0,3.448,0.001,3.41,3.438,3.44c0.99,0.009,1.232-0.339,1.211-1.246c-0.048-1.998-0.015-3.997-0.016-5.997
	C194.574,147.904,194.574,145.963,194.574,144.007z"/>
<path fill="#808080" d="M231.527,141.223c-0.48-4.368-3.41-7.1-7.81-7.17c-2.56-0.028-5.12,0.03-7.68-0.02
	c-0.89-0.021-1.17,0.239-1.16,1.149c0.05,3.439,0.02,6.881,0.02,10.319c0,3.479,0.03,6.95-0.02,10.431
	c-0.01,0.899,0.25,1.189,1.16,1.149c1.52-0.07,3.04,0.01,4.56-0.03c1.9-0.05,3.82,0.221,5.7-0.449c2.76-0.979,4.53-2.859,5.03-5.721
	C231.888,147.692,231.888,144.453,231.527,141.223z M226.837,149.403c-0.46,2.438-1.99,3.648-4.48,3.479
	c-0.24-0.02-0.47-0.05-0.71-0.06c-2.21-0.07-2.21-0.07-2.21-2.24c0-3.71,0.03-7.43-0.02-11.14c-0.01-0.98,0.27-1.42,1.29-1.312
	c0.59,0.062,1.2,0,1.79,0.011c2.82,0.021,4.37,1.511,4.49,4.319c0.04,1,0,2,0,3C226.998,146.772,227.078,148.093,226.837,149.403z"
	/>
<path fill="#808080" d="M308.327,143.783c-0.159-1.851-0.04-3.761-0.931-5.48c-2.13-4.09-6.449-5.27-10.56-3.97
	c-3.189,1-5.12,3.32-5.359,6.65c-0.221,2.979-0.15,5.988-0.011,8.979c0.091,2.141,1.06,3.932,2.771,5.352
	c1.899,1.568,4.05,1.75,6.38,1.83c2.83,0.1,6.521-2.74,7.17-5.392c0.521-2.08,0.46-4.18,0.551-6.29
	C308.338,144.903,308.378,144.343,308.327,143.783z M303.407,150.063c-0.33,1.869-1.881,3.039-3.891,2.938
	c-1.84-0.09-3.199-1.39-3.369-3.25c-0.07-0.71-0.16-1.42-0.2-2.13c-0.029-0.72,0-1.439,0-2.16c-0.021-1.479-0.011-2.95,0.21-4.42
	c0.271-1.79,1.761-3.08,3.689-3.09c1.729,0,3.28,1.3,3.551,2.96C303.907,143.963,303.947,147.013,303.407,150.063z"/>
<path fill="#808080" d="M159.328,145.453c0-1.12-0.03-2.24,0.01-3.351c0.04-1.149-0.25-2.229-0.64-3.271
	c-1.311-3.5-5.04-5.45-9.17-4.91c-3.5,0.45-6.73,3.21-6.99,7.19c-0.17,2.55-0.12,5.1-0.09,7.648c0.02,1.631,0.24,3.28,1.22,4.69
	c1.88,2.729,4.49,3.69,7.79,3.72c3.32,0.021,7.17-3.04,7.66-6.35C159.377,149.033,159.348,147.243,159.328,145.453z
	 M154.558,149.903c-0.19,1.66-1.61,2.99-3.29,3.1c-2.03,0.141-3.52-0.88-3.94-2.71c-0.14-0.62-0.3-1.24-0.33-1.88
	c-0.06-0.99-0.02-1.99-0.02-2.62c-0.04-1.93-0.05-3.479,0.33-5.01c0.43-1.75,1.95-2.92,3.78-2.83c1.73,0.09,3.28,1.53,3.48,3.229
	C154.908,144.093,154.888,146.993,154.558,149.903z"/>
<path fill="#808080" d="M182.778,142.313c0-2.318-0.038-4.639,0.018-6.955c0.023-0.963-0.235-1.418-1.269-1.324
	c-0.753,0.066-1.524,0.078-2.275-0.002c-1-0.107-1.188,0.322-1.18,1.234c0.042,4.557,0.015,9.112,0.022,13.67
	c0.002,1.307-0.346,2.467-1.42,3.273c-1.311,0.986-2.813,0.946-4.215,0.37c-1.487-0.61-2.02-1.988-2.028-3.521
	c-0.025-4.597-0.03-9.192,0.011-13.789c0.008-0.902-0.168-1.349-1.175-1.239c-0.751,0.08-1.522,0.069-2.276,0.002
	c-1.027-0.093-1.283,0.352-1.274,1.319c0.041,4.597-0.005,9.193,0.031,13.791c0.013,1.702,0.438,3.344,1.487,4.717
	c1.865,2.438,4.375,3.281,7.437,3.287c4.288,0.009,8.106-3.365,8.105-8.119C182.778,146.791,182.778,144.553,182.778,142.313z"/>
<path fill="#808080" d="M255.697,156.083c-2.421-6.61-4.819-13.229-7.261-19.83c-0.819-2.229-0.859-2.17-3.25-2.229
	c-0.899-0.021-1.369,0.25-1.67,1.108c-2.449,6.851-4.93,13.69-7.399,20.54c-0.511,1.391-0.511,1.4,0.989,1.391
	c1.07-0.011,2.352,0.311,3.17-0.159c0.892-0.511,0.91-1.94,1.25-2.99c0.23-0.7,0.61-1.03,1.4-1c1.6,0.05,3.2,0.021,4.79,0.021
	c2.05,0,2.05,0,2.72,1.961c0.74,2.17,0.74,2.17,2.971,2.17c0.521,0,1.04-0.03,1.561,0.01
	C255.787,157.144,255.968,156.803,255.697,156.083z M247.638,148.983c-1.199-0.012-2.399-0.012-3.59,0
	c-0.49,0-0.83-0.19-0.641-0.711c0.811-2.239,1.449-4.529,2.58-7.029c0.82,2.52,1.51,4.71,2.25,6.87
	C248.468,148.783,248.298,148.993,247.638,148.983z"/>
<path fill="#808080" d="M121.985,145.492c0,2.678-0.029,5.356,0.014,8.035c0.018,1.142-0.524,2.633,0.26,3.333
	c0.757,0.677,2.224,0.107,3.371,0.214c0.863,0.079,1.091-0.279,1.076-1.097c-0.044-2.317,0.014-4.639-0.033-6.955
	c-0.018-0.867,0.224-1.225,1.144-1.188c1.597,0.063,3.198,0.021,4.797,0.021c2.939,0,2.901-0.002,2.945-2.996
	c0.014-0.945-0.243-1.26-1.205-1.23c-2.157,0.064-4.318-0.021-6.476,0.039c-0.964,0.027-1.276-0.309-1.205-1.246
	c0.072-0.955,0.071-1.922,0-2.877c-0.072-0.974,0.232-1.348,1.263-1.312c2.116,0.072,4.237,0.031,6.355,0.021
	c3.286-0.016,2.827,0.395,2.904-2.984c0.021-0.953-0.302-1.246-1.24-1.236c-4.277,0.039-8.556,0.039-12.833,0
	c-0.882-0.008-1.173,0.234-1.16,1.146C122.015,138.615,121.984,142.054,121.985,145.492z"/>
<path fill="#808080" d="M263.531,147.601c0,2.799,0.026,5.601-0.017,8.398c-0.013,0.83,0.229,1.159,1.086,1.079
	c0.754-0.069,1.525-0.078,2.277,0.002c1.07,0.112,1.37-0.306,1.36-1.354c-0.048-4.839-0.021-9.679-0.021-14.519
	c0-2.955,0-2.955,2.962-2.954c2.941,0,2.905,0,2.946-2.996c0.012-0.928-0.211-1.245-1.192-1.232
	c-4.119,0.055-8.238,0.021-12.358,0.021c-3.163,0-3.146-0.001-2.968,3.156c0.043,0.77,0.358,1.072,1.108,1.058
	c1.199-0.023,2.403,0.05,3.599-0.026c0.942-0.059,1.259,0.244,1.237,1.207C263.495,142.159,263.532,144.88,263.531,147.601z"/>
<path fill="#808080" d="M279.905,145.454c0,3.516,0.021,7.031-0.018,10.547c-0.01,0.845,0.267,1.141,1.1,1.076
	c0.795-0.061,1.604-0.08,2.395,0.003c1.044,0.108,1.252-0.338,1.246-1.294c-0.037-6.072-0.004-12.146-0.031-18.217
	c-0.006-1.137,0.522-2.629-0.27-3.32c-0.766-0.669-2.227-0.114-3.375-0.211c-0.867-0.072-1.074,0.292-1.064,1.109
	C279.928,138.582,279.904,142.019,279.905,145.454z"/>
<path fill="#FFFFFF" d="M199.237,57.673c-0.39-6.66-1.86-13.02-4.84-19c-4.67-9.39-11.98-15.78-22.05-18.72
	c-7.65-2.23-15.44-2.25-23.19-0.24c-7.25,1.87-13.33,5.67-18.1,11.45c-6.85,8.31-9.61,18.11-9.8,28.67
	c-0.19,10.07-0.04,20.15-0.04,30.23c0,10.278-0.01,20.56,0,30.84c0,0.33-0.2,0.8,0.19,0.97c0.43,0.18,0.59-0.31,0.81-0.56
	c6.05-6.762,12.08-13.53,18.11-20.302c0.46-0.52,0.83-0.67,1.53-0.318c7.78,3.909,16.02,4.87,24.57,3.8
	c4.93-0.63,9.61-2.09,13.87-4.63c10.05-5.99,15.45-15.2,17.9-26.351C199.348,68.303,199.558,63.003,199.237,57.673z M179.167,66.223
	c-0.66,5.12-2.25,9.851-5.52,13.931c-4.43,5.5-11.8,7.68-18.55,5.55c-5.73-1.81-9.24-5.88-11.53-11.19
	c-1.75-4.09-2.53-8.38-2.47-11.52c0.02-7.6,1.27-13.54,4.93-18.771c3.72-5.33,8.95-7.91,15.41-7.5c6.48,0.41,11.25,3.8,14.32,9.45
	C179.167,52.443,180.087,59.173,179.167,66.223z"/>
<path fill="#FFFFFF" d="M113.357,41.333c-1.77-8.42-6.79-13.87-14.79-16.74c-4.17-1.5-8.5-2.17-12.89-2.47
	c-5.3-0.35-10.6-0.42-15.87,0.39c-5.74,0.88-11.18,2.53-16.05,5.82c-6.85,4.64-10.04,11.24-10.47,19.34
	c-0.04,0.66-0.17,1.34,0.93,1.38c5.75,0.18,11.49,0.44,17.23,0.65c1.89,0.07,1.81,0.02,1.95-1.85c0.41-5.86,2.77-8.59,7.81-9.75
	c4.76-1.1,9.59-1.02,14.38-0.03c2.37,0.5,4.57,1.42,6.26,3.27c1.94,2.13,2.32,4.71,2.28,7.47c-0.02,1.01-0.29,1.45-1.29,1.74
	c-3.65,1.05-7.35,1.86-11.06,2.62c-4.34,0.88-8.67,1.79-13.02,2.61c-4.4,0.82-8.77,1.67-12.93,3.39c-4.81,2-9.04,4.81-12.14,9.03
	c-4.66,6.33-5.48,13.5-3.65,20.88c2.45,9.91,9.4,15.39,18.89,18.09c3.64,1.04,7.36,1.352,11.13,1.42c6.4,0.12,12.75-0.14,19-1.83
	c5.34-1.46,10.07-3.979,14.16-7.68c7.4-6.71,10.95-15.13,10.98-25.08c0.01-4.08,0-8.16,0-12.24v-7.189
	C114.188,50.143,114.268,45.713,113.357,41.333z M93.868,79.453c-1.04,4.819-4.29,7.79-8.51,9.86c-3.75,1.84-7.77,2.63-11.91,2.709
	c-3.23,0.069-6.29-0.659-9.07-2.489c-5.83-3.84-5.85-13.75,1.98-16.93c2.79-1.13,5.71-1.72,8.62-2.39
	c5.93-1.37,12.04-2.01,17.75-4.29c1.37-0.55,1.37-0.56,1.37,0.97v5.81C93.958,74.673,94.388,77.093,93.868,79.453z"/>
<path fill="#FFFFFF" d="M336.277,62.903c-0.109-4.09-0.601-8.11-1.67-12.061c-2.04-7.57-5.711-14.14-11.561-19.47
	c-4.62-4.2-9.979-7-15.96-8.6c-6.431-1.72-12.98-2.05-19.591-1.24c-6.431,0.79-12.46,2.75-17.869,6.34
	c-9.03,5.99-14.21,14.59-16.58,24.99c-1.16,5.08-1.38,10.26-1.051,15.479c0.36,5.67,1.569,11.12,3.91,16.301
	c3.479,7.738,8.83,13.8,16.33,17.879c6.79,3.699,14.079,5.199,22.55,5.149c5.551,0.11,11.69-0.938,17.551-3.399
	c8.851-3.721,15.29-9.979,19.439-18.601C335.247,78.483,336.508,70.853,336.277,62.903z M309.497,82.272
	c-3.329,4.051-7.659,6.279-12.84,6.891c-8.59,1.021-16.439-2.78-20.62-10.85c-2.029-3.93-2.989-8.12-3.149-12.53
	c-0.24-6.5,0.99-12.64,4.87-17.98c4.859-6.68,11.591-9.189,19.64-7.99c8.201,1.22,13.251,6.29,16.101,13.84
	c1.311,3.479,1.82,7.1,1.91,10.97C315.218,70.983,313.758,77.093,309.497,82.272z"/>
<path fill="#FFFFFF" d="M424.588,63.483c-0.141-9.18-2.271-17.78-7.471-25.45c-5.34-7.85-12.739-12.87-21.88-15.3
	c-5.12-1.36-10.351-1.8-15.66-1.51c-5.3,0.29-10.431,1.26-15.34,3.33c-11.88,5.03-19.029,14.12-22.41,26.36
	c-1.39,4.99-1.8,10.11-1.64,15.29c0.229,7.83,1.97,15.24,5.859,22.08c3.43,6.01,8.141,10.72,14.18,14.09
	c6.891,3.84,14.351,5.36,22.851,5.3c6.301,0.2,13.721-1.51,19.08-4.08c10.811-5.18,17.399-13.84,20.659-25.18
	C424.218,73.553,424.668,68.543,424.588,63.483z M399.497,79.913c-3.38,5.38-8.199,8.48-14.489,9.25c-9.029,1.1-17-3.1-21.09-11.64
	c-2.051-4.28-2.96-8.86-2.83-13.56c0.18-6.86,1.949-13.28,6.779-18.44c3.04-3.24,6.87-5.08,11.29-5.76
	c10.04-1.56,19.239,4.03,22.61,13.76c0.579,1.66,1.09,3.35,1.369,5.08c0.32,1.92,0.641,3.86,0.561,5.83
	C403.527,69.923,402.468,75.173,399.497,79.913z"/>
<path fill="#FFFFFF" d="M452.117,0c0,5.024,0.001,9.736,0,14.448c0,2.76,0.025,5.52-0.019,8.279
	c-0.014,0.893,0.296,1.188,1.183,1.179c3.919-0.035,7.839,0.01,11.758-0.037c0.859-0.01,1.08,0.259,1.075,1.085
	c-0.031,5.439-0.034,10.879,0.001,16.318c0.006,0.855-0.266,1.069-1.094,1.06c-3.838-0.042-7.68,0.019-11.518-0.045
	c-1.097-0.018-1.416,0.276-1.414,1.401c0.036,19.078,0.026,38.156,0.027,57.234c0,1.586,0.002,1.589-1.555,1.589
	c-5.72,0.001-11.438-0.022-17.156,0.021c-1.053,0.009-1.354-0.292-1.354-1.354c0.029-25.558,0.025-51.114,0.012-76.672
	c0-0.764,0.194-1.343,0.705-1.938c6.174-7.229,12.316-14.482,18.473-21.728C451.441,0.607,451.686,0.413,452.117,0z"/>
<path fill="#FFFFFF" d="M14.256,0.174c1.476,1.714,2.96,3.42,4.425,5.143c4.916,5.781,9.818,11.574,14.749,17.343
	c0.452,0.528,0.619,1.053,0.618,1.731c-0.013,25.598-0.018,51.194,0.012,76.792c0.001,1.067-0.308,1.359-1.356,1.352
	c-5.799-0.045-11.599-0.047-17.397,0.002c-1.082,0.008-1.332-0.348-1.33-1.379c0.029-19.119,0.01-38.236,0.053-57.354
	c0.003-1.244-0.348-1.542-1.545-1.518c-3.798,0.076-7.599,0.005-11.398,0.05C0.247,42.344-0.005,42.115,0,41.27
	c0.034-5.439,0.033-10.879,0-16.318c-0.005-0.832,0.225-1.092,1.078-1.082c3.879,0.045,7.759-0.008,11.639,0.042
	c1.007,0.013,1.305-0.319,1.301-1.309c-0.035-7.119-0.021-14.238-0.023-21.357c0-0.312,0-0.623,0-0.935
	C14.082,0.266,14.169,0.22,14.256,0.174z"/>
<path fill="#FFFFFF" d="M207.437,79.571c0-7.159-0.131-14.32,0.035-21.477c0.185-7.958,1.661-15.619,6.201-22.412
	c4.423-6.619,10.406-11.1,17.999-13.524c5.496-1.755,11.127-2.41,16.854-2.476c1.235-0.014,2.474,0.095,3.711,0.131
	c0.687,0.02,0.994,0.314,0.992,1.035c-0.016,5.639-0.019,11.278,0.004,16.917c0.005,1.027-0.668,0.887-1.305,0.906
	c-4.154,0.127-8.178,0.894-11.932,2.725c-6.783,3.311-10.601,8.857-11.989,16.183c-0.479,2.525-0.54,5.079-0.537,7.641
	c0.013,12.118-0.005,24.236,0.026,36.354c0.002,0.969-0.218,1.309-1.246,1.301c-5.879-0.047-11.758-0.042-17.637-0.004
	c-0.954,0.007-1.206-0.275-1.2-1.227C207.455,94.289,207.437,86.93,207.437,79.571z"/>
<path fill="#808080" d="M327.634,146.92c0.411-0.535,0.266-0.988,0.267-1.406c0.012-3.438,0.033-6.879-0.015-10.316
	c-0.013-0.888,0.229-1.233,1.141-1.163c0.915,0.068,1.839,0.035,2.759,0.011c0.611-0.017,0.838,0.218,0.837,0.847
	c-0.019,7.118-0.019,14.236-0.007,21.354c0.001,0.632-0.246,0.881-0.854,0.817c-0.04-0.004-0.08,0-0.119,0
	c-3.239,0.117-3.19,0.088-5.246-3.258c-2.027-3.299-4.168-6.528-6.265-9.787c-0.037-0.059-0.131-0.082-0.216-0.132
	c-0.483,0.306-0.256,0.791-0.258,1.188c-0.018,3.639-0.03,7.278,0.008,10.917c0.009,0.835-0.245,1.162-1.09,1.082
	c-1.146-0.107-2.614,0.471-3.366-0.223c-0.771-0.713-0.246-2.197-0.252-3.341c-0.027-6.078,0.006-12.157-0.032-18.235
	c-0.006-0.916,0.192-1.254,1.182-1.25c3.191,0.016,3.157-0.004,4.867,2.726c2.016,3.213,4.097,6.386,6.153,9.571
	C327.252,146.514,327.425,146.676,327.634,146.92z"/>
<path fill="#808080" d="M194.574,144.007c0,1.956,0,3.897,0,5.839c0,2-0.033,3.999,0.016,5.997c0.021,0.907-0.221,1.255-1.211,1.246
	c-3.438-0.031-3.438,0.008-3.438-3.441c0-6.036,0.025-12.073-0.023-18.109c-0.009-1.105,0.254-1.426,1.431-1.549
	c2.092-0.219,3.216,0.597,4.243,2.369c1.998,3.449,4.275,6.737,6.433,10.096c0.152,0.236,0.281,0.577,0.584,0.521
	c0.441-0.078,0.289-0.508,0.29-0.797c0.009-3.638,0.032-7.275-0.017-10.914c-0.013-0.945,0.277-1.237,1.227-1.237
	c3.427,0.001,3.427-0.032,3.427,3.333c0,6.117-0.019,12.233,0.021,18.352c0.006,1.008-0.25,1.285-1.316,1.407
	c-2.16,0.249-3.358-0.583-4.424-2.438c-1.986-3.455-4.268-6.74-6.427-10.096C195.22,144.323,195.083,144.019,194.574,144.007z"/>
<path fill="#808080" d="M231.527,141.223c-0.48-4.368-3.41-7.1-7.81-7.17c-2.56-0.028-5.12,0.03-7.68-0.02
	c-0.89-0.021-1.17,0.239-1.16,1.149c0.05,3.439,0.02,6.881,0.02,10.319c0,3.479,0.03,6.95-0.02,10.431
	c-0.01,0.899,0.25,1.189,1.16,1.149c1.52-0.07,3.04,0.01,4.56-0.03c1.9-0.05,3.82,0.221,5.7-0.449c2.76-0.979,4.53-2.859,5.03-5.721
	C231.888,147.692,231.888,144.453,231.527,141.223z M226.837,149.403c-0.46,2.438-1.99,3.648-4.48,3.479
	c-0.24-0.02-0.47-0.05-0.71-0.06c-2.21-0.07-2.21-0.07-2.21-2.24c0-3.71,0.03-7.43-0.02-11.14c-0.01-0.98,0.27-1.42,1.29-1.312
	c0.59,0.062,1.2,0,1.79,0.011c2.82,0.021,4.37,1.511,4.49,4.319c0.04,1,0,2,0,3C226.998,146.772,227.078,148.093,226.837,149.403z"
	/>
<path fill="#808080" d="M308.327,143.783c-0.159-1.851-0.04-3.761-0.931-5.48c-2.13-4.09-6.449-5.27-10.56-3.97
	c-3.189,1-5.12,3.32-5.359,6.65c-0.221,2.979-0.15,5.988-0.011,8.979c0.091,2.141,1.06,3.932,2.771,5.352
	c1.899,1.568,4.05,1.75,6.38,1.83c2.83,0.1,6.521-2.74,7.17-5.392c0.521-2.08,0.46-4.18,0.551-6.29
	C308.338,144.903,308.378,144.343,308.327,143.783z M303.407,150.063c-0.33,1.869-1.881,3.039-3.891,2.938
	c-1.84-0.09-3.199-1.39-3.369-3.25c-0.07-0.71-0.16-1.42-0.2-2.13c-0.029-0.72,0-1.439,0-2.16c-0.021-1.479-0.011-2.95,0.21-4.42
	c0.271-1.79,1.761-3.08,3.689-3.09c1.729,0,3.28,1.3,3.551,2.96C303.907,143.963,303.947,147.013,303.407,150.063z"/>
<path fill="#808080" d="M159.328,145.453c0-1.12-0.03-2.24,0.01-3.351c0.04-1.149-0.25-2.229-0.64-3.271
	c-1.311-3.5-5.04-5.45-9.17-4.91c-3.5,0.45-6.73,3.21-6.99,7.19c-0.17,2.55-0.12,5.1-0.09,7.648c0.02,1.631,0.24,3.28,1.22,4.69
	c1.88,2.729,4.49,3.69,7.79,3.72c3.32,0.021,7.17-3.04,7.66-6.35C159.377,149.033,159.348,147.243,159.328,145.453z
	 M154.558,149.903c-0.19,1.66-1.61,2.99-3.29,3.1c-2.03,0.141-3.52-0.88-3.94-2.71c-0.14-0.62-0.3-1.24-0.33-1.88
	c-0.06-0.99-0.02-1.99-0.02-2.62c-0.04-1.93-0.05-3.479,0.33-5.01c0.43-1.75,1.95-2.92,3.78-2.83c1.73,0.09,3.28,1.53,3.48,3.229
	C154.908,144.093,154.888,146.993,154.558,149.903z"/>
<path fill="#808080" d="M182.778,142.313c0,2.238,0,4.478,0,6.716c0.001,4.754-3.817,8.128-8.105,8.12
	c-3.062-0.006-5.571-0.85-7.437-3.288c-1.049-1.373-1.474-3.015-1.487-4.718c-0.036-4.597,0.01-9.193-0.031-13.791
	c-0.009-0.968,0.247-1.41,1.274-1.318c0.753,0.066,1.525,0.078,2.276-0.002c1.007-0.108,1.183,0.337,1.175,1.238
	c-0.041,4.598-0.036,9.193-0.011,13.791c0.009,1.53,0.541,2.908,2.028,3.52c1.401,0.576,2.904,0.616,4.215-0.37
	c1.074-0.808,1.422-1.968,1.42-3.272c-0.008-4.559,0.021-9.114-0.022-13.672c-0.008-0.91,0.18-1.342,1.18-1.233
	c0.751,0.08,1.522,0.069,2.275,0.002c1.034-0.095,1.292,0.362,1.269,1.325C182.74,137.676,182.778,139.995,182.778,142.313z"/>
<path fill="#808080" d="M255.697,156.083c-2.421-6.61-4.819-13.229-7.261-19.83c-0.819-2.229-0.859-2.17-3.25-2.229
	c-0.899-0.021-1.369,0.25-1.67,1.108c-2.449,6.851-4.93,13.69-7.399,20.54c-0.511,1.391-0.511,1.4,0.989,1.391
	c1.07-0.011,2.352,0.311,3.17-0.159c0.892-0.511,0.91-1.94,1.25-2.99c0.23-0.7,0.61-1.03,1.4-1c1.6,0.05,3.2,0.021,4.79,0.021
	c2.05,0,2.05,0,2.72,1.961c0.74,2.17,0.74,2.17,2.971,2.17c0.521,0,1.04-0.03,1.561,0.01
	C255.787,157.144,255.968,156.803,255.697,156.083z M247.638,148.983c-1.199-0.012-2.399-0.012-3.59,0
	c-0.49,0-0.83-0.19-0.641-0.711c0.811-2.239,1.449-4.529,2.58-7.029c0.82,2.52,1.51,4.71,2.25,6.87
	C248.468,148.783,248.298,148.993,247.638,148.983z"/>
<path fill="#808080" d="M121.985,145.492c0-3.438,0.03-6.877-0.021-10.314c-0.013-0.911,0.278-1.155,1.16-1.146
	c4.277,0.039,8.556,0.039,12.833,0c0.938-0.009,1.261,0.282,1.24,1.235c-0.077,3.381,0.381,2.971-2.904,2.985
	c-2.119,0.01-4.239,0.051-6.355-0.021c-1.031-0.035-1.335,0.339-1.263,1.312c0.071,0.955,0.072,1.922,0,2.877
	c-0.071,0.938,0.241,1.272,1.205,1.246c2.157-0.062,4.319,0.024,6.476-0.039c0.962-0.028,1.218,0.285,1.205,1.229
	c-0.043,2.996-0.004,2.996-2.945,2.996c-1.599,0-3.2,0.045-4.797-0.02c-0.92-0.035-1.162,0.321-1.144,1.188
	c0.047,2.317-0.011,4.639,0.033,6.955c0.016,0.817-0.212,1.177-1.076,1.098c-1.147-0.105-2.613,0.463-3.371-0.215
	c-0.784-0.699-0.242-2.19-0.26-3.332C121.957,150.851,121.985,148.17,121.985,145.492z"/>
<path fill="#808080" d="M263.532,147.601c0-2.721-0.037-5.44,0.02-8.16c0.021-0.961-0.295-1.265-1.236-1.205
	c-1.195,0.074-2.399,0.002-3.6,0.025c-0.75,0.016-1.064-0.287-1.109-1.058c-0.178-3.157-0.194-3.156,2.969-3.156
	c4.119,0,8.24,0.032,12.359-0.021c0.98-0.014,1.203,0.305,1.191,1.231c-0.041,2.996-0.005,2.996-2.946,2.996
	c-2.962-0.001-2.962-0.001-2.962,2.954c0,4.84-0.025,9.68,0.021,14.52c0.01,1.049-0.29,1.466-1.36,1.354
	c-0.752-0.08-1.522-0.071-2.276-0.002c-0.856,0.08-1.1-0.249-1.086-1.079C263.558,153.2,263.531,150.399,263.532,147.601z"/>
<path fill="#808080" d="M279.905,145.454c-0.001-3.436,0.021-6.872-0.019-10.307c-0.01-0.817,0.197-1.183,1.064-1.109
	c1.147,0.097,2.61-0.458,3.375,0.211c0.792,0.691,0.264,2.184,0.27,3.32c0.027,6.07-0.006,12.145,0.031,18.217
	c0.006,0.956-0.202,1.402-1.246,1.294c-0.79-0.083-1.6-0.063-2.396-0.003c-0.832,0.062-1.107-0.231-1.099-1.076
	C279.928,152.485,279.905,148.97,279.905,145.454z"/>
</svg>
