<?xml version="1.0" encoding="utf-8"?>
<!-- Generator: Adobe Illustrator 16.0.3, SVG Export Plug-In . SVG Version: 6.00 Build 0)  -->
<!DOCTYPE svg PUBLIC "-//W3C//DTD SVG 1.1//EN" "http://www.w3.org/Graphics/SVG/1.1/DTD/svg11.dtd">
<svg version="1.1" id="Layer_1" xmlns="http://www.w3.org/2000/svg" xmlns:xlink="http://www.w3.org/1999/xlink" x="0px" y="0px"
	 width="433.778px" height="56.296px" viewBox="0 0 433.778 56.296" enable-background="new 0 0 433.778 56.296"
	 xml:space="preserve">
<path d="M0,21.472c0.396-0.602,0.623-1.11,0.991-1.479c6.36-6.389,12.732-12.765,19.113-19.129c1.171-1.167,1.893-1.134,3.072,0.043
	c3.315,3.304,6.625,6.618,9.938,9.928c1.642,1.64,1.922,1.65,3.527,0.051c3.244-3.236,6.478-6.481,9.721-9.72
	c1.545-1.543,2.117-1.546,3.613-0.051c6.124,6.125,12.248,12.251,18.37,18.377c1.704,1.705,1.651,2.25-0.047,3.949
	C57.753,33.974,47.23,44.529,36.703,55.08c-1.622,1.625-2.003,1.633-3.67-0.035C22.468,44.46,11.902,33.876,1.35,23.278
	C0.845,22.771,0.48,22.124,0,21.472z M34.898,48.05c0.562-0.424,1.12-0.746,1.564-1.188c3.575-3.55,7.135-7.115,10.689-10.688
	c1.188-1.189,1.213-1.674,0.01-2.891c-3.65-3.688-7.338-7.339-10.994-11.021c-0.832-0.84-1.603-0.928-2.463-0.063
	c-3.734,3.748-7.472,7.488-11.22,11.221c-0.946,0.943-0.906,1.767,0.047,2.705c3.654,3.613,7.268,7.268,10.914,10.889
	C33.824,47.39,34.321,47.642,34.898,48.05z M30.592,16.917c-0.147-0.268-0.179-0.372-0.246-0.438
	c-1.77-1.787-3.522-3.591-5.318-5.353c-3.597-3.529-2.953-3.897-6.787-0.04c-3.015,3.031-6.04,6.052-9.064,9.076
	c-0.708,0.709-1.151,1.434-0.259,2.322c2.315,2.309,4.622,4.624,6.939,6.932c0.734,0.732,1.497,0.754,2.242,0.008
	C22.257,25.266,26.41,21.104,30.592,16.917z M39.139,16.749c0.296,0.355,0.413,0.519,0.553,0.658
	c3.875,3.883,7.749,7.764,11.626,11.639c0.802,0.805,1.589,1.424,2.67,0.312c2.175-2.234,4.396-4.428,6.61-6.624
	c0.889-0.885,0.883-1.726,0-2.606c-3.704-3.696-7.405-7.394-11.092-11.106c-0.833-0.838-1.678-0.893-2.5-0.086
	C44.39,11.503,41.803,14.098,39.139,16.749z"/>
<g>
	<path d="M86.375,3.308c-0.438-0.95,0.146-1.899,1.242-1.899h7.453c0.658,0,1.096,0.438,1.242,0.803l14.028,31.42h0.512
		l14.029-31.42c0.146-0.364,0.584-0.803,1.242-0.803h7.453c1.096,0,1.68,0.95,1.242,1.899l-22.65,49.173
		c-0.22,0.438-0.584,0.806-1.242,0.806h-0.729c-0.658,0-1.022-0.365-1.242-0.806L86.375,3.308z"/>
	<path d="M151.691,2.797c0-0.731,0.657-1.388,1.389-1.388h6.941c0.804,0,1.388,0.657,1.388,1.388v29.882
		c0,6.213,4.238,11.107,10.595,11.107s10.668-4.896,10.668-11.033V2.797c0-0.731,0.584-1.388,1.389-1.388h6.94
		c0.731,0,1.389,0.657,1.389,1.388v30.396c0,11.105-8.841,20.094-20.386,20.094c-11.472,0-20.312-8.988-20.312-20.094L151.691,2.797
		L151.691,2.797z"/>
	<path d="M215.91,2.797c0-0.731,0.585-1.388,1.389-1.388h6.723c0.73,0,1.389,0.657,1.389,1.388v40.99h18.631
		c0.805,0,1.389,0.658,1.389,1.389v5.992c0,0.729-0.584,1.387-1.389,1.387H217.3c-0.804,0-1.389-0.656-1.389-1.387L215.91,2.797
		L215.91,2.797z"/>
	<path d="M262.305,2.797c0-0.731,0.658-1.388,1.388-1.388h6.94c0.806,0,1.39,0.657,1.39,1.388v29.882
		c0,6.213,4.237,11.107,10.595,11.107c6.356,0,10.67-4.896,10.67-11.033V2.797c0-0.731,0.582-1.388,1.387-1.388h6.941
		c0.73,0,1.389,0.657,1.389,1.388v30.396c0,11.105-8.84,20.094-20.387,20.094c-11.472,0-20.312-8.988-20.312-20.094V2.797
		L262.305,2.797z"/>
	<path d="M331.858,1.773c0.072-0.584,0.512-1.096,1.312-1.096h1.17c0.584,0,1.023,0.293,1.242,0.731l16.076,34.487
		c0.145,0,0.145,0,0.217,0l16.076-34.487c0.219-0.438,0.584-0.731,1.242-0.731h1.168c0.805,0,1.242,0.511,1.314,1.096l8.621,49.102
		c0.223,1.022-0.365,1.68-1.312,1.68h-6.65c-0.656,0-1.242-0.584-1.387-1.096l-4.312-27.692c-0.072,0-0.221,0-0.221,0
		l-12.785,28.716c-0.146,0.439-0.584,0.805-1.242,0.805h-1.314c-0.656,0-1.021-0.365-1.242-0.805l-12.932-28.716
		c0,0-0.146,0-0.221,0l-4.236,27.692c-0.074,0.512-0.658,1.096-1.316,1.096h-6.576c-0.949,0-1.533-0.656-1.387-1.68L331.858,1.773z"
		/>
	<path d="M401.262,2.797c0-0.731,0.586-1.388,1.391-1.388h29.736c0.805,0,1.391,0.657,1.391,1.388v5.99
		c0,0.731-0.586,1.389-1.391,1.389h-21.627v11.983h18.049c0.729,0,1.389,0.656,1.389,1.389v6.065c0,0.803-0.66,1.387-1.389,1.387
		h-18.049v12.787h21.627c0.805,0,1.391,0.658,1.391,1.389v5.992c0,0.729-0.586,1.387-1.391,1.387h-29.736
		c-0.805,0-1.391-0.656-1.391-1.387V2.797z"/>
</g>
</svg>
