<?xml version="1.0" encoding="utf-8"?>
<!-- Generator: Adobe Illustrator 19.1.0, SVG Export Plug-In . SVG Version: 6.00 Build 0)  -->
<svg version="1.1" id="Layer_1" xmlns="http://www.w3.org/2000/svg" xmlns:xlink="http://www.w3.org/1999/xlink" x="0px" y="0px"
	 viewBox="0 0 612 792" style="enable-background:new 0 0 612 792;" xml:space="preserve">
<style type="text/css">
	.st0{fill:#4D4D4D;}
</style>
<g id="_x30_rujuv_1_">
	<g>
		<path class="st0" d="M56.9,456.5c0-3.4,0-6.8,0-10.3c100,0,199.6,0,299.5,0c0,3.6,0,7,0,10.3C256.5,456.5,156.7,456.5,56.9,456.5z
			"/>
		<path class="st0" d="M356.3,102.5c0,3.4,0,6.8,0,10.4c-99.7,0-199.3,0-299.5,0c0-3.4,0-6.9,0-10.4
			C156.7,102.5,256.5,102.5,356.3,102.5z"/>
		<path class="st0" d="M56.2,299.3c3.8-8.7,7.6-17.4,11.4-26.1c1.8-4.1,3.7-8.2,5.3-12.3c0.8-2.2,2.3-2.2,3.9-1.9
			c2,0.4,4.6-1.5,5.9,1.5c5.4,12.8,10.8,25.6,16.3,38.4c0.1,0.2,0,0.4,0,1c-2.5,0-4.9,0.2-7.3-0.1c-0.9-0.1-2.1-1.5-2.3-2.5
			c-1.2-5.6-4.6-7.6-10.1-6.6c-0.6,0.1-1.2,0.1-1.8,0c-5.9-0.9-10.3,0.4-11.5,7.2c-0.1,0.8-1.9,1.7-3.1,1.9
			c-2.2,0.3-4.5,0.2-6.7,0.2C56.2,299.8,56.2,299.6,56.2,299.3z M83.2,282.7c-1.8-4.5-3.4-8.4-5.3-13.3c-2,4.9-3.7,8.9-5.5,13.3
			C76,282.7,79.3,282.7,83.2,282.7z"/>
		<path class="st0" d="M57.1,341.9c0-3.5,0-6.8,0-10.3c99.7,0,199.4,0,299.2,0c0,3.4,0,6.7,0,10.3
			C256.5,341.9,156.9,341.9,57.1,341.9z"/>
		<path class="st0" d="M356.4,217.4c0,3.4,0,6.6,0,10.2c-99.6,0-199.3,0-299.2,0c0-3.2,0-6.5,0-10.2
			C156.8,217.4,256.5,217.4,356.4,217.4z"/>
		<path class="st0" d="M87.6,160.7c-2.8,8.2-5.6,15.6-7.9,23.1c-0.9,3-2.4,3.9-5.5,3.9c-3.1,0.1-4.2-1.2-5.1-3.9
			c-4-12.3-8.2-24.5-12.4-37.1c3.1,0,6,0,9.3,0c2.7,8.6,5.5,17.5,8.3,26.4c0.2,0,0.5,0,0.7,0c2.5-7.5,4.9-15,7.3-22.5
			c1.3-4,4.1-5.5,8.2-4.1c0.8,0.3,1.4,1.4,1.7,2.3c2.4,7,4.7,14.1,7,21.1c0.3,1.1,0.7,2.1,1.4,4.1c1.8-5.6,3.3-10.4,4.8-15.1
			c0.5-1.6,1-3.1,1.5-4.7c2.5-8.2,2.5-8.2,11.5-7.6c-1.2,3.4-2.3,6.7-3.4,9.9c-3.1,9.4-6.4,18.7-9.3,28.2c-0.9,2.8-2.5,2.9-4.7,2.8
			c-2.2-0.1-4.2,0.5-5.2-2.7C93.4,177,90.6,169.3,87.6,160.7z"/>
		<path class="st0" d="M156.4,391.5c2.9-4.6,5.7-8.7,8-13c1.8-3.3,4-5,7.8-4.3c1.2,0.2,2.6,0,4.2,0c0,13.5,0,26.9,0,40.6
			c-2.6,0-5.2,0-8.3,0c0-8.4,0-16.8,0-25.1c-0.3-0.1-0.6-0.2-0.9-0.3c-3.5,5.3-7.1,10.6-10.9,16.4c-3.8-5.6-7.3-10.9-11.5-17.1
			c0,9.3,0,17.6,0,26.1c-3,0-5.6,0-8.5,0c0-13.4,0-26.8,0-40.6c2.6,0,5.2-0.2,7.7,0.1c1,0.1,2.2,1.1,2.8,2.1
			C150.1,381.2,153.1,386.1,156.4,391.5z"/>
		<path class="st0" d="M144.4,299.6c-5.1,1.5-8.2-0.4-10.9-4.4c-4.1-6-8.8-11.7-13.2-17.5c-0.7-1-1.5-1.9-3-2.6c0,8.2,0,16.3,0,24.7
			c-2.9,0-5.5,0-8.4,0c0-13.4,0-26.7,0-40.1c5.7-1.6,7.5-1,10.9,3.5c4.6,6,9.1,12,13.7,18c0.6,0.8,1.3,1.5,2.5,3
			c0-8.8,0-16.7,0-24.8c2.9,0,5.5,0,8.3,0C144.4,272.7,144.4,286.1,144.4,299.6z"/>
		<path class="st0" d="M281.6,389.3c0,9,0,17.2,0,25.6c-3.1,0-5.8,0-8.6,0c0-13.5,0-26.8,0-40.1c5.8-1.6,7.7-1,11.1,3.4
			c4.7,6.2,9.4,12.4,14.1,18.6c0.5,0.6,1,1.1,2,2.3c0-8.6,0-16.4,0-24.5c2.9,0,5.6,0,8.5,0c0,13.3,0,26.7,0,40.2
			c-4.2,0.9-7.5,0.7-10.3-3.5c-4.4-6.7-9.6-12.8-14.5-19.2C283.5,391.3,282.8,390.7,281.6,389.3z"/>
		<path class="st0" d="M325.8,173c3.1,4.6,6.2,9.2,9.7,14.3c-3.5,0-6.3,0.1-9-0.1c-0.8-0.1-1.8-0.9-2.4-1.7
			c-1.7-2.3-3.5-4.5-4.7-7.1c-2.1-4.2-5.3-5.2-10-3.8c0,4,0,8.2,0,12.5c-3.2,0-5.8,0-8.7,0c0-13.5,0-26.9,0-40.2
			c7.7,0,15.3-0.5,22.9,0.2c6.1,0.5,9.8,4.8,10.8,10.1c1.1,6.2-1.3,11.3-6.8,14.6C327,172.2,326.5,172.6,325.8,173z M309.6,154.8
			c0,4.1,0,7.7,0,11.5c3.6,0,7,0.2,10.4,0c3.4-0.2,5.4-2.5,5.4-5.8c0-3.2-1.8-5.4-5.1-5.6C316.8,154.6,313.3,154.8,309.6,154.8z"/>
		<path class="st0" d="M156.5,258.7c7.3,0.4,14.6,0.1,21.6,1.2c10,1.7,16,10.1,15.6,20.5c-0.3,9.7-7.1,17.7-16.9,18.8
			c-6.6,0.7-13.3,0.1-20.3,0.1C156.5,286.2,156.5,272.8,156.5,258.7z M165.3,291.9c6.9,0.2,13.5,1,17.6-5.8
			c2.6-4.3,2.1-10.8-1.1-14.6c-4.5-5.4-10.5-4.5-16.6-4.3C165.3,275.6,165.3,283.5,165.3,291.9z"/>
		<path class="st0" d="M289.1,146.7c0,2.8,0,5,0,7.7c-7.3,0-14.4,0-21.7,0c0,2.9,0,5.4,0,8.2c6.4,0,12.6,0,19.1,0c0,2.8,0,5.2,0,8
			c-6.4,0-12.6,0-19,0c0,3,0,5.6,0,8.7c7.3,0,14.5,0,22,0c0,2.7,0,5,0,7.6c-10.1,0-20.3,0-30.7,0c0-13.4,0-26.8,0-40.3
			C269,146.7,279,146.7,289.1,146.7z"/>
		<path class="st0" d="M231.8,163.9c5.6,7.6,11.2,15.2,17.3,23.4c-3.7,0-6.7,0.2-9.7-0.1c-0.9-0.1-1.9-1.2-2.5-2.1
			c-3.7-4.9-7.2-9.9-10.8-14.8c-7.8,3.7-4.1,10.9-5.4,16.8c-2.8,0-5.5,0-8.5,0c0-13.5,0-26.7,0-40.3c2.7,0,5.5,0,8.7,0
			c0,5.5,0,11,0,17.7c4.7-5,8.8-9,12.4-13.4c2.8-3.5,6-5.4,10.5-4.6c1.1,0.2,2.3,0,4.5,0C242.6,152.6,237.3,158.1,231.8,163.9z"/>
		<path class="st0" d="M220.6,414.8c2.5-5.9,4.8-11.3,7.1-16.7c3.1-7.4,6.3-14.7,9.3-22.1c0.8-2,2-2.5,3.8-2.2
			c2.1,0.4,4.8-1.4,6.2,1.8c5.5,12.9,10.9,25.7,16.7,39.4c-3.1,0-5.7,0.3-8.3-0.1c-0.9-0.2-1.8-1.9-2.3-3.1c-3.2-7.2-0.9-5.9-9-6.1
			c-0.7,0-1.4,0.1-2.1,0c-6.1-1.1-10.5,0.5-11.7,7.3c-0.1,0.8-1.5,1.7-2.4,1.9c-1.3,0.3-2.8,0.1-4.2,0.1
			C222.9,415.1,222.1,415,220.6,414.8z M242.1,384.6c-2,4.8-3.7,8.9-5.5,13.2c3.9,0,7.1,0,10.9,0C245.7,393.4,244,389.3,242.1,384.6
			z"/>
		<path class="st0" d="M197.1,403.2c0,3.9,0,7.7,0,11.7c-3,0-5.7,0-8.6,0c0-13.5,0-26.9,0-40.3c7.1,0,14-0.5,20.9,0.2
			c6.6,0.7,10.8,6.1,11.1,12.7c0.3,7.1-3.3,12.7-10.1,14.3C206.2,402.7,201.9,402.7,197.1,403.2z M197.3,395.2
			c3.6-0.3,6.8-0.3,9.8-0.9c3-0.6,4.3-2.9,4.2-6.1c-0.1-3-1.6-5-4.5-5.4c-3.1-0.5-6.2-0.5-9.6-0.7
			C197.3,386.6,197.3,390.5,197.3,395.2z"/>
		<path class="st0" d="M161.8,187.1c-1,0.1-1.5,0.2-1.9,0.2c-7.1,0.2-7.2,0.2-9.8-6.3c-0.9-2.3-2-3-4.4-2.9c-3.9,0.2-7.8,0.2-11.7,0
			c-2-0.1-3.2,0.5-3.6,2.4c0,0.1-0.1,0.2-0.1,0.3c-2.9,6.9-2.9,6.9-11.2,6.2c0.3-0.9,0.4-1.8,0.8-2.6c5-11.8,10.1-23.6,14.9-35.5
			c1.1-2.8,2.9-2.9,5.2-2.8c2.3,0.1,4.3-0.3,5.6,2.8C150.7,161.7,156.2,174.2,161.8,187.1z M140.2,156.9c-2,5-3.7,9-5.4,13.3
			c3.7,0,7,0,10.8,0C143.8,165.9,142.2,161.9,140.2,156.9z"/>
		<path class="st0" d="M95.1,379.9c-1.7,2-3.5,4.1-5.2,6.1c-9.8-5.5-15.6-5.4-20,0.3c-3.8,4.9-3.5,12.8,0.6,17.3
			c4.7,5.2,10.8,5,19.5-0.6c0.6,0.5,1.2,1,1.8,1.6c1.2,1.1,2.5,2.2,3.6,3.1c-5,8.7-20.9,10.7-29.6,3.5c-9.3-7.7-10.4-22.3-2.2-31.2
			C71.6,371.4,87.2,371.2,95.1,379.9z"/>
		<path class="st0" d="M342.1,414.8c-3.1,0-5.9,0-9,0c0-4.3,0.2-8.4-0.1-12.4c-0.2-2.2-0.7-4.6-1.9-6.5c-4.2-7.1-8.7-14-13.5-21.6
			c3.5,0,6.4-0.2,9.2,0.1c0.9,0.1,1.8,1.3,2.4,2.2c2.8,4.5,5.5,9,8.5,14.1c2.7-4.5,5.2-8.3,7.3-12.3c1.7-3.3,3.8-4.7,7.5-4.2
			c1.4,0.2,2.8,0,4.8,0c-0.6,1.3-1,2.2-1.5,3c-3.8,6-7.8,11.8-11.3,17.9c-1.3,2.3-2,5.2-2.3,7.8
			C341.8,406.8,342.1,410.7,342.1,414.8z"/>
		<path class="st0" d="M172.4,146.6c3,0,5.5,0,8.5,0c0,10.8,0,21.4,0,32.5c7,0,13.5,0,20.3,0c0,2.8,0,5.3,0,7.9c-9.6,0-19,0-28.8,0
			C172.4,173.6,172.4,160.2,172.4,146.6z"/>
		<path class="st0" d="M114.2,407.7c-7.7,0-13.4-5.6-13.4-12.9c0-7.4,6.1-13.2,13.7-13.2c7.6,0.1,13.4,5.7,13.4,13.1
			C127.8,402.3,122.1,407.8,114.2,407.7z M108.4,394.7c0,3.7,2.6,6.4,6,6.5c3.4,0,6.1-2.8,6.1-6.4c0-3.5-2.7-6.4-6.1-6.4
			C110.8,388.3,108.4,390.9,108.4,394.7z"/>
	</g>
</g>
</svg>
