<?xml version="1.0" encoding="utf-8"?>
<!-- Generator: Adobe Illustrator 16.0.4, SVG Export Plug-In . SVG Version: 6.00 Build 0)  -->
<!DOCTYPE svg PUBLIC "-//W3C//DTD SVG 1.1//EN" "http://www.w3.org/Graphics/SVG/1.1/DTD/svg11.dtd">
<svg version="1.1" id="Layer_1" xmlns="http://www.w3.org/2000/svg" xmlns:xlink="http://www.w3.org/1999/xlink" x="0px" y="0px"
	 width="17px" height="10.954px" viewBox="-25.5 44.524 17 10.954" enable-background="new -25.5 44.524 17 10.954"
	 xml:space="preserve">
<g>
	<path fill="#FFFFFF" d="M-8.512,47.072c-0.008-0.026-0.021-0.05-0.038-0.073c-0.016-0.023-0.035-0.043-0.056-0.059
		c-0.021-0.016-0.045-0.028-0.069-0.036l-7.572-2.333l-0.029,0l-0.048-0.024c-0.033-0.01-0.066-0.018-0.097-0.021
		c-0.031-0.004-0.062-0.004-0.091-0.002c-0.029,0.002-0.059,0.008-0.085,0.015c-0.028,0.009-0.055,0.019-0.079,0.034
		c-1.761,0.961-3.521,1.923-5.28,2.885c-1.095,0.598-2.189,1.196-3.283,1.794c0.012-0.007,0.026-0.01,0.04-0.015
		c-0.078,0.029-0.144,0.087-0.193,0.173c-0.051,0.091-0.085,0.211-0.1,0.353c-0.015,0.143-0.009,0.309,0.019,0.493
		c0.027,0.183,0.074,0.364,0.135,0.536c0.062,0.173,0.137,0.336,0.222,0.481c0.085,0.146,0.182,0.277,0.282,0.383
		c0.101,0.106,0.208,0.188,0.316,0.237l0.047,0.016l0.03,0.021l7.66,3.528c0.025,0.012,0.048,0.019,0.07,0.019
		c0.021,0,0.041-0.006,0.056-0.015c0.015-0.01,0.027-0.025,0.035-0.043c-0.004,0.008-0.007,0.014-0.011,0.021
		c-0.005,0.007-0.011,0.013-0.018,0.018l8.043-5.982c0.007-0.006,0.014-0.011,0.02-0.019s0.01-0.016,0.015-0.024
		c0.004-0.01,0.008-0.02,0.01-0.03c0.002-0.01,0.004-0.021,0.004-0.034c0-0.025-0.004-0.05-0.012-0.075
		c-0.009-0.025-0.021-0.049-0.036-0.071c-0.016-0.022-0.034-0.042-0.055-0.058c-0.021-0.017-0.043-0.029-0.068-0.037L-8.81,49.1
		l0.038-1.302c0.001-0.042-0.031-0.076-0.072-0.077c0,0-0.001,0-0.002,0c-0.04,0-0.074,0.032-0.075,0.073l-0.04,1.341l-8.008,5.854
		l-3.456-1.573l-3.595-1.637l-0.57-0.26c-0.065-0.029-0.131-0.085-0.194-0.157c-0.063-0.073-0.125-0.165-0.18-0.269
		s-0.105-0.22-0.146-0.341c-0.041-0.12-0.072-0.249-0.091-0.374c-0.019-0.128-0.023-0.244-0.016-0.347
		c0.008-0.101,0.028-0.188,0.059-0.256c0.031-0.068,0.073-0.116,0.123-0.141c0.051-0.024,0.11-0.025,0.175,0.003l0.079,0.034
		l0.481,0.206l7.197,3.081l0.167,0.072c0.025,0.01,0.049,0.015,0.071,0.015c0.021-0.001,0.041-0.007,0.056-0.019
		c0,0,0,0-0.001,0.001c2.75-1.919,5.5-3.838,8.25-5.757c0.008-0.006,0.017-0.013,0.023-0.021c0.007-0.008,0.013-0.017,0.018-0.027
		c0.006-0.01,0.009-0.021,0.011-0.033c0.003-0.012,0.004-0.024,0.005-0.037C-8.5,47.124-8.504,47.097-8.512,47.072z M-16.609,55.384
		c-0.002,0.012-0.004,0.021-0.007,0.03c-0.001,0.002-0.001,0.002-0.001,0.003L-16.609,55.384z M-16.769,52.977
		c-0.005,0.011-0.01,0.02-0.017,0.028c-0.005,0.008-0.012,0.013-0.019,0.018C-16.789,53.011-16.777,52.996-16.769,52.977
		C-16.769,52.976-16.769,52.976-16.769,52.977z M-16.761,52.94c0,0.012-0.004,0.023-0.008,0.033c0.008-0.02,0.012-0.046,0.01-0.073
		C-16.758,52.914-16.759,52.928-16.761,52.94z"/>
	<g>
		<path fill="#FFFFFF" d="M-17,54.712c-0.041,0-0.075-0.034-0.075-0.075v-0.862c0-0.042,0.034-0.075,0.075-0.075
			s0.075,0.033,0.075,0.075v0.862C-16.925,54.678-16.959,54.712-17,54.712z"/>
	</g>
	<g>
		<path fill="#FFFFFF" d="M-17,53.536c-0.041,0-0.075-0.034-0.075-0.075v-0.09c0-0.041,0.034-0.074,0.075-0.074
			s0.075,0.033,0.075,0.074v0.09C-16.925,53.502-16.959,53.536-17,53.536z"/>
	</g>
</g>
</svg>
